<?xml version="1.0" encoding="UTF-8" standalone="no"?>
<!DOCTYPE svg PUBLIC "-//W3C//DTD SVG 1.1//EN" "http://www.w3.org/Graphics/SVG/1.1/DTD/svg11.dtd">
<!-- Created with Vectornator (http://vectornator.io/) -->
<svg height="100%" stroke-miterlimit="10" style="fill-rule:nonzero;clip-rule:evenodd;stroke-linecap:round;stroke-linejoin:round;" version="1.1" viewBox="0 0 1000 1000" width="100%" xml:space="preserve" xmlns="http://www.w3.org/2000/svg" xmlns:vectornator="http://vectornator.io" xmlns:xlink="http://www.w3.org/1999/xlink">
<defs/>
<g id="Layer-1" vectornator:layerName="Layer 1">
<g opacity="1" vectornator:layerName="Curve 1">
<path d="M898.094 57.7188C894.794 57.9761 892.097 59.3328 890.781 61.75C857.453 93.6602 828.018 129.214 797.406 163.656C785.841 176.668 773.993 189.41 761.906 201.938C705.027 260.895 647.853 319.544 590.875 378.406C567.554 402.498 544.229 426.572 521.094 450.844C507.426 465.183 493.793 479.584 480.406 494.188C473.164 502.088 465.985 510.036 458.812 518C455.427 521.76 451.984 525.47 448.656 529.281C437.27 542.322 426.206 555.656 414.844 568.719C393.841 592.863 372.679 616.881 351.469 640.844C340.626 653.094 329.828 665.379 318.875 677.531C303.562 694.521 287.546 710.862 271.281 726.938C241.28 756.59 210.203 785.123 179.938 814.5C156.571 837.181 133.703 860.419 112.188 884.875C100.577 898.072 89.4333 911.668 78.75 925.625C76.8515 931.724 82.9292 939.017 92.3125 941.938C101.696 944.858 110.852 942.287 112.75 936.188C123.035 923.46 133.688 911.066 144.812 899.062C196.171 843.642 254.663 795.567 309.875 744.156C322.817 732.106 335.601 719.891 348.062 707.344C356.628 698.719 365.015 689.888 373.438 681.125C387.633 666.356 401.803 651.551 416.062 636.844C432.312 620.083 448.568 603.363 465.031 586.812C473.11 578.69 481.285 570.642 489.406 562.562C493.057 558.93 496.772 555.336 500.344 551.625C516.448 534.894 532.493 518.124 548.281 501.094C564.741 483.339 580.92 465.33 597.125 447.344C622.331 419.366 647.435 391.284 672.438 363.125C703.388 328.267 734.286 293.356 765.062 258.344C780.119 241.215 795.27 224.153 810.156 206.875C846.952 164.166 878.954 117.47 917.719 76.4375C920.351 71.6032 916.437 64.3927 909 60.3438C905.281 58.3193 901.393 57.4614 898.094 57.7188Z" fill="#000000" stroke="none"/>
</g>
<g opacity="1" vectornator:layerName="Curve 2">
<path d="M631.094 555.094C627.383 554.896 623.256 555.536 619.125 557.094C608.109 561.249 601.362 570.433 604.062 577.594C603.74 606.816 601.281 636.017 597.094 664.938C595.293 677.373 593.264 689.77 591.156 702.156C590.04 708.713 588.762 715.288 588.062 721.906C587.646 725.849 587.402 729.79 587.219 733.75C587.151 735.223 586.991 736.743 587.062 738.219C587.27 742.489 587.903 746.719 588 751C588.166 758.274 587.763 765.528 587.25 772.781C586.732 780.098 585.859 787.386 584.906 794.656C584.025 801.386 583.109 808.126 581.938 814.812C579.007 831.54 575.131 848.105 570.844 864.531C571.503 872.045 581.408 877.327 592.969 876.312C604.529 875.298 613.347 868.389 612.688 860.875C616.621 850.942 620.439 840.96 623.969 830.875C626.647 823.224 629.119 815.51 631.656 807.812C633.895 801.022 636.136 794.215 638.219 787.375C641.619 776.205 644.872 765.003 648.094 753.781C649.979 747.215 651.904 740.617 654.031 734.125C655.303 730.245 656.826 726.429 657.938 722.5C658.696 719.818 659.163 716.99 659.656 714.25C660.328 710.515 660.981 706.785 661.312 703C661.819 697.228 661.873 691.414 661.875 685.625C661.878 675.201 661.303 664.792 660.438 654.406C657.846 623.323 652.217 592.596 643.938 562.531C642.25 558.056 637.278 555.423 631.094 555.094Z" fill="#000000" stroke="none"/>
</g>
</g>
</svg>
