<?xml version="1.0" encoding="UTF-8" standalone="no"?>
<!DOCTYPE svg PUBLIC "-//W3C//DTD SVG 1.1//EN" "http://www.w3.org/Graphics/SVG/1.1/DTD/svg11.dtd">
<!-- Created with Vectornator (http://vectornator.io/) -->
<svg height="100%" stroke-miterlimit="10" style="fill-rule:nonzero;clip-rule:evenodd;stroke-linecap:round;stroke-linejoin:round;" version="1.1" viewBox="0 0 1000 1000" width="100%" xml:space="preserve" xmlns="http://www.w3.org/2000/svg" xmlns:vectornator="http://vectornator.io" xmlns:xlink="http://www.w3.org/1999/xlink">
<defs/>
<g id="Layer-1" vectornator:layerName="Layer 1">
<g opacity="1" vectornator:layerName="Curve 1">
<path d="M508.031 45.875C505.948 45.9333 503.749 46.2918 501.531 46.9688C492.661 49.6766 486.896 56.5466 488.656 62.3125C487.135 103.839 485.158 145.34 483.125 186.844C480.696 236.443 478.216 286.053 475.875 335.656C474.365 367.64 472.923 399.626 471.781 431.625C471.075 451.417 470.39 471.226 470.188 491.031C470.078 501.747 470.195 512.473 470.344 523.188C470.403 527.448 470.505 531.709 470.594 535.969C470.652 538.77 470.641 541.576 470.781 544.375C471.645 561.64 472.953 578.861 473.844 596.125C474.45 607.868 475.145 619.629 475.688 631.375C476.259 643.738 476.672 656.1 477.094 668.469C477.848 690.592 478.362 712.713 478.875 734.844C479.295 752.94 479.752 771.058 480.062 789.156C480.965 841.746 481.595 894.318 482.562 946.906C484.475 953.166 493.838 955.879 503.469 952.938C513.1 949.996 519.35 942.541 517.438 936.281C518.049 903.263 518.814 870.235 519.531 837.219C519.977 816.734 520.334 796.234 520.844 775.75C521.406 753.174 522 730.608 522.531 708.031C523.124 682.804 523.731 657.572 524.281 632.344C524.577 618.763 524.792 605.174 525.125 591.594C525.46 577.934 526.004 564.301 526.719 550.656C527.01 545.09 527.314 539.534 527.625 533.969C527.783 531.142 527.972 528.298 528.062 525.469C528.62 508.111 528.907 490.741 529.031 473.375C529.16 455.359 528.799 437.326 528.594 419.312C528.172 382.226 527.474 345.146 526.844 308.062C525.395 222.872 523.892 137.649 520.781 52.5C519.461 48.1756 514.28 45.7001 508.031 45.875Z" fill="#000000" stroke="none"/>
</g>
</g>
</svg>
