<?xml version="1.0" encoding="UTF-8" standalone="no"?>
<!DOCTYPE svg PUBLIC "-//W3C//DTD SVG 1.1//EN" "http://www.w3.org/Graphics/SVG/1.1/DTD/svg11.dtd">
<!-- Created with Vectornator (http://vectornator.io/) -->
<svg height="100%" stroke-miterlimit="10" style="fill-rule:nonzero;clip-rule:evenodd;stroke-linecap:round;stroke-linejoin:round;" version="1.1" viewBox="0 0 1000 1000" width="100%" xml:space="preserve" xmlns="http://www.w3.org/2000/svg" xmlns:vectornator="http://vectornator.io" xmlns:xlink="http://www.w3.org/1999/xlink">
<defs/>
<g id="Layer-1" vectornator:layerName="Layer 1">
<g opacity="1" vectornator:layerName="Curve 1">
<path d="M508.031 45.875C505.948 45.9333 503.749 46.2918 501.531 46.9688C492.661 49.6766 486.896 56.5466 488.656 62.3125C485.359 140.398 480.667 218.423 476.562 296.469C475.037 325.474 473.579 354.48 472.375 383.5C471.684 400.149 470.964 416.837 470.719 433.5C470.585 442.619 470.652 451.726 470.75 460.844C470.814 466.815 470.848 472.814 471.062 478.781C471.257 484.185 471.67 489.572 472 494.969C472.583 504.515 473.168 514.071 473.625 523.625C474.748 547.081 475.5 570.54 476.531 594C477.365 612.969 478.371 631.945 478.25 650.938C478.025 686.401 474.647 721.727 472.406 757.094C470.934 780.336 470.054 803.584 470.469 826.875C472.368 833.135 481.713 835.859 491.344 832.938C500.975 830.016 507.243 822.572 505.344 816.312C506.474 770.843 512.905 725.783 517.531 680.594C519.413 662.21 521.102 643.814 521.844 625.344C522.386 611.838 522.309 598.324 522.594 584.812C523.022 564.454 523.651 544.094 524.531 523.75C524.992 513.097 525.462 502.42 526.188 491.781C526.63 485.282 527.081 478.809 527.562 472.312C527.828 468.733 528.188 465.146 528.375 461.562C528.691 455.508 528.799 449.404 528.969 443.344C529.224 434.207 529.473 425.078 529.562 415.938C529.719 400.024 529.425 384.099 529.219 368.188C528.811 336.675 528.095 305.163 527.406 273.656C525.793 199.925 523.905 126.185 520.781 52.5C519.461 48.1756 514.28 45.7001 508.031 45.875Z" fill="#000000" stroke="none"/>
</g>
<g opacity="1" vectornator:layerName="Curve 2">
<path d="M421.156 896.438C379.304 896.684 337.464 897.595 295.688 900.219C290.902 898.079 284.355 902.325 281.062 909.688C277.77 917.05 278.964 924.735 283.75 926.875C320.798 929.573 357.709 933.841 394.594 938.188C411.02 940.123 427.474 942.065 443.938 943.656C452.108 944.446 460.297 945.323 468.5 945.688C476.222 946.031 483.957 946.233 491.688 946.094C493.565 946.06 495.471 945.876 497.344 945.75C501.331 945.482 505.321 945.165 509.312 944.969C519.817 944.452 530.303 944.008 540.812 943.594C573.731 942.298 606.621 940.589 639.406 937.281C653.643 935.845 667.825 933.933 681.969 931.781C687.114 933.248 693.119 928.009 695.375 920.094C697.631 912.178 695.301 904.56 690.156 903.094C667.408 905.057 644.586 906.13 621.75 906.156C614.498 906.165 607.248 905.99 600 905.781C588.052 905.438 576.113 904.89 564.188 904.062C553.633 903.33 543.094 902.426 532.594 901.125C528.397 900.605 524.212 899.882 520.031 899.25C518.461 899.013 516.89 898.711 515.312 898.531C513.293 898.3 511.244 898.204 509.219 898.031C503.811 897.569 498.389 897.215 492.969 896.938C484.27 896.492 475.551 896.503 466.844 896.438C451.617 896.322 436.383 896.348 421.156 896.438Z" fill="#000000" stroke="none"/>
</g>
</g>
</svg>
