<?xml version="1.0" encoding="UTF-8" standalone="no"?>
<!DOCTYPE svg PUBLIC "-//W3C//DTD SVG 1.1//EN" "http://www.w3.org/Graphics/SVG/1.1/DTD/svg11.dtd">
<!-- Created with Vectornator (http://vectornator.io/) -->
<svg height="100%" stroke-miterlimit="10" style="fill-rule:nonzero;clip-rule:evenodd;stroke-linecap:round;stroke-linejoin:round;" version="1.1" viewBox="0 0 1000 1000" width="100%" xml:space="preserve" xmlns="http://www.w3.org/2000/svg" xmlns:vectornator="http://vectornator.io" xmlns:xlink="http://www.w3.org/1999/xlink">
<defs/>
<g id="Layer-1" vectornator:layerName="Layer 1">
<g opacity="1" vectornator:layerName="Curve 1">
<path d="M631.719 46.375C629.636 46.4333 627.405 46.7918 625.188 47.4688C616.317 50.1766 610.552 57.0466 612.312 62.8125C610.791 104.339 608.814 145.84 606.781 187.344C604.352 236.943 601.872 286.553 599.531 336.156C598.022 368.14 596.579 400.126 595.438 432.125C594.732 451.917 594.047 471.726 593.844 491.531C593.734 502.247 593.851 512.973 594 523.688C594.059 527.948 594.162 532.209 594.25 536.469C594.308 539.27 594.297 542.076 594.438 544.875C595.302 562.14 596.609 579.361 597.5 596.625C598.106 608.368 598.801 620.129 599.344 631.875C599.915 644.238 600.359 656.6 600.781 668.969C601.536 691.092 602.018 713.214 602.531 735.344C602.951 753.44 603.439 771.558 603.75 789.656C604.653 842.246 605.251 894.818 606.219 947.406C608.131 953.666 617.494 956.379 627.125 953.438C636.756 950.496 643.006 943.01 641.094 936.75C641.706 903.731 642.47 870.735 643.188 837.719C643.633 817.234 643.99 796.734 644.5 776.25C645.062 753.674 645.657 731.108 646.188 708.531C646.781 683.304 647.388 658.072 647.938 632.844C648.234 619.263 648.449 605.674 648.781 592.094C649.116 578.434 649.661 564.801 650.375 551.156C650.666 545.59 650.97 540.002 651.281 534.438C651.439 531.611 651.628 528.798 651.719 525.969C652.276 508.611 652.563 491.241 652.688 473.875C652.817 455.859 652.455 437.826 652.25 419.812C651.828 382.726 651.131 345.646 650.5 308.562C649.051 223.372 647.548 138.149 644.438 53C643.117 48.6756 637.967 46.2001 631.719 46.375Z" fill="#000000" stroke="none"/>
</g>
<g opacity="1" vectornator:layerName="Curve 2">
<path d="M389.344 120.5C387.26 120.562 385.061 120.913 382.844 121.594C373.973 124.319 368.229 131.203 370 136.969C368.536 162.016 367.377 187.087 366.344 212.156C365.194 240.052 364.147 267.976 362.406 295.844C361.157 315.843 359.631 335.802 357.719 355.75C356.683 366.562 355.463 377.35 354.375 388.156C353.793 393.938 353.331 399.744 352.812 405.531C352.555 408.406 352.325 411.281 352.062 414.156C351.931 415.601 351.745 417.051 351.656 418.5C351.489 421.231 351.484 423.987 351.344 426.719C351.258 428.389 351.036 430.031 350.812 431.688C349.141 444.062 346.382 456.405 347.031 468.969C347.575 479.488 350.487 490.008 359.312 496.562C365.46 501.128 373.134 502.759 380.625 503.375C393.434 504.427 406.238 502.52 418.969 501.344C423.956 500.883 428.999 500.843 434 500.594C442.553 500.167 451.074 499.693 459.625 499.219C479.173 498.135 498.797 497.075 518.375 497.969C524.399 498.244 530.386 498.808 536.375 499.5C541.513 502.648 549.594 498.779 554.438 490.875C559.281 482.971 559.044 474.023 553.906 470.875C537.612 468.067 521.177 466.793 504.656 466.375C483.338 465.835 462.004 466.515 440.688 465.875C430.742 465.577 420.82 466.545 410.875 466.375C407.975 466.325 405.054 466.193 402.188 465.719C400.895 465.505 399.334 465.25 398.219 464.5C397.957 464.324 397.501 463.774 397.438 463.469C397.386 463.221 396.972 462.499 396.844 462.125C396.48 461.067 396.288 459.956 396.188 458.844C395.727 453.765 396.78 448.606 397.938 443.688C399.199 438.325 400.833 433.041 402.562 427.812C403.796 424.084 405.097 420.364 406.094 416.562C407.019 413.033 407.871 409.452 408.594 405.875C409.518 401.302 410.141 396.647 410.812 392.031C411.336 388.433 411.861 384.834 412.25 381.219C414.3 362.157 414.719 342.942 414.562 323.781C414.429 307.343 413.846 290.945 412.969 274.531C410.339 225.326 405.388 176.257 402.125 127.094C400.797 122.769 395.595 120.314 389.344 120.5Z" fill="#000000" stroke="none"/>
</g>
<g opacity="1" vectornator:layerName="Curve 3">
<path d="M485.812 608.438C482.414 608.407 479.003 608.849 475.719 609.719C471.071 610.95 466.657 612.983 462.625 615.594C457.726 618.765 453.453 622.842 449.906 627.469C441.885 637.934 437.929 650.841 435.344 663.594C436.321 669.744 444.788 673.535 454.25 672.031C463.712 670.528 470.602 664.306 469.625 658.156C471.029 652.649 472.715 647.149 475.156 642C475.204 642.037 475.265 642.056 475.312 642.094C478.062 644.256 480.383 646.956 482.469 649.75C488.84 658.286 493.409 668.634 496.406 678.812C500.085 691.303 501.474 704.395 502.344 717.344C503.659 736.92 503.43 756.561 502.031 776.125C501.508 783.448 500.735 790.752 499.781 798.031C498.273 809.542 496.163 820.965 492.812 832.094C492.02 834.726 491.097 837.315 490.188 839.906C489.123 842.937 488.043 845.907 486.594 848.781C485.658 850.637 484.561 852.38 483.344 854.062C483.017 854.514 482.685 854.961 482.312 855.375C482.18 855.522 482.05 855.676 481.906 855.812C481.428 855.865 480.948 855.91 480.469 855.906C478.567 855.89 476.681 855.571 474.844 855.094C469.188 853.623 463.975 850.777 459.344 847.25C452.463 842.009 446.999 835.309 442.219 828.156C437.495 821.088 433.426 813.573 430.031 805.781C420.566 784.057 416.154 760.568 414.812 737C413.236 709.297 416.171 681.484 421.844 654.375C421.076 648.743 413.446 645.132 404.781 646.312C396.117 647.493 389.702 653.024 390.469 658.656C387.283 668.833 384.458 679.085 382.031 689.469C380.029 698.038 378.363 706.687 376.969 715.375C369.209 763.73 371.33 816.518 395.562 860.188C397.738 864.108 400.072 867.94 402.719 871.562C409.667 881.072 418.496 889.312 428.844 895C434.284 897.99 440.108 900.251 446.156 901.656C472.301 907.729 500.036 897.535 519.219 879.5C528.191 871.064 535.291 860.838 540.281 849.594C542.61 844.347 544.548 838.83 545.906 833.25C546.63 830.277 547.093 827.214 547.531 824.188C548.389 818.265 548.862 812.311 549.281 806.344C549.825 798.602 550.194 790.853 550.344 783.094C550.665 766.411 550.179 749.707 549.031 733.062C548.468 724.893 547.785 716.725 546.812 708.594C545.187 694.999 543.011 681.362 539.094 668.219C536.439 659.309 532.892 650.555 528.469 642.375C527.064 639.778 525.576 637.227 523.969 634.75C515.354 621.478 502.731 608.587 485.812 608.438ZM478.75 636.062C478.81 636.045 478.698 636.172 478.656 636.219C478.601 636.281 478.529 636.35 478.469 636.406C478.58 636.276 478.649 636.093 478.75 636.062ZM483.406 855.438C483.475 855.449 483.315 855.537 483.25 855.562C483.199 855.582 483.145 855.607 483.094 855.625C482.875 855.701 482.634 855.742 482.406 855.781C482.355 855.79 482.301 855.773 482.25 855.781C482.556 855.629 483.048 855.377 483.406 855.438Z" fill="#000000" stroke="none"/>
</g>
</g>
</svg>
