<?xml version="1.0" encoding="UTF-8" standalone="no"?>
<!DOCTYPE svg PUBLIC "-//W3C//DTD SVG 1.1//EN" "http://www.w3.org/Graphics/SVG/1.1/DTD/svg11.dtd">
<!-- Created with Vectornator (http://vectornator.io/) -->
<svg height="100%" stroke-miterlimit="10" style="fill-rule:nonzero;clip-rule:evenodd;stroke-linecap:round;stroke-linejoin:round;" version="1.1" viewBox="0 0 1000 1000" width="100%" xml:space="preserve" xmlns="http://www.w3.org/2000/svg" xmlns:vectornator="http://vectornator.io" xmlns:xlink="http://www.w3.org/1999/xlink">
<defs/>
<g id="Layer-1" vectornator:layerName="Layer 1">
<g opacity="1" vectornator:layerName="Curve 1">
<path d="M640.844 46.375C638.761 46.4333 636.561 46.7918 634.344 47.4688C625.473 50.1766 619.709 57.0466 621.469 62.8125C619.947 104.339 617.97 145.84 615.938 187.344C613.508 236.943 610.997 286.553 608.656 336.156C607.147 368.14 605.735 400.126 604.594 432.125C603.888 451.917 603.203 471.726 603 491.531C602.89 502.247 602.976 512.973 603.125 523.688C603.184 527.948 603.287 532.209 603.375 536.469C603.433 539.27 603.454 542.076 603.594 544.875C604.458 562.14 605.765 579.361 606.656 596.625C607.262 608.368 607.926 620.129 608.469 631.875C609.04 644.238 609.484 656.6 609.906 668.969C610.661 691.092 611.174 713.214 611.688 735.344C612.107 753.44 612.564 771.558 612.875 789.656C613.778 842.246 614.376 894.818 615.344 947.406C617.256 953.666 626.619 956.379 636.25 953.438C645.881 950.496 652.131 943.01 650.219 936.75C650.831 903.731 651.595 870.735 652.312 837.719C652.758 817.234 653.115 796.734 653.625 776.25C654.187 753.674 654.782 731.108 655.312 708.531C655.906 683.304 656.544 658.072 657.094 632.844C657.39 619.263 657.605 605.674 657.938 592.094C658.272 578.434 658.786 564.801 659.5 551.156C659.791 545.59 660.096 540.002 660.406 534.438C660.564 531.611 660.784 528.798 660.875 525.969C661.432 508.611 661.688 491.241 661.812 473.875C661.942 455.859 661.58 437.826 661.375 419.812C660.953 382.726 660.256 345.646 659.625 308.562C658.176 223.372 656.705 138.149 653.594 53C652.274 48.6756 647.092 46.2001 640.844 46.375Z" fill="#000000" stroke="none"/>
</g>
<g opacity="1" vectornator:layerName="Curve 3">
<path d="M494.938 608.438C491.539 608.407 488.159 608.849 484.875 609.719C480.227 610.95 475.813 612.983 471.781 615.594C466.883 618.765 462.578 622.842 459.031 627.469C451.01 637.934 447.085 650.841 444.5 663.594C445.477 669.744 453.945 673.535 463.406 672.031C472.868 670.528 479.727 664.306 478.75 658.156C480.154 652.649 481.84 647.149 484.281 642C484.33 642.037 484.39 642.056 484.438 642.094C487.187 644.256 489.508 646.956 491.594 649.75C497.965 658.286 502.534 668.634 505.531 678.812C509.21 691.303 510.63 704.395 511.5 717.344C512.815 736.92 512.555 756.561 511.156 776.125C510.633 783.448 509.891 790.752 508.938 798.031C507.43 809.542 505.319 820.965 501.969 832.094C501.176 834.726 500.222 837.315 499.312 839.906C498.248 842.937 497.168 845.907 495.719 848.781C494.783 850.637 493.718 852.38 492.5 854.062C492.173 854.514 491.81 854.961 491.438 855.375C491.305 855.522 491.175 855.676 491.031 855.812C490.563 855.863 490.094 855.91 489.625 855.906C487.723 855.89 485.806 855.571 483.969 855.094C478.313 853.623 473.1 850.777 468.469 847.25C461.588 842.009 456.124 835.309 451.344 828.156C446.62 821.088 442.582 813.573 439.188 805.781C429.723 784.057 425.279 760.568 423.938 737C422.361 709.297 425.327 681.484 431 654.375C430.233 648.743 422.571 645.132 413.906 646.312C405.242 647.493 398.858 653.024 399.625 658.656C396.439 668.833 393.583 679.085 391.156 689.469C389.154 698.038 387.488 706.687 386.094 715.375C378.334 763.73 380.455 816.518 404.688 860.188C406.863 864.108 409.197 867.94 411.844 871.562C418.792 881.072 427.652 889.312 438 895C443.44 897.99 449.233 900.251 455.281 901.656C481.426 907.729 509.161 897.535 528.344 879.5C537.316 871.064 544.447 860.838 549.438 849.594C551.766 844.347 553.673 838.83 555.031 833.25C555.755 830.277 556.218 827.214 556.656 824.188C557.514 818.265 558.018 812.311 558.438 806.344C558.981 798.602 559.319 790.853 559.469 783.094C559.79 766.411 559.335 749.707 558.188 733.062C557.624 724.893 556.941 716.725 555.969 708.594C554.344 694.999 552.136 681.362 548.219 668.219C545.564 659.309 542.048 650.555 537.625 642.375C536.221 639.778 534.701 637.227 533.094 634.75C524.479 621.478 511.856 608.587 494.938 608.438ZM487.875 636.062C487.935 636.045 487.823 636.172 487.781 636.219C487.726 636.281 487.685 636.35 487.625 636.406C487.58 636.448 487.519 636.487 487.469 636.531C487.617 636.333 487.731 636.105 487.875 636.062ZM492.531 855.438C492.6 855.449 492.44 855.537 492.375 855.562C492.324 855.582 492.27 855.607 492.219 855.625C492 855.701 491.79 855.742 491.562 855.781C491.501 855.792 491.437 855.772 491.375 855.781C491.681 855.629 492.173 855.377 492.531 855.438Z" fill="#000000" stroke="none"/>
</g>
<g opacity="1" vectornator:layerName="Curve 4">
<path d="M395.875 113.312C393.817 113.29 391.621 113.542 389.406 114.125C380.549 116.458 374.609 123.024 376.125 128.781C370.153 165.76 363.164 202.618 359.344 239.906C358.975 243.504 358.626 247.113 358.344 250.719C358.206 252.475 358.085 254.247 357.906 256C357.78 257.239 357.318 258.543 357.062 259.75C356.643 261.736 356.234 263.728 356.031 265.75C355.381 272.232 356.466 277.946 359.719 283.594C367.027 296.283 381.07 302.505 394.812 305.406C398.044 306.088 401.363 306.706 404.656 307C410.101 307.486 415.635 307.338 421.094 307.406C431.041 307.531 440.991 307.783 450.938 307.938C461.334 308.099 471.727 308.167 482.125 308.125C489.884 308.094 497.648 307.913 505.406 307.781C526.129 307.429 546.821 306.767 567.531 305.969C572.727 308.28 579.819 303.682 583.375 295.688C586.931 287.693 585.602 279.343 580.406 277.031C553.155 275.883 525.92 274.697 498.781 271.875C486.213 270.568 473.611 269.132 461.188 266.781C455.857 265.773 450.499 264.788 445.25 263.406C442.934 262.796 440.626 262.133 438.344 261.406C437.181 261.036 436.042 260.572 434.875 260.219C431.977 259.34 429.018 258.702 426.156 257.688C422.719 256.469 419.236 255.225 416.094 253.344C415.102 252.75 414.158 252.071 413.312 251.281C413.011 251 412.7 250.693 412.438 250.375C412.351 250.271 412.311 250.087 412.188 250.031C412.176 250.026 412.281 250.293 412.312 250.531C412.337 250.719 412.291 250.908 412.281 251.094C412.274 251.228 412.414 251.519 412.281 251.5C412.137 251.479 412.195 251.203 412.156 251.062C412.069 250.747 412.037 250.421 412.031 250.094C412.025 249.761 412.018 249.426 412.031 249.094C412.14 246.305 412.502 243.545 412.469 240.75C412.44 238.291 412.133 235.828 411.969 233.375C411.694 229.263 411.41 225.145 411.156 221.031C410.041 202.93 409.597 184.786 409.25 166.656C408.954 151.213 408.615 135.784 408.188 120.344C407.05 116.026 402.048 113.379 395.875 113.312Z" fill="#000000" stroke="none"/>
</g>
<g opacity="1" vectornator:layerName="Curve 5">
<path d="M385.688 327.938C383.391 328.029 381.081 328.28 378.781 328.719C373.519 329.722 368.431 331.55 363.688 334.031C359.272 336.341 355.141 339.197 351.438 342.531C348.367 345.296 345.608 348.41 343.219 351.781C335.295 362.961 332.467 376.838 333.219 390.375C333.538 396.116 334.417 401.788 335.625 407.406C335.91 408.734 336.133 410.068 336.5 411.375C337.186 413.817 338.163 416.243 339.031 418.625C340.737 423.303 342.58 427.933 344.25 432.625C346.465 438.845 348.29 445.214 350.094 451.562C353.551 463.728 356.56 475.996 359 488.406C360.308 495.056 361.538 501.718 362.438 508.438C365.167 528.821 365.712 549.655 362.688 570.031C363.826 576.215 372.486 579.814 382 578.062C391.514 576.311 398.295 569.871 397.156 563.688C402.531 540.789 403.826 517.572 403.094 494.125C402.83 485.675 402.4 477.238 401.688 468.812C399.967 448.463 397.187 428.212 394.781 407.938C394.289 403.788 393.906 399.64 393.656 395.469C393.512 393.059 393.522 390.656 393.344 388.25C393.211 386.452 392.914 384.64 392.75 382.844C392.575 380.927 392.477 379.014 392.344 377.094C394.78 377.46 397.22 377.881 399.656 378.281C404.978 379.156 410.253 380.209 415.531 381.312C434.266 385.228 452.868 389.858 471.812 392.688C484.206 394.539 496.812 395.638 509.344 394.875C514.129 397.058 520.735 392.863 524.094 385.5C527.452 378.137 526.286 370.402 521.5 368.219C514.038 367.576 506.688 365.903 499.5 363.844C490.2 361.179 481.113 357.799 472.094 354.312C460.624 349.879 449.233 345.16 437.625 341.094C433.854 339.773 430.07 338.483 426.25 337.312C424.013 336.627 421.769 336.053 419.531 335.375C417.999 334.911 416.506 334.321 415 333.781C412.056 332.726 409.095 331.664 406.094 330.781C399.422 328.819 392.577 327.664 385.688 327.938ZM369.5 373.562C369.692 373.545 369.87 373.563 370.062 373.562C370.354 373.561 370.696 373.576 371.031 373.594C370.559 373.661 370.092 373.824 369.625 373.844C369.418 373.852 369.22 373.805 369.031 373.719C368.997 373.703 369.058 373.635 369.094 373.625C369.217 373.59 369.372 373.574 369.5 373.562Z" fill="#000000" stroke="none"/>
</g>
</g>
</svg>
