<?xml version="1.0" encoding="UTF-8" standalone="no"?>
<!DOCTYPE svg PUBLIC "-//W3C//DTD SVG 1.1//EN" "http://www.w3.org/Graphics/SVG/1.1/DTD/svg11.dtd">
<!-- Created with Vectornator (http://vectornator.io/) -->
<svg height="100%" stroke-miterlimit="10" style="fill-rule:nonzero;clip-rule:evenodd;stroke-linecap:round;stroke-linejoin:round;" version="1.1" viewBox="0 0 1000 1000" width="100%" xml:space="preserve" xmlns="http://www.w3.org/2000/svg" xmlns:vectornator="http://vectornator.io" xmlns:xlink="http://www.w3.org/1999/xlink">
<defs/>
<g id="Layer-1" vectornator:layerName="Layer 1">
<g opacity="1" vectornator:layerName="Curve 1">
<path d="M490.812 46.5625C464.66 46.1529 439.41 56.1248 417.5 69.7812C394.082 84.3773 373.519 103.588 356.344 125.125C341.55 143.675 329.01 164.212 320.281 186.312C313.27 204.064 308.633 223.16 309.062 242.344C309.266 251.451 310.681 260.542 313.25 269.281C314.931 274.998 317.138 280.567 319.781 285.906C338.059 322.825 376.64 345.808 415.062 357.094C422.045 359.145 429.129 360.844 436.281 362.188C445.399 363.9 454.577 365.049 463.844 365.531C475.206 366.122 486.651 365.81 497.969 364.656C503.095 364.133 508.246 363.482 513.312 362.531C518.428 361.572 523.488 360.299 528.5 358.906C551.685 352.463 573.518 341.875 593.844 329.094C613.394 316.8 631.772 302.494 647.75 285.781C660.248 272.708 672.009 258.023 680.156 241.812C685.367 231.444 689.196 220.14 689.688 208.469C689.892 203.625 689.508 198.731 688.438 194C687.737 190.905 686.731 187.88 685.469 184.969C677.468 166.525 659.436 154.741 641.438 147.406C630.352 142.889 618.728 139.761 606.969 137.594C591.929 134.822 576.6 133.604 561.312 133.656C537.143 133.739 512.228 136.863 489.625 145.75C484.994 146.336 481.973 152.594 482.875 159.719C483.777 166.843 488.275 172.149 492.906 171.562C506.74 166.539 521.707 164.864 536.344 164.5C551.071 164.133 565.895 165.271 580.375 168C591.496 170.096 602.487 173.125 612.875 177.656C626.952 183.797 642.529 194.057 646.156 210.062C646.643 212.211 646.881 214.391 646.906 216.594C646.998 224.592 644.11 232.343 640.281 239.25C634.361 249.929 626.12 259.388 617.406 267.875C605.638 279.337 592.232 289.013 577.969 297.125C566.137 303.855 553.752 309.64 540.5 312.938C534.989 314.309 529.413 315.164 523.781 315.844C520.738 316.211 517.715 316.591 514.656 316.812C506.031 317.438 497.349 317.354 488.719 316.844C480.43 316.353 472.131 315.33 463.969 313.812C440.322 309.417 416.751 301.196 396.969 287.25C382.508 277.056 370.218 263.455 363.625 246.875C360.948 240.142 359.204 233 358.562 225.781C357.845 217.7 358.453 209.509 359.844 201.531C362.166 188.206 366.749 175.312 372.625 163.156C374.838 158.577 377.237 154.104 379.812 149.719C382.86 144.528 386.13 139.463 389.625 134.562C394.083 128.311 398.896 122.333 404.031 116.625C410.56 109.367 417.643 102.583 425.281 96.5C440.792 84.147 459.286 74.0973 479.469 73.2188C484.254 75.2545 490.681 70.9245 493.812 63.5625C496.944 56.2005 495.598 48.5982 490.812 46.5625Z" fill="#000000" stroke="none"/>
</g>
<g opacity="1" vectornator:layerName="Curve 2">
<path d="M359.062 429.469C356.979 429.53 354.78 429.882 352.562 430.562C343.692 433.283 337.951 440.172 339.719 445.938C336.529 491.351 334.8 536.806 333.656 582.312C333.221 599.634 332.843 616.986 332.656 634.312C332.558 643.483 332.359 652.675 332.625 661.844C332.8 667.854 333.143 673.846 333.562 679.844C333.728 682.203 333.792 684.585 334.031 686.938C334.388 690.439 335.039 693.921 335.531 697.406C336.27 702.639 336.948 707.894 337.438 713.156C339.302 733.193 340.289 753.292 340.75 773.406C340.952 782.235 341.145 791.075 341.031 799.906C340.8 817.805 337.513 835.523 335.156 853.219C334.495 858.186 333.845 863.171 333.344 868.156C332.845 873.115 332.632 878.123 332.281 883.094C333.775 889.331 342.748 892.517 352.344 890.219C361.94 887.92 368.525 881.019 367.031 874.781C367.728 869.918 368.28 864.995 369.125 860.156C369.96 855.375 370.928 850.598 371.906 845.844C374.987 830.868 378.537 815.98 380.781 800.844C382.483 789.363 383.419 777.816 384.312 766.25C385.656 748.861 386.607 731.434 387.75 714.031C388.326 705.257 388.857 696.481 389.594 687.719C389.967 683.279 390.433 678.843 390.844 674.406C391.018 672.523 391.268 670.608 391.375 668.719C391.481 666.849 391.436 664.966 391.469 663.094C391.534 659.407 391.585 655.719 391.594 652.031C391.622 639.891 390.622 627.775 389.594 615.688C388.171 598.963 386.443 582.252 384.656 565.562C380.04 522.433 375.188 479.314 371.844 436.062C370.518 431.738 365.313 429.286 359.062 429.469Z" fill="#000000" stroke="none"/>
</g>
<g opacity="1" vectornator:layerName="Curve 3">
<path d="M500.656 415.469C498.572 415.534 496.374 415.878 494.156 416.562C485.286 419.3 479.533 426.203 481.312 431.969C480.064 454.066 482.252 476.097 484.125 498.094C485.13 509.896 486.129 521.742 486.25 533.594C486.369 545.217 486.188 556.846 486.031 568.469C485.76 588.636 485.243 608.815 484.438 628.969C484.073 638.089 483.727 647.195 483.312 656.312C482.917 664.999 482.471 673.712 482.281 682.406C482.144 688.711 482.158 695.007 482.156 701.312C482.155 704.988 482.099 708.67 482.188 712.344C482.24 714.522 482.453 716.701 482.594 718.875C482.874 723.205 483.112 727.541 483.312 731.875C483.58 737.667 483.66 743.484 483.688 749.281C483.707 753.508 483.754 757.743 483.656 761.969C483.281 778.216 481.927 794.419 480.781 810.625C479.784 824.723 478.963 838.843 478.5 852.969C478.224 861.397 478.039 869.816 478.156 878.25C478.485 901.946 480.605 926.193 489.188 948.469C492.186 954.552 502.204 955.739 511.562 951.125C520.921 946.511 526.061 937.833 523.062 931.75C518.595 917.3 517.211 902.157 516.969 887.094C516.694 869.957 517.976 852.757 520 835.75C522.169 817.527 524.914 799.38 527.75 781.25C528.905 773.863 530.103 766.492 531.188 759.094C532.725 748.611 533.927 738.099 535.281 727.594C536.13 721.007 537.029 714.423 537.938 707.844C538.474 703.961 539.117 700.058 539.5 696.156C539.876 692.322 540.091 688.439 540.312 684.594C540.687 678.075 541.043 671.562 541.125 665.031C541.258 654.449 540.913 643.854 540.5 633.281C539.883 617.491 538.863 601.722 537.625 585.969C536.336 569.575 534.784 553.181 532.906 536.844C531.972 528.719 531.104 520.578 529.812 512.5C528.488 504.217 526.89 495.988 525.156 487.781C520.555 465.999 514.982 444.348 513.438 422.062C512.103 417.738 506.91 415.274 500.656 415.469Z" fill="#000000" stroke="none"/>
</g>
<g opacity="1" vectornator:layerName="Curve 4">
<path d="M671.656 415.5C669.574 415.555 667.374 415.89 665.156 416.562C656.286 419.254 650.5 426.109 652.25 431.875C649.005 481.284 640.647 530.134 633.406 579.062C628.484 612.325 623.898 645.686 622.469 679.312C622.195 685.756 622.218 692.24 622.25 698.688C622.269 702.613 622.195 706.548 622.406 710.469C622.536 712.87 622.805 715.291 623 717.688C623.513 723.98 624.063 730.264 624.5 736.562C625.377 749.22 625.947 761.89 626.562 774.562C629.273 830.342 631.514 886.155 633.406 941.969C635.325 948.229 644.682 950.92 654.312 947.969C663.943 945.017 670.2 937.541 668.281 931.281C669.547 889.277 670.426 847.243 672.031 805.25C672.567 791.225 673.074 777.203 673.844 763.188C674.701 747.588 675.694 732.027 677.125 716.469C677.637 710.901 678.32 705.334 678.969 699.781C679.206 697.747 679.502 695.727 679.688 693.688C679.912 691.22 680.004 688.723 680.156 686.25C680.432 681.788 680.706 677.31 680.906 672.844C681.469 660.296 681.454 647.745 681.531 635.188C681.619 620.845 682.021 606.492 682.469 592.156C684.24 535.5 687.833 478.79 684.375 422.125C683.063 417.801 677.902 415.336 671.656 415.5Z" fill="#000000" stroke="none"/>
</g>
<g opacity="1" vectornator:layerName="Curve 5">
<path d="M815.406 629.719C801.278 632.171 787.093 634.092 772.812 635.406C751.136 637.401 729.33 638.344 707.562 638.375C696.066 638.391 684.585 638.112 673.094 637.812C648.044 637.16 623.018 635.878 598 634.469C585.432 633.761 572.842 633.045 560.281 632.219C554.472 631.836 548.685 631.431 542.875 631.062C540.485 630.911 538.08 630.69 535.688 630.594C533.254 630.496 530.81 630.517 528.375 630.469C522.883 630.36 517.399 630.242 511.906 630.188C494.439 630.015 476.977 630.8 459.531 631.562C435.734 632.602 411.967 633.954 388.188 635.344C323.12 639.147 258.057 643.341 192.938 646.188C188.152 644.075 181.656 648.324 178.406 655.688C175.157 663.05 176.402 670.731 181.188 672.844C243.051 675.439 304.937 676.749 366.844 677.781C382.596 678.044 398.341 678.213 414.094 678.469C438.999 678.873 463.935 679.276 488.844 678.906C494.437 678.823 500.034 678.646 505.625 678.469C508.738 678.37 511.858 678.346 514.969 678.188C523.496 677.753 532.005 676.888 540.531 676.406C551.954 675.76 563.377 675.468 574.812 675.156C598.899 674.5 623.004 674.416 647.094 673.906C654.837 673.742 662.571 673.498 670.312 673.25C678.621 672.984 686.948 672.554 695.25 672.125C720.163 670.839 745.018 668.767 769.719 665.219C783.381 663.256 796.945 660.776 810.438 657.875C815.492 658.767 820.721 653.183 822.094 645.406C823.467 637.63 820.461 630.611 815.406 629.719Z" fill="#000000" stroke="none"/>
</g>
</g>
</svg>
