<?xml version="1.0" encoding="UTF-8" standalone="no"?>
<!DOCTYPE svg PUBLIC "-//W3C//DTD SVG 1.1//EN" "http://www.w3.org/Graphics/SVG/1.1/DTD/svg11.dtd">
<!-- Created with Vectornator (http://vectornator.io/) -->
<svg height="100%" stroke-miterlimit="10" style="fill-rule:nonzero;clip-rule:evenodd;stroke-linecap:round;stroke-linejoin:round;" version="1.1" viewBox="0 0 1000 1000" width="100%" xml:space="preserve" xmlns="http://www.w3.org/2000/svg" xmlns:vectornator="http://vectornator.io" xmlns:xlink="http://www.w3.org/1999/xlink">
<defs/>
<g id="Layer-1" vectornator:layerName="Layer 1">
<g opacity="1" vectornator:layerName="Curve 1">
<path d="M462.469 87.4062C432.309 92.5457 408.826 114.754 391.5 138.688C388.761 142.471 386.142 146.347 383.625 150.281C380.559 155.073 377.635 159.95 374.844 164.906C369.463 174.459 364.533 184.281 359.906 194.219C357.234 199.96 354.57 205.712 352.219 211.594C348.48 220.946 345.46 230.587 343.219 240.406C341.524 247.83 340.266 255.365 339.469 262.938C335.094 304.495 344.874 350.15 375.312 380.406C380.248 385.312 385.668 389.748 391.469 393.594C402.254 400.745 414.363 405.758 426.938 408.75C442.476 412.447 458.617 413.001 474.469 411.375C493.923 409.379 512.786 403.925 530.562 395.844C535.084 393.788 539.589 391.652 543.938 389.25C562.355 379.078 579.096 365.973 594.531 351.75C603.552 343.437 611.87 334.409 619.656 324.938C630.33 311.953 639.731 297.857 647.25 282.812C652.017 273.273 656.083 263.371 659.062 253.125C660.942 246.663 662.282 240.065 663.594 233.469C665.503 223.869 666.945 213.847 665.031 204.125C664.225 200.028 662.731 195.328 660.281 191.875C658.584 189.482 655.927 187.699 653.562 186.031C649.753 183.344 645.789 180.825 641.844 178.344C635.017 174.05 628.24 169.605 620.969 166.094C614.058 162.757 606.992 159.753 599.781 157.125C564.113 144.127 523.241 138.938 486.812 151.969C480.864 154.097 475.129 156.71 469.594 159.75C465.508 161.534 464.412 168.089 467.156 174.375C469.9 180.661 475.445 184.315 479.531 182.531C490.98 176.637 504.019 174.765 516.781 175.031C539.359 175.503 561.933 182.17 582.312 191.625C586.664 193.644 590.926 195.837 595.125 198.156C595.187 198.197 595.25 198.241 595.312 198.281C595.402 198.339 595.504 198.38 595.594 198.438C595.994 198.695 596.383 198.958 596.781 199.219C597.771 199.867 598.767 200.53 599.75 201.188C603.079 203.414 606.38 205.666 609.656 207.969C612.674 210.09 615.663 212.26 618.594 214.5C619.555 215.235 620.511 215.971 621.438 216.75C621.554 216.848 621.666 216.963 621.781 217.062C621.786 217.075 621.808 217.081 621.812 217.094C622 217.579 622.172 218.061 622.312 218.562C622.763 220.169 622.993 221.836 623.062 223.5C623.279 228.706 622.122 233.903 620.938 238.938C619.34 245.726 617.625 252.549 615.281 259.125C612.187 267.805 608.116 276.092 603.344 283.969C594.935 297.847 584.449 310.676 572.5 321.656C565.764 327.846 558.733 333.681 551.125 338.781C543.959 343.586 536.438 347.671 528.625 351.312C523.511 353.696 518.385 355.95 513.031 357.75C504.41 360.649 495.356 362.453 486.312 363.344C475.393 364.419 464.263 363.913 453.625 361.125C447.203 359.442 440.989 356.944 435.188 353.719C431.305 351.56 427.622 349.059 424.156 346.281C396.804 324.358 385.515 287.376 386.031 253.375C386.138 246.327 386.753 239.307 387.844 232.344C389.073 224.493 390.942 216.711 393.406 209.156C394.837 204.771 396.497 200.459 398.156 196.156C400.568 189.904 403.089 183.7 405.781 177.562C409.753 168.509 414.092 159.612 419.062 151.062C423.389 143.622 428.197 136.416 433.844 129.906C440.281 122.486 448.072 115.608 457.875 113.344C462.531 114.165 467.33 109.006 468.594 101.844C469.858 94.6814 467.124 88.2278 462.469 87.4062Z" fill="#000000" stroke="none"/>
</g>
<g opacity="1" vectornator:layerName="Curve 2">
<path d="M447.281 495.125C445.173 495.301 442.961 495.783 440.75 496.594C431.907 499.836 426.455 507.127 428.562 512.875C428.97 521.753 430.606 530.436 432.812 539.031C435.215 548.391 438.28 557.622 440.094 567.125C441.961 576.906 443.158 586.85 444.188 596.75C445.776 612.031 446.553 627.448 446.219 642.812C446.019 652.001 445.572 661.177 444.531 670.312C444.035 674.665 443.53 679.091 442.594 683.375C441.543 688.182 440.106 692.896 438.656 697.594C436.676 704.01 434.547 710.386 432.406 716.75C428.327 728.874 424.258 741.012 420.531 753.25C417.552 763.033 414.835 772.914 412.938 782.969C412.033 787.765 411.257 792.586 410.719 797.438C410.496 799.441 410.263 801.454 410.188 803.469C410.082 806.294 410.203 809.153 410.438 811.969C410.862 817.071 411.84 822.174 414.281 826.719C416.97 831.722 420.236 836.463 424 840.719C427.361 844.519 431.098 848.023 435.188 851.031C453.59 864.567 477.074 868.799 499.5 867.781C509.984 867.306 520.387 865.678 530.562 863.125C538.45 861.146 546.214 858.619 553.75 855.562C559.842 853.092 565.801 850.296 571.594 847.188C576.428 844.593 581.128 841.77 585.688 838.719C608.699 823.319 629.337 800.907 636.156 773.438C637.295 768.852 637.944 764.177 638.281 759.469C636.762 753.229 627.756 750.068 618.156 752.406C608.556 754.744 602.012 761.698 603.531 767.938C602.927 772.594 601.88 777.142 600.188 781.531C591.667 803.635 569.694 818.565 547.844 825.5C543.631 826.837 539.344 827.938 535 828.75C529.74 829.733 524.413 830.318 519.062 830.438C501.396 830.832 482.301 825.72 471.719 810.5C470.012 808.045 468.567 805.344 467.469 802.562C466.895 801.11 466.287 799.563 465.969 798.031C465.958 797.978 466.074 797.957 466.094 797.906C466.125 797.823 466.119 797.531 466.125 797.469C466.179 796.891 466.223 796.327 466.281 795.75C466.536 793.231 467.085 790.748 467.469 788.25C468.876 779.081 471.22 770.036 473.531 761.062C475.099 754.975 476.521 748.845 478.062 742.75C480.777 732.015 483.545 721.316 486.188 710.562C487.944 703.414 489.678 696.261 491.219 689.062C492.477 683.187 493.631 677.239 494.188 671.25C494.746 665.239 494.818 659.127 494.781 653.094C494.718 642.843 494.077 632.661 493 622.469C491.965 612.671 490.399 602.932 488.594 593.25C486.191 580.367 483.149 567.568 479.438 555C477.51 548.472 475.033 542.131 472.438 535.844C467.756 524.505 462.65 513.339 460.594 501.156C459.013 496.845 453.607 494.598 447.281 495.125Z" fill="#000000" stroke="none"/>
</g>
<g opacity="1" vectornator:layerName="Curve 3">
<path d="M589.406 622C571.309 626.868 552.429 627.22 533.812 627.625C520.428 627.916 507.048 628.708 493.656 628.594C491.337 628.574 489.033 628.516 486.719 628.375C484.424 628.235 482.111 628.017 479.812 627.969C478.025 627.931 476.221 628.063 474.438 628.156C472.673 628.249 470.886 628.333 469.125 628.469C462.403 628.989 455.748 630.1 449.094 631.156C439.221 632.723 429.364 634.441 419.5 636.062C392.716 640.465 365.879 644.426 338.875 647.219C334.089 645.122 327.57 649.387 324.344 656.75C321.117 664.113 322.402 671.778 327.188 673.875C352.432 676.513 377.748 677.957 403.125 678.375C412.835 678.535 422.543 678.524 432.25 678.25C438.37 678.077 444.534 677.909 450.625 677.25C454.409 676.84 458.153 676.285 461.906 675.656C463.082 675.459 464.494 675.233 465.656 674.969C470.831 673.79 475.944 672.29 481.125 671.125C486.778 669.854 492.438 668.704 498.125 667.594C502.166 666.805 506.22 665.992 510.281 665.312C528.036 662.342 545.973 660.328 563.562 656.438C572.553 654.449 581.429 651.926 590.062 648.719C594.857 648.6 598.588 642.532 598.406 635.156C598.224 627.78 594.2 621.882 589.406 622Z" fill="#000000" stroke="none"/>
</g>
</g>
</svg>
