<?xml version="1.0" encoding="UTF-8" standalone="no"?>
<!DOCTYPE svg PUBLIC "-//W3C//DTD SVG 1.1//EN" "http://www.w3.org/Graphics/SVG/1.1/DTD/svg11.dtd">
<!-- Created with Vectornator (http://vectornator.io/) -->
<svg height="100%" stroke-miterlimit="10" style="fill-rule:nonzero;clip-rule:evenodd;stroke-linecap:round;stroke-linejoin:round;" version="1.1" viewBox="0 0 1000 1000" width="100%" xml:space="preserve" xmlns="http://www.w3.org/2000/svg" xmlns:vectornator="http://vectornator.io" xmlns:xlink="http://www.w3.org/1999/xlink">
<defs/>
<g id="Layer-1" vectornator:layerName="Layer 1">
<g opacity="1" vectornator:layerName="Curve 1">
<path d="M538.094 39.0938C532.524 39.2168 526.991 39.5489 521.531 40.0938C514.134 40.832 506.789 41.95 499.5 43.4062C489.89 45.3261 480.388 47.8588 471.094 50.9688C459.04 55.0022 447.31 60.0212 436.125 66.0625C422.833 73.2418 410.367 81.9024 399.125 92C390.226 99.9928 382.087 108.838 374.906 118.406C370.249 124.613 365.954 131.125 362.125 137.875C344.249 169.383 335.942 205.224 333.656 241.156C332.949 252.269 332.902 263.404 333.219 274.531C334.963 280.297 343.567 282.809 352.438 280.125C361.308 277.441 367.057 270.578 365.312 264.812C365.643 256.075 366.228 247.352 367.156 238.656C367.936 231.349 368.984 224.072 370.312 216.844C378.036 174.818 395.922 131.457 432.219 106.344C441.327 100.042 451.342 95.1833 461.75 91.4375C469.105 88.7906 476.677 86.7043 484.344 85.1875C490.284 84.0123 496.277 83.1875 502.312 82.6875C533.559 80.099 567.81 86.6428 591.438 108.531C594.551 111.415 597.437 114.539 600.062 117.875C606.747 126.368 611.68 136.14 614.906 146.438C616.899 152.798 618.249 159.394 619.312 165.969C620.883 175.675 621.734 185.511 621.75 195.344C621.757 199.742 621.499 204.11 621.281 208.5C620.705 220.114 619.253 231.613 616.719 242.969C614.097 254.713 610.317 266.159 606.156 277.438C598.789 297.409 589.694 316.698 580.625 335.938C576.572 344.535 572.539 353.143 568.375 361.688C562.25 374.257 555.855 386.703 549.438 399.125C540.927 415.6 532.408 432.065 524.25 448.719C502.701 492.707 483.439 538.692 477.562 587.719C476.214 598.968 475.659 610.298 475.781 621.625C477.671 627.885 486.994 630.595 496.625 627.688C506.256 624.78 512.546 617.354 510.656 611.094C510.873 601.562 511.579 592.037 512.906 582.594C516.472 557.224 524.061 532.618 533.625 508.906C545.961 478.322 561.681 449.278 577.75 420.531C586.323 405.195 595.029 389.927 603.438 374.5C608.753 364.747 613.829 354.891 619 345.062C625.953 331.847 632.957 318.674 639.625 305.312C650.951 282.619 661.336 259.398 668.906 235.156C673.062 221.849 676.524 208.244 678.375 194.406C679.031 189.501 679.345 184.535 679.562 179.594C680.044 168.65 679.667 157.643 678.219 146.781C677.19 139.07 675.81 131.379 673.625 123.906C670.481 113.152 665.879 102.875 659.781 93.4688C655.771 87.2831 651.086 81.555 645.875 76.3438C617.766 48.2354 577.082 38.2321 538.094 39.0938Z" fill="#000000" stroke="none"/>
</g>
<g opacity="1" vectornator:layerName="Curve 2">
<path d="M369.375 356.5C367.292 356.557 365.093 356.918 362.875 357.594C354.004 360.298 348.242 367.172 350 372.938C346.607 458.645 341.943 544.299 337.75 629.969C336.241 660.806 334.783 691.646 333.656 722.5C333.006 740.322 332.317 758.134 332.125 775.969C332 787.583 332.153 799.2 332.375 810.812C332.474 815.996 332.46 821.196 332.688 826.375C332.905 831.334 333.332 836.292 333.562 841.25C333.713 844.49 333.674 847.726 333.656 850.969C333.543 871.799 332.396 892.726 334.938 913.469C335.227 915.835 335.55 918.184 335.969 920.531C338.14 932.695 342.419 946.269 353.656 953C357.639 955.386 362.168 956.626 366.719 957.375C373.156 958.435 379.732 958.433 386.219 957.875C406.843 956.103 426.479 948.891 446.094 942.781C449.622 941.682 453.182 940.597 456.781 939.75C462.255 938.462 467.802 937.436 473.312 936.312C484.801 933.97 496.322 931.736 507.844 929.562C546.033 922.359 584.412 916.282 623.031 911.906C628.194 913.535 634.401 908.411 636.906 900.469C639.412 892.526 637.256 884.785 632.094 883.156C606.209 885.273 580.391 888.096 554.656 891.594C526.071 895.479 497.603 900.161 469.156 904.938C464.225 905.765 459.329 906.628 454.469 907.812C441.522 910.969 428.868 915.179 415.844 918.031C410.057 919.298 404.125 920.413 398.188 920.5C396.173 920.53 394.138 920.452 392.156 920.062C391.119 919.859 390.069 919.568 389.094 919.156C389.078 919.15 389.363 919.221 389.406 919.219C389.419 919.218 388.97 918.696 388.938 918.656C388.721 918.392 388.532 918.129 388.344 917.844C387.754 916.947 387.282 915.992 386.875 915C385.701 912.141 384.998 909.073 384.5 906.031C382.971 896.702 383.132 887.129 383.594 877.719C384.149 866.402 385.369 855.149 386.75 843.906C387.436 838.321 388.231 832.729 388.75 827.125C389.043 823.963 389.201 820.794 389.406 817.625C389.591 814.76 389.822 811.899 389.969 809.031C390.321 802.164 390.379 795.25 390.531 788.375C390.754 778.297 390.958 768.237 390.938 758.156C390.902 740.613 390.707 723.073 390.469 705.531C390.059 675.286 389.497 645.023 388.906 614.781C388.013 569.052 387.111 523.315 385.875 477.594C384.844 439.432 383.58 401.304 382.125 363.156C380.807 358.832 375.623 356.328 369.375 356.5Z" fill="#000000" stroke="none"/>
</g>
</g>
</svg>
