<?xml version="1.0" encoding="UTF-8" standalone="no"?>
<!DOCTYPE svg PUBLIC "-//W3C//DTD SVG 1.1//EN" "http://www.w3.org/Graphics/SVG/1.1/DTD/svg11.dtd">
<!-- Created with Vectornator (http://vectornator.io/) -->
<svg height="100%" stroke-miterlimit="10" style="fill-rule:nonzero;clip-rule:evenodd;stroke-linecap:round;stroke-linejoin:round;" version="1.1" viewBox="0 0 1000 1000" width="100%" xml:space="preserve" xmlns="http://www.w3.org/2000/svg" xmlns:vectornator="http://vectornator.io" xmlns:xlink="http://www.w3.org/1999/xlink">
<defs/>
<clipPath id="ArtboardFrame">
<rect height="1000" width="1000" x="0" y="0"/>
</clipPath>
<g clip-path="url(#ArtboardFrame)" id="Layer-1" vectornator:layerName="Layer 1">
<g opacity="1" vectornator:layerName="Curve 1">
<path d="M315.875 44.5C313.362 44.5689 310.707 44.9661 308.031 45.7812C297.329 49.0417 290.349 57.3246 292.469 64.2812C288.367 168.979 280.075 273.472 275.688 378.156C274.021 417.93 272.921 457.751 273.156 497.562C273.253 513.955 273.526 530.339 274.188 546.719C274.401 551.997 274.582 557.289 274.906 562.562C275.782 576.811 277.027 591.027 278.562 605.219C279.191 611.024 279.824 616.833 280.562 622.625C280.994 626.008 281.559 629.377 282.062 632.75C282.876 638.197 283.692 643.65 284.531 649.094C285.729 656.867 286.979 664.63 288.344 672.375C289.409 678.423 290.575 684.459 291.844 690.469C294.281 702.014 297.288 713.433 301.219 724.562C309.111 746.908 320.641 767.867 339.219 783.094C343.159 786.323 347.351 789.242 351.75 791.812C363.987 798.962 377.084 804.701 390.625 808.875C400.935 812.053 411.499 814.303 422.188 815.75C468.573 822.031 515.19 812.619 560.281 802.344C590.96 795.353 621.667 787.701 653.094 784.969C659.342 787.161 667.128 781.143 670.5 771.531C673.872 761.919 671.56 752.348 665.312 750.156C648.342 751.104 631.466 753.286 614.719 756.156C603.376 758.1 592.067 760.319 580.781 762.562C557.156 767.259 533.531 772.225 509.562 774.844C484.479 777.585 458.825 777.398 434.375 770.531C427.395 768.571 420.551 766.097 413.938 763.125C406.425 759.749 399.071 755.799 392.281 751.125C373.299 738.058 363.421 715.249 358.125 693.562C353.76 675.688 351.736 657.228 350.844 638.875C350.209 625.803 350.144 612.732 349.656 599.656C349.504 595.572 349.122 591.484 348.844 587.406C348.398 580.881 347.981 574.342 347.594 567.812C345.681 535.578 343.338 503.37 341.594 471.125C339.764 437.286 338.504 403.435 337.5 369.562C336.968 351.603 336.633 333.652 336.312 315.688C335.595 275.446 335.135 235.181 334.594 194.938C333.955 147.441 333.008 99.9687 331.25 52.5C329.661 47.2825 323.413 44.2933 315.875 44.5Z" fill="#000000" stroke="none"/>
</g>
<g opacity="1" vectornator:layerName="Curve 2">
<path d="M511.875 898.906C509.801 898.896 507.698 899.047 505.625 899.125C498.707 899.386 491.838 899.911 484.938 900.438C469.673 901.601 454.431 902.991 439.188 904.406C397.47 908.279 355.793 912.589 314.156 917.25C305.795 913.526 294.355 920.918 288.625 933.781C282.895 946.644 285.045 960.088 293.406 963.812C330.824 968.594 368.17 973.796 405.625 978.281C420.792 980.097 435.987 981.825 451.219 983C456.859 983.435 462.502 983.83 468.156 984.031C470.174 984.103 472.2 984.236 474.219 984.219C480.242 984.168 486.244 983.869 492.25 983.406C494.006 983.271 495.781 983.19 497.531 983C499.476 982.789 501.391 982.359 503.312 982C507.356 981.245 511.404 980.412 515.469 979.781C526.769 978.029 538.084 976.553 549.438 975.188C562.037 973.673 574.677 972.286 587.281 970.812C596.579 969.725 605.835 968.527 615.125 967.375C622.961 966.403 630.825 965.516 638.656 964.5C655.318 962.339 671.944 959.922 688.531 957.25C697.542 960.015 708.278 951.019 712.531 937.156C716.785 923.293 712.948 909.796 703.938 907.031C681.567 908.027 659.144 908.619 636.75 908.438C627.744 908.365 618.718 908.015 609.719 907.656C600.002 907.269 590.293 906.852 580.594 906.125C571.984 905.48 563.376 904.778 554.812 903.656C549.814 903.001 544.856 902.041 539.906 901.094C538.339 900.794 536.781 900.512 535.219 900.188C534.714 900.083 534.107 899.905 533.594 899.844C531.63 899.608 529.63 899.599 527.656 899.469C522.4 899.12 517.142 898.933 511.875 898.906Z" fill="#000000" stroke="none"/>
</g>
<g opacity="1" vectornator:layerName="Curve 3">
<path d="M504 95.125C501.487 95.196 498.832 95.62 496.156 96.4375C485.454 99.7076 478.499 108.012 480.625 114.969C476.74 173.194 472.821 231.403 469.375 289.656C468.029 312.409 466.707 335.166 465.719 357.938C465.179 370.36 464.539 382.813 464.5 395.25C464.478 402.302 464.684 409.359 464.906 416.406C464.999 419.356 465.159 422.301 465.281 425.25C465.342 426.719 465.362 428.192 465.5 429.656C465.841 433.269 466.289 436.862 466.688 440.469C467.487 447.705 468.249 454.962 468.844 462.219C469.921 475.372 470.687 488.544 471.438 501.719C472.359 517.89 473.058 534.069 473.781 550.25C474.324 562.397 474.932 574.538 475.406 586.688C476.731 620.648 477.789 654.628 478.969 688.594C481.276 696.147 492.568 699.394 504.188 695.844C515.807 692.293 523.339 683.272 521.031 675.719C523.229 611.124 525.135 546.507 528.688 481.969C529.527 466.724 530.436 451.496 531.719 436.281C532.271 429.732 532.975 423.194 533.656 416.656C533.976 413.585 534.417 410.49 534.594 407.406C534.874 402.506 535.004 397.593 535.156 392.688C535.354 386.312 535.52 379.942 535.5 373.562C535.461 361.37 534.824 349.178 534.281 337C533.282 314.607 531.936 292.216 530.562 269.844C527.151 214.247 523.24 158.692 519.375 103.125C517.781 97.9075 511.54 94.9121 504 95.125Z" fill="#000000" stroke="none"/>
</g>
</g>
</svg>
