<?xml version="1.0" encoding="UTF-8" standalone="no"?>
<!DOCTYPE svg PUBLIC "-//W3C//DTD SVG 1.1//EN" "http://www.w3.org/Graphics/SVG/1.1/DTD/svg11.dtd">
<!-- Created with Vectornator (http://vectornator.io/) -->
<svg height="100%" stroke-miterlimit="10" style="fill-rule:nonzero;clip-rule:evenodd;stroke-linecap:round;stroke-linejoin:round;" version="1.1" viewBox="0 0 1000 1000" width="100%" xml:space="preserve" xmlns="http://www.w3.org/2000/svg" xmlns:vectornator="http://vectornator.io" xmlns:xlink="http://www.w3.org/1999/xlink">
<defs/>
<clipPath id="ArtboardFrame">
<rect height="1000" width="1000" x="0" y="0"/>
</clipPath>
<g clip-path="url(#ArtboardFrame)" id="Layer-1" vectornator:layerName="Layer 1">
<g opacity="1" vectornator:layerName="Curve 1">
<path d="M372.594 31.4062C370.081 31.4741 367.426 31.9049 364.75 32.7188C354.048 35.9744 347.103 44.2621 349.219 51.2188C348.113 85.9951 346.586 120.741 345.031 155.5C342.629 209.204 340.283 262.918 340.312 316.688C340.328 343.655 340.882 370.633 342.375 397.562C342.936 407.676 343.611 417.808 344.406 427.906C345.064 436.251 345.847 444.578 346.312 452.938C348.137 485.734 348.339 518.778 354.906 551.094C358.837 570.434 365.041 589.529 375.844 606.188C380.147 612.823 385.204 618.9 390.75 624.531C399.955 633.879 410.487 641.877 422.062 648.062C430.917 652.794 440.366 656.373 450.094 658.844C476.803 665.628 505.34 663.127 531.344 654.594C540.507 651.587 549.433 647.837 558 643.406C567.719 638.38 576.936 632.248 585.562 625.531C610.941 605.77 631.525 579.444 643.469 549.5C646.038 543.059 648.186 536.436 649.906 529.719C651.446 523.707 652.578 517.603 653.688 511.5C655.445 501.835 656.87 492.106 657.969 482.344C663.584 432.442 660.381 382.102 654.312 332.406C650.978 305.098 646.841 277.899 643.25 250.625C640.14 227.002 637.413 203.339 634.281 179.719C628.151 133.486 621.482 87.3262 615.344 41.0938C612.539 33.5693 600.889 30.9659 589.312 35.2812C577.736 39.5966 570.633 49.1944 573.438 56.7188C578.171 103.469 583.431 150.156 588.156 196.906C590.988 224.922 593.359 252.99 596.25 281C598.661 304.355 601.082 327.723 603 351.125C606.683 396.06 608.2 441.399 602 486.188C600.488 497.106 598.553 507.959 596.156 518.719C594.799 524.813 593.356 530.92 591.469 536.875C589.317 543.664 586.55 550.268 583.156 556.531C575.967 569.8 565.85 581.649 553.281 590.094C549.518 592.623 545.58 594.726 541.469 596.625C539.418 597.572 537.366 598.518 535.25 599.312C528.409 601.882 521.174 603.427 513.875 603.812C505.97 604.23 498.117 603.444 490.438 601.531C483.084 599.7 476.029 596.753 469.438 593.031C463.656 589.768 458.257 585.822 453.25 581.469C448.274 577.142 443.646 572.433 439.719 567.125C430.767 555.026 425.186 540.642 421.25 526.219C414.579 501.774 412.242 476.357 409.781 451.219C408.839 441.595 407.922 431.971 406.719 422.375C406.108 417.508 405.389 412.64 404.719 407.781C403.656 400.076 402.683 392.351 401.781 384.625C398.467 356.242 396.151 327.745 394.5 299.219C392.839 270.521 391.95 241.797 391.25 213.062C389.84 155.184 389.578 97.281 387.969 39.4062C386.382 34.1888 380.131 31.2027 372.594 31.4062Z" fill="#000000" stroke="none"/>
</g>
<g opacity="1" vectornator:layerName="Curve 2">
<path d="M497.781 409.375C495.267 409.45 492.613 409.866 489.938 410.688C479.235 413.975 472.301 422.293 474.438 429.25C472.66 455.007 472.047 480.814 471.656 506.625C471.195 537.096 471.03 567.645 468.969 598.062C468.195 609.488 467.264 620.909 465.906 632.281C463.283 654.259 459.889 676.196 458.625 698.312C458.371 702.754 458.205 707.21 458.062 711.656C457.973 714.443 457.788 717.243 457.844 720.031C457.998 727.784 458.623 735.529 458.844 743.281C459.23 756.861 459.382 770.448 459.594 784.031C459.862 801.22 460.171 818.417 460.875 835.594C461.32 846.443 462.047 857.259 462.75 868.094C463.815 884.507 465.32 900.906 467.438 917.219C469.435 932.609 472.067 947.875 475.25 963.062C478.258 970.558 490.062 972.878 501.594 968.25C513.125 963.622 520.008 953.808 517 946.312C513.021 915.712 511.527 884.88 511.812 854.031C511.907 843.768 512.37 833.5 512.875 823.25C513.47 811.174 514.226 799.11 515.25 787.062C516.036 777.809 517.03 768.545 518.031 759.312C518.658 753.531 519.422 747.765 520.188 742C521.034 735.621 521.897 729.252 522.969 722.906C523.753 718.259 524.619 713.636 525.469 709C525.995 706.128 526.592 703.24 526.969 700.344C528.276 690.292 529.37 680.199 530.156 670.094C530.706 663.032 530.988 655.92 531.281 648.844C532.002 631.458 532.388 614.053 531.906 596.656C531.502 582.071 530.281 567.524 528.938 553C527.709 539.722 526.014 526.478 524.344 513.25C520.311 481.318 515.685 449.446 513.188 417.344C511.585 412.126 505.324 409.151 497.781 409.375Z" fill="#000000" stroke="none"/>
</g>
</g>
</svg>
