<?xml version="1.0" encoding="UTF-8" standalone="no"?>
<!DOCTYPE svg PUBLIC "-//W3C//DTD SVG 1.1//EN" "http://www.w3.org/Graphics/SVG/1.1/DTD/svg11.dtd">
<!-- Created with Vectornator (http://vectornator.io/) -->
<svg height="100%" stroke-miterlimit="10" style="fill-rule:nonzero;clip-rule:evenodd;stroke-linecap:round;stroke-linejoin:round;" version="1.1" viewBox="0 0 1000 1000" width="100%" xml:space="preserve" xmlns="http://www.w3.org/2000/svg" xmlns:vectornator="http://vectornator.io" xmlns:xlink="http://www.w3.org/1999/xlink">
<defs/>
<g id="Layer-1" vectornator:layerName="Layer 1">
<g opacity="1" vectornator:layerName="Curve 1">
<path d="M913.125 68.4375C904.541 69.0412 897.267 75.606 896.094 84.4688C896.137 84.1286 895.898 85.2513 895.875 85.3438C895.846 85.4567 895.811 85.5747 895.781 85.6875C895.574 86.4805 895.335 87.2481 895.094 88.0312C894.382 90.3378 893.545 92.6127 892.625 94.8438C889.967 101.286 886.608 107.431 882.781 113.25C871.431 130.51 856.035 144.909 838.938 156.375C817.856 170.512 794.342 180.896 769.938 187.781C761.598 190.134 753.08 191.93 744.562 193.5C741.318 194.098 738.053 194.511 734.812 195.125C731.952 195.667 729.104 196.418 726.25 197C719.191 198.44 712.123 199.854 705.031 201.125C691.03 203.633 676.919 205.432 662.75 206.656C630.58 209.435 598.258 209.283 566 208.781C527.707 208.186 489.365 207.036 451.094 209.094C417.252 210.913 383.519 215.275 350.625 223.562C320.726 231.095 291.603 241.885 263.562 254.656C255.18 258.474 246.912 262.48 238.656 266.562C232.386 269.663 225.997 272.662 219.969 276.219C214.401 279.504 208.848 282.929 203.5 286.562C194.693 292.546 186.242 299.092 178.094 305.938C167.234 315.06 156.884 324.806 147.219 335.188C125.359 358.668 107.256 386.077 96.0312 416.219C91.5324 428.299 88.2084 440.785 86.0938 453.5C83.9692 462.362 89.4197 471.282 98.2812 473.406C107.143 475.531 116.063 470.049 118.188 461.188C123.716 443.678 132.169 427.238 142.938 412.375C156.07 394.249 172.405 378.605 190.094 364.969C201.312 356.32 213.214 348.622 225.375 341.375C228.454 339.54 231.584 337.791 234.688 336C237.801 334.204 240.868 332.36 244 330.594C246.236 329.333 248.5 328.134 250.719 326.844C255.617 323.995 260.459 321.024 265.438 318.312C269.946 315.858 274.569 313.613 279.188 311.375C289.219 306.514 299.515 302.139 309.875 298.031C323.67 292.561 337.67 287.565 351.938 283.469C370.093 278.256 388.642 274.438 407.344 271.812C463.303 263.955 519.868 266.867 576.156 267.625C620.261 268.219 664.485 267.42 708.125 260.406C715.4 259.237 722.716 257.996 729.906 256.375C732.713 255.742 735.491 255.015 738.281 254.312C741.964 253.386 745.687 252.475 749.312 251.344C750.496 250.974 751.646 250.513 752.812 250.094C756.034 248.936 759.248 247.711 762.438 246.469C767.537 244.483 772.61 242.462 777.656 240.344C781.675 238.657 785.656 236.854 789.656 235.125C801.436 230.033 812.963 224.311 824.188 218.094C830.521 214.586 836.774 210.995 842.875 207.094C859.24 196.628 874.578 184.442 888.125 170.5C902.906 155.289 915.562 137.796 924.094 118.312C928.121 109.116 931.494 99.3154 932.781 89.3125C934.122 79.1836 927.004 69.8722 916.875 68.5312C915.609 68.3636 914.351 68.3513 913.125 68.4375Z" fill="#000000" stroke="none"/>
</g>
<g opacity="1" vectornator:layerName="Curve 2">
<path d="M399.844 95.3438C396.67 95.1698 393.432 95.9011 390.5 97.6562C382.681 102.337 380.132 112.462 384.812 120.281C394.045 138.296 402.412 156.772 410.312 175.406C422.73 204.693 433.795 234.561 443.719 264.781C447.559 276.476 451.143 288.257 454.625 300.062C455.77 303.946 456.835 307.872 458 311.75C459.176 315.664 460.404 319.549 461.562 323.469C462.288 325.923 462.957 328.4 463.719 330.844C465.574 336.792 467.648 342.665 469.469 348.625C471.771 356.159 473.794 363.823 475.688 371.469C479.126 385.355 482.082 399.335 484.656 413.406C486.838 425.335 488.618 437.36 490 449.406C497.939 518.622 492.431 592.374 456.312 653.531C433.833 691.594 401.571 723.05 366.031 748.938C353.002 758.428 339.384 767.001 325.719 775.531C322.313 777.657 318.813 779.66 315.406 781.781C312.001 783.902 308.72 786.221 305.375 788.438C300.376 791.75 295.288 794.898 290.156 798C276.416 806.305 262.078 813.651 247.562 820.5C236.706 825.623 225.621 830.297 214.5 834.812C192.105 843.906 169.261 851.751 146.062 858.531C134.588 861.885 123.02 865.013 111.375 867.719C104.754 869.258 98.065 870.824 91.3125 871.688C81.142 872.664 73.6794 881.705 74.6562 891.875C75.6331 902.045 84.6733 909.508 94.8438 908.531C103.44 907.892 111.996 906.376 120.469 904.844C132.467 902.674 144.417 900.118 156.281 897.312C192.414 888.769 228.003 877.976 262.875 865.25C276.498 860.279 289.993 855.061 303.438 849.625C307.407 848.02 311.392 846.463 315.344 844.812C321.366 842.298 327.401 839.784 333.375 837.156C336.874 835.617 340.441 834.152 343.844 832.406C346.796 830.892 349.691 829.262 352.594 827.656C362.397 822.231 371.884 816.32 381.219 810.125C395.429 800.694 409.199 790.583 422.375 779.75C450.077 756.974 475.222 730.855 495.469 701.188C506.853 684.506 516.651 666.739 524.5 648.125C549.859 587.987 555.196 521.125 549.25 456.656C547.006 432.327 543.188 408.156 538.156 384.25C536.033 374.16 533.648 364.16 531.156 354.156C529.517 347.574 527.746 341.023 526 334.469C524.139 327.484 522.456 320.425 520.375 313.5C519.415 310.305 518.267 307.156 517.188 304C515.957 300.404 514.768 296.791 513.469 293.219C512.184 289.686 510.759 286.214 509.375 282.719C507.03 276.799 504.559 270.938 502.031 265.094C496.395 252.065 490.426 239.155 484.25 226.375C473.482 204.093 461.707 182.306 449.281 160.906C437.903 141.311 425.978 122.009 413.125 103.344C410.2 98.4569 405.133 95.6336 399.844 95.3438Z" fill="#000000" stroke="none"/>
</g>
<g opacity="1" vectornator:layerName="Curve 3">
<path d="M589.281 532.094C588.188 532.012 587.067 532.043 585.938 532.188C576.899 533.345 570.499 541.617 571.656 550.656C571.739 552.934 571.636 555.221 571.656 557.5C571.7 562.393 571.857 567.268 572.062 572.156C572.72 587.792 574.084 603.368 576.406 618.844C577.217 624.248 578.086 629.622 579.219 634.969C579.613 636.83 579.99 638.728 580.5 640.562C581.274 643.343 582.012 646.185 583.062 648.875C584.149 651.655 585.487 654.335 586.625 657.094C589.774 664.731 592.82 672.423 596.188 679.969C607.746 705.866 622.011 730.735 639.969 752.75C658.244 775.154 680.467 794.033 704.5 810C710.723 814.135 717.047 818.078 723.5 821.844C727.061 823.922 730.625 826.089 734.312 827.938C736.129 828.849 737.997 829.682 739.844 830.531C740.793 830.968 741.633 831.35 742.625 831.688C744.528 832.335 746.498 832.817 748.438 833.344C752.2 834.366 755.98 835.364 759.719 836.469C763.28 837.522 766.831 838.672 770.375 839.781C788.363 845.412 806.407 850.933 824.719 855.438C831.595 857.129 838.5 858.565 845.438 859.969C855.377 862.335 865.352 856.189 867.719 846.25C870.085 836.311 863.939 826.336 854 823.969C853.773 823.772 852.854 823.597 852.562 823.5C851.295 823.077 850.043 822.629 848.781 822.188C844.673 820.751 840.587 819.233 836.531 817.656C829.939 815.094 823.366 812.424 816.938 809.469C811.686 807.055 806.532 804.418 801.406 801.75C794.588 798.201 787.851 794.391 781.531 790C778.683 788.021 775.902 785.884 773.219 783.688C771.519 782.295 769.888 780.71 768.031 779.531C763.546 776.684 758.889 774.2 754.281 771.562C748.793 768.421 743.362 765.138 738.062 761.688C719.187 749.4 701.497 734.98 686.906 717.75C669.253 696.903 655.938 672.596 645.375 647.5C643.825 643.818 642.315 640.086 641 636.312C640.14 633.844 639.53 631.295 638.719 628.812C637.93 626.4 636.876 624.033 635.906 621.688C634.167 617.482 632.033 613.413 630.062 609.312C627.38 603.73 624.821 598.082 622.344 592.406C617.733 581.841 613.225 571.264 609.25 560.438C608.019 557.085 606.826 553.729 605.688 550.344C605.375 549.415 605.056 548.493 604.75 547.562C604.657 547.278 604.578 546.674 604.375 546.438C603.362 538.528 596.935 532.665 589.281 532.094Z" fill="#000000" stroke="none"/>
</g>
</g>
</svg>
