<?xml version="1.0" encoding="UTF-8" standalone="no"?>
<!DOCTYPE svg PUBLIC "-//W3C//DTD SVG 1.1//EN" "http://www.w3.org/Graphics/SVG/1.1/DTD/svg11.dtd">
<!-- Created with Vectornator (http://vectornator.io/) -->
<svg height="100%" stroke-miterlimit="10" style="fill-rule:nonzero;clip-rule:evenodd;stroke-linecap:round;stroke-linejoin:round;" version="1.1" viewBox="0 0 1000 1000" width="100%" xml:space="preserve" xmlns="http://www.w3.org/2000/svg" xmlns:vectornator="http://vectornator.io" xmlns:xlink="http://www.w3.org/1999/xlink">
<defs/>
<clipPath id="ArtboardFrame">
<rect height="1000" width="1000" x="0" y="0"/>
</clipPath>
<g clip-path="url(#ArtboardFrame)" id="Layer-1" vectornator:layerName="Layer 1">
<g opacity="1" vectornator:layerName="Curve 1">
<path d="M658.625 32.4375C612.537 32.5344 566.557 37.6826 521.406 46.9375C460.077 59.5087 400.271 80.1273 344.875 109.375C286.618 140.133 232.535 181.773 193.188 235.031C189.542 246.32 200.663 260.016 218.031 265.625C235.399 271.234 252.448 266.633 256.094 255.344C288.966 217.071 332.764 189.286 379.281 170.5C417.25 155.166 457.219 144.691 497.781 139.094C535.772 133.851 574.152 132.405 612.406 135.312C621.083 135.972 629.844 136.699 638.375 138.469C650.531 140.991 662.317 145.379 673.219 151.312C715.011 174.057 743.26 218.16 746.562 265.625C747.622 280.852 746.033 296.245 742.031 310.969C742.047 310.898 742.16 310.627 742.125 310.531C742.103 310.469 742.063 310.63 742.031 310.688C742.003 310.739 741.965 310.791 741.938 310.844C741.82 311.072 741.713 311.305 741.594 311.531C741.332 312.028 741.059 312.512 740.781 313C740.026 314.329 739.201 315.621 738.375 316.906C735.932 320.708 733.43 324.463 730.781 328.125C728.291 331.568 725.708 334.932 723.094 338.281C715.404 348.134 707.445 357.755 699.281 367.219C694.527 372.731 689.594 378.076 684.812 383.562C681.278 387.618 677.859 391.802 674.344 395.875C664.298 407.516 654.121 419.048 643.688 430.344C624.612 450.996 604.708 470.864 584.688 490.594C571.258 503.828 557.582 516.803 543.875 529.75C530.513 542.371 517.092 554.934 503.562 567.375C482.021 587.183 460.161 606.661 438.281 626.094C409.927 651.277 381.427 676.289 352.688 701.031C337.507 714.1 322.201 727.034 306.906 739.969C275.069 766.893 243.073 793.619 210.938 820.188C190.373 837.19 169.725 854.124 149.031 870.969C139.389 878.817 129.672 886.549 120.062 894.438C112.142 902.641 115.942 919.189 128.562 931.375C141.183 943.561 157.829 946.766 165.75 938.562C211.274 904.216 256.651 869.672 301.688 834.688C338.031 806.456 374.125 777.933 410.188 749.344C436.31 728.635 462.451 707.927 488.375 686.969C515.9 664.717 543.237 642.259 570.5 619.688C615.308 582.59 659.838 545.158 703.531 506.75C722.631 489.96 741.829 473.256 760.625 456.125C766.294 450.958 771.937 445.748 777.531 440.5C780.254 437.946 783.029 435.434 785.688 432.812C793.3 425.306 800.649 417.508 807.938 409.688C819.382 397.408 830.566 384.805 840.969 371.625C852.399 357.143 863.25 342.146 872.062 325.906C876.458 317.806 880.391 309.404 883.406 300.688C886.491 291.769 888.367 282.5 889.812 273.188C893.131 251.811 893.224 230.005 889.875 208.625C887.547 193.765 883.592 179.105 878.031 165.125C863.098 127.581 836.493 94.8569 803.312 71.9062C793.895 65.3922 783.902 59.667 773.562 54.75C752.619 44.79 730.144 38.2383 707.188 35.0312C697.642 33.6977 688.036 33.0038 678.406 32.7188C671.821 32.5238 665.209 32.4237 658.625 32.4375Z" fill="#000000" stroke="none"/>
</g>
<g opacity="1" vectornator:layerName="Curve 2">
<path d="M807.125 615.781C794.956 615.172 780.044 623.566 769.406 638.25C755.223 657.829 754.024 681.187 766.75 690.406C769.429 691.297 771.904 693.17 774.062 694.938C779.04 699.013 783.181 704.081 786.75 709.406C791.134 715.947 794.674 723.026 797.562 730.344C802.606 743.121 805.814 756.866 806.188 770.625C806.335 776.053 806.081 781.572 804.844 786.875C804.263 789.364 803.516 791.934 802.219 794.156C802.047 794.45 801.701 795.08 801.344 795.219C800.958 795.368 801.51 794.221 801.219 794.406C800.666 794.758 800.196 795.367 799.719 795.812C798.948 796.532 798.162 797.234 797.375 797.938C795.228 799.857 793.003 801.714 790.719 803.469C782.309 809.931 773.281 815.361 763.594 819.688C759.683 821.434 755.681 823.083 751.594 824.375C743.433 826.956 734.497 828.841 725.906 828.719C722.485 828.67 719.074 828.347 715.688 827.875C713.831 827.616 711.962 827.118 710.094 826.969C705.909 826.634 701.758 826.39 697.594 825.812C694.243 825.348 690.862 824.838 687.531 824.25C685.717 823.93 683.939 823.509 682.125 823.188C675.019 821.929 668.072 820.181 661.156 818.125C659.644 817.675 658.112 817.285 656.625 816.75C650.468 814.535 644.571 811.721 638.75 808.75C635.341 807.01 631.974 805.222 628.656 803.312C618.078 797.223 607.83 790.27 598.688 782.156C596.624 780.325 594.702 778.355 592.812 776.344C593.853 774.966 594.95 773.652 596 772.281C596.863 771.155 597.697 769.976 598.594 768.875C600.449 766.598 602.374 764.388 604.281 762.156C610.875 754.443 618.034 747.304 625.469 740.406C632.393 733.982 639.674 727.844 647.312 722.281C649.746 720.509 652.242 718.835 654.719 717.125C657.471 715.225 660.291 713.465 663.125 711.688C664.34 710.926 665.54 710.126 666.781 709.406C668.393 708.472 670.035 707.602 671.656 706.688C672.885 705.994 674.121 705.273 675.375 704.625C677.012 703.78 678.666 703.012 680.312 702.188C685.375 699.652 690.6 697.371 695.938 695.469C707.35 696.08 717.341 682.339 718.281 664.781C719.222 647.223 710.757 632.486 699.344 631.875C690.257 633.593 681.271 635.961 672.438 638.688C656.639 643.565 641.218 649.558 626.281 656.656C585.48 676.046 547.8 702.007 514.938 733C505.536 741.866 496.493 751.062 487.938 760.75C485.511 763.498 483.117 766.299 480.781 769.125C479.829 770.277 478.854 771.35 477.969 772.562C472.637 779.867 468.273 787.86 465.531 796.5C463.866 801.748 462.847 807.188 462.562 812.688C461.416 834.84 472.94 854.737 486.344 871.438C489.105 874.878 492.044 878.189 495.062 881.406C502.477 889.307 510.446 896.682 518.812 903.562C531.612 914.089 545.583 923.504 560.625 930.531C569.118 934.499 578.008 937.715 587 940.344C591.971 941.797 597.011 943.181 602.094 944.188C617.681 947.275 633.598 948.37 649.469 947.875C654.792 947.709 660.138 947.455 665.438 946.906C670.837 946.347 676.247 945.266 681.562 944.188C692.035 942.063 702.311 939.323 712.531 936.219C727.128 931.786 741.515 926.583 755.469 920.406C787.914 906.044 818.248 886.878 845.156 863.75C857.466 853.17 869.061 841.692 879.312 829.094C885.468 821.53 891.28 813.523 895.875 804.906C898.878 799.275 901.353 793.366 903.281 787.281C907.482 774.026 908.85 760.042 908.125 746.188C906.916 723.084 899.764 700.265 888.844 679.938C884.688 672.202 879.923 664.778 874.531 657.844C863.875 644.139 850.567 632.098 834.625 624.906C829.321 622.514 823.81 620.724 818.125 619.5C814.943 617.195 811.181 615.984 807.125 615.781ZM584.469 788.5C584.33 788.777 584.238 789.07 584.094 789.344C583.114 791.197 582.109 792.878 580.938 794.625C580.458 795.34 579.955 796.032 579.438 796.719C579.388 796.785 579.213 796.949 579.25 796.875C579.548 796.269 579.971 795.738 580.312 795.156C581.636 792.902 583.056 790.698 584.469 788.5Z" fill="#000000" stroke="none"/>
</g>
</g>
</svg>
