<?xml version="1.0" encoding="UTF-8" standalone="no"?>
<!DOCTYPE svg PUBLIC "-//W3C//DTD SVG 1.1//EN" "http://www.w3.org/Graphics/SVG/1.1/DTD/svg11.dtd">
<!-- Created with Vectornator (http://vectornator.io/) -->
<svg height="100%" stroke-miterlimit="10" style="fill-rule:nonzero;clip-rule:evenodd;stroke-linecap:round;stroke-linejoin:round;" version="1.1" viewBox="0 0 1000 1000" width="100%" xml:space="preserve" xmlns="http://www.w3.org/2000/svg" xmlns:vectornator="http://vectornator.io" xmlns:xlink="http://www.w3.org/1999/xlink">
<defs/>
<clipPath id="ArtboardFrame">
<rect height="1000" width="1000" x="0" y="0"/>
</clipPath>
<g clip-path="url(#ArtboardFrame)" id="Layer-1" vectornator:layerName="Layer 1">
<g opacity="1" vectornator:layerName="Curve 1">
<path d="M537.781 415.25C526.325 415.245 514.88 415.591 503.438 416.125C499.793 416.295 496.105 416.3 492.469 416.594C488.66 416.902 484.855 417.531 481.062 418C473.896 418.887 466.712 419.793 459.531 420.562C443.455 422.286 427.311 423.407 411.188 424.594C403.6 425.152 395.997 425.581 388.406 426.094C379.416 426.701 370.429 427.378 361.438 427.969C343.807 429.127 326.198 430.299 308.594 431.812C294.357 433.036 280.145 434.482 265.938 436C260.496 436.582 255.055 437.129 249.625 437.812C228.054 440.528 206.631 444.264 185.156 447.625C165.533 450.696 145.853 453.485 126 454.5C112.88 448.811 95.1592 460.566 86.4062 480.75C77.6532 500.934 81.1928 521.904 94.3125 527.594C114.991 528.363 135.712 527.601 156.344 526.094C166.503 525.351 176.686 524.577 186.844 523.812C195.464 523.163 204.083 522.505 212.719 522.094C219.193 521.785 225.675 521.52 232.156 521.406C236.686 521.327 241.22 521.433 245.75 521.469C252.073 521.519 258.398 521.58 264.719 521.75C277.568 522.097 290.408 522.463 303.25 523.031C318.201 523.692 333.112 524.716 348.031 525.875C359.212 526.743 370.377 527.807 381.531 528.969C385.856 529.419 390.183 529.792 394.5 530.312C403.875 531.444 413.205 532.869 422.531 534.344C425.93 534.881 429.32 535.399 432.719 535.938C434.42 536.207 436.13 536.579 437.844 536.75C440.047 536.969 442.29 537.018 444.5 537.156C447.621 537.352 450.721 537.563 453.844 537.719C458.761 537.963 463.703 538.252 468.625 538.375C473.336 538.492 478.068 538.512 482.781 538.531C487.109 538.549 491.423 538.369 495.75 538.281C506.545 538.063 517.335 537.646 528.125 537.281C557.803 536.279 587.477 535.134 617.125 533.469C631.136 532.682 645.161 531.917 659.156 530.875C707.894 527.247 756.594 521.665 804.406 511.344C829.432 505.942 854.295 499.341 878.469 490.875C889.917 491.617 900.14 477.925 901.281 460.312C902.422 442.7 894.042 427.836 882.594 427.094C873.31 428.776 863.943 430.008 854.562 431C832.022 433.384 809.341 434.073 786.688 433.75C773.634 433.564 760.599 433.151 747.562 432.438C708.294 430.288 669.217 425.763 630.094 421.906C607.827 419.711 585.564 417.467 563.219 416.219C554.765 415.747 546.251 415.254 537.781 415.25Z" fill="#000000" stroke="none"/>
</g>
<g opacity="1" vectornator:layerName="Curve 2">
<path d="M691.156 141.938C685.078 141.845 678.996 142.233 672.938 142.656C670.191 142.848 667.431 143.105 664.688 143.344C663.143 143.478 662.066 143.549 660.531 143.812C656.879 144.441 653.253 145.338 649.625 146.094C643.201 147.432 636.76 148.704 630.281 149.75C626.091 150.426 621.892 150.922 617.688 151.5C605.268 153.206 592.792 154.64 580.312 155.844C568.069 157.025 555.794 157.922 543.531 158.875C534.144 159.604 524.758 160.47 515.344 160.75C484.91 161.655 454.308 161.089 424.344 167.438C411.415 164.206 396.909 177.735 391.938 197.625C386.966 217.515 393.415 236.237 406.344 239.469C414.456 238.865 422.727 239.272 430.812 240.062C434.858 240.458 438.898 240.814 442.938 241.281C453.002 242.446 463.062 243.881 473.125 245.062C488.66 246.886 504.219 248.575 519.781 250.156C525.647 250.752 531.515 251.219 537.375 251.875C541.78 252.368 546.162 252.968 550.562 253.5C555.688 254.12 560.828 254.627 565.938 255.375C574.624 256.647 583.393 257.784 591.969 259.688C596.185 260.623 600.397 261.699 604.594 262.719C606.412 263.161 608.167 263.636 610.031 263.844C613.848 264.269 617.699 264.513 621.531 264.75C626.726 265.071 631.948 265.311 637.156 265.188C645.243 264.995 653.353 264.346 661.406 263.625C666.177 263.198 670.955 262.836 675.719 262.344C682.334 261.66 688.941 260.916 695.562 260.281C705.152 259.361 714.734 258.304 724.312 257.281C764.408 253 804.65 246.904 842.906 233.75C862.663 226.957 882.05 218.382 899.75 207.219C909.56 203.665 913.062 188.561 907.594 173.469C902.126 158.377 889.747 149.008 879.938 152.562C877.567 153.322 875.155 153.822 872.719 154.312C868.203 155.222 863.681 155.883 859.094 156.312C845.063 157.626 830.756 157.126 816.75 155.844C815.029 155.686 813.314 155.604 811.594 155.438C806.703 154.965 801.812 154.316 796.938 153.688C783.532 151.959 770.167 150.012 756.781 148.125C751.718 147.411 746.638 146.813 741.562 146.188C728.078 144.527 714.567 143.121 701 142.344C697.731 142.157 694.43 141.988 691.156 141.938Z" fill="#000000" stroke="none"/>
</g>
<g opacity="1" vectornator:layerName="Curve 3">
<path d="M440.375 53.3438C431.009 53.6717 423.395 57.5255 420.719 64.25C418.338 66.2514 415.888 68.1695 413.469 70.125C409.244 73.5401 405.027 76.9485 400.812 80.375C386.237 92.2244 371.708 104.153 357.469 116.406C344.07 127.936 330.683 139.575 318.312 152.219C309.975 160.74 302.181 170.198 297.5 181.281C296.725 183.116 295.924 184.939 295.344 186.844C294.488 189.655 293.649 192.504 293.188 195.406C292.701 198.464 292.517 201.56 292.5 204.656C292.489 206.726 292.804 208.794 293.094 210.844C293.276 212.137 293.626 213.388 293.938 214.656C295.012 219.033 296.809 223.199 298.75 227.25C300.455 230.809 302.256 234.385 304.375 237.719C305.254 239.102 306.293 240.414 307.281 241.719C309.487 244.632 312.046 247.29 314.656 249.844C315.607 250.774 316.509 251.773 317.531 252.625C318.962 253.817 320.617 254.636 322.219 255.562C324.949 257.142 327.746 258.638 330.438 260.281C335.954 263.649 341.063 267.679 346.219 271.562C348.867 273.557 351.407 275.74 353.969 277.844C356.574 279.983 359.18 282.1 361.75 284.281C363.993 286.185 366.158 288.218 368.344 290.188C372.082 293.554 375.803 296.904 379.531 300.281C383.198 303.603 386.919 306.868 390.531 310.25C393.12 312.673 395.603 315.227 398.125 317.719C402.284 321.829 406.403 325.984 410.5 330.156C416.942 336.718 423.421 343.296 429.406 350.281C438.451 364.939 464.044 365.54 486.594 351.625C509.143 337.71 520.108 314.564 511.062 299.906C507.891 292.869 504.339 285.988 500.75 279.156C495.353 268.885 489.689 258.771 484.062 248.625C482.893 246.517 481.878 244.334 480.781 242.188C479.282 239.254 477.754 236.306 476.25 233.375C473.978 228.95 471.717 224.546 469.438 220.125C468.305 217.928 467.098 215.73 466.031 213.5C463.58 208.374 461.302 203.181 458.969 198C457.679 195.136 456.593 192.151 455.469 189.219C454.116 185.69 452.789 182.135 451.844 178.469C451.116 175.646 450.59 172.761 450 169.906C449.657 168.248 449.389 166.55 448.75 164.969C448.296 163.844 447.665 162.805 447.125 161.719C446.139 159.735 445.107 157.78 444.031 155.844C443.99 155.77 443.948 155.698 443.906 155.625C444.052 155.355 444.201 155.084 444.344 154.812C449.598 144.804 455.105 134.917 460.531 125C464.003 118.655 467.409 112.285 470.875 105.938C473.02 102.008 475.187 98.0792 477.344 94.1562C478.451 92.1413 479.624 90.1489 480.656 88.0938C484.938 77.3346 474.99 63.2753 458.438 56.6875C452.23 54.2171 445.994 53.147 440.375 53.3438ZM435.938 170.406C435.596 171.697 435.355 173.005 434.969 174.281C434.46 175.965 433.746 177.598 433.062 179.219C432.604 180.305 432.096 181.355 431.562 182.406C430.698 184.111 429.719 185.794 428.594 187.344C428.311 187.734 427.827 188.465 427.344 188.688C426.921 188.883 427.3 187.912 427.312 187.875C427.366 187.708 427.441 187.54 427.5 187.375C427.855 186.376 428.275 185.399 428.719 184.438C429.894 181.893 431.186 179.413 432.5 176.938C433.653 174.765 434.792 172.582 435.938 170.406Z" fill="#000000" stroke="none"/>
</g>
<g opacity="1" vectornator:layerName="Curve 4">
<path d="M663.375 746.438C658.241 746.235 653.097 746.488 647.969 746.688C644.78 746.812 641.551 746.899 638.375 747.219C636.097 747.448 633.84 748.009 631.594 748.438C627.021 749.31 622.472 750.295 617.875 751.031C605.743 752.975 593.49 754.192 581.25 755.219C575.21 755.725 569.173 756.277 563.125 756.688C552.164 757.431 541.185 757.96 530.219 758.625C523.162 759.053 516.09 759.611 509.031 760C498.61 760.575 488.173 760.912 477.75 761.469C460.832 762.372 443.927 763.443 427.031 764.688C413.911 758.815 395.973 770.44 386.938 790.625C377.902 810.81 381.192 831.909 394.312 837.781C410.915 839.208 427.499 840.868 444.062 842.688C451.876 843.546 459.708 844.338 467.5 845.375C476.77 846.609 486.001 848.061 495.25 849.438C502.093 850.456 508.952 851.423 515.781 852.531C520.638 853.319 525.472 854.244 530.312 855.125C539.97 856.883 549.68 858.724 559.188 861.188C563.413 862.282 567.564 863.568 571.719 864.906C573.978 865.634 576.236 866.492 578.531 867.094C580.035 867.488 581.589 867.608 583.125 867.812C585.101 868.076 587.08 868.347 589.062 868.562C594.807 869.186 600.621 869.791 606.406 869.688C623.098 869.388 639.693 867.848 656.281 866.062C661.996 865.448 667.738 864.835 673.438 864.094C676.813 863.655 680.177 863.096 683.562 862.75C685.687 862.533 687.82 862.405 689.938 862.125C691.394 861.933 692.868 861.58 694.312 861.312C698.188 860.593 702.062 859.876 705.938 859.156C707.383 858.888 708.825 858.541 710.281 858.344C713.015 857.973 715.759 857.706 718.469 857.188C720.383 856.821 722.304 856.192 724.188 855.688C727.997 854.666 731.817 853.62 735.625 852.594C738.311 851.87 741.028 851.356 743.719 850.656C745.615 850.163 747.469 849.509 749.344 848.938C752.165 848.078 754.991 847.203 757.812 846.344C767.009 843.542 776.213 840.693 785.375 837.781C794.154 834.991 802.989 832.365 811.938 830.156C816.241 829.094 820.554 828.048 824.938 827.375C837.022 832.635 853.376 821.81 861.469 803.219C869.562 784.628 866.334 765.292 854.25 760.031C851.244 759.543 848.218 759.265 845.188 758.969C839.527 758.416 833.839 758.056 828.156 757.844C812.497 757.26 796.818 757.712 781.156 757.969C777.192 758.034 773.214 758.089 769.25 758.156C767.929 758.179 766.634 758.228 765.312 758.25C764.872 758.257 764.407 758.295 763.969 758.25C763.827 758.236 763.891 757.928 763.75 757.906C762.881 757.775 762.003 757.861 761.125 757.844C759.808 757.818 758.474 757.807 757.156 757.781C754.521 757.73 751.885 757.667 749.25 757.625C748.371 757.611 747.504 757.608 746.625 757.594C746.185 757.587 745.218 757.992 745.312 757.562C745.415 757.096 746.223 757.33 746.688 757.219C747.119 757.115 748.018 757.349 748 756.906C747.982 756.468 747.124 756.82 746.688 756.781C745.378 756.664 744.06 756.553 742.75 756.438C739.693 756.168 736.619 755.926 733.562 755.656C732.689 755.579 731.842 755.483 730.969 755.406C730.532 755.368 730.069 755.429 729.656 755.281C729.503 755.227 729.968 755.197 730.094 755.094C730.156 755.042 730.233 754.899 730.156 754.875C729.221 754.582 728.22 754.61 727.25 754.469C725.886 754.27 724.521 754.038 723.156 753.844C718.497 753.182 713.843 752.564 709.188 751.875C704.543 751.188 699.875 750.447 695.219 749.844C692.76 749.525 690.303 749.254 687.844 748.938C681.665 748.143 675.497 747.338 669.281 746.875C667.315 746.728 665.346 746.515 663.375 746.438Z" fill="#000000" stroke="none"/>
</g>
<g opacity="1" vectornator:layerName="Curve 5">
<path d="M488.406 632.062C480.787 632.134 472.38 633.97 464.125 637.688C445.399 646.121 433.616 661.572 434.438 674.812C434.425 674.811 434.42 674.781 434.406 674.781C433.967 674.783 433.641 675.328 433.312 675.531C433.266 675.56 433.195 675.524 433.156 675.562C432.902 675.817 432.68 676.109 432.438 676.375C431.36 677.558 430.262 678.718 429.156 679.875C424.755 684.482 420.24 689.011 415.656 693.438C404.806 703.916 393.544 713.987 382.156 723.875C374.96 730.123 367.62 736.184 360.375 742.375C356.258 745.893 352.039 749.328 347.844 752.75C342.404 757.187 337.017 761.673 331.562 766.094C327.712 769.215 323.811 772.244 319.969 775.375C315.487 779.026 310.93 782.621 306.406 786.219C305.115 787.246 303.834 788.269 302.531 789.281C301.994 789.698 301.441 790.081 300.906 790.5C300.854 790.541 300.797 790.61 300.75 790.656C300.682 790.723 300.48 790.891 300.562 790.844C301.355 790.391 302.081 789.665 302.812 789.125C304.202 788.1 305.592 787.109 307.031 786.156C307.641 785.752 308.26 785.365 308.875 784.969C309.194 784.764 310.131 784.096 309.844 784.344C300.836 792.11 291.763 799.808 282.719 807.531C282.714 807.535 282.691 807.527 282.688 807.531C281.629 808.838 280.523 810.111 279.531 811.469C277.664 814.024 275.793 816.593 274.125 819.281C272.632 821.687 271.296 824.17 270.062 826.719C268.989 828.936 268.053 831.214 267.219 833.531C266.506 835.512 265.911 837.55 265.406 839.594C264.297 844.083 263.939 848.613 264.031 853.219C264.043 853.794 263.958 854.387 264.125 854.938C265.642 859.937 266.912 865.024 268.688 869.938C269.106 871.095 269.952 872.045 270.688 873.031C272.736 875.778 275.003 878.172 277.656 880.312C282.41 884.147 288.261 886.695 293.875 889C295.616 889.714 297.345 890.431 299.094 891.125C299.734 891.379 300.369 891.688 301.031 891.875C302.904 892.403 304.848 892.738 306.75 893.156C311.537 894.208 316.36 895.137 321.125 896.281C327.917 897.912 334.613 899.908 341.312 901.875C352.431 905.14 363.477 908.703 374.469 912.375C381.558 914.743 388.569 917.316 395.625 919.781C405.893 923.368 416.206 926.837 426.469 930.438C433.558 932.925 440.597 935.617 447.656 938.188C460.214 942.761 472.798 947.282 485.438 951.625C490.106 953.229 494.763 954.82 499.469 956.312C502.469 957.264 505.502 958.225 508.562 958.969C521.181 968.591 543.384 960.663 558.188 941.25C572.991 921.837 574.774 898.31 562.156 888.688C562.228 888.62 562.383 888.733 562.438 888.656C562.481 888.595 561.98 888.35 561.969 888.344C561.55 888.104 561.112 887.855 560.688 887.625C559.106 886.767 557.544 885.932 555.969 885.062C552.584 883.193 549.199 881.266 545.844 879.344C534.749 872.988 523.764 866.485 512.781 859.938C508.461 857.362 504.103 854.831 499.844 852.156C489.16 845.447 478.603 838.508 468.031 831.625C464.514 829.335 460.964 827.089 457.5 824.719C452.89 821.565 448.329 818.335 443.781 815.094C439.917 812.34 436.085 809.522 432.312 806.625C445.136 790.11 457.46 773.189 469.031 755.781C481.248 737.404 493.089 718.727 503.031 699C506.352 692.412 509.416 685.726 512 678.812C513.728 674.189 515.22 669.479 516.156 664.625C517.357 658.4 517.684 651.717 515.656 645.625C511.628 636.682 501.106 631.943 488.406 632.062ZM435.312 679.281C435.542 680.031 435.611 680.807 435.938 681.531C435.63 680.985 435.511 680.327 435.375 679.719C435.343 679.574 435.34 679.426 435.312 679.281ZM396.438 775.938C396.412 775.829 396.683 775.979 396.781 776.031C396.885 776.087 396.962 776.158 397.062 776.219C397.488 776.475 397.802 776.66 398.219 776.969C398.928 777.493 399.847 778.244 400.469 778.812C400.572 778.907 400.647 779.029 400.75 779.125C400.024 778.615 399.288 778.103 398.562 777.594C398.016 777.21 397.492 776.821 396.969 776.406C396.847 776.31 396.479 776.109 396.438 775.938Z" fill="#000000" stroke="none"/>
</g>
</g>
</svg>
