<?xml version="1.0" encoding="UTF-8" standalone="no"?>
<!DOCTYPE svg PUBLIC "-//W3C//DTD SVG 1.1//EN" "http://www.w3.org/Graphics/SVG/1.1/DTD/svg11.dtd">
<!-- Created with Vectornator (http://vectornator.io/) -->
<svg height="100%" stroke-miterlimit="10" style="fill-rule:nonzero;clip-rule:evenodd;stroke-linecap:round;stroke-linejoin:round;" version="1.1" viewBox="0 0 1000 1000" width="100%" xml:space="preserve" xmlns="http://www.w3.org/2000/svg" xmlns:vectornator="http://vectornator.io" xmlns:xlink="http://www.w3.org/1999/xlink">
<defs/>
<clipPath id="ArtboardFrame">
<rect height="1000" width="1000" x="0" y="0"/>
</clipPath>
<g clip-path="url(#ArtboardFrame)" id="Layer-1" vectornator:layerName="Layer 1">
<g opacity="1" vectornator:layerName="Curve 1">
<path d="M74.2812 290.969C64.6943 290.929 53.5933 294.233 43.2812 300.875C22.6572 314.159 12.9595 335.782 21.5938 349.188C56.4076 410.896 96.8017 469.696 144.656 522.062C165.417 544.78 187.338 566.39 210.781 586.344C229.883 602.602 249.694 617.928 270.531 631.906C279.767 638.102 289.131 644.132 298.656 649.875C303.746 652.944 308.923 655.876 314.125 658.75C327 665.864 340.065 672.558 353.469 678.625C360.565 681.837 367.755 684.937 375.031 687.719C386.25 692.008 397.736 695.59 409.281 698.875C416.062 700.804 422.9 702.525 429.75 704.188C432.669 704.896 435.58 705.683 438.531 706.25C440.29 706.588 442.075 706.787 443.844 707.062C448.73 707.825 453.631 708.493 458.531 709.156C466.564 710.243 474.603 711.146 482.656 712.062C486.766 712.531 490.885 713.044 495 713.469C499.438 713.927 503.875 714.291 508.312 714.75C518.256 715.779 528.212 716.604 538.188 717.25C542.642 717.539 547.108 717.75 551.562 718.031C573.104 719.391 594.669 719.957 616.25 720.188C632.996 720.366 649.753 720.452 666.5 720.188C691.81 719.788 717.084 718.785 742.375 717.781C762.495 716.983 782.586 715.938 802.656 714.281C848.517 710.495 894.329 703.41 938.531 690.406C951.055 691.315 962.352 676.423 963.75 657.156C965.148 637.889 956.117 621.534 943.594 620.625C916.323 626.853 888.385 630.097 860.469 631.5C834.334 632.813 808.151 632.802 782 631.938C769.481 631.524 756.974 630.825 744.469 630.125C693.25 627.258 641.793 623.088 591.688 611.594C580.535 609.035 569.461 606.093 558.594 602.5C556.048 601.658 553.546 600.71 551.031 599.781C544.666 597.43 538.317 594.996 532.031 592.438C529.876 591.56 527.758 590.603 525.594 589.75C524.198 589.2 522.766 588.784 521.344 588.312C519.099 587.568 516.853 586.792 514.625 586C506.936 583.267 499.267 580.518 491.625 577.656C488.419 576.456 485.179 575.346 481.969 574.156C479.245 573.147 476.539 572.095 473.812 571.094C470.652 569.933 467.441 568.851 464.281 567.688C451.444 562.963 438.647 558.153 426 552.938C397.117 541.026 368.933 527.478 341.719 512.125C246.951 458.661 165.397 384.685 96.2812 301.094C91.9641 294.391 83.8682 291.009 74.2812 290.969Z" fill="#000000" stroke="none"/>
</g>
</g>
</svg>
