<?xml version="1.0" encoding="UTF-8" standalone="no"?>
<!DOCTYPE svg PUBLIC "-//W3C//DTD SVG 1.1//EN" "http://www.w3.org/Graphics/SVG/1.1/DTD/svg11.dtd">
<!-- Created with Vectornator (http://vectornator.io/) -->
<svg height="100%" stroke-miterlimit="10" style="fill-rule:nonzero;clip-rule:evenodd;stroke-linecap:round;stroke-linejoin:round;" version="1.1" viewBox="0 0 1000 1000" width="100%" xml:space="preserve" xmlns="http://www.w3.org/2000/svg" xmlns:vectornator="http://vectornator.io" xmlns:xlink="http://www.w3.org/1999/xlink">
<defs/>
<clipPath id="ArtboardFrame">
<rect height="1000" width="1000" x="0" y="0"/>
</clipPath>
<g clip-path="url(#ArtboardFrame)" id="Layer-1" vectornator:layerName="Layer 1">
<g opacity="1" vectornator:layerName="Curve 1">
<path d="M513.625 34.375C487.007 34.4519 460.434 39.2363 435.094 47.25C406.515 56.2878 379.283 69.1943 354.094 85.4375C339.34 94.9516 325.043 105.297 311.938 117C308.655 119.931 305.347 122.841 302.219 125.938C297.291 130.816 292.538 135.977 288 141.219C283.127 146.848 278.698 152.82 274.125 158.688C249.593 190.17 229.607 225.27 216.5 263.031C201.496 306.259 195.638 352.696 200.875 398.219C201.76 405.909 202.956 413.558 204.438 421.156C206.315 430.788 208.703 440.283 212.188 449.469C221.351 473.629 237.128 494.657 257.094 510.969C287.076 535.463 324.664 548.737 362.312 555.844C377.612 558.732 393.141 560.752 408.688 561.656C412.631 561.886 416.583 562.091 420.531 562.219C422.034 562.267 423.559 562.354 425.062 562.344C427.965 562.324 430.855 562.056 433.75 561.875C440.73 561.438 447.709 560.842 454.656 560.031C459.038 559.52 463.404 558.918 467.781 558.375C480.873 556.75 493.96 555.086 506.969 552.875C517.74 551.044 528.516 549.209 539.219 547C549.117 544.957 558.938 542.608 568.719 540.062C580.878 536.898 592.956 533.48 604.906 529.594C626.401 522.603 647.683 514.097 667.219 502.656C678.41 496.51 682.49 482.472 676.344 471.281C670.197 460.09 656.16 455.978 644.969 462.125C628.814 470.343 611.416 476.049 593.969 480.812C565.549 488.572 536.373 493.065 507.031 495.406C497.016 496.205 486.922 496.603 476.875 496.531C472.431 496.5 467.971 496.506 463.531 496.281C454.82 495.84 446.113 495.009 437.438 494.125C434.036 493.779 430.628 493.195 427.219 492.938C423.849 492.683 420.467 492.568 417.094 492.344C410.133 491.88 403.183 491.278 396.25 490.5C373.863 487.987 351.4 483.383 330.531 474.719C314.502 468.063 299.064 458.889 287.656 445.594C281.673 438.62 276.994 430.599 273.844 421.969C270.969 414.093 269.319 405.705 267.875 397.469C262.714 368.028 263.497 337.675 269.938 308.5C278.767 268.5 297.85 231.026 323.031 198.875C326.904 193.93 331.185 189.273 335.438 184.656C337.945 181.934 340.4 179.163 342.938 176.469C344.949 174.333 347.049 172.287 349.031 170.125C361.538 156.486 374.923 143.638 389.156 131.812C393.865 127.901 398.76 124.222 403.688 120.594C416.462 111.187 429.985 102.83 444.031 95.4688C466.529 83.6783 491.088 75.0705 516.281 71.5C526.531 70.7624 534.269 61.8751 533.531 51.625C532.794 41.3749 523.875 33.6374 513.625 34.375Z" fill="#000000" stroke="none"/>
</g>
<g opacity="1" vectornator:layerName="Curve 2">
<path d="M740.188 348.469C729.911 348.501 721.624 356.849 721.656 367.125C720.638 385.52 721.129 404.004 721.75 422.406C722.578 446.964 723.903 471.494 725.188 496.031C726.284 516.964 727.593 537.88 728.688 558.812C729.65 577.226 730.463 595.664 731.688 614.062C731.93 617.708 732.285 621.36 732.594 625C733.12 631.197 733.619 637.372 734.219 643.562C734.713 648.666 735.287 653.792 735.656 658.906C736.724 673.681 737.286 688.504 737.625 703.312C738.058 722.222 737.938 741.159 736.562 760.031C735.644 772.634 734.229 785.261 731.562 797.625C729.891 805.376 727.777 813.182 724.25 820.312C723.071 822.696 721.709 825.07 719.969 827.094C718.94 828.29 717.667 829.267 716.469 830.281C714.72 831.761 712.963 833.186 711.156 834.594C705.085 839.324 698.68 843.645 692.094 847.625C660.412 866.766 624.677 878.419 588.906 887.188C569.787 891.874 550.404 895.471 530.969 898.562C507.67 902.269 484.223 905.046 460.719 907.062C446.665 908.268 432.609 909.13 418.531 910C414.747 910.234 410.942 910.479 407.156 910.688C405.127 910.799 403.086 910.85 401.062 911.031C399.008 911.215 396.953 911.497 394.906 911.75C392.207 912.083 389.514 912.371 386.812 912.688C378.473 913.665 370.103 914.549 361.75 915.406C351.617 916.446 341.42 917.039 331.25 917.531C312.175 918.456 293.096 918.821 274 918.875C238.996 918.974 203.994 917.793 169.062 915.562C158.559 914.892 148.086 914.001 137.594 913.188C124.92 911.637 113.395 920.639 111.844 933.312C110.293 945.986 119.295 957.512 131.969 959.062C161.922 963.288 192.024 966.417 222.156 969.031C251.871 971.61 281.622 973.83 311.406 975.438C322.665 976.045 333.899 976.682 345.156 977.312C349.615 977.562 354.106 977.725 358.562 978C369.77 978.691 380.936 979.461 392.156 979.938C396.052 980.103 399.975 980.343 403.875 980.375C407.079 980.402 410.298 980.151 413.5 980.031C420.405 979.774 427.324 979.463 434.219 979C449.513 977.973 464.782 976.727 480.031 975.156C529.014 970.11 577.826 962.066 625.094 948.031C664.792 936.244 704.16 919.988 738.125 896C744.909 891.209 751.454 886.079 757.719 880.625C761.613 877.234 765.396 873.751 768.75 869.812C774.348 863.239 778.86 855.782 782.5 847.969C790.843 830.061 794.979 810.376 797.531 790.875C799.408 776.535 800.314 762.104 800.812 747.656C801.357 731.882 801.246 716.088 800.844 700.312C800.566 689.412 800.066 678.514 799.5 667.625C799.252 662.858 798.932 658.081 798.719 653.312C798.409 646.38 798.144 639.46 797.75 632.531C797.475 627.692 797.027 622.831 796.625 618C796.356 614.763 796.143 611.54 795.781 608.312C792.466 578.743 787.461 549.311 782.562 519.969C777.506 489.68 771.935 459.466 767 429.156C765.217 418.205 763.492 407.245 762 396.25C760.682 386.538 759.525 376.782 758.875 367C758.843 356.723 750.464 348.436 740.188 348.469Z" fill="#000000" stroke="none"/>
</g>
<g opacity="1" vectornator:layerName="Curve 3">
<path d="M770.719 28.9375C748.89 29.1577 727.076 33.2523 705.969 39.1562C697.784 41.4457 689.674 44.0619 681.688 46.9688C670.512 51.0364 659.595 55.6986 648.906 60.9062C637.338 66.3084 632.317 80.0563 637.719 91.625C643.121 103.194 656.9 108.183 668.469 102.781C668.384 102.833 668.657 102.724 668.75 102.688C668.814 102.663 669.182 102.514 669.219 102.5C669.587 102.356 669.943 102.205 670.312 102.062C671.263 101.697 672.232 101.352 673.188 101C675.852 100.018 678.525 99.0853 681.219 98.1875C689.373 95.4694 697.641 93.0694 706 91.0625C722.073 87.2034 738.472 84.7678 755.031 85C764.732 85.136 774.661 86.1422 783.844 89.4375C786.104 90.2487 788.401 91.1331 790.531 92.25C794.024 94.0812 797.242 96.5685 800.25 99.0938C801.501 100.144 802.663 101.277 803.812 102.438C804.362 102.992 804.882 103.608 805.469 104.125C806.795 105.294 808.169 106.387 809.438 107.625C813.459 111.55 817.011 115.91 819.875 120.75C825.96 131.034 829.044 142.865 830.188 154.688C831.615 169.447 830.051 184.488 825.688 198.656C823.12 206.991 819.627 215.043 814.875 222.375C811.518 227.554 807.523 232.398 802.844 236.438C799.036 239.725 794.705 242.385 790.312 244.812C783.135 248.78 775.573 251.983 767.75 254.438C749.339 260.213 729.465 262.175 710.312 259.719C702.42 258.706 694.45 257.039 687 254.188C683.564 252.873 680.311 251.114 677.062 249.406C675.471 248.569 673.843 247.768 672.281 246.875C670.734 245.991 669.272 245.018 667.75 244.094C666.231 243.171 664.68 242.312 663.188 241.344C659.676 239.065 656.245 236.588 653.031 233.906C646.783 228.692 641.346 222.597 636.812 215.844C633.746 211.276 631.106 206.569 629.406 201.312C626.588 192.596 626.068 183.208 626.812 174.125C627.47 166.102 629.114 158.218 631.375 150.5C632.077 148.104 632.864 145.721 633.719 143.375C634.024 142.537 634.332 141.706 634.656 140.875C634.76 140.608 634.865 140.361 634.969 140.094C634.976 140.074 635.107 139.714 635.062 139.781C640.236 130.902 637.223 119.517 628.344 114.344C619.464 109.17 608.08 112.183 602.906 121.062C600.216 125.42 597.514 129.711 595.125 134.25C588.243 147.323 582.981 161.361 580.125 175.875C577.156 190.962 576.848 206.702 580.219 221.75C582.749 233.046 587.482 243.863 593.125 253.938C601.292 268.52 611.974 281.672 624.938 292.25C627.368 294.233 629.847 296.196 632.438 297.969C634.585 299.439 636.876 300.756 639.125 302.062C642.235 303.869 645.402 305.621 648.656 307.156C654.643 309.98 660.877 312.13 667.125 314.281C706.156 327.72 749.545 326.927 788.844 315.031C800.643 311.46 812.161 306.827 823.062 301.062C829.613 297.599 835.983 293.775 841.906 289.312C859.818 275.819 873.573 257.363 883.125 237.188C901.447 198.488 905.245 151.714 891.469 111C884.912 91.621 874.233 73.2282 859.438 58.9688C854.399 54.1125 849.028 49.4804 842.938 46C837.745 43.0327 832.338 40.3876 826.75 38.25C821.241 36.1428 815.607 34.5223 809.875 33.1562C796.917 30.0679 783.816 28.8054 770.719 28.9375Z" fill="#000000" stroke="none"/>
</g>
</g>
</svg>
