<?xml version="1.0" encoding="UTF-8" standalone="no"?>
<!DOCTYPE svg PUBLIC "-//W3C//DTD SVG 1.1//EN" "http://www.w3.org/Graphics/SVG/1.1/DTD/svg11.dtd">
<!-- Created with Vectornator (http://vectornator.io/) -->
<svg height="100%" stroke-miterlimit="10" style="fill-rule:nonzero;clip-rule:evenodd;stroke-linecap:round;stroke-linejoin:round;" version="1.1" viewBox="0 0 1000 1000" width="100%" xml:space="preserve" xmlns="http://www.w3.org/2000/svg" xmlns:vectornator="http://vectornator.io" xmlns:xlink="http://www.w3.org/1999/xlink">
<defs/>
<clipPath id="ArtboardFrame">
<rect height="1000" width="1000" x="0" y="0"/>
</clipPath>
<g clip-path="url(#ArtboardFrame)" id="Layer-1" vectornator:layerName="Layer 1">
<g opacity="1" vectornator:layerName="Curve 1">
<path d="M615.375 121.281C593.898 121.345 572.35 122.918 551.094 126C525.125 129.765 499.402 135.457 474.469 143.688C440.833 154.791 408.451 169.901 379.156 189.906C368.377 197.737 369.39 217.51 381.438 234.094C393.485 250.678 412.002 257.8 422.781 249.969C437.186 240.794 453.129 233.815 469.438 228.812C487.435 223.292 505.893 219.429 524.625 217.469C539.974 215.862 555.443 215.136 570.875 215.656C582.236 216.039 593.602 216.845 604.875 218.344C661.719 225.9 718.777 246.84 760.594 287.25C766.384 292.846 771.844 298.8 776.906 305.062C783.433 313.136 789.315 321.732 794.406 330.781C799.023 338.988 803.026 347.557 806.25 356.406C813.526 376.378 817.213 397.473 819.031 418.594C820.968 441.093 820.489 463.842 818.031 486.281C815.6 508.481 811.531 530.421 805.406 551.906C794.763 589.243 775.9 624.897 748.906 652.969C738.77 663.51 727.396 672.954 715.5 681.438C711.234 684.48 706.827 687.314 702.469 690.219C698.003 693.195 693.633 696.288 689.094 699.156C679.393 705.286 669.409 710.978 659.25 716.312C649.111 721.637 638.832 726.789 628.406 731.531C622.35 734.286 616.203 736.89 610.188 739.719C606.406 741.497 602.491 742.969 598.594 744.469C589.965 747.79 581.023 750.345 572.062 752.594C558.905 755.896 545.502 758.045 532.031 759.562C525.672 760.279 519.27 760.791 512.875 761.062C507.334 761.298 501.795 761.395 496.25 761.438C476.98 761.586 457.782 760.081 438.719 757.312C422.214 754.916 405.932 751.264 389.875 746.781C338.622 732.472 289.824 707.285 250.969 670.625C230.17 651.001 212.11 628.03 199.406 602.344C173.631 550.23 168.79 488.417 180.562 431.906C185.5 408.205 193.495 384.991 204.938 363.625C209.28 355.517 214.124 347.684 219.5 340.219C222.424 336.159 225.562 332.274 228.656 328.344C239.117 315.057 249.796 301.717 262.094 290.062C265.558 286.78 269.15 283.667 273 280.844C275.72 278.849 278.62 276.9 281.781 275.688C294.829 274.765 304.263 257.761 302.844 237.688C301.425 217.614 289.673 202.078 276.625 203C260.982 207.853 246.107 215.168 232.188 223.75C203.063 241.707 178.296 265.649 155.281 290.75C145.305 301.63 135.349 312.531 126.312 324.219C112.111 342.587 99.6996 362.348 89.2188 383.062C60.8199 439.192 45.9188 502.489 47.4062 565.438C48.3006 603.287 55.1835 641.164 69.2812 676.375C77.5615 697.056 88.3856 716.684 101.094 734.969C145.731 799.194 213.119 845.057 285.875 871.969C303.533 878.5 321.621 883.769 339.906 888.219C356.39 892.23 373.121 895.285 389.938 897.5C412.115 900.42 434.47 901.993 456.844 901.844C477.632 901.705 498.387 900.391 519 897.656C525.31 896.819 531.638 895.957 537.906 894.844C557.08 891.438 576.113 887.024 594.719 881.25C612.324 875.787 629.56 869.27 646.469 861.938C653.457 858.907 660.366 855.664 667.25 852.406C689.275 841.983 710.727 830.455 731.562 817.812C744.467 809.982 757.069 801.679 769.375 792.938C775.587 788.525 781.8 784.067 787.781 779.344C797.698 771.512 807.211 763.126 816.469 754.531C851.093 722.389 881.228 685.415 904.656 644.344C916.023 624.418 925.692 603.455 933.312 581.812C954.37 522.005 961.146 457.704 956.375 394.625C955.27 380.019 953.3 365.512 950.562 351.125C946.466 329.598 940.177 308.324 931.125 288.344C923.742 272.049 914.392 256.615 903.531 242.406C866.109 193.444 811.149 160.456 753.062 141.75C734.904 135.902 716.342 131.423 697.562 128.094C684.85 125.84 672.013 124.217 659.156 123.062C644.599 121.755 629.987 121.238 615.375 121.281Z" fill="#000000" stroke="none"/>
</g>
</g>
</svg>
