<?xml version="1.0" encoding="UTF-8" standalone="no"?>
<!DOCTYPE svg PUBLIC "-//W3C//DTD SVG 1.1//EN" "http://www.w3.org/Graphics/SVG/1.1/DTD/svg11.dtd">
<!-- Created with Vectornator (http://vectornator.io/) -->
<svg height="100%" stroke-miterlimit="10" style="fill-rule:nonzero;clip-rule:evenodd;stroke-linecap:round;stroke-linejoin:round;" version="1.1" viewBox="0 0 1000 1000" width="100%" xml:space="preserve" xmlns="http://www.w3.org/2000/svg" xmlns:vectornator="http://vectornator.io" xmlns:xlink="http://www.w3.org/1999/xlink">
<defs/>
<clipPath id="ArtboardFrame">
<rect height="1000" width="1000" x="0" y="0"/>
</clipPath>
<g clip-path="url(#ArtboardFrame)" id="Layer-1" vectornator:layerName="Layer 1">
<g opacity="1" vectornator:layerName="Curve 1">
<path d="M577.812 34.9688C576.219 34.9576 574.659 35.3282 573.094 35.625C571.524 35.9227 570.015 36.4699 568.531 37.0625C565.103 38.4312 561.974 40.5105 558.969 42.625C555.793 44.8598 552.703 47.2272 549.625 49.5938C531.399 63.6055 513.685 78.292 495.969 92.9375C458.717 123.732 421.974 155.154 385.375 186.719C352.479 215.09 319.597 243.529 287.562 272.875C280.657 278.822 279.897 289.251 285.844 296.156C291.79 303.061 302.189 303.822 309.094 297.875C337.851 274.625 367.228 252.12 396.625 229.688C433.955 201.202 471.482 172.964 509.25 145.062C516.164 139.955 523.081 134.851 530 129.75C529.329 131.422 528.599 133.074 527.938 134.75C525.036 142.099 522.162 149.443 519.312 156.812C516.995 162.806 514.737 168.829 512.562 174.875C510.98 179.276 509.416 183.658 507.844 188.062C506.817 190.938 505.772 193.842 504.75 196.719C503.853 199.244 502.956 201.755 502.062 204.281C500.84 207.739 499.554 211.115 499.312 214.844C499.218 216.303 499.107 217.795 499.25 219.25C499.458 221.369 499.69 223.516 500.375 225.531C501.336 228.359 502.411 231.233 504.156 233.656C506.262 236.58 508.811 239.259 511.75 241.344C514.511 243.302 517.733 244.601 520.969 245.594C523.424 246.347 526.058 246.453 528.625 246.531C530.403 246.586 532.183 246.262 533.938 245.969C535.149 245.767 536.327 245.397 537.5 245.031C542.385 243.509 546.757 240.103 550.969 237.312C553.47 235.655 555.999 234.001 558.5 232.344C561.695 230.227 564.867 228.116 568.062 226C572.764 222.887 577.476 219.754 582.188 216.656C587.894 212.904 593.605 209.155 599.312 205.406C606.658 200.581 613.994 195.757 621.344 190.938C629.504 185.587 637.669 180.267 645.844 174.938C650.772 171.725 655.659 168.429 660.688 165.375C666.257 161.993 672.006 158.892 677.844 156C698.872 145.583 721.286 137.905 744.125 132.594C767.989 127.044 792.573 124.039 817.094 124.656C822.566 124.794 828.023 125.104 833.469 125.656C859.739 128.32 888.229 136.318 906.938 156.062C910.671 160.003 913.927 164.346 916.562 169.094C920.326 175.874 922.809 183.288 924.469 190.844C927.402 204.195 927.706 218.03 926.781 231.625C926.501 235.74 926.104 239.845 925.594 243.938C924.927 249.285 924.082 254.609 923.094 259.906C917.414 290.343 907.211 319.943 894.719 348.219C889.021 361.115 882.755 373.752 875.938 386.094C870.365 396.183 864.427 406.087 857.906 415.594C852.537 423.422 846.71 430.965 840.781 438.375C832.246 449.042 823.329 459.394 814 469.375C794.315 490.435 772.881 509.826 749.938 527.281C723.149 547.661 694.317 565.355 664.188 580.344C639.623 592.564 614.161 602.903 588.344 612.156C580.776 614.869 573.142 617.323 565.531 619.906C558.921 622.15 552.352 624.479 545.719 626.656C533.301 630.733 520.766 634.409 508.156 637.844C476.383 646.499 444.069 652.963 411.594 658.344C385.036 662.744 358.292 666.048 331.531 668.938C322.293 669.935 313.063 670.903 303.812 671.781C297.223 672.407 290.647 673.033 284.031 673.281C271.179 673.763 258.291 673.534 245.438 673.25C226.841 672.839 208.269 672.127 189.688 671.281C144.055 669.205 98.42 666.541 52.8438 663.469C42.6598 662.644 33.7623 670.222 32.9375 680.406C32.1126 690.59 39.6911 699.519 49.875 700.344C96.8188 704.689 143.809 708.649 190.844 711.875C209.548 713.158 228.272 714.339 247 715.219C259.608 715.811 272.219 716.324 284.844 716.281C292.307 716.256 299.74 715.796 307.188 715.344C314.872 714.877 322.57 714.384 330.25 713.844C357.902 711.899 385.49 709.256 413.031 706.125C450.089 701.912 487.012 696.277 523.594 689C537.213 686.291 550.783 683.288 564.281 680.031C570.471 678.538 576.691 677.067 582.812 675.312C589.996 673.253 597.121 670.96 604.219 668.625C623.935 662.137 643.291 654.66 662.281 646.281C699.474 629.872 735.168 610.091 768.406 586.656C803.023 562.25 834.866 533.997 863.25 502.562C872.183 492.67 880.782 482.469 889.031 472C895.001 464.423 900.862 456.743 906.312 448.781C918.596 430.837 929.275 411.763 938.844 392.25C951.927 365.571 962.978 337.813 971.312 309.281C978.146 285.888 983.183 261.865 985 237.531C986.569 216.514 985.71 195.123 980.688 174.594C977.649 162.173 973.052 150.12 966.656 139.031C962.127 131.179 956.711 123.907 950.562 117.25C945.893 112.194 940.831 107.495 935.438 103.219C898.051 73.5778 847.953 64.9833 801.375 66.4375C793.051 66.6974 784.719 67.3096 776.438 68.1875C764.937 69.4066 753.523 71.1774 742.188 73.4688C727.845 76.368 713.64 80.0848 699.719 84.5938C678.911 91.3332 658.617 99.8478 639.5 110.5C629.103 116.293 619.202 122.925 609.25 129.438C601.848 134.282 594.455 139.142 587.062 144C589.07 138.586 591.067 133.176 593.125 127.781C594.085 125.265 595.067 122.752 596.062 120.25C596.418 119.357 596.764 118.453 597.125 117.562C597.193 117.395 597.249 117.232 597.312 117.062C597.486 116.716 597.701 116.275 597.875 115.938C598.292 115.131 598.74 114.338 599.156 113.531C600.522 110.884 601.838 108.201 603.094 105.5C606.776 97.582 610.071 89.3393 611.656 80.7188C612.732 74.8707 612.973 68.8605 611.844 63C610.087 53.8822 604.778 45.6504 597 40.5312C594.699 39.0167 592.187 37.8033 589.594 36.875C588.968 36.651 588.356 36.4386 587.719 36.25C587.065 36.0565 586.426 35.8054 585.75 35.7188C583.123 35.3819 580.461 34.9872 577.812 34.9688Z" fill="#000000" stroke="none"/>
</g>
<g opacity="1" vectornator:layerName="Curve 2">
<path d="M505.125 490.938C496.017 491.225 488.869 498.861 489.156 507.969C486.616 528.239 483.922 548.472 481.719 568.781C480.805 577.204 479.642 585.661 479.188 594.125C479.038 596.907 479.004 599.746 479.062 602.531C479.133 605.895 479.692 609.265 479.875 612.625C480.302 620.464 480.427 628.309 480.656 636.156C481.525 665.868 482.413 695.57 483.281 725.281C483.969 748.826 484.656 772.392 485.344 795.938C485.557 803.225 485.756 810.494 485.969 817.781C486.133 823.387 486.238 829.018 486.906 834.594C487.177 836.857 487.841 839.07 488.375 841.281C488.911 843.504 489.396 845.733 489.875 847.969C491.416 855.161 492.585 862.428 493.562 869.719C494.086 873.623 494.504 877.557 494.969 881.469C495.566 886.498 496.228 891.524 496.75 896.562C498.199 910.537 499.419 924.545 500.75 938.531C501.072 948.743 509.632 956.76 519.844 956.438C530.056 956.115 538.073 947.556 537.75 937.344C538.195 923.302 538.561 909.256 539.125 895.219C539.328 890.158 539.659 885.12 539.938 880.062C540.154 876.129 540.318 872.179 540.594 868.25C541.109 860.912 541.822 853.556 542.906 846.281C543.328 843.453 543.787 840.66 544.281 837.844C544.578 836.155 544.935 834.466 545.031 832.75C545.378 826.585 545.053 820.413 544.844 814.25C544.597 806.963 544.341 799.662 544.094 792.375C543.314 769.394 542.53 746.418 541.75 723.438C540.723 693.17 539.683 662.924 538.656 632.656C538.409 625.371 538.095 618.072 538.031 610.781C538.002 607.417 538.36 604.018 538.219 600.656C538.102 597.873 537.856 595.048 537.531 592.281C536.477 583.302 534.696 574.374 533.156 565.469C529.773 545.898 525.864 526.418 522.156 506.906C521.869 497.798 514.233 490.65 505.125 490.938Z" fill="#000000" stroke="none"/>
</g>
</g>
</svg>
