<?xml version="1.0" encoding="UTF-8" standalone="no"?>
<!DOCTYPE svg PUBLIC "-//W3C//DTD SVG 1.1//EN" "http://www.w3.org/Graphics/SVG/1.1/DTD/svg11.dtd">
<!-- Created with Vectornator (http://vectornator.io/) -->
<svg height="100%" stroke-miterlimit="10" style="fill-rule:nonzero;clip-rule:evenodd;stroke-linecap:round;stroke-linejoin:round;" version="1.1" viewBox="0 0 1000 1000" width="100%" xml:space="preserve" xmlns="http://www.w3.org/2000/svg" xmlns:vectornator="http://vectornator.io" xmlns:xlink="http://www.w3.org/1999/xlink">
<defs/>
<clipPath id="ArtboardFrame">
<rect height="1000" width="1000" x="0" y="0"/>
</clipPath>
<g clip-path="url(#ArtboardFrame)" id="Layer-1" vectornator:layerName="Layer 1">
<g opacity="1" vectornator:layerName="Curve 1">
<path d="M446.406 334.625C445.118 334.682 443.85 334.928 442.625 335.375C422.126 343.986 401.822 353.095 382.75 364.594C372.842 370.568 363.483 377.292 354.25 384.25C344.439 391.643 334.831 399.29 325.5 407.281C306.276 423.744 287.967 441.744 273.438 462.562C256.027 487.509 242.573 519.212 251.438 549.844C252.551 553.69 254.006 557.442 255.781 561.031C262.799 575.218 274.504 586.446 287.625 595.031C306.329 607.271 327.841 614.791 349.438 620.062C356.382 621.758 363.357 623.208 370.375 624.562C381.373 626.685 392.395 628.525 403.5 630C423.539 632.662 443.708 634.442 463.938 634.5C467.843 634.511 471.785 634.363 475.688 634.219C486.943 633.803 498.137 632.834 509.312 631.438C515.384 630.679 521.517 629.922 527.531 628.781C528.879 628.526 530.196 628.178 531.531 627.875C537.199 626.588 542.815 625.189 548.438 623.719C553.342 622.437 558.263 621.126 563.125 619.688C565.737 618.915 568.297 618.061 570.906 617.281C575.809 615.816 580.71 614.346 585.562 612.719C595.011 609.551 604.462 606.292 613.719 602.594C624.135 598.432 634.407 593.858 644.531 589.031C664.688 579.421 684.342 568.109 701.219 553.375C712.756 543.302 723.074 531.644 730.844 518.406C739.128 504.293 744.091 488.561 745.625 472.281C746.032 467.965 746.337 463.586 746.188 459.25C746.023 454.495 745.289 449.776 744.031 445.188C738.021 423.264 720.178 407.935 701.094 397.125C684.363 387.648 666.391 380.833 648.031 375.25C629.327 369.562 610.161 365.295 590.906 361.969C585.884 361.101 580.858 360.314 575.812 359.594C572.982 359.189 570.138 358.878 567.312 358.438C558.931 357.13 550.673 355.404 542.156 355.188C530.778 354.898 519.627 356.881 508.844 360.438C496.691 360.586 487.022 375.865 487.25 394.562C487.478 413.26 497.503 428.305 509.656 428.156C509.806 428.127 510.263 427.998 510.125 428.062C508.895 428.635 507.42 428.853 506.094 429.094C505.934 429.123 505.187 429.155 505.062 429.312C504.995 429.398 505.43 429.494 505.688 429.562C506.13 429.68 506.588 429.791 507.031 429.906C508.125 430.19 509.22 430.49 510.312 430.781C513.151 431.538 515.983 432.298 518.844 432.969C521.837 433.67 524.851 434.266 527.844 434.969C533.066 436.194 538.265 437.517 543.438 438.938C557.307 442.746 571.079 447.164 584.406 452.594C594.89 456.865 605.234 461.595 614.875 467.562C621.748 471.817 628.523 476.861 633.344 483.438C635.027 485.734 636.89 488.694 636.938 491.656C636.944 492.088 636.901 492.527 636.688 492.906C636.65 492.973 636.546 492.97 636.5 493.031C636.441 493.111 636.43 493.217 636.406 493.312C636.232 494.005 636.116 494.708 635.969 495.406C635.779 496.309 635.549 497.222 635.312 498.125C635.161 498.173 635 498.156 634.875 498.188C633.708 498.481 632.543 499.06 631.406 499.469C627.983 500.701 624.524 501.855 621.031 502.875C615.7 504.432 610.299 505.821 604.875 506.969C604.632 507.02 604.369 507.016 604.125 507.062C601.413 507.582 598.736 508.205 596 508.594C595.721 508.633 595.436 508.559 595.156 508.594C594.434 508.683 593.721 508.873 593 508.969C591.656 509.147 590.284 509.212 588.938 509.344C587.177 509.517 585.456 509.764 583.688 509.875C583.33 509.898 582.952 509.858 582.594 509.875C581.871 509.91 581.161 510.029 580.438 510.062C580.106 510.078 579.769 509.99 579.438 510C578.714 510.022 578.005 510.132 577.281 510.156C576.939 510.168 576.592 510.088 576.25 510.094C575.526 510.107 574.818 510.2 574.094 510.219C573.709 510.229 573.322 510.152 572.938 510.156C572.213 510.164 571.506 510.275 570.781 510.281C570.421 510.284 570.048 510.19 569.688 510.188C568.963 510.183 568.256 510.253 567.531 510.25C567.161 510.249 566.776 510.163 566.406 510.156C564.547 510.123 562.703 510.204 560.844 510.156C560.453 510.146 560.047 510.046 559.656 510.062C557.76 510.145 555.865 510.337 553.969 510.438C549.18 510.69 544.388 510.788 539.594 510.906C537.157 510.966 534.719 510.955 532.281 511C529.498 511.051 526.721 511.158 523.938 511.188C521.627 511.212 519.31 511.153 517 511.219C488.204 512.04 459.358 511.43 430.625 509.344C422.489 508.753 414.439 507.721 406.406 506.312C397.827 504.808 389.168 502.728 381.219 499.094C377.255 497.281 373.584 495.001 370.5 491.906C369.402 490.805 368.186 489.503 367.844 487.938C367.325 485.569 367.978 483.087 368.75 480.844C370.526 475.685 373.421 470.94 376.5 466.469C379.941 461.471 383.738 456.754 387.656 452.125C392.734 446.127 398.042 440.309 403.5 434.656C407.531 430.481 411.688 426.426 415.781 422.312C422.096 415.966 429.424 410.81 436.812 405.812C445.149 400.174 453.85 395.056 462.531 389.969C472.332 386.396 475.84 371.297 470.344 356.219C465.534 343.025 455.421 334.223 446.406 334.625ZM634.531 500.5C634.279 501.221 634.077 501.97 633.75 502.656C633.56 503.055 633.051 504.236 632.562 504.375C632.405 504.42 632.481 504.007 632.5 503.938C632.621 503.501 632.817 503.083 633.031 502.688C633.456 501.902 634.002 501.213 634.531 500.5Z" fill="#000000" stroke="none"/>
</g>
<g opacity="1" vectornator:layerName="Curve 2">
<path d="M483.906 24.6875C478.609 24.9881 473.032 26.0524 467.438 27.9375C445.058 35.4778 430.88 53.3596 435.781 67.9062C433.903 74.6349 432.233 81.4514 430.5 88.2188C425.561 107.504 421.1 126.868 417.125 146.375C415.589 153.914 414.331 161.551 413.406 169.188C412.788 174.298 412.237 179.677 413.406 184.75C413.839 186.63 414.548 188.489 415.25 190.281C415.578 191.119 415.953 192.201 416.5 192.938C417.127 193.782 417.956 194.431 418.688 195.188C420.129 196.678 421.616 198.156 422.906 199.781C426.183 203.91 428.797 208.567 431.188 213.25C432.428 215.68 433.734 218.1 434.844 220.594C436.426 224.15 437.867 227.786 439.375 231.375C440.925 235.062 442.58 238.711 444.031 242.438C445.904 247.246 447.474 252.223 449.188 257.094C451.505 263.678 453.892 270.24 456.156 276.844C462.122 292.579 486.604 297.897 510.812 288.719C535.021 279.541 549.809 259.36 543.844 243.625C544.556 234.254 545.104 224.876 545.75 215.5C546.019 211.592 546.181 207.649 546.562 203.75C546.954 199.748 547.519 195.743 548 191.75C548.579 186.946 549.085 182.137 549.75 177.344C550.255 173.707 550.994 170.08 551.656 166.469C552.68 160.886 553.98 155.323 555.781 149.938C556.803 146.882 558.126 143.919 559.344 140.938C559.592 140.33 559.867 139.72 560.062 139.094C560.54 137.562 560.647 135.808 560.781 134.219C561.001 131.626 561.088 129.059 560.812 126.469C560.657 125.008 560.262 123.601 559.875 122.188C559.109 119.39 558.044 116.707 556.938 114.031C554.235 107.499 551.056 101.167 547.719 94.9375C542.151 84.5454 536.424 74.2262 530.5 64.0312C525.961 56.2202 521.249 48.5119 516.844 40.625C513.168 29.715 499.797 23.7857 483.906 24.6875Z" fill="#000000" stroke="none"/>
</g>
<g opacity="1" vectornator:layerName="Curve 3">
<path d="M481.125 681.969C475.837 682.228 470.253 683.225 464.656 685.062C442.268 692.412 428.004 710.166 432.781 724.719C429.36 737.043 425.873 749.35 422.5 761.688C418.701 775.583 414.992 789.519 411.281 803.438C408.878 812.451 406.655 821.521 404.625 830.625C403.928 833.753 403.369 836.866 402.875 840.031C402.482 842.551 402.015 845.13 402.062 847.688C402.085 848.887 402.077 850.152 402.219 851.344C402.454 853.324 402.892 855.332 403.312 857.281C403.486 858.085 403.506 858.925 403.812 859.688C404.019 860.201 404.787 861.063 405.094 861.5C405.338 861.848 405.553 862.204 405.781 862.562C407.295 864.935 408.906 867.289 410.219 869.781C411.165 871.576 411.771 873.569 412.469 875.469C412.859 876.533 413.332 877.561 413.719 878.625C414.243 880.067 414.64 881.587 415.062 883.062C415.903 885.999 416.812 888.954 417.469 891.938C418.287 895.654 418.934 899.446 419.625 903.188C420.489 907.866 421.421 912.561 422.031 917.281C422.717 922.585 422.987 927.95 423.375 933.281C423.883 940.251 424.245 947.229 424.25 954.219C427.3 969.865 449.303 978.754 473.375 974.062C497.447 969.371 514.487 952.897 511.438 937.25C515.225 926.13 518.453 914.789 521.469 903.438C522.643 899.018 523.632 894.566 524.844 890.156C526.575 883.856 528.368 877.57 530.031 871.25C532.38 862.322 534.616 853.378 537.375 844.562C538.742 840.195 540.215 835.857 541.875 831.594C542.298 830.508 542.629 829.394 543.062 828.312C544.08 825.777 545.399 823.331 546.594 820.875C547.355 819.311 548.163 817.707 548.656 816.031C548.919 815.139 549.033 814.224 549.219 813.312C549.403 812.407 549.597 811.474 549.75 810.562C550.278 807.423 550.712 804.195 550.531 801C550.364 798.03 549.896 794.971 549.281 792.062C548.942 790.457 548.502 788.878 548.125 787.281C547.823 786 547.538 784.707 547.188 783.438C546.644 781.468 545.97 779.547 545.375 777.594C543.918 772.811 542.354 768.078 540.656 763.375C536.312 751.336 531.627 739.434 526.688 727.625C522.548 717.728 518.135 707.957 513.844 698.125C510.261 687.211 496.988 681.192 481.125 681.969Z" fill="#000000" stroke="none"/>
</g>
</g>
</svg>
