<?xml version="1.0" encoding="UTF-8" standalone="no"?>
<!DOCTYPE svg PUBLIC "-//W3C//DTD SVG 1.1//EN" "http://www.w3.org/Graphics/SVG/1.1/DTD/svg11.dtd">
<!-- Created with Vectornator (http://vectornator.io/) -->
<svg height="100%" stroke-miterlimit="10" style="fill-rule:nonzero;clip-rule:evenodd;stroke-linecap:round;stroke-linejoin:round;" version="1.1" viewBox="0 0 1000 1000" width="100%" xml:space="preserve" xmlns="http://www.w3.org/2000/svg" xmlns:vectornator="http://vectornator.io" xmlns:xlink="http://www.w3.org/1999/xlink">
<defs/>
<clipPath id="ArtboardFrame">
<rect height="1000" width="1000" x="0" y="0"/>
</clipPath>
<g clip-path="url(#ArtboardFrame)" id="Layer-1" vectornator:layerName="Layer 1">
<g opacity="1" vectornator:layerName="Curve 1">
<path d="M785.406 26.7188C784.201 26.6561 782.958 26.719 781.719 26.9062C771.801 28.4043 765.002 37.645 766.5 47.5625C766.997 53.6517 767.573 59.7535 768.062 65.8438C769.193 79.9042 770.168 93.9851 771.062 108.062C773.743 150.246 775.459 192.469 776.656 234.719C777.123 251.179 777.488 267.628 777.688 284.094C777.856 297.943 777.916 311.809 778.188 325.656C778.299 331.344 778.515 337.032 778.656 342.719C778.748 346.415 778.74 350.119 778.906 353.812C779.316 362.942 779.952 372.053 780.281 381.188C780.615 390.451 780.842 399.732 780.969 409C781.5 447.684 781.044 486.411 779.344 525.062C777.871 558.545 775.462 592.014 771.625 625.312C766.315 671.391 758.667 717.368 745.844 762C743.52 770.088 741.021 778.126 738.312 786.094C735.936 793.084 733.377 799.989 730.188 806.656C723.623 820.377 714.9 833.027 704.469 844.094C687.244 862.369 665.816 876.182 643.094 886.625C619.266 897.576 593.922 905.021 568.281 910.344C560.328 911.995 552.324 913.386 544.312 914.719C539.079 915.589 533.843 916.507 528.594 917.281C524.947 917.819 521.256 918.216 517.625 918.844C508.957 920.341 500.31 921.947 491.594 923.156C475.756 925.354 459.869 926.878 443.906 927.781C414.506 929.444 385.068 929.215 355.656 927.938C327.095 926.697 298.604 924.226 270.219 920.844C250.272 918.467 230.37 915.691 210.562 912.344C204.147 911.26 197.773 910.022 191.375 908.844C180.405 906.367 169.508 913.28 167.031 924.25C164.555 935.22 171.436 946.117 182.406 948.594C197.655 952.268 213.03 955.41 228.438 958.344C252.21 962.871 276.119 966.744 300.094 970.031C326.004 973.583 351.993 976.554 378.062 978.656C398.386 980.295 418.751 981.407 439.125 982.156C458.039 982.852 476.981 983.073 495.906 982.969C502.932 982.93 509.946 982.802 516.969 982.562C519.538 982.475 522.121 982.436 524.688 982.281C526.897 982.148 529.112 981.882 531.312 981.656C535.719 981.204 540.103 980.698 544.5 980.156C566.665 977.426 588.671 972.805 610.219 966.969C661.279 953.139 711.25 929.699 748.594 891.438C764.871 874.761 778.412 855.512 788.438 834.469C793.385 824.085 797.289 813.29 800.875 802.375C804.335 791.844 807.485 781.201 810.375 770.5C821.32 729.974 828.581 688.508 833.75 646.875C842.653 575.161 845.365 502.751 845.031 430.531C844.953 413.552 844.614 396.571 844.375 379.594C844.243 370.208 844.329 360.821 844.062 351.438C843.944 347.248 843.64 343.06 843.406 338.875C843.104 333.478 842.83 328.048 842.438 322.656C841.441 308.953 840.059 295.285 838.594 281.625C836.802 264.911 834.844 248.214 832.781 231.531C829.521 205.161 825.755 178.852 821.688 152.594C815.966 115.655 809.588 78.8387 802.406 42.1562C801.095 33.4784 793.842 27.1572 785.406 26.7188Z" fill="#000000" stroke="none"/>
</g>
<g opacity="1" vectornator:layerName="Curve 2">
<path d="M401.438 26.7188C391.408 26.6898 383.248 34.7825 383.219 44.8125C379.659 66.1249 375.879 87.4103 372.688 108.781C371.364 117.641 369.789 126.512 368.969 135.438C368.806 137.208 368.777 139.006 368.688 140.781C368.627 141.966 368.516 143.157 368.5 144.344C368.451 147.899 368.926 151.445 369 155C369.173 163.294 369.044 171.611 369 179.906C368.833 211.315 368.667 242.716 368.5 274.125C368.367 299.015 368.258 323.891 368.125 348.781C368.084 356.485 368.041 364.202 368 371.906C367.968 377.832 367.851 383.776 368.375 389.688C368.588 392.089 369.215 394.428 369.719 396.781C370.225 399.147 370.683 401.528 371.125 403.906C372.548 411.553 373.575 419.293 374.375 427.031C374.803 431.173 375.105 435.321 375.469 439.469C375.936 444.802 376.46 450.16 376.844 455.5C377.909 470.31 378.752 485.119 379.688 499.938C379.655 511.183 388.754 520.343 400 520.375C411.246 520.407 420.374 511.308 420.406 500.062C421.427 485.25 422.38 470.428 423.531 455.625C423.946 450.288 424.502 444.955 425 439.625C425.387 435.479 425.704 431.327 426.156 427.188C427.001 419.454 428.065 411.732 429.531 404.094C430.102 401.122 430.725 398.143 431.375 395.188C431.765 393.415 432.204 391.686 432.375 389.875C432.989 383.378 432.872 376.829 432.875 370.312C432.878 362.608 432.872 354.892 432.875 347.188C432.886 322.89 432.896 298.61 432.906 274.312C432.92 242.311 432.923 210.314 432.938 178.312C432.941 170.61 432.888 162.889 433.094 155.188C433.189 151.633 433.685 148.087 433.656 144.531C433.642 142.757 433.486 140.96 433.406 139.188C433.353 138.002 433.321 136.808 433.219 135.625C432.809 130.867 432.147 126.131 431.469 121.406C430.788 116.663 430.087 111.93 429.406 107.188C426.423 86.3924 422.873 65.6465 419.531 44.9062C419.56 34.8763 411.467 26.7477 401.438 26.7188Z" fill="#000000" stroke="none"/>
</g>
</g>
</svg>
