<?xml version="1.0" encoding="UTF-8" standalone="no"?>
<!DOCTYPE svg PUBLIC "-//W3C//DTD SVG 1.1//EN" "http://www.w3.org/Graphics/SVG/1.1/DTD/svg11.dtd">
<!-- Created with Vectornator (http://vectornator.io/) -->
<svg height="100%" stroke-miterlimit="10" style="fill-rule:nonzero;clip-rule:evenodd;stroke-linecap:round;stroke-linejoin:round;" version="1.1" viewBox="0 0 1000 1000" width="100%" xml:space="preserve" xmlns="http://www.w3.org/2000/svg" xmlns:vectornator="http://vectornator.io" xmlns:xlink="http://www.w3.org/1999/xlink">
<defs/>
<g id="Layer-1" vectornator:layerName="Layer 1">
<g opacity="1" vectornator:layerName="Curve 1">
<path d="M749.719 66C746.176 65.8273 742.542 66.6463 739.281 68.625C730.587 73.9015 727.817 85.2428 733.094 93.9375C738.375 102.995 742.692 112.624 746.75 122.281C751.751 134.184 756.291 146.267 760.594 158.438C772.712 192.71 783.019 227.636 792.281 262.781C801.294 296.982 809.345 331.443 816.281 366.125C821.939 394.412 826.913 422.806 831.125 451.344C836.922 490.62 841.165 530.213 843.094 569.875C844.614 601.121 844.692 632.563 842 663.75C840.149 685.194 837.21 706.592 831.875 727.469C828.16 742.006 823.303 756.347 816.5 769.75C811.073 780.442 804.16 790.341 796.719 799.719C779.912 820.901 759.256 838.867 736.125 852.844C713.298 866.636 688.236 876.625 662.531 883.594C640.648 889.526 618.2 893.398 595.656 895.719C586.814 896.629 577.936 897.249 569.062 897.75C555.607 898.51 542.165 898.891 528.688 898.812C519.124 898.757 509.554 898.372 500 898C477.165 897.111 454.312 895.594 431.625 892.781C395.829 888.343 360.321 881.243 325.469 871.969C310.899 868.092 296.443 863.852 282.125 859.125C266.955 854.117 251.948 848.595 237.375 842.031C230.443 838.909 223.61 835.557 216.906 831.969C211.528 829.09 206.242 826.067 201.062 822.844C172.211 804.889 144.481 779.782 135.094 745.969C133.386 739.817 132.337 733.462 131.906 727.094C131.251 717.415 132.043 707.661 133.938 698.156C137.068 682.45 143.051 667.418 150.438 653.25C157.496 639.71 165.869 626.899 175.062 614.719C189.247 595.926 205.282 578.635 221.156 561.281C229.742 552.01 229.208 537.524 219.938 528.938C210.667 520.351 196.18 520.917 187.594 530.188C171.546 547.302 155.404 564.386 140.812 582.781C127.828 599.151 116.112 616.568 106.531 635.156C97.2441 653.175 89.9462 672.352 86.1875 692.312C83.626 705.916 82.7409 719.849 83.8438 733.656C84.611 743.262 86.3453 752.809 89.0312 762.062C91.0145 768.895 93.5221 775.556 96.4688 782.031C115.014 822.785 150.672 853.021 188.781 874.969C213.644 889.288 240.189 900.38 267.188 909.969C294.534 919.681 322.384 927.896 350.5 935.062C374.387 941.151 398.478 946.316 422.719 950.781C441.564 954.253 460.461 957.246 479.5 959.438C485.584 960.138 491.675 960.813 497.781 961.281C513.843 962.512 529.955 963.074 546.062 963.125C554.816 963.153 563.598 963.051 572.344 962.656C591.128 961.808 609.928 959.867 628.5 956.938C666.226 950.986 703.478 940.312 737.875 923.562C761.833 911.896 784.383 897.345 804.5 879.844C821.411 865.131 836.511 848.416 849.469 830.125C857.181 819.239 864.224 807.88 869.938 795.812C878.204 778.354 884.044 759.813 888.312 741C893.078 719.996 895.857 698.566 897.375 677.094C899.896 641.427 899.031 605.602 896.406 569.969C893.776 534.266 889.23 498.677 883.312 463.375C878.781 436.341 873.509 409.441 867.688 382.656C860.21 348.252 851.546 314.114 842.031 280.219C830.073 237.616 816.653 195.339 800.938 153.969C795.228 138.939 789.202 124.02 782.562 109.375C777.206 97.5591 771.498 85.8112 764.594 74.8125C761.296 69.3783 755.623 66.2878 749.719 66Z" fill="#000000" stroke="none"/>
</g>
</g>
</svg>
