<?xml version="1.0" encoding="UTF-8" standalone="no"?>
<!DOCTYPE svg PUBLIC "-//W3C//DTD SVG 1.1//EN" "http://www.w3.org/Graphics/SVG/1.1/DTD/svg11.dtd">
<!-- Created with Vectornator (http://vectornator.io/) -->
<svg height="100%" stroke-miterlimit="10" style="fill-rule:nonzero;clip-rule:evenodd;stroke-linecap:round;stroke-linejoin:round;" version="1.1" viewBox="0 0 1000 1000" width="100%" xml:space="preserve" xmlns="http://www.w3.org/2000/svg" xmlns:vectornator="http://vectornator.io" xmlns:xlink="http://www.w3.org/1999/xlink">
<defs/>
<g id="Layer-1" vectornator:layerName="Layer 1">
<g opacity="1" vectornator:layerName="Curve 1">
<path d="M265.75 62.7188C260.105 61.9805 253.265 66.966 249.531 75C245.264 84.1817 246.657 93.8513 252.625 96.625C400.142 101.285 547.668 106.159 695.156 111.688C734.245 113.153 773.334 114.647 812.406 116.5C799.226 126.429 786.037 136.349 772.906 146.344C718.229 187.965 664.303 230.576 611.531 274.594C576.559 303.765 542.177 333.677 508.594 364.438C471.667 398.26 435.733 433.167 401.594 469.812C384.963 487.664 368.548 505.838 352.938 524.594C336.101 544.822 320.119 565.792 304.844 587.219C290.511 607.322 276.967 628.02 264.625 649.406C258.97 659.206 253.57 669.15 248.531 679.281C244.399 687.59 240.495 696.005 236.906 704.562C218.769 747.81 206.778 797.7 220.438 843.938C222.276 850.161 224.579 856.27 227.312 862.156C231.681 871.565 237.18 880.39 243.562 888.562C248.682 895.118 254.354 901.238 260.469 906.875C267.411 913.276 274.878 919.125 282.812 924.25C297.902 933.997 314.587 941.153 331.75 946.344C357.835 954.233 385.173 957.674 412.375 958.062C422.043 958.2 431.728 957.922 441.375 957.281C454.988 956.377 468.529 954.751 481.969 952.406C498.888 949.454 515.616 945.369 532 940.219C565.47 929.697 597.62 914.602 626.406 894.469C646.629 880.325 665.17 863.679 680.812 844.562C692.93 829.754 703.284 813.438 711.25 796.031C716.557 784.434 720.802 772.34 723.906 759.969C726.445 749.85 728.207 739.535 729.25 729.156C734.675 675.154 719.883 621.712 697.25 573.125C693.196 565.663 680.605 564.67 669.125 570.906C657.645 577.143 651.634 588.257 655.688 595.719C677.677 645.322 691.722 700.946 680.875 755.188C679.304 763.043 677.23 770.778 674.594 778.344C670.969 788.745 666.303 798.817 660.719 808.312C653.513 820.567 644.739 831.862 634.781 842C620.808 856.226 604.562 868.109 587.188 877.844C570.607 887.133 552.954 894.521 534.812 900.156C520.057 904.739 504.899 908.121 489.625 910.438C477.45 912.284 465.183 913.438 452.875 913.844C426.333 914.719 399.428 912.306 373.812 905.094C357.165 900.407 340.913 893.651 326.562 883.906C318.326 878.313 310.706 871.705 303.906 864.438C298.895 859.082 294.349 853.301 290.438 847.094C285.731 839.626 281.932 831.59 279.219 823.188C267.538 787.016 276.588 747.669 290.781 713.594C293.106 708.013 295.594 702.508 298.219 697.062C301.579 690.091 305.152 683.236 308.906 676.469C313.845 667.567 319.064 658.837 324.531 650.25C331.699 638.992 339.325 627.979 347.219 617.219C365.609 592.152 385.595 568.366 406.188 545.094C417.308 532.526 428.49 520.022 439.938 507.75C459.828 486.428 480.302 465.66 501.031 445.156C573.495 373.48 649.989 305.979 728.562 241.094C753.928 220.147 779.513 199.458 805.25 178.969C825.252 163.045 845.378 147.289 865.438 131.438C872.795 125.624 880.187 119.811 887.344 113.75C892.468 109.411 897.743 104.821 901.219 99C901.97 97.7409 903.005 96.5588 903.312 95.125C904.28 90.6174 905.472 85.9611 905 81.375C904.744 78.8838 902.759 76.8806 901.219 74.9062C900.402 73.8597 899.176 73.223 898.062 72.5C897.362 72.045 896.577 71.7114 895.812 71.375C892.237 69.8024 888.166 69.4652 884.312 69.1875C874.931 68.5113 865.525 68.3404 856.125 68.0938C842.053 67.7246 827.981 67.4505 813.906 67.2188C715.738 65.602 617.523 65.051 519.344 64.5C435.584 64.03 351.823 63.6327 268.062 63.375C267.316 63.0283 266.556 62.8242 265.75 62.7188Z" fill="#000000" stroke="none"/>
</g>
<g opacity="1" vectornator:layerName="Curve 2">
<path d="M827.188 375.281C809.138 375.3 791.077 375.459 773.031 375.844C752.772 376.276 732.533 376.965 712.281 377.656C699.451 378.094 686.612 378.437 673.781 378.875C648.8 379.728 623.837 380.727 598.844 381.188C586.224 381.42 573.559 381.612 560.938 381.406C555.548 381.318 550.169 381.161 544.781 381C542.049 380.918 539.296 380.775 536.562 380.781C531.067 380.794 525.588 381.025 520.094 381.156C502.769 381.571 485.46 382.519 468.156 383.438C445.73 384.628 423.289 385.528 400.844 386.281C360.724 387.627 320.596 388.383 280.469 389.438C249.512 390.251 218.556 391.309 187.625 392.812C181.656 390.146 173.477 395.442 169.375 404.625C165.273 413.808 166.781 423.396 172.75 426.062C234.096 429.51 295.28 435.303 356.594 439.219C382.696 440.886 408.846 442.273 435 442.75C448.28 442.992 461.534 443.074 474.812 442.688C482.261 442.471 489.725 441.936 497.156 441.406C502.943 440.994 508.762 440.644 514.531 440.031C517.444 439.722 520.346 439.26 523.25 438.875C529.719 438.018 536.182 437.072 542.656 436.25C561.659 433.838 580.679 431.75 599.719 429.656C620.227 427.401 640.752 425.308 661.281 423.25C675.458 421.829 689.65 420.375 703.844 419.125C740 415.942 776.193 413.306 812.438 411.375C818.915 414.022 827.459 408.091 831.531 398.125C835.603 388.159 833.665 377.928 827.188 375.281Z" fill="#000000" stroke="none"/>
</g>
</g>
</svg>
