<?xml version="1.0" encoding="UTF-8" standalone="no"?>
<svg
   xmlns:dc="http://purl.org/dc/elements/1.1/"
   xmlns:cc="http://creativecommons.org/ns#"
   xmlns:rdf="http://www.w3.org/1999/02/22-rdf-syntax-ns#"
   xmlns:svg="http://www.w3.org/2000/svg"
   xmlns="http://www.w3.org/2000/svg"
   viewBox="0 0 1333.3333 1333.3333"
   height="1333.3333"
   width="1333.3333"
   xml:space="preserve"
   id="svg2"
   version="1.1"><metadata
     id="metadata8"><rdf:RDF><cc:Work
         rdf:about=""><dc:format>image/svg+xml</dc:format><dc:type
           rdf:resource="http://purl.org/dc/dcmitype/StillImage" /></cc:Work></rdf:RDF></metadata><defs
     id="defs6"><clipPath
       id="clipPath20"
       clipPathUnits="userSpaceOnUse"><path
         id="path18"
         d="M 176.551,37.18383 H 926.6513 V 947.6854 H 176.551 Z" /></clipPath><clipPath
       id="clipPath24"
       clipPathUnits="userSpaceOnUse"><path
         id="path22"
         d="M 0,0 H 1000 V 1000 H 0 Z" /></clipPath></defs><g
     transform="matrix(1.3333333,0,0,-1.3333333,0,1333.3333)"
     id="g10"><g
       id="g12" /><g
       id="g14"><g
         id="g16" /><g
         id="g40"><g
           id="g38"
           clip-path="url(#clipPath20)"><g
             id="g26" /><g
             id="g36"><g
               id="g34"
               clip-path="url(#clipPath24)"><path
                 id="path28"
                 style="fill:#000000;fill-opacity:1;fill-rule:nonzero;stroke:none"
                 d="m 186.7411,924.3338 -0.0461,-1.66 -0.046,-1.6601 -0.0461,-1.66 -0.0461,-1.6601 -0.046,-1.6601 -0.0461,-1.66 -0.0461,-1.6601 -0.046,-1.66 -0.0461,-1.6601 -0.0461,-1.6601 -0.046,-1.66 -0.0461,-1.6601 -0.0461,-1.66 -0.046,-1.6601 -0.0461,-1.6601 -0.0461,-1.66 -0.046,-1.6601 -0.0461,-1.66 -0.0461,-1.6601 -0.046,-1.6601 -0.0461,-1.66 -0.0461,-1.6601 -0.046,-1.66 -0.0461,-1.6601 -0.0461,-1.6601 -0.046,-1.66 -0.0461,-1.6601 -0.0461,-1.66 -0.046,-1.6601 -0.0461,-1.6601 -0.0461,-1.66 -0.046,-1.6601 -0.0461,-1.66 -0.046,-1.6601 -0.0461,-1.6601 -0.0461,-1.66 -0.046,-1.6601 -0.0461,-1.66 -0.0461,-1.6601 -0.046,-1.6601 -0.0461,-1.66 -0.0461,-1.6601 -0.046,-1.66 -0.0461,-1.6601 -0.0461,-1.6601 -0.046,-1.66 -0.0461,-1.6601 -0.0461,-1.6601 -0.046,-1.66 -0.0461,-1.6601 -0.0461,-1.66 -0.046,-1.6601 -0.0461,-1.6601 -0.0461,-1.66 -0.046,-1.6601 -0.0461,-1.66 -0.0461,-1.6601 -0.046,-1.6601 -0.0461,-1.66 -0.0461,-1.6601 -0.046,-1.66 -0.0461,-1.6601 -0.0461,-1.6601 -0.046,-1.66 -0.0461,-1.6601 -0.0461,-1.66 -0.046,-1.6601 -0.0461,-1.6601 -0.0461,-1.66 -0.046,-1.6601 -0.0461,-1.66 -0.0461,-1.6601 -0.046,-1.6601 -0.0461,-1.66 -0.046,-1.6601 -0.0461,-1.66 -0.0461,-1.6601 -0.046,-1.6601 -0.0461,-1.66 -0.0461,-1.6601 -0.046,-1.66 -0.0461,-1.6601 -0.0461,-1.6601 -0.046,-1.66 -0.0461,-1.6601 -0.0461,-1.66 -0.046,-1.6601 -0.0461,-1.6601 -0.0461,-1.66 -0.046,-1.6601 -0.0461,-1.66 -0.0461,-1.6601 -0.046,-1.6601 -0.0461,-1.66 -0.0461,-1.6601 -0.046,-1.6601 -0.0461,-1.66 -0.0461,-1.6601 -0.046,-1.66 -0.0461,-1.6601 -0.0461,-1.6601 -0.046,-1.66 -0.0461,-1.6601 -0.0461,-1.66 -0.046,-1.6601 -0.0461,-1.6601 -0.0461,-1.66 -0.046,-1.6601 -0.0461,-1.66 -0.0461,-1.6601 -0.046,-1.6601 -0.0461,-1.66 -0.0455,-1.6601 -0.0444,-1.66 -0.0444,-1.66 -0.0445,-1.6601 -0.0444,-1.66 -0.0444,-1.66 -0.0444,-1.6601 -0.0445,-1.66 -0.0444,-1.66 -0.0444,-1.6601 -0.0439,-1.66 -0.0397,-1.66 -0.0398,-1.6599 -0.0397,-1.66 -0.0397,-1.66 -0.0397,-1.6599 -0.0398,-1.66 -0.0397,-1.6599 -0.0397,-1.66 -0.0397,-1.66 -0.0397,-1.6599 -0.0398,-1.66 -0.0397,-1.6599 -0.0397,-1.66 -0.0397,-1.66 -0.0398,-1.6599 -0.0397,-1.66 -0.0397,-1.66 -0.0397,-1.6599 -0.0398,-1.66 -0.0397,-1.6599 -0.0397,-1.66 -0.0397,-1.66 -0.0397,-1.6599 -0.0398,-1.66 -0.0397,-1.66 -0.0397,-1.6599 -0.0397,-1.66 -0.0398,-1.6599 -0.0397,-1.66 -0.0397,-1.66 -0.0397,-1.6599 -0.0398,-1.66 -0.0397,-1.6599 -0.0397,-1.66 -0.0397,-1.66 -0.0398,-1.6599 -0.0397,-1.66 -0.0397,-1.66 -0.0397,-1.6599 -0.0397,-1.66 -0.0398,-1.6599 -0.0397,-1.66 -0.0397,-1.66 -0.0397,-1.6599 -0.0398,-1.66 -0.0397,-1.6599 -0.0397,-1.66 -0.0397,-1.66 -0.0398,-1.6599 -0.0397,-1.66 -0.0397,-1.66 -0.0364,-1.6599 -0.036,-1.6599 -0.0361,-1.6599 -0.036,-1.6599 -0.0361,-1.6599 -0.0361,-1.6599 -0.036,-1.6599 -0.0361,-1.6599 -0.036,-1.6599 -0.0361,-1.6599 -0.0337,-1.6599 -0.0326,-1.6598 -0.0325,-1.6599 -0.0326,-1.6598 -0.0326,-1.6599 -0.0326,-1.6598 -0.0325,-1.6599 -0.0326,-1.6598 -0.0326,-1.6599 -0.0326,-1.6598 -0.0326,-1.6599 -0.0325,-1.6598 -0.0326,-1.6599 -0.0326,-1.6598 -0.0326,-1.6599 -0.0325,-1.6598 -0.0326,-1.6599 -0.0326,-1.6598 -0.0326,-1.6599 -0.0326,-1.6598 -0.0325,-1.6599 -0.0326,-1.6598 -0.0326,-1.6599 -0.0326,-1.6598 -0.0326,-1.6599 -0.0325,-1.6598 -0.0326,-1.6599 -0.0326,-1.6598 -0.0326,-1.6599 -0.0325,-1.6598 -0.0326,-1.6599 -0.0308,-1.6598 -0.0308,-1.6598 -0.0308,-1.6599 -0.0307,-1.6598 -0.0308,-1.6598 -0.0307,-1.6598 -0.0308,-1.6598 -0.0307,-1.6599 -0.0308,-1.6598 -0.0307,-1.6598 -0.0248,-1.6597 -0.0224,-1.6597 -0.0224,-1.6597 -0.0224,-1.6597 -0.0224,-1.6597 -0.0224,-1.6597 -0.0224,-1.6597 -0.0224,-1.6597 -0.0224,-1.6597 -0.0223,-1.6597 -0.0224,-1.6597 -0.0224,-1.6596 -0.0224,-1.6597 -0.0224,-1.6597 -0.0224,-1.6597 -0.0224,-1.6597 -0.0224,-1.6597 -0.0224,-1.6597 -0.0224,-1.6597 -0.0224,-1.6597 -0.0223,-1.6597 -0.0218,-1.6597 -0.0218,-1.6596 -0.0219,-1.6597 -0.0218,-1.6597 -0.0218,-1.6597 -0.0218,-1.6597 -0.0219,-1.6597 -0.0218,-1.6596 -0.0218,-1.6597 -0.0219,-1.6597 -0.007,-1.6595 -0.007,-1.6594 -0.007,-1.6595 -0.007,-1.6594 -0.007,-1.6595 -0.007,-1.6594 -0.007,-1.6595 -0.007,-1.6594 -0.007,-1.6595 -0.007,-1.6595 -0.007,-1.6594 -0.007,-1.6595 -0.007,-1.6594 -0.007,-1.6595 -0.007,-1.6594 -0.007,-1.6595 -0.007,-1.6595 -0.007,-1.6594 -0.007,-1.6595 -0.007,-1.6594 0.006,-1.6593 0.0188,-1.659 0.0188,-1.6591 0.0188,-1.659 0.0188,-1.6591 0.0189,-1.659 0.0188,-1.6591 0.0188,-1.659 0.0188,-1.6591 0.0188,-1.659 0.0199,-1.6591 0.0227,-1.6589 0.0228,-1.659 0.0227,-1.659 0.0227,-1.659 0.0227,-1.659 0.0228,-1.659 0.0227,-1.659 0.0227,-1.659 0.0227,-1.659 0.0248,-1.6589 0.0738,-1.6582 0.0737,-1.6582 0.0737,-1.6582 0.0738,-1.6582 0.0737,-1.6582 0.0738,-1.6582 0.0737,-1.6582 0.0738,-1.6582 0.0737,-1.6582 0.0737,-1.6582 0.0792,-1.6581 0.0805,-1.6581 0.0805,-1.6581 0.0805,-1.658 0.0805,-1.6581 0.0805,-1.6581 0.0805,-1.6581 0.0805,-1.6581 0.0805,-1.6581 0.0806,-1.6581 0.1222,-1.6574 0.1551,-1.6569 0.155,-1.657 0.1551,-1.6569 0.1551,-1.6569 0.155,-1.657 0.1551,-1.6569 0.1551,-1.6569 0.155,-1.6569 0.1551,-1.657 0.1614,-1.6568 0.175,-1.6566 0.175,-1.6566 0.175,-1.6567 0.175,-1.6566 0.175,-1.6566 0.175,-1.6566 0.175,-1.6566 0.175,-1.6567 0.175,-1.6566 0.1718,-1.6566 0.1349,-1.6573 0.135,-1.6572 0.1349,-1.6573 0.135,-1.6572 0.1349,-1.6572 0.135,-1.6573 0.135,-1.6572 0.1349,-1.6573 0.135,-1.6572 0.1349,-1.6573 0.115,-1.6575 0.1111,-1.6576 0.1112,-1.6576 0.1111,-1.6576 0.1111,-1.6577 0.1112,-1.6576 0.1111,-1.6576 0.1111,-1.6576 0.1112,-1.6576 0.1111,-1.6576 0.1029,-1.6578 0.0974,-1.6578 0.0974,-1.6578 0.0974,-1.6578 0.0974,-1.6579 0.0974,-1.6578 0.0974,-1.6578 0.0973,-1.6579 0.0974,-1.6578 0.0974,-1.6578 0.0943,-1.6579 0.0888,-1.6579 0.0887,-1.658 0.0888,-1.658 0.0887,-1.6579 0.0888,-1.658 0.0887,-1.6579 0.0887,-1.658 0.0888,-1.658 0.0887,-1.6579 0.088,-1.658 0.082,-1.6581 0.082,-1.658 0.0819,-1.6581 0.082,-1.6581 0.082,-1.658 0.082,-1.6581 0.082,-1.6581 0.082,-1.658 0.082,-1.6581 0.0819,-1.6581 0.0704,-1.6582 0.0687,-1.6583 0.0688,-1.6583 0.0687,-1.6582 0.0688,-1.6583 0.0688,-1.6583 0.0687,-1.6583 0.0688,-1.6582 0.0687,-1.6583 0.0688,-1.6583 0.0687,-1.6582 0.0688,-1.6583 0.0687,-1.6583 0.0688,-1.6583 0.0687,-1.6582 0.0688,-1.6583 0.0687,-1.6583 0.0688,-1.6583 0.0687,-1.6582 0.0688,-1.6583 0.0688,-1.6583 0.0687,-1.6582 0.0688,-1.6583 0.0687,-1.6583 0.0688,-1.6583 0.0687,-1.6582 0.0688,-1.6583 0.0687,-1.6583 0.0688,-1.6583 0.0687,-1.6582 0.0688,-1.6583 0.0687,-1.6583 0.0688,-1.6582 0.0687,-1.6583 0.0688,-1.6583 0.0688,-1.6583 0.0687,-1.6582 0.0688,-1.6583 0.0687,-1.6583 0.0688,-1.6582 0.0687,-1.6583 0.0637,-1.6584 0.0633,-1.6583 0.0633,-1.6584 0.0633,-1.6583 0.0633,-1.6584 0.0633,-1.6584 0.0633,-1.6583 0.0633,-1.6584 0.0632,-1.6583 0.0633,-1.6584 0.0561,-1.6585 0.0527,-1.6585 0.0527,-1.6585 0.0527,-1.6585 0.0527,-1.6586 0.0527,-1.6585 0.0527,-1.6585 0.0527,-1.6585 0.0527,-1.6585 0.0527,-1.6586 0.0527,-1.6585 0.0527,-1.6585 0.0527,-1.6585 0.0527,-1.6586 0.0527,-1.6585 0.0527,-1.6585 0.0527,-1.6585 0.0527,-1.6585 0.0527,-1.6586 0.0527,-1.6585 0.0527,-1.6585 0.0527,-1.6585 0.0527,-1.6586 0.0527,-1.6585 0.0526,-1.6585 0.0527,-1.6585 0.0527,-1.6585 0.0527,-1.6586 0.0527,-1.6585 0.0527,-1.6585 0.0527,-1.6585 0.0527,-1.6586 0.0527,-1.6585 0.0527,-1.6585 0.0527,-1.6585 0.0527,-1.6586 0.0527,-1.6585 0.0527,-1.6585 0.0527,-1.6585 0.0527,-1.6585 0.0527,-1.6586 0.0527,-1.6585 0.0527,-1.6585 0.0527,-1.6585 0.0527,-1.6586 0.0527,-1.6585 0.0527,-1.6585 0.0527,-1.6585 0.0527,-1.6585 0.0527,-1.6586 0.0527,-1.6585 0.0527,-1.6585 0.0527,-1.6585 0.0527,-1.6586 0.0527,-1.6585 0.0527,-1.6585 0.0527,-1.65853 0.0527,-1.65852 0.0527,-1.65852 0.0527,-1.65852 0.0526,-1.65853 0.0527,-1.65852 0.0527,-1.65852 0.0527,-1.65852 0.0527,-1.65853 0.0527,-1.65852 0.0527,-1.65852 0.0527,-1.65852 0.0527,-1.65853 0.0527,-1.65852 0.0527,-1.65852 0.0527,-1.65852 c 0.2436,-15.64503 13.1239,-28.13034 28.7689,-27.88673 15.6451,0.2436 28.1304,13.12388 27.8868,28.76891 l 0.001,1.65936 0.001,1.65936 0.001,1.65935 0.001,1.65936 10e-4,1.65936 0.001,1.65936 0.001,1.65936 0.001,1.65936 0.001,1.65936 0.001,1.65936 10e-4,1.65936 0.001,1.65936 0.001,1.65936 0.001,1.65936 0.001,1.65935 0.001,1.6594 10e-4,1.6593 0.001,1.6594 0.001,1.6593 0.001,1.6594 0.001,1.6594 0.001,1.6593 10e-4,1.6594 0.001,1.6593 0.001,1.6594 0.001,1.6594 0.001,1.6593 0.001,1.6594 10e-4,1.6593 0.001,1.6594 0.001,1.6594 0.001,1.6593 0.001,1.6594 0.001,1.6593 10e-4,1.6594 0.001,1.6593 0.001,1.6594 0.001,1.6594 0.001,1.6593 0.001,1.6594 10e-4,1.6593 0.001,1.6594 0.001,1.6594 0.001,1.6593 0.001,1.6594 0.001,1.6593 10e-4,1.6594 0.001,1.6594 0.001,1.6593 0.001,1.6594 0.001,1.6593 0.001,1.6594 10e-4,1.6594 0.001,1.6593 0.001,1.6594 0.001,1.6593 0.001,1.6594 0.001,1.6594 10e-4,1.6593 0.001,1.6594 0.001,1.6593 0.001,1.6594 0.001,1.6593 0.001,1.6594 10e-4,1.6594 0.001,1.6593 0.001,1.6594 0.001,1.6593 0.001,1.6594 0.001,1.6594 10e-4,1.6593 0.004,1.6594 0.0117,1.6596 0.0116,1.6595 0.0116,1.6595 0.0116,1.6595 0.0117,1.6596 0.0116,1.6595 0.0116,1.6595 0.0116,1.6595 0.0117,1.6596 0.012,1.6595 0.0171,1.6596 0.0171,1.6596 0.0171,1.6596 0.0171,1.6596 0.0171,1.6596 0.0171,1.6596 0.0171,1.6596 0.0171,1.6597 0.017,1.6596 0.0171,1.6596 0.0171,1.6596 0.0171,1.6596 0.0171,1.6596 0.0171,1.6596 0.0171,1.6596 0.0171,1.6596 0.0171,1.6596 0.0171,1.6596 0.0171,1.6597 0.017,1.6596 0.0171,1.6596 0.0171,1.6596 0.0171,1.6596 0.0171,1.6596 0.0171,1.6596 0.0171,1.6596 0.0171,1.6596 0.0171,1.6596 0.0171,1.6597 0.0171,1.6596 0.017,1.6596 0.0171,1.6596 0.0171,1.6596 0.0171,1.6596 0.0171,1.6596 0.0171,1.6596 0.0171,1.6596 0.0171,1.6596 0.0171,1.6596 0.0171,1.6597 0.0186,1.6596 0.0304,1.6598 0.0303,1.6598 0.0303,1.6598 0.0303,1.6598 0.0304,1.6599 0.0303,1.6598 0.0303,1.6598 0.0303,1.6598 0.0304,1.6598 0.0303,1.6598 0.0363,1.6599 0.037,1.66 0.0371,1.6599 0.0371,1.6599 0.0371,1.6599 0.0371,1.66 0.0371,1.6599 0.037,1.6599 0.0371,1.6599 0.0371,1.6599 0.0426,1.66 0.0458,1.6601 0.0457,1.6601 0.0457,1.66 0.0458,1.6601 0.0457,1.66 0.0457,1.6601 0.0457,1.66 0.0458,1.6601 0.0457,1.66 0.0512,1.6602 0.0595,1.6602 0.0595,1.6603 0.0595,1.6603 0.0594,1.6603 0.0595,1.6602 0.0595,1.6603 0.0594,1.6603 0.0595,1.6602 0.0595,1.6603 0.0633,1.6603 0.0833,1.6607 0.0833,1.6606 0.0833,1.6606 0.0833,1.6607 0.0833,1.6606 0.0833,1.6607 0.0832,1.6606 0.0833,1.6606 0.0833,1.6607 0.0833,1.6606 0.1202,1.6612 0.1233,1.6613 0.1233,1.6613 0.1233,1.6612 0.1234,1.6613 0.1233,1.6613 0.1233,1.6612 0.1234,1.6613 0.1233,1.6613 0.1233,1.6612 0.1098,1.6611 0.1034,1.6609 0.1034,1.661 0.1034,1.6609 0.1034,1.661 0.1034,1.6609 0.1034,1.661 0.1034,1.6609 0.1034,1.661 0.1034,1.6609 0.0706,1.6605 0.0289,1.6598 0.0288,1.6598 0.0289,1.6598 0.0288,1.6598 0.0288,1.6597 0.0289,1.6598 0.0288,1.6598 0.0289,1.6598 0.0288,1.6598 0.0275,1.6598 0.0221,1.6597 0.0221,1.6597 0.0221,1.6597 0.022,1.6596 0.0221,1.6597 0.0221,1.6597 0.0221,1.6597 0.0221,1.6597 0.022,1.6597 0.0221,1.6597 -0.0269,1.6589 -0.0289,1.6589 -0.0289,1.6589 -0.029,1.6589 -0.0289,1.6589 -0.029,1.6588 -0.0289,1.6589 -0.0289,1.6589 -0.029,1.6589 -0.0289,1.6589 -0.0318,1.6589 -0.0328,1.6588 -0.0329,1.6588 -0.0328,1.6589 -0.0329,1.6588 -0.0328,1.6588 -0.0329,1.6589 -0.0328,1.6588 -0.0329,1.6588 -0.0328,1.6589 -0.0454,1.6586 -0.0589,1.6584 -0.0589,1.6584 -0.0589,1.6585 -0.059,1.6584 -0.0589,1.6584 -0.0589,1.6584 -0.0589,1.6585 -0.059,1.6584 -0.0589,1.6584 -0.0589,1.6584 -0.059,1.6585 -0.0589,1.6584 -0.0589,1.6584 -0.0589,1.6584 -0.059,1.6585 -0.0589,1.6584 -0.0589,1.6584 -0.0589,1.6584 -0.059,1.6585 -0.0589,1.6584 -0.0735,1.6582 -0.0735,1.6582 -0.0734,1.6582 -0.0735,1.6582 -0.0735,1.6582 -0.0735,1.6582 -0.0735,1.6582 -0.0735,1.6582 -0.0735,1.6582 -0.0735,1.6582 -0.0739,1.6582 -0.0741,1.6582 -0.074,1.6582 -0.0741,1.6581 -0.074,1.6582 -0.0741,1.6582 -0.0741,1.6582 -0.074,1.6582 -0.0741,1.6582 -0.074,1.6582 -0.0741,1.6582 -0.0741,1.6582 -0.074,1.6582 -0.0741,1.6581 -0.074,1.6582 -0.0741,1.6582 -0.0741,1.6582 -0.074,1.6582 -0.0741,1.6582 -0.074,1.6582 -0.0764,1.6581 -0.0825,1.6581 -0.0824,1.6581 -0.0824,1.658 -0.0824,1.6581 -0.0824,1.658 -0.0824,1.6581 -0.0825,1.6581 -0.0824,1.658 -0.0824,1.6581 -0.0825,1.658 -0.0842,1.6581 -0.0843,1.658 -0.0842,1.658 -0.0842,1.6581 -0.0843,1.658 -0.0842,1.658 -0.0843,1.6581 -0.0842,1.658 -0.0842,1.658 -0.0843,1.6581 -0.0842,1.658 -0.0843,1.658 -0.0842,1.658 -0.0842,1.6581 -0.0843,1.658 -0.0842,1.658 -0.0843,1.6581 -0.0842,1.658 -0.0842,1.658 -0.0843,1.6581 -0.0842,1.658 -0.0843,1.658 -0.0842,1.6581 -0.0842,1.658 -0.0843,1.658 -0.0842,1.6581 -0.0843,1.658 -0.0842,1.658 -0.0843,1.6581 -0.0842,1.658 -0.0853,1.658 -0.0878,1.658 -0.0877,1.658 -0.0877,1.6579 -0.0877,1.658 -0.0878,1.658 -0.0877,1.658 -0.0877,1.6579 -0.0877,1.658 -0.0877,1.658 -0.0881,1.658 -0.0913,1.6579 -0.0914,1.6579 -0.0914,1.6579 -0.0914,1.6579 -0.0914,1.658 -0.0914,1.6579 -0.0914,1.6579 -0.0913,1.6579 -0.0914,1.6579 -0.0914,1.658 -0.0914,1.6579 -0.0914,1.6579 -0.0914,1.6579 -0.0914,1.6579 -0.0913,1.658 -0.0914,1.6579 -0.0914,1.6579 -0.0914,1.6579 -0.0914,1.6579 -0.0914,1.658 -0.0914,1.6579 -0.0913,1.6579 -0.0914,1.6579 -0.0914,1.6579 -0.0914,1.658 -0.0914,1.6579 -0.0914,1.6579 -0.0914,1.6579 -0.0913,1.6579 -0.0914,1.658 -0.0914,1.6579 -0.0914,1.6579 -0.0914,1.6579 -0.0914,1.6579 -0.0914,1.658 -0.0913,1.6579 -0.0914,1.6579 -0.0914,1.6579 -0.0914,1.658 -0.0914,1.6579 -0.0914,1.6579 -0.0914,1.6579 -0.0913,1.6579 -0.0914,1.658 -0.0914,1.6579 -0.0914,1.6579 -0.0914,1.6579 -0.0914,1.6579 -0.0914,1.658 -0.0914,1.6579 -0.0913,1.6579 -0.0956,1.6578 -0.0961,1.6579 -0.0961,1.6578 -0.096,1.6579 -0.0961,1.6578 -0.0961,1.6579 -0.0961,1.6578 -0.0961,1.6579 -0.0961,1.6578 -0.0961,1.6579 -0.0972,1.6578 -0.0977,1.6578 -0.0977,1.6578 -0.0977,1.6579 -0.0978,1.6578 -0.0977,1.6578 -0.0977,1.6578 -0.0977,1.6579 -0.0978,1.6578 -0.0977,1.6578 -0.0977,1.6578 -0.0978,1.6578 -0.0977,1.6579 -0.0977,1.6578 -0.0977,1.6578 -0.0978,1.6578 -0.0977,1.6578 -0.0977,1.6579 -0.0978,1.6578 -0.0977,1.6578 -0.0977,1.6578 -0.0977,1.6578 -0.0978,1.6579 -0.0977,1.6578 -0.0977,1.6578 -0.0978,1.6578 -0.0977,1.6579 -0.0977,1.6578 -0.0977,1.6578 -0.0978,1.6578 -0.0977,1.6578 -0.0977,1.6579 -0.0978,1.6578 -0.0977,1.6578 -0.0977,1.6578 -0.0977,1.6578 -0.0978,1.6579 -0.0977,1.6578 -0.0977,1.6578 -0.0978,1.6578 -0.0977,1.6579 -0.0977,1.6578 -0.0977,1.6578 -0.0978,1.6578 -0.0977,1.6578 -0.0977,1.6579 -0.0978,1.6578 -0.0977,1.6578 -0.0977,1.6578 -0.0977,1.6578 -0.0978,1.6579 -0.0977,1.6578 -0.0977,1.6578 -0.0978,1.6578 -0.0977,1.6579 -0.0977,1.6578 -0.0977,1.6578 -0.0978,1.6578 -0.0977,1.6578 -0.0977,1.6579 -0.0978,1.6578 -0.0977,1.6578 -0.0977,1.6578 -0.0977,1.6578 -0.0978,1.6579 -0.0977,1.6578 -0.0977,1.6578 -0.0978,1.6578 -0.0977,1.6579 -0.0977,1.6578 -0.0977,1.6578 -0.0978,1.6578 -0.0977,1.6578 -0.0977,1.6579 -0.0977,1.6578 -0.0978,1.6578 -0.0977,1.6578 -0.0977,1.6578 -0.0978,1.6579 -0.0977,1.6578 -0.0977,1.6578 -0.0977,1.6578 -0.0978,1.6579 -0.0977,1.6578 -0.0977,1.6578 -0.0978,1.6578 -0.0977,1.6578 -0.0977,1.6579 -0.0977,1.6578 -0.0978,1.6578 -0.0977,1.6578 -0.0977,1.6578 -0.0978,1.6579 -0.0977,1.6578 -0.0977,1.6578 -0.0977,1.6578 -0.0978,1.6579 -0.0977,1.6578 -0.0977,1.6578 -0.0978,1.6578 -0.0977,1.6578 -0.0977,1.6579 -0.0977,1.6578 -0.0978,1.6578 -0.0977,1.6578 -0.0977,1.6578 -0.0978,1.6579 -0.0977,1.6578 -0.0977,1.6578 -0.0977,1.6578 -0.0978,1.6579 -0.0977,1.6578 -0.0977,1.6578 c -0.1961,12.5923 -10.5632,22.6415 -23.1555,22.4454 -12.5923,-0.1961 -22.6415,-10.5631 -22.4454,-23.1555 z" /><path
                 id="path30"
                 style="fill:#000000;fill-opacity:1;fill-rule:nonzero;stroke:none"
                 d="m 241.9278,656.6304 0.6197,0.9081 0.534,0.7762 0.5404,0.7607 0.5407,0.7633 0.5472,0.7484 0.5554,0.7622 0.5614,0.7491 0.5536,0.7398 0.56,0.7259 0.5607,0.7287 0.5669,0.7154 0.5759,0.7288 0.5817,0.717 0.5741,0.7087 0.5804,0.6962 0.5815,0.6993 0.5878,0.6873 0.5971,0.7003 0.6028,0.6899 0.5956,0.6824 0.6018,0.6714 0.6034,0.6747 0.6096,0.6642 0.6192,0.6764 0.6247,0.6673 0.6182,0.6609 0.6243,0.6512 0.6264,0.6547 0.6324,0.6455 0.6421,0.6569 0.6476,0.6491 0.6418,0.6436 0.6477,0.6354 0.6503,0.6388 0.6562,0.6311 0.6301,0.6056 0.6379,0.5958 0.7481,0.7061 0.7481,0.706 0.5945,0.5548 0.6056,0.5423 0.7605,0.6922 0.7604,0.6923 0.6177,0.5564 0.6287,0.5459 0.7725,0.6802 0.7725,0.6803 0.652,0.5693 0.662,0.5609 0.783,0.671 0.7831,0.6709 0.6617,0.5622 0.6727,0.5547 0.7943,0.6623 0.7943,0.6623 0.6869,0.5685 0.6977,0.5627 0.8052,0.6555 0.8052,0.6555 0.7191,0.5821 0.7287,0.5781 0.8148,0.6508 0.8147,0.6509 0.7334,0.5827 0.7437,0.5798 0.8248,0.6474 0.8249,0.6474 0.7592,0.5932 0.7691,0.5921 0.8346,0.6458 0.8346,0.6458 0.7876,0.6075 0.7963,0.6078 0.8431,0.6458 0.8432,0.6458 0.8054,0.6155 0.8147,0.6174 0.8522,0.6475 0.8521,0.6474 0.8306,0.6302 0.8393,0.634 0.8608,0.651 0.8608,0.651 0.8539,0.6456 0.8614,0.6503 0.8683,0.6558 0.8682,0.6557 0.8746,0.6608 0.8823,0.6676 0.8762,0.6625 0.8761,0.6626 0.898,0.68 0.9051,0.6886 0.8836,0.6713 0.8836,0.6712 0.8315,0.6296 1.4184,1.0669 1.4504,1.0922 1.4504,1.0923 1.3252,0.9934 1.3335,0.9726 1.4596,1.0709 1.4596,1.071 1.3315,0.9723 1.3396,0.9514 1.4688,1.0496 1.4689,1.0495 1.3495,0.9602 1.3571,0.9411 1.4772,1.0301 1.4771,1.03 1.3431,0.932 1.3512,0.9111 1.4863,1.0086 1.4863,1.0086 1.3491,0.9109 1.3572,0.89 1.4954,0.9871 1.4953,0.987 1.3679,0.8987 1.3754,0.8796 1.5035,0.9674 1.5036,0.9674 1.3605,0.8707 1.3685,0.8498 1.5125,0.9457 1.5126,0.9458 1.3664,0.8497 1.3744,0.8287 1.5215,0.9241 1.5214,0.924 1.4199,0.859 1.4256,0.8445 1.4521,0.8618 1.4564,0.8511 1.4558,0.8511 1.4601,0.8404 1.4665,0.8446 1.4703,0.8349 1.4628,0.8307 1.467,0.8199 1.4665,0.82 1.4707,0.8093 1.4773,0.8134 1.4811,0.8037 1.4734,0.7995 1.4776,0.7888 1.477,0.7888 1.4812,0.778 1.488,0.7823 1.4919,0.7724 1.4839,0.7683 1.488,0.7575 1.4876,0.7577 1.4916,0.7468 1.4987,0.7509 1.5025,0.7411 1.4944,0.7371 1.4985,0.7263 1.4979,0.7264 1.5021,0.7156 1.5093,0.7196 1.5131,0.7097 1.5047,0.7058 1.5089,0.6951 1.5083,0.6951 1.5124,0.6843 1.5199,0.6882 1.5236,0.6783 1.5151,0.6746 1.5192,0.6637 1.5186,0.6638 1.5228,0.653 1.5303,0.6568 1.5341,0.6468 1.5254,0.6433 1.5295,0.6324 1.5289,0.6325 1.533,0.6215 1.5408,0.6254 1.5446,0.6154 1.5356,0.6119 1.5397,0.6009 1.5392,0.6012 1.5432,0.5901 1.5513,0.5939 1.5549,0.5838 1.5459,0.5805 1.5499,0.5696 1.5494,0.5697 1.5535,0.5587 1.5616,0.5623 1.5653,0.5522 1.5561,0.5491 1.5601,0.5381 1.5596,0.5382 1.5636,0.5273 1.572,0.5307 1.5756,0.5206 1.5663,0.5176 1.5703,0.5065 1.5697,0.5068 1.5738,0.4957 1.5823,0.499 1.586,0.4889 1.5764,0.486 1.5804,0.475 1.58,0.4752 1.5839,0.4641 1.5926,0.4673 1.5963,0.4572 1.5866,0.4545 1.5906,0.4433 1.5901,0.4436 1.5941,0.4325 1.6029,0.4355 1.6062,0.4263 1.5965,0.4238 1.6004,0.4127 1.6,0.4129 1.604,0.4018 1.6129,0.4047 1.6166,0.3944 1.6066,0.3921 1.6107,0.381 1.6102,0.3812 1.6141,0.37 1.6233,0.3727 1.6268,0.3625 1.6169,0.3604 1.6208,0.3491 1.6204,0.3494 1.6237,0.3407 1.633,0.3436 1.6365,0.3334 1.6264,0.3314 1.6304,0.3202 1.63,0.3205 1.634,0.3093 1.6433,0.3116 1.6469,0.3013 1.6368,0.2995 1.6407,0.2883 1.6404,0.2886 1.6442,0.2772 1.6538,0.2795 1.6574,0.2692 1.6471,0.2675 1.651,0.2563 1.6507,0.2566 1.6546,0.2452 1.6643,0.2472 1.6677,0.2369 1.6575,0.2355 1.6614,0.2242 1.6611,0.2244 1.6649,0.2131 1.6747,0.2149 1.6782,0.2045 1.6678,0.2034 1.6718,0.1919 1.6714,0.1923 1.6754,0.1808 1.6851,0.1825 1.6886,0.172 1.6782,0.1711 1.6822,0.1596 1.6818,0.1599 1.6857,0.1485 1.6956,0.1499 1.699,0.1395 1.6887,0.1387 1.6925,0.1271 1.6923,0.1275 1.6961,0.116 1.706,0.1173 1.7095,0.1067 1.6991,0.1062 1.7029,0.0946 1.7027,0.095 1.7065,0.0834 1.7164,0.0845 1.72,0.0739 1.7095,0.0735 1.7134,0.0619 1.7131,0.0623 1.7169,0.0507 1.661,0.0482 1.7236,0.0327 1.6327,0.0299 1.6465,0.004 1.6425,0.006 1.6546,-0.021 1.6743,-0.0188 1.6841,-0.0437 1.6566,-0.0418 1.6659,-0.0694 1.6611,-0.0673 1.6688,-0.0954 1.6886,-0.094 1.6944,-0.1201 1.6652,-0.1169 1.6702,-0.1458 1.6644,-0.1432 1.6678,-0.1727 1.6881,-0.1721 1.6899,-0.1994 1.6587,-0.1945 1.6594,-0.2247 1.6528,-0.2214 1.6521,-0.2497 1.6732,-0.2499 1.671,-0.2784 1.6378,-0.2713 1.6342,-0.3027 1.6268,-0.2989 1.6217,-0.3307 1.6436,-0.3319 1.6377,-0.3614 1.6021,-0.3518 1.5942,-0.3843 1.5861,-0.3795 1.5767,-0.4123 1.6,-0.4147 1.5906,-0.4439 1.5528,-0.43 1.5408,-0.4636 1.5322,-0.4575 1.5187,-0.4914 1.5436,-0.4951 1.5302,-0.5266 1.4896,-0.5099 1.4738,-0.5444 1.4646,-0.5369 1.4473,-0.5717 1.4739,-0.577 1.457,-0.6093 1.4142,-0.5882 1.3945,-0.6235 1.3852,-0.6143 1.3642,-0.6499 1.4855,-0.6993 1.2667,-0.6302 1.3235,-0.676 1.3264,-0.6982 1.3116,-0.7098 1.2765,-0.7132 1.2792,-0.7363 1.2638,-0.7476 1.2277,-0.7496 1.2301,-0.7737 1.2143,-0.7849 1.1774,-0.7855 1.1796,-0.8107 1.1635,-0.8217 1.126,-0.8209 1.1282,-0.8473 1.1118,-0.8583 1.0739,-0.856 1.076,-0.884 1.0595,-0.8948 1.0215,-0.8913 1.0236,-0.9207 1.0071,-0.9318 0.9692,-0.927 0.971,-0.9582 0.9548,-0.9695 0.9173,-0.9638 0.9193,-0.9964 0.9038,-1.0078 0.8669,-1.0011 0.8683,-1.0364 0.8524,-1.0489 0.8164,-1.0417 0.8174,-1.0792 0.8017,-1.0927 0.7666,-1.0851 0.767,-1.125 0.7514,-1.1396 0.7783,-1.2233 0.289,-0.4852 0.3671,-0.5982 0.3582,-0.6094 0.3433,-0.5809 0.3337,-0.5935 0.3349,-0.5898 0.3278,-0.6011 0.3159,-0.5745 0.5498,-1.0331 0.5076,-0.9529 0.4799,-0.9493 0.4831,-0.9483 0.4557,-0.9447 0.4732,-0.9721 0.4487,-0.9692 0.4373,-0.9393 0.4108,-0.9358 0.4144,-0.9352 0.3883,-0.9317 0.4048,-0.9608 0.3813,-0.958 0.3716,-0.9274 0.3465,-0.9239 0.3502,-0.924 0.3254,-0.9206 0.3406,-0.9513 0.3182,-0.9486 0.3103,-0.9175 0.2863,-0.9144 0.2902,-0.9149 0.2666,-0.9118 0.2802,-0.9439 0.2589,-0.9413 0.2528,-0.9102 0.2299,-0.9072 0.2339,-0.9085 0.2114,-0.9056 0.2233,-0.9387 0.2029,-0.9364 0.1987,-0.9055 0.1767,-0.9027 0.1808,-0.9048 0.1592,-0.9021 0.1692,-0.936 0.1498,-0.9339 0.1472,-0.9034 0.1263,-0.901 0.1301,-0.9036 0.1095,-0.9013 0.1179,-0.9356 0.0991,-0.9337 0.0983,-0.904 0.0782,-0.9018 0.0818,-0.9051 0.062,-0.903 0.0682,-0.9373 0.0501,-0.9357 0.0508,-0.907 0.0315,-0.9051 0.0347,-0.9087 0.0158,-0.9069 0.0199,-0.9411 0.003,-0.9396 0.005,-0.9119 -0.014,-0.9103 -0.0111,-0.9143 -0.0295,-0.9127 -0.0271,-0.9463 -0.0439,-0.9449 -0.0407,-0.9185 -0.0587,-0.917 -0.0561,-0.9214 -0.0677,-0.9202 -0.0668,-0.9531 -0.0829,-0.9518 -0.0788,-0.927 -0.0961,-0.9255 -0.094,-0.9303 -0.1111,-0.9289 -0.1122,-0.9607 -0.1277,-0.9595 -0.1228,-0.936 -0.1395,-0.9345 -0.1379,-0.9394 -0.1543,-0.938 -0.1568,-0.9687 -0.1718,-0.9673 -0.1663,-0.9452 -0.1824,-0.9438 -0.1811,-0.9486 -0.197,-0.9472 -0.2007,-0.9764 -0.2152,-0.975 -0.2091,-0.9543 -0.2246,-0.9528 -0.2238,-0.9575 -0.239,-0.956 -0.2439,-0.9838 -0.2576,-0.9823 -0.2513,-0.9629 -0.2662,-0.9611 -0.2656,-0.966 -0.2803,-0.9641 -0.286,-0.9905 -0.2993,-0.9888 -0.2926,-0.9707 -0.3068,-0.9688 -0.3067,-0.9735 -0.3207,-0.9714 -0.327,-0.9963 -0.3398,-0.9943 -0.3329,-0.9776 -0.3465,-0.9755 -0.3466,-0.9799 -0.36,-0.9776 -0.3669,-1.0011 -0.379,-0.9988 -0.366,-0.9856 -0.3739,-0.9851 -0.3742,-0.9895 -0.3869,-0.9872 -0.3943,-1.0092 -0.4058,-1.0069 -0.3989,-0.9925 -0.4113,-0.99 -0.4117,-0.9943 -0.4238,-0.9915 -0.4315,-1.0122 -0.4423,-1.0096 -0.4356,-0.9964 -0.4471,-0.9935 -0.4478,-0.9975 -0.4591,-0.9945 -0.4671,-1.0138 -0.4771,-1.011 -0.4705,-0.9987 -0.4814,-0.9956 -0.4822,-0.9993 -0.4928,-0.9961 -0.4646,-0.9426 -0.4771,-0.9387 -0.5861,-1.1557 -0.586,-1.1557 -0.4291,-0.8486 -0.4476,-0.8423 -0.6069,-1.1476 -0.6069,-1.1476 -0.4518,-0.8566 -0.4694,-0.8498 -0.6265,-1.1392 -0.6266,-1.1392 -0.4871,-0.8872 -0.5023,-0.8805 -0.6435,-1.1312 -0.6434,-1.1313 -0.4923,-0.8671 -0.5079,-0.8594 -0.6609,-1.1222 -0.661,-1.1222 -0.5128,-0.8722 -0.5274,-0.864 -0.6689,-1.1179 -0.6569,-1.1252 -0.5248,-0.9092 -0.5374,-0.9014 -0.6709,-1.1167 -0.6709,-1.1167 -0.5288,-0.8909 -0.5417,-0.8821 -0.6852,-1.107 -0.6853,-1.107 -0.5474,-0.8939 -0.559,-0.8846 -0.6984,-1.0969 -0.6985,-1.097 -0.5762,-0.9131 -0.586,-0.9041 -0.7095,-1.0875 -0.7095,-1.0875 -0.5787,-0.8956 -0.5883,-0.8852 -0.7206,-1.0768 -0.7206,-1.0768 -0.593,-0.8968 -0.6002,-0.887 -0.7279,-1.0675 -0.7279,-1.0676 -0.6165,-0.9117 -0.6235,-0.9015 -0.736,-1.0572 -0.7359,-1.0573 -0.6174,-0.8948 -0.624,-0.883 -0.7437,-1.0456 -0.7437,-1.0455 -0.63,-0.8929 -0.6353,-0.8807 -0.7504,-1.0335 -0.7503,-1.0335 -0.6327,-0.8788 -0.6237,-0.8469 -0.7447,-1.0045 -0.7446,-1.0044 -0.5949,-0.8118 -0.6137,-0.8133 -0.7598,-1.0065 -0.737,-1.0244 -0.589,-0.8388 -0.6075,-0.8406 -0.7555,-1.0238 -0.7555,-1.0239 -0.6226,-0.8611 -0.6394,-0.8623 -0.772,-1.0231 -0.7721,-1.023 -0.6278,-0.8504 -0.646,-0.8514 -0.7901,-1.022 -0.7901,-1.022 -0.6478,-0.8557 -0.6657,-0.8564 -0.8078,-1.0207 -0.8078,-1.0207 -0.6802,-0.8748 -0.6962,-0.8751 -0.8237,-1.0193 -0.8237,-1.0194 -0.6851,-0.8642 -0.6957,-0.8707 -0.8339,-1.024 -0.8338,-1.024 -0.6975,-0.8745 -0.7146,-0.8745 -0.8508,-1.0222 -0.8509,-1.0223 -0.7286,-0.891 -0.7439,-0.8906 -0.866,-1.0204 -0.866,-1.0204 -0.7334,-0.8809 -0.7501,-0.8803 -0.8824,-1.0182 -0.8825,-1.0182 -0.7519,-0.8836 -0.7682,-0.8827 -0.8985,-1.0158 -0.8986,-1.0157 -0.7816,-0.8976 -0.7962,-0.8963 -0.9224,-1.004 -0.9269,-0.9994 -0.7998,-0.8735 -0.8155,-0.8717 -0.9425,-0.9964 -0.9424,-0.9965 -0.817,-0.8743 -0.8325,-0.8724 -0.9577,-0.9931 -0.9578,-0.9931 -0.845,-0.8855 -0.8589,-0.8834 -0.9714,-0.99 -0.9715,-0.9899 -0.8488,-0.875 -0.8638,-0.8725 -0.9863,-0.9862 -0.9862,-0.9863 -0.8651,-0.8747 -0.8798,-0.872 -1.001,-0.9821 -1.0088,-0.9734 -0.8998,-0.875 -0.9129,-0.872 -1.0217,-0.9696 -1.0218,-0.9696 -0.9029,-0.8641 -0.9171,-0.8607 -1.0357,-0.9651 -1.0357,-0.9652 -0.9181,-0.8625 -0.9318,-0.8589 -1.0494,-0.9605 -1.0494,-0.9605 -0.9434,-0.8696 -0.9556,-0.8661 -1.0616,-0.956 -1.0616,-0.9561 -0.946,-0.8586 -0.9592,-0.8546 -1.0747,-0.9509 -1.0789,-0.946 -0.9646,-0.8507 -0.9776,-0.8462 -1.0921,-0.9402 -1.0921,-0.9402 -0.9886,-0.856 -1.0001,-0.8516 -1.1035,-0.9352 -1.1036,-0.9351 -0.9905,-0.8447 -1.0028,-0.8397 -1.1159,-0.9295 -1.1158,-0.9294 -1.0036,-0.841 -1.0157,-0.8359 -1.1279,-0.9235 -1.1279,-0.9234 -1.0264,-0.845 -1.0372,-0.84 -1.1392,-0.917 -1.1414,-0.9142 -1.0303,-0.8298 -1.0419,-0.8241 -1.1529,-0.9078 -1.1528,-0.9079 -1.0425,-0.8252 -1.0536,-0.8193 -1.164,-0.9012 -1.1641,-0.9012 -1.0641,-0.8277 -1.0741,-0.8221 -1.174,-0.895 -1.174,-0.895 -1.0645,-0.8158 -1.0752,-0.8094 -1.1847,-0.888 -1.1847,-0.888 -1.0757,-0.8104 -1.086,-0.8038 -1.1969,-0.8782 -1.1972,-0.8778 -1.0983,-0.8086 -1.1074,-0.8024 -1.2064,-0.871 -1.2064,-0.8711 -1.0979,-0.7963 -1.1077,-0.7893 -1.2162,-0.8634 -1.2163,-0.8634 -1.108,-0.7901 -1.1175,-0.7829 -1.2258,-0.8555 -1.2258,-0.8555 -1.1275,-0.7902 -1.136,-0.7832 -1.2343,-0.8482 -1.2342,-0.8482 -1.1264,-0.7775 -1.1382,-0.7653 -1.2472,-0.8339 -1.2472,-0.834 -1.1393,-0.7644 -1.1478,-0.7565 -1.256,-0.8254 -1.2559,-0.8255 -1.1577,-0.7632 -1.1653,-0.7558 -1.2637,-0.8175 -1.2636,-0.8175 -1.1555,-0.7502 -1.1636,-0.7418 -1.2718,-0.8086 -1.2719,-0.8086 -1.1635,-0.7424 -1.1713,-0.7337 -1.2797,-0.7995 -1.2798,-0.7994 -1.1811,-0.7402 -1.188,-0.7321 -1.2866,-0.791 -1.2867,-0.791 -1.178,-0.7267 -1.1852,-0.7177 -1.2941,-0.7814 -1.2941,-0.7815 -1.1851,-0.7182 -1.1919,-0.7089 -1.3012,-0.7717 -1.3012,-0.7717 -1.2018,-0.715 -1.2078,-0.7064 -1.3074,-0.7627 -1.3074,-0.7627 -1.1977,-0.7012 -1.204,-0.6915 -1.314,-0.7526 -1.314,-0.7525 -1.2037,-0.692 -1.2099,-0.682 -1.3202,-0.7422 -1.3203,-0.7422 -1.2196,-0.6879 -1.2249,-0.6786 -1.3258,-0.7327 -1.3258,-0.7326 -1.2145,-0.6736 -1.22,-0.6634 -1.3316,-0.7219 -1.3315,-0.7219 -1.2197,-0.6637 -1.2248,-0.6532 -1.337,-0.7109 -1.337,-0.7109 -1.2347,-0.6588 -1.2393,-0.649 -1.3417,-0.7008 -1.3418,-0.7007 -1.2285,-0.6442 -1.2333,-0.6333 -1.3467,-0.6894 -1.3467,-0.6894 -1.2327,-0.6336 -1.2371,-0.6224 -1.3513,-0.6779 -1.3514,-0.6779 -1.247,-0.6277 -1.2508,-0.6174 -1.3554,-0.6672 -1.3554,-0.6672 -1.2397,-0.6127 -1.2436,-0.6013 -1.3595,-0.6552 -1.3596,-0.6552 -1.2432,-0.6009 -1.2476,-0.5871 -1.3646,-0.6403 -1.3646,-0.6404 -1.2577,-0.5921 -1.2606,-0.5813 -1.3679,-0.6291 -1.3678,-0.6291 -1.2493,-0.5768 -1.2521,-0.5646 -1.3711,-0.6165 -1.3712,-0.6165 -1.2513,-0.5649 -1.2539,-0.5525 -1.3742,-0.6038 -1.3742,-0.6037 -1.2641,-0.5574 -1.2663,-0.546 -1.3767,-0.5919 -1.3773,-0.5905 -1.2566,-0.5364 -1.2586,-0.5236 -1.3813,-0.5735 -1.3813,-0.5735 -1.2575,-0.5238 -1.2593,-0.5108 -1.3834,-0.5601 -1.3835,-0.5601 -1.2696,-0.5155 -1.2709,-0.5036 -1.3852,-0.5477 -1.3852,-0.5477 -1.2585,-0.4994 -1.2596,-0.486 -1.3868,-0.5339 -1.3869,-0.5339 -1.2583,-0.4863 -1.2592,-0.4727 -1.3882,-0.5199 -1.3881,-0.5199 -1.2699,-0.4772 -1.2704,-0.4647 -1.3892,-0.507 -1.3891,-0.507 -1.2574,-0.4607 -1.2575,-0.4468 -1.39,-0.4926 -1.39,-0.4926 -1.2562,-0.4471 -1.2561,-0.4329 -1.3905,-0.478 -1.3905,-0.478 -1.2672,-0.4372 -1.2669,-0.4243 -1.3907,-0.4645 -1.3908,-0.4646 -1.2532,-0.4204 -1.2525,-0.406 -1.3908,-0.4495 -1.3907,-0.4496 -1.251,-0.4062 -1.25,-0.3916 -1.3905,-0.4344 -1.3904,-0.4343 -1.2615,-0.3957 -1.2604,-0.3822 -1.39,-0.4204 -1.3899,-0.4203 -1.246,-0.3787 -1.2445,-0.3637 -1.3891,-0.4047 -1.3891,-0.4048 -1.2428,-0.364 -1.2408,-0.3488 -1.388,-0.3889 -1.3881,-0.3889 -1.2528,-0.3527 -1.2509,-0.3388 -1.3867,-0.3743 -1.3868,-0.3744 -1.2357,-0.3355 -1.2332,-0.32 -1.3852,-0.3582 -1.3851,-0.3581 -1.2314,-0.3204 -1.2285,-0.3047 -1.3833,-0.3417 -1.3832,-0.3417 -1.241,-0.3084 -1.2383,-0.2939 -1.3813,-0.3266 -1.3812,-0.3267 -1.2223,-0.2911 -1.2188,-0.275 -1.3788,-0.3098 -1.3789,-0.3098 -1.2167,-0.2755 -1.2131,-0.2593 -1.3761,-0.2928 -1.3761,-0.2928 -1.2261,-0.2628 -1.2227,-0.2478 -1.3734,-0.2771 -1.3733,-0.2771 -1.2056,-0.2455 -1.2013,-0.2289 -1.3701,-0.2597 -1.3701,-0.2597 -1.1991,-0.2296 -1.1945,-0.2127 -1.3665,-0.2421 -1.3666,-0.2421 -1.2081,-0.2161 -1.2039,-0.2006 -1.3631,-0.2259 -1.3631,-0.2258 -1.1858,-0.1989 -1.1806,-0.1817 -1.359,-0.2079 -1.359,-0.2079 -1.1782,-0.1825 -1.1726,-0.1654 -1.3547,-0.1896 -1.3546,-0.1897 -1.1871,-0.1683 -1.182,-0.1524 -1.3505,-0.1729 -1.3504,-0.1729 -1.1628,-0.1513 -1.1568,-0.1339 -1.3456,-0.1542 -1.3455,-0.1543 -1.1541,-0.1348 -1.1477,-0.1172 -1.3403,-0.1354 -1.3404,-0.1354 -1.163,-0.1198 -1.157,-0.1035 -1.3355,-0.1181 -1.3354,-0.1181 -1.1367,-0.1032 -1.1297,-0.0853 -1.3298,-0.0989 -1.3297,-0.0989 -1.1268,-0.0865 -1.1197,-0.0684 -1.3237,-0.0795 -1.3238,-0.0794 -1.1357,-0.0706 -1.1291,-0.054 -1.3181,-0.0616 -1.318,-0.0616 -1.1075,-0.0546 -1.0997,-0.0363 -1.3116,-0.0417 -1.3115,-0.0418 -1.0966,-0.0378 -1.0886,-0.0194 -1.3047,-0.0218 -1.3048,-0.0217 -1.3047,-0.0217 c -15.6465,-0.1096 -28.2417,-12.8825 -28.1321,-28.529 0.1096,-15.6466 12.8825,-28.2417 28.529,-28.1321 l 1.3049,-0.004 1.3049,-0.003 1.3049,-0.003 1.5211,-0.001 1.527,0.0204 1.3121,0.0165 1.3121,0.0165 1.5239,0.0219 1.5295,0.0432 1.319,0.0362 1.319,0.0361 1.508,0.0438 1.513,0.0628 1.325,0.0539 1.325,0.0539 1.5291,0.0649 1.5343,0.0856 1.3314,0.0732 1.3314,0.0732 1.5313,0.0869 1.5363,0.1073 1.3374,0.0923 1.3375,0.0923 1.5158,0.107 1.5202,0.1251 1.3427,0.1096 1.3428,0.1095 1.5354,0.1278 1.5398,0.1477 1.3483,0.1283 1.3483,0.1282 1.537,0.1487 1.5412,0.1684 1.3535,0.1468 1.3536,0.1468 1.5219,0.1672 1.5256,0.1848 1.3581,0.1634 1.358,0.1635 1.5401,0.1877 1.5436,0.2069 1.3628,0.1816 1.3628,0.1816 1.5411,0.2077 1.5445,0.2266 1.3672,0.1996 1.3672,0.1995 1.5264,0.2248 1.5293,0.2417 1.371,0.2157 1.3709,0.2157 1.5431,0.2449 1.5459,0.2635 1.3749,0.2332 1.3748,0.2332 1.5436,0.2641 1.5462,0.2822 1.3785,0.2506 1.3784,0.2506 1.5292,0.2799 1.5314,0.2962 1.3814,0.2661 1.3815,0.2662 1.5445,0.2997 1.5465,0.3175 1.3846,0.2831 1.3845,0.2832 1.5445,0.3179 1.5463,0.3354 1.3873,0.2999 1.3873,0.2999 1.5303,0.3327 1.5318,0.3483 1.3895,0.3149 1.3896,0.315 1.5443,0.3521 1.5456,0.3691 1.3918,0.3313 1.3918,0.3314 1.5438,0.3695 1.5448,0.3863 1.3938,0.3475 1.3937,0.3476 1.5297,0.3831 1.5305,0.3982 1.3952,0.3621 1.3953,0.362 1.5424,0.4022 1.5431,0.4186 1.3967,0.3778 1.3967,0.3779 1.5414,0.4189 1.5417,0.435 1.3978,0.3935 1.3978,0.3934 1.5273,0.4316 1.5275,0.446 1.3986,0.4074 1.3985,0.4075 1.539,0.4501 1.5389,0.466 1.3991,0.4226 1.3992,0.4227 1.5373,0.4662 1.537,0.4817 1.3994,0.4376 1.3995,0.4377 1.5232,0.4779 1.5228,0.4919 1.3994,0.4511 1.3995,0.4511 1.5338,0.4962 1.533,0.5113 1.3992,0.4657 1.3992,0.4657 1.5316,0.5115 1.5304,0.5265 1.3987,0.4801 1.3987,0.4801 1.5174,0.5225 1.5162,0.5357 1.398,0.4931 1.3979,0.493 1.5269,0.5403 1.5254,0.5548 1.3968,0.5071 1.3969,0.507 1.5241,0.555 1.5222,0.5693 1.3955,0.5209 1.3955,0.5209 1.5098,0.565 1.5079,0.5779 1.394,0.5333 1.394,0.5333 1.5183,0.5825 1.5159,0.5964 1.3922,0.5467 1.3921,0.5467 1.5148,0.5967 1.5122,0.6102 1.3916,0.5561 1.3921,0.5547 1.5025,0.6007 1.5,0.6129 1.3899,0.5666 1.3899,0.5665 1.5102,0.6178 1.5071,0.6311 1.3873,0.5794 1.3872,0.5795 1.5063,0.6313 1.5029,0.6444 1.3843,0.5921 1.3843,0.5921 1.4915,0.6399 1.4883,0.6516 1.3813,0.6034 1.3813,0.6034 1.4983,0.6567 1.4954,0.6674 1.3791,0.613 1.3791,0.613 1.495,0.667 1.491,0.6795 1.3753,0.6251 1.3753,0.6251 1.4799,0.6748 1.476,0.686 1.3716,0.6359 1.3717,0.6359 1.4859,0.6914 1.4813,0.7034 1.3673,0.6476 1.3674,0.6476 1.4808,0.7038 1.4759,0.7158 1.3627,0.6591 1.3627,0.6591 1.4652,0.7108 1.4606,0.7216 1.3583,0.6693 1.3583,0.6694 1.4704,0.7271 1.4651,0.7387 1.3531,0.6805 1.3532,0.6805 1.4646,0.739 1.4589,0.7504 1.3478,0.6914 1.3477,0.6914 1.4485,0.7454 1.4432,0.7554 1.3425,0.7012 1.3426,0.7012 1.453,0.7613 1.4468,0.7723 1.3365,0.7117 1.3366,0.7117 1.4465,0.7727 1.4401,0.7835 1.3302,0.7221 1.3303,0.722 1.4299,0.7783 1.4238,0.7879 1.3244,0.7313 1.3243,0.7312 1.4336,0.7941 1.4266,0.8045 1.3176,0.7412 1.3176,0.7412 1.4264,0.8049 1.4192,0.8152 1.3104,0.751 1.3105,0.7509 1.4092,0.8098 1.4024,0.819 1.3038,0.7596 1.3037,0.7596 1.4122,0.8254 1.4045,0.8352 1.2961,0.769 1.2962,0.769 1.4043,0.8358 1.3964,0.8455 1.2882,0.7782 1.2882,0.7781 1.3865,0.8399 1.379,0.8485 1.2808,0.7863 1.2807,0.7863 1.3889,0.8553 1.3802,0.8647 1.2724,0.7951 1.2723,0.7951 1.3813,0.8638 1.3754,0.8684 1.2675,0.7978 1.2674,0.7977 1.3658,0.8627 1.3576,0.8709 1.2593,0.8054 1.2593,0.8054 1.3676,0.8781 1.3583,0.887 1.2501,0.8137 1.25,0.8136 1.3586,0.8878 1.349,0.8965 1.2405,0.8217 1.2405,0.8217 1.3394,0.8904 1.3305,0.898 1.2315,0.8289 1.2319,0.8284 1.3427,0.9029 1.3327,0.9113 1.2236,0.8336 1.2236,0.8336 1.3331,0.9122 1.3227,0.9203 1.2132,0.8411 1.2133,0.8411 1.3131,0.9141 1.3035,0.9212 1.2036,0.8477 1.2036,0.8478 1.3139,0.9296 1.3031,0.9375 1.1927,0.8548 1.1927,0.8549 1.3036,0.9385 1.2924,0.9463 1.1815,0.8617 1.1836,0.859 1.2856,0.936 1.2753,0.9428 1.1738,0.8643 1.1738,0.8643 1.2861,0.9518 1.2744,0.9592 1.1621,0.8709 1.1621,0.8709 1.2751,0.9605 1.2631,0.9678 1.1501,0.8772 1.1501,0.8773 1.2535,0.9607 1.2424,0.9671 1.139,0.8828 1.1389,0.8829 1.2535,0.9769 1.241,0.9838 1.1268,0.8884 1.1309,0.8834 1.2464,0.9799 1.2337,0.9867 1.1181,0.8893 1.118,0.8893 1.224,0.9793 1.2122,0.9853 1.1062,0.8944 1.1062,0.8945 1.2237,0.996 1.2105,1.0026 1.0928,0.8999 1.0929,0.9 1.2114,1.0043 1.198,1.0108 1.0792,0.9052 1.0791,0.9052 1.1881,1.0029 1.1755,1.0083 1.0665,0.9099 1.0743,0.9013 1.1956,1.0113 1.1816,1.0176 1.0604,0.906 1.0604,0.906 1.1829,1.0198 1.1686,1.0259 1.0459,0.9109 1.0459,0.9109 1.1586,1.0174 1.1453,1.0228 1.0326,0.9151 1.0325,0.9152 1.1579,1.0358 1.143,1.0417 1.0176,0.9196 1.0175,0.9196 1.1445,1.0443 1.1293,1.05 1.0023,0.9239 1.0067,0.9194 1.1329,1.027 1.119,1.0322 1.0019,0.914 1.002,0.9139 1.1323,1.0471 1.1167,1.0527 0.9862,0.9181 0.9861,0.9181 1.1186,1.0559 1.1026,1.0616 0.97,0.922 0.9701,0.9221 1.0921,1.0518 1.0774,1.0567 0.9551,0.9255 0.9552,0.9255 1.0914,1.0732 1.0749,1.0786 0.9385,0.9291 0.9385,0.929 1.0768,1.0825 1.053,1.0938 0.9145,0.9387 0.9146,0.9387 1.042,1.083 1.0264,1.0875 0.8989,0.9415 0.8988,0.9415 1.041,1.1058 1.0236,1.1109 0.8813,0.9444 0.8813,0.9444 1.0255,1.115 1.0077,1.1199 0.8635,0.9471 0.8636,0.9472 0.9962,1.1079 0.9799,1.1121 0.8471,0.9495 0.847,0.9494 0.995,1.1328 0.9767,1.1375 0.8287,0.9518 0.8059,0.9699 0.952,1.1629 0.9333,1.1672 0.7835,0.9744 0.7835,0.9744 0.9045,1.132 0.908,1.158 0.7904,1.0033 0.7903,1.0032 0.9054,1.1561 0.8979,1.1682 0.7842,1.0156 0.7842,1.0156 0.9041,1.178 0.8953,1.1899 0.7769,1.0276 0.7769,1.0275 0.8893,1.1833 0.8806,1.194 0.7692,1.0381 0.7692,1.0382 0.8969,1.2188 0.8847,1.2313 0.7572,1.0514 0.7572,1.0514 0.8893,1.2429 0.8773,1.2544 0.7465,1.0624 0.7465,1.0624 0.8699,1.2459 0.858,1.2561 0.7358,1.0722 0.7358,1.0723 0.8752,1.2846 0.8609,1.2958 0.723,1.0828 0.7229,1.0827 0.8666,1.3078 0.851,1.3187 0.7089,1.093 0.7089,1.093 0.8424,1.3082 0.8273,1.318 0.6952,1.102 0.6831,1.1093 0.8246,1.3633 0.8066,1.3737 0.6584,1.1237 0.6585,1.1236 0.8115,1.3865 0.792,1.3968 0.641,1.1327 0.6409,1.1327 0.7819,1.3834 0.7634,1.3926 0.624,1.1406 0.624,1.1406 0.7812,1.4299 0.7594,1.44 0.6043,1.149 0.6044,1.149 0.7636,1.4542 0.7405,1.4642 0.5835,1.157 0.5835,1.157 0.6924,1.374 0.6753,1.3808 0.6471,1.3273 0.6352,1.3316 0.6361,1.3355 0.6239,1.3397 0.6173,1.3275 0.606,1.3313 0.6138,1.3505 0.6011,1.3548 0.6018,1.3587 0.5886,1.3629 0.5819,1.3496 0.5698,1.3532 0.5774,1.3739 0.5637,1.3779 0.5643,1.3821 0.5502,1.386 0.5434,1.3718 0.5303,1.3752 0.5378,1.3972 0.5231,1.4011 0.5234,1.4055 0.5032,1.4112 0.4903,1.3978 0.4764,1.4009 0.4833,1.4244 0.4676,1.4279 0.4677,1.4323 0.4516,1.4357 0.4448,1.419 0.43,1.422 0.4364,1.4468 0.4197,1.4501 0.4195,1.4548 0.4024,1.4579 0.3957,1.4399 0.3801,1.4426 0.3857,1.469 0.368,1.472 0.3674,1.4768 0.3494,1.4797 0.3429,1.4604 0.3263,1.4628 0.3311,1.4907 0.3124,1.4934 0.3114,1.4983 0.2923,1.5008 0.2863,1.4802 0.2687,1.4824 0.2724,1.5116 0.2526,1.5141 0.2514,1.5189 0.2311,1.5211 0.2256,1.4991 0.2071,1.5009 0.2095,1.5316 0.1887,1.5336 0.187,1.5384 0.1657,1.5403 0.1608,1.5167 0.1414,1.5183 0.1424,1.5501 0.1205,1.5517 0.1184,1.5564 0.096,1.5578 0.092,1.5328 0.0715,1.534 0.0706,1.5668 0.0415,1.5682 0.039,1.5725 0.0156,1.5733 0.0124,1.5469 -0.009,1.5475 -0.0111,1.581 -0.0352,1.5815 -0.0381,1.5854 -0.0625,1.5857 -0.0644,1.558 -0.0867,1.5579 -0.0908,1.5922 -0.1158,1.5919 -0.1191,1.5955 -0.1445,1.595 -0.145,1.5662 -0.1681,1.5656 -0.1742,1.6001 -0.2001,1.599 -0.2038,1.6023 -0.2299,1.6009 -0.229,1.5713 -0.253,1.57 -0.2612,1.6043 -0.288,1.6026 -0.2918,1.6052 -0.3189,1.6032 -0.3162,1.5727 -0.3409,1.5708 -0.3509,1.6048 -0.3784,1.6022 -0.3823,1.6042 -0.4101,1.6015 -0.4058,1.5705 -0.431,1.5679 -0.4428,1.6011 -0.4711,1.5978 -0.475,1.5992 -0.5034,1.5956 -0.4973,1.5645 -0.5231,1.5614 -0.5367,1.5933 -0.5654,1.5894 -0.5693,1.5901 -0.5982,1.5858 -0.5903,1.5548 -0.6166,1.551 -0.6317,1.5817 -0.6609,1.577 -0.6646,1.5771 -0.6941,1.5722 -0.6843,1.5416 -0.7111,1.5372 -0.7274,1.5664 -0.7571,1.5611 -0.7606,1.5606 -0.7903,1.555 -0.779,1.5252 -0.8062,1.5204 -0.8235,1.5478 -0.8535,1.5419 -0.8567,1.541 -0.8868,1.5349 -0.8447,1.4547 -0.7052,1.18 -0.6933,1.1534 -0.7117,1.1383 -0.7128,1.1346 -0.7283,1.1211 -0.7134,1.0925 -0.7271,1.0801 -0.8051,1.1931 -1.4589,2.0813 -1.5338,2.1136 -1.5615,2.0814 -1.6086,2.0703 -1.6195,2.012 -1.6452,1.9796 -1.6909,1.9668 -1.6989,1.9096 -1.7223,1.877 -1.7665,1.8627 -1.7716,1.807 -1.7935,1.7739 -1.8363,1.758 -1.8386,1.7038 -1.858,1.6714 -1.8984,1.6548 -1.8984,1.6025 -1.9157,1.5706 -1.9543,1.5529 -1.952,1.5027 -1.9675,1.4713 -2.0041,1.453 -1.9999,1.4049 -2.0135,1.3742 -2.0482,1.3553 -2.0423,1.3093 -2.0543,1.2796 -2.087,1.2602 -2.0796,1.2164 -2.0902,1.1875 -2.1208,1.1679 -2.1124,1.1263 -2.1214,1.0983 -2.1503,1.0785 -2.1406,1.0391 -2.1485,1.0121 -2.1755,0.9921 -2.2558,0.996 -2.0678,0.8702 -2.1891,0.9196 -2.211,0.873 -2.2017,0.8638 -2.222,0.818 -2.1792,0.7968 -2.1961,0.7563 -2.2229,0.7617 -2.2402,0.7174 -2.2311,0.7099 -2.2468,0.6665 -2.2064,0.6499 -2.2194,0.6114 -2.2443,0.6151 -2.2573,0.5733 -2.2487,0.5671 -2.2602,0.526 -2.2225,0.5121 -2.232,0.4745 -2.2552,0.4767 -2.2642,0.4371 -2.256,0.4321 -2.2635,0.3933 -2.2278,0.3836 -2.2334,0.3491 -2.2554,0.3504 -2.2602,0.3128 -2.2529,0.3088 -2.2563,0.2721 -2.2231,0.2651 -2.225,0.2324 -2.246,0.2326 -2.2471,0.1947 -2.2406,0.1915 -2.2401,0.1567 -2.2089,0.1517 -2.2072,0.1209 -2.2275,0.1203 -2.2245,0.0867 -2.2188,0.0843 -2.2142,0.0513 -2.1852,0.0482 -2.1799,0.0189 -2.1998,0.0177 -2.1929,-0.014 -2.1879,-0.0161 -2.1797,-0.0472 -2.1523,-0.0489 -2.1435,-0.0765 -2.1633,-0.0786 -2.1526,-0.1085 -2.1485,-0.1102 -2.1364,-0.1396 -2.0456,-0.1368 -1.9925,-0.1518 -1.9364,-0.1493 -1.9325,-0.1615 -1.9321,-0.1619 -1.9281,-0.1741 -1.9177,-0.1737 -1.914,-0.1848 -1.9239,-0.1858 -1.9198,-0.198 -1.9195,-0.1983 -1.9154,-0.2105 -1.905,-0.2099 -1.9013,-0.2209 -1.9111,-0.2222 -1.907,-0.2344 -1.9067,-0.2346 -1.9026,-0.2468 -1.8921,-0.246 -1.8883,-0.257 -1.8982,-0.2584 -1.894,-0.2705 -1.8937,-0.2708 -1.8894,-0.2829 -1.8792,-0.282 -1.8752,-0.2929 -1.885,-0.2945 -1.8808,-0.3065 -1.8805,-0.3069 -1.8762,-0.3189 -1.8659,-0.3177 -1.862,-0.3287 -1.8716,-0.3304 -1.8674,-0.3424 -1.8671,-0.3428 -1.8627,-0.3548 -1.8525,-0.3533 -1.8485,-0.3643 -1.8582,-0.3662 -1.8538,-0.3782 -1.8534,-0.3785 -1.8491,-0.3904 -1.8389,-0.3888 -1.8349,-0.3997 -1.8444,-0.4019 -1.8401,-0.4137 -1.8396,-0.4141 -1.8352,-0.4259 -1.8252,-0.4242 -1.8211,-0.4349 -1.8304,-0.4373 -1.8261,-0.4492 -1.8257,-0.4495 -1.8212,-0.4612 -1.8111,-0.4594 -1.8071,-0.47 -1.8163,-0.4731 -1.8112,-0.4873 -1.8107,-0.4875 -1.8063,-0.4994 -1.7962,-0.4972 -1.7922,-0.5078 -1.8013,-0.5106 -1.7967,-0.5223 -1.7963,-0.5226 -1.7917,-0.5343 -1.7818,-0.5319 -1.7777,-0.5426 -1.7867,-0.5454 -1.782,-0.5571 -1.7817,-0.5574 -1.777,-0.5691 -1.7672,-0.5665 -1.7628,-0.5781 -1.7716,-0.5811 -1.7669,-0.5927 -1.7665,-0.593 -1.7618,-0.6046 -1.7522,-0.6019 -1.7479,-0.6124 -1.7566,-0.6156 -1.7519,-0.6271 -1.7514,-0.6274 -1.7467,-0.6389 -1.7372,-0.6361 -1.7329,-0.6465 -1.7414,-0.6499 -1.7367,-0.6613 -1.7362,-0.6616 -1.7315,-0.6731 -1.722,-0.6701 -1.7178,-0.6804 -1.7261,-0.6839 -1.7213,-0.6954 -1.7208,-0.6955 -1.716,-0.707 -1.7068,-0.7039 -1.7025,-0.7142 -1.7106,-0.7177 -1.7058,-0.7292 -1.7052,-0.7293 -1.7004,-0.7407 -1.6914,-0.7374 -1.687,-0.7477 -1.695,-0.7514 -1.6901,-0.7627 -1.6895,-0.7629 -1.6847,-0.7742 -1.6758,-0.7708 -1.6714,-0.781 -1.6791,-0.7848 -1.6743,-0.7961 -1.6737,-0.7962 -1.6688,-0.8075 -1.6601,-0.8039 -1.6556,-0.8141 -1.6632,-0.818 -1.6583,-0.8292 -1.6578,-0.8293 -1.6527,-0.8406 -1.6443,-0.8368 -1.6397,-0.847 -1.6471,-0.8509 -1.6422,-0.8622 -1.6416,-0.8622 -1.6366,-0.8734 -1.6283,-0.8695 -1.6237,-0.8797 -1.6309,-0.8837 -1.626,-0.8948 -1.6253,-0.8949 -1.6203,-0.906 -1.6122,-0.902 -1.6076,-0.9121 -1.6146,-0.9162 -1.6095,-0.9273 -1.609,-0.9273 -1.6039,-0.9384 -1.596,-0.9343 -1.5913,-0.9443 -1.5982,-0.9485 -1.593,-0.9595 -1.5926,-0.9596 -1.5873,-0.9705 -1.5797,-0.9664 -1.5749,-0.9763 -1.5816,-0.9806 -1.5765,-0.9915 -1.5759,-0.9915 -1.5707,-1.0025 -1.5632,-0.9982 -1.5585,-1.0081 -1.565,-1.0124 -1.5597,-1.0233 -1.5592,-1.0233 -1.554,-1.0342 -1.5806,-1.0514 -1.5734,-1.0663 -1.4718,-1.0013 -1.4717,-1.0013 -1.6189,-1.0966 -1.6078,-1.1186 -1.4617,-1.0225 -1.4617,-1.0225 -1.6057,-1.1185 -1.5947,-1.1404 -1.4516,-1.0437 -1.4517,-1.0437 -1.5798,-1.1315 -1.5698,-1.1512 -1.4424,-1.0629 -1.4424,-1.0629 -1.5805,-1.1599 -1.5694,-1.1816 -1.4323,-1.084 -1.4322,-1.0839 -1.5673,-1.1814 -1.5561,-1.203 -1.422,-1.105 -1.4221,-1.1049 -1.5421,-1.1939 -1.5319,-1.2133 -1.4127,-1.124 -1.4128,-1.124 -1.5419,-1.222 -1.5306,-1.2434 -1.4024,-1.1449 -1.4024,-1.1448 -1.5286,-1.2431 -1.5173,-1.2644 -1.3921,-1.1657 -1.3921,-1.1656 -1.424,-1.191 -0.9,-0.7577 -0.8478,-0.716 -0.8477,-0.716 -0.8262,-0.6987 -0.8189,-0.6894 -0.8408,-0.7069 -0.8408,-0.7069 -0.8345,-0.7019 -0.8269,-0.6947 -0.8332,-0.6996 -0.8333,-0.6997 -0.84,-0.7051 -0.8329,-0.7 -0.826,-0.6946 -0.826,-0.6946 -0.8474,-0.7117 -0.8392,-0.7078 -0.8176,-0.6906 -0.8176,-0.6906 -0.855,-0.7206 -0.8464,-0.7189 -0.8087,-0.6884 -0.8087,-0.6885 -0.8555,-0.7264 -0.8473,-0.7263 -0.8001,-0.6879 -0.8002,-0.688 -0.8657,-0.7416 -0.8561,-0.7433 -0.7904,-0.6891 -0.7904,-0.6891 -0.8716,-0.7566 -0.8614,-0.7603 -0.7801,-0.692 -0.7801,-0.6921 -0.8661,-0.7648 -0.8563,-0.7697 -0.7703,-0.6962 -0.7703,-0.6962 -0.8778,-0.789 -0.8665,-0.7962 -0.7591,-0.7024 -0.7591,-0.7024 -0.8808,-0.81 -0.8687,-0.8193 -0.7474,-0.7104 -0.7474,-0.7105 -0.8684,-0.8204 -0.8568,-0.8303 -0.7364,-0.7192 -0.7363,-0.7193 -0.8801,-0.8537 -0.8665,-0.8662 -0.7238,-0.7306 -0.7237,-0.7305 -0.8787,-0.8804 -0.8642,-0.8949 -0.7106,-0.7437 -0.7107,-0.7436 -0.8207,-0.8539 -0.8107,-0.8643 -0.7847,-0.8389 -0.7773,-0.847 -0.7797,-0.8504 -0.7722,-0.8591 -0.7662,-0.8537 -0.7593,-0.8618 -0.769,-0.8732 -0.761,-0.8826 -0.7631,-0.886 -0.7549,-0.8957 -0.7484,-0.8894 -0.7409,-0.8986 -0.7505,-0.9109 -0.742,-0.9214 -0.7436,-0.9246 -0.7349,-0.9356 -0.7278,-0.9282 -0.7198,-0.9385 -0.7291,-0.9514 -0.7201,-0.9631 -0.7213,-0.9662 -0.712,-0.9782 -0.7045,-0.9699 -0.696,-0.9811 -0.7049,-0.9947 -0.6953,-1.0074 -0.696,-1.0102 -0.6863,-1.0234 -0.6785,-1.0141 -0.6696,-1.0263 -0.6779,-1.0403 -0.6678,-1.054 -0.6681,-1.0566 -0.6578,-1.0708 -0.572,-0.9389 c -6.8282,-10.5821 -3.785,-24.696 6.7972,-31.5241 10.5821,-6.8282 24.6959,-3.785 31.5241,6.7972 z" /><path
                 id="path32"
                 style="fill:#000000;fill-opacity:1;fill-rule:nonzero;stroke:none"
                 d="m 681.5949,372.2896 -1.2022,-0.1333 -1.463,-0.1748 -1.4543,-0.205 -1.4532,-0.208 -1.4442,-0.2378 -1.4196,-0.2356 -1.4112,-0.2623 -1.4338,-0.2702 -1.4242,-0.2994 -1.4228,-0.3022 -1.4128,-0.3311 -1.3882,-0.3272 -1.3789,-0.353 -1.4009,-0.3623 -1.3905,-0.3905 -1.3886,-0.3931 -1.3779,-0.421 -1.3533,-0.4154 -1.3434,-0.4401 -1.3645,-0.4509 -1.3533,-0.4779 -1.3511,-0.4803 -1.3396,-0.5071 -1.3153,-0.4998 -1.3048,-0.5236 -1.325,-0.5354 -1.3129,-0.5614 -1.3106,-0.5636 -1.2982,-0.589 -1.2747,-0.5804 -1.2635,-0.603 -1.2826,-0.6159 -1.2699,-0.6407 -1.2673,-0.6426 -1.2544,-0.667 -1.2316,-0.6567 -1.2198,-0.6784 -1.2379,-0.6922 -1.2245,-0.7158 -1.2219,-0.7174 -1.2083,-0.7405 -1.1865,-0.7291 -1.1741,-0.7496 -1.1911,-0.7642 -1.1772,-0.7867 -1.1745,-0.7879 -1.1603,-0.8099 -1.1397,-0.7973 -1.1268,-0.8168 -1.1427,-0.8321 -1.1282,-0.8533 -1.1256,-0.8544 -1.1109,-0.8752 -1.0914,-0.8615 -1.0781,-0.88 -1.0928,-0.8959 -1.0779,-0.9159 -1.0754,-0.9168 -1.0602,-0.9364 -1.042,-0.922 -1.0282,-0.9394 -1.0419,-0.9558 -1.0265,-0.9746 -1.024,-0.9754 -1.0086,-0.9938 -0.9914,-0.9787 -0.9773,-0.9951 -0.99,-1.0119 -0.9741,-1.0297 -0.9719,-1.0303 -0.9559,-1.0476 -0.94,-1.0319 -0.9256,-1.0473 -0.9372,-1.0645 -0.9211,-1.0811 -0.9188,-1.0818 -0.9025,-1.0979 -0.8878,-1.0818 -0.873,-1.0961 -0.8837,-1.1138 -0.8672,-1.1292 -0.8651,-1.1299 -0.8484,-1.145 -0.8348,-1.1284 -0.8196,-1.1418 -0.8295,-1.1598 -0.8125,-1.1742 -0.8107,-1.1749 -0.7935,-1.1889 -0.7811,-1.172 -0.7656,-1.1844 -0.7745,-1.2028 -0.7572,-1.2162 -0.7554,-1.2169 -0.738,-1.2299 -0.7265,-1.2126 -0.7107,-1.2241 -0.7188,-1.2429 -0.7012,-1.2553 -0.6994,-1.256 -0.6817,-1.268 -0.6712,-1.2505 -0.655,-1.261 -0.6623,-1.2802 -0.6442,-1.2916 -0.6427,-1.2924 -0.6245,-1.3033 -0.615,-1.2857 -0.5985,-1.2952 -0.6049,-1.3149 -0.5865,-1.3252 -0.585,-1.3261 -0.5664,-1.3361 -0.5579,-1.3181 -0.541,-1.3269 -0.5466,-1.3468 -0.5278,-1.3562 -0.5264,-1.3573 -0.5074,-1.3663 -0.4997,-1.348 -0.4825,-1.3559 -0.4873,-1.3764 -0.468,-1.3847 -0.4667,-1.3859 -0.4473,-1.3939 -0.4404,-1.3754 -0.4229,-1.3824 -0.4269,-1.4034 -0.4072,-1.4107 -0.4058,-1.4121 -0.3861,-1.4191 -0.38,-1.4003 -0.3621,-1.4064 -0.3652,-1.4279 -0.3451,-1.4343 -0.3437,-1.4358 -0.3235,-1.4418 -0.3183,-1.4228 -0.3,-1.4279 -0.3022,-1.45 -0.2818,-1.4554 -0.2802,-1.4571 -0.2596,-1.4621 -0.2552,-1.4427 -0.2366,-1.447 -0.2377,-1.4697 -0.2169,-1.474 -0.2153,-1.4759 -0.1942,-1.4798 -0.1907,-1.4603 -0.1716,-1.4635 -0.1718,-1.4869 -0.1505,-1.4901 -0.1487,-1.4922 -0.1273,-1.4952 -0.1246,-1.4752 -0.1051,-1.4776 -0.1041,-1.5015 -0.0825,-1.5038 -0.0805,-1.5059 -0.0579,-1.508 -0.0556,-1.4875 -0.0357,-1.489 -0.0336,-1.5135 -0.0114,-1.5148 -0.009,-1.517 0.013,-1.518 0.014,-1.4971 0.0343,-1.4977 0.0376,-1.5227 0.0602,-1.523 0.0625,-1.5253 0.0854,-1.5253 0.0853,-1.5039 0.1087,-1.5033 0.1142,-1.5288 0.1373,-1.5279 0.1398,-1.5303 0.1631,-1.5291 0.1621,-1.5072 0.1832,-1.5059 0.1892,-1.532 0.2129,-1.53 0.2156,-1.5324 0.2393,-1.5301 0.2372,-1.5079 0.2587,-1.5055 0.2664,-1.532 0.2904,-1.529 0.2934,-1.5314 0.3175,-1.5279 0.3468,-1.634 0.5824,-2.4818 0.6947,-2.6318 0.7502,-2.5763 0.8101,-2.5584 0.886,-2.5745 0.9346,-2.5218 0.9901,-2.5037 1.063,-2.5165 1.057,-2.3669 0.6199,-1.3116 0.5874,-1.2368 0.6135,-1.2316 0.6152,-1.227 0.6408,-1.2214 0.6268,-1.1897 0.6496,-1.1848 0.667,-1.2082 0.6918,-1.202 0.6935,-1.1982 0.7178,-1.1917 0.7029,-1.163 0.7246,-1.1573 0.7428,-1.1791 0.7665,-1.172 0.7681,-1.1689 0.7914,-1.1615 0.7758,-1.1354 0.7966,-1.1288 0.8154,-1.1492 0.8381,-1.1412 0.8399,-1.1387 0.8621,-1.1304 0.846,-1.1065 0.8661,-1.0989 0.8855,-1.1182 0.9073,-1.1092 0.9091,-1.1072 0.9306,-1.0979 0.914,-1.0759 0.9332,-1.0674 0.9535,-1.0856 0.9744,-1.07556 0.9764,-1.07404 0.9971,-1.06361 0.98,-1.04329 0.9985,-1.03375 1.0195,-1.05106 1.0397,-1.03992 1.0419,-1.03874 1.0618,-1.02718 1.0443,-1.00832 1.062,-0.99775 1.0853,-1.01276 1.1049,-0.99991 1.1076,-0.99898 1.1265,-0.98622 1.1086,-0.96862 1.1255,-0.95693 1.1485,-0.97246 1.167,-0.95897 1.1699,-0.95821 1.1881,-0.94427 1.1696,-0.92781 1.186,-0.91501 1.2099,-0.9297 1.2276,-0.91498 1.2313,-0.9136 1.2497,-0.89707 1.2307,-0.88161 1.2463,-0.86766 1.2712,-0.88145 1.2883,-0.86545 1.2917,-0.86484 1.3083,-0.84838 1.2888,-0.83387 1.3036,-0.81876 1.3298,-0.83164 1.346,-0.81435 1.3498,-0.81375 1.3657,-0.79598 1.3454,-0.78236 1.3595,-0.76607 1.387,-0.77797 1.4024,-0.75938 1.4066,-0.7587 1.4216,-0.73961 1.4005,-0.72684 1.414,-0.70935 1.4428,-0.72019 1.4574,-0.70026 1.4618,-0.69944 1.4761,-0.67901 1.4542,-0.66708 1.4669,-0.64836 1.497,-0.65805 1.5108,-0.63674 1.5155,-0.63573 1.5289,-0.61392 1.5062,-0.60287 1.5181,-0.58289 1.5496,-0.59129 1.5624,-0.56861 1.5675,-0.56733 1.5801,-0.54414 1.5562,-0.53399 1.5675,-0.51275 1.6003,-0.51972 1.6126,-0.49427 1.6179,-0.49265 1.6295,-0.46804 1.6046,-0.45885 1.6151,-0.43633 1.6491,-0.44172 1.6602,-0.4162 1.6655,-0.41427 1.6762,-0.38825 1.6503,-0.38011 1.6598,-0.35632 1.6951,-0.35997 1.7055,-0.33157 1.7116,-0.32401 1.7212,-0.29653 1.6942,-0.28953 1.7027,-0.26443 1.7389,-0.26617 1.7478,-0.23781 1.7531,-0.23505 1.7617,-0.20619 1.7335,-0.20048 1.7412,-0.17413 1.7782,-0.17383 1.7861,-0.1441 1.7913,-0.14094 1.7987,-0.11071 1.7696,-0.1064 1.7761,-0.07884 1.814,-0.07638 1.8208,-0.04532 1.8257,-0.04174 1.832,-0.01019 1.8019,-0.0074 1.8075,0.02132 1.8458,0.02604 1.8513,0.05838 1.856,0.0627 1.8612,0.09564 1.8302,0.09676 1.8347,0.12664 1.8731,0.13367 1.8775,0.16723 1.8818,0.17155 1.8858,0.20555 1.8541,0.20489 1.8576,0.23586 1.8958,0.24519 1.899,0.28048 1.9005,0.29732 1.903,0.33251 1.8706,0.32992 1.8728,0.36195 1.9103,0.37349 1.912,0.40934 1.9151,0.41407 1.9163,0.4503 1.8837,0.44577 1.8848,0.47873 1.9215,0.49243 1.922,0.52927 1.9246,0.5341 1.9245,0.5713 1.892,0.56478 1.8921,0.59864 1.9276,0.61433 1.927,0.6521 1.9289,0.65695 1.9279,0.69504 1.8955,0.68656 1.8939,0.72288 1.9192,0.76229 1.9168,0.80094 1.9177,0.80552 1.915,0.84448 1.7463,0.7719 1.3242,0.60454 1.2037,0.55061 1.1915,0.55683 1.1913,0.55751 1.1792,0.56368 1.1646,0.55739 1.1536,0.56285 1.1678,0.57095 1.1549,0.57908 1.1544,0.57977 1.1426,0.5858 1.1277,0.57895 1.1169,0.58429 1.1312,0.5927 1.1195,0.59867 1.1189,0.59937 1.1073,0.60529 1.0921,0.59787 1.0815,0.6031 1.0959,0.61211 1.0843,0.61796 1.0837,0.61867 1.0722,0.62447 1.0568,0.61646 1.0319,0.6456 1.0446,0.65775 1.033,0.66313 1.0321,0.66366 1.0206,0.669 1.0048,0.66023 0.9944,0.66492 1.0085,0.67494 0.997,0.6802 0.996,0.68071 0.9847,0.68592 1.0186,0.70989 1.8813,1.33951 1.9214,1.39418 1.8807,1.39668 1.855,1.41113 1.8452,1.43259 1.8059,1.43221 1.7835,1.44182 1.7737,1.46351 1.7346,1.46217 1.7122,1.47143 1.7023,1.49332 1.7329,1.55411 1.4935,1.48849 1.5884,1.5759 1.5443,1.59178 1.5373,1.59146 1.4934,1.6069 1.4599,1.5806 1.4202,1.5935 1.4409,1.62 1.3976,1.6345 1.3882,1.6355 1.3327,1.6608 1.3002,1.6319 1.2612,1.643 1.2795,1.6702 1.2369,1.6825 1.2291,1.6804 1.1868,1.6923 1.1562,1.6612 1.1181,1.6708 1.1341,1.6985 1.1108,1.6956 1.1151,1.6843 1.074,1.6954 1.046,1.6631 1.009,1.672 1.0232,1.7006 0.9827,1.7104 0.9751,1.7073 0.935,1.7164 0.9094,1.6825 0.8734,1.6899 0.8935,1.7136 0.8643,1.7162 0.8571,1.7125 0.8182,1.7204 0.7954,1.6855 0.7605,1.6916 0.7703,1.7203 0.732,1.7268 0.7252,1.7224 0.6874,1.7282 0.6673,1.6925 0.6336,1.6968 0.6487,1.7219 0.6151,1.7254 0.6087,1.7205 0.5723,1.7247 0.5551,1.6886 0.5226,1.6915 0.5283,1.7192 0.4927,1.722 0.4869,1.7167 0.4519,1.7188 0.4374,1.6827 0.4063,1.6839 0.413,1.7098 0.383,1.71 0.3776,1.7042 0.3442,1.7047 0.3325,1.6689 0.3028,1.6686 0.3049,1.6945 0.2725,1.6939 0.2678,1.6878 0.236,1.6866 0.2269,1.6513 0.1986,1.6494 0.1992,1.6742 0.1721,1.6714 0.1696,1.6651 0.1395,1.6622 0.1328,1.6278 0.106,1.6245 0.1054,1.6484 0.0763,1.6445 0.0727,1.6383 0.0442,1.6339 0.0397,1.6004 0.0145,1.5957 0.0127,1.6186 -0.0148,1.613 -0.013,1.607 -0.0346,1.6009 -0.037,1.5689 -0.0607,1.563 -0.0637,1.5851 -0.0895,1.5781 -0.0919,1.5725 -0.1172,1.5651 -0.1179,1.5341 -0.1401,1.5269 -0.144,1.5482 -0.1682,1.5398 -0.1702,1.5343 -0.1939,1.5255 -0.1929,1.4958 -0.2137,1.4871 -0.2184,1.5078 -0.241,1.498 -0.2427,1.4929 -0.2647,1.4825 -0.2624,1.4541 -0.2817,1.4442 -0.2872,1.4643 -0.3084,1.453 -0.3096,1.4484 -0.3302,1.4366 -0.3265,1.4093 -0.3444,1.3982 -0.3509,1.4179 -0.3703,1.4053 -0.3716,1.401 -0.3905,1.388 -0.3857,1.3618 -0.4022,1.3494 -0.4096,1.3688 -0.4277,1.355 -0.4287,1.3512 -0.4461,1.3368 -0.4403,1.3116 -0.4556,1.2981 -0.4639,1.3173 -0.4805,1.3023 -0.4816,1.299 -0.4977,1.2834 -0.4908,1.259 -0.5048,1.2443 -0.5143,1.2638 -0.5295,1.2474 -0.5307,1.2447 -0.5455,1.2279 -0.5377,1.2042 -0.5505,1.1883 -0.5613,1.2082 -0.5754,1.1907 -0.5768,1.1885 -0.5904,1.1705 -0.5816,1.1473 -0.5932,1.1304 -0.6059,1.1509 -0.6186,1.1322 -0.6178,1.1321 -0.6304,1.1131 -0.6613,1.1635 -1.2366,2.0929 -1.3189,2.1469 -1.3339,2.0831 -1.3605,2.0451 -1.4044,2.0257 -1.418,1.9602 -1.446,1.9216 -1.4916,1.9041 -1.4982,1.8405 -1.1495,1.349 -1.171,1.3667 -1.205,1.3395 -1.2,1.3258 -1.2321,1.2988 -1.2037,1.2615 -1.2312,1.2376 -1.2505,1.2513 -1.2794,1.2248 -1.2736,1.2128 -1.3006,1.1866 -1.2723,1.1549 -1.2954,1.1315 -1.3135,1.143 -1.3375,1.117 -1.3314,1.1069 -1.3537,1.0812 -1.3263,1.0547 -1.345,1.0316 -1.3622,1.0414 -1.3816,1.0159 -1.3755,1.0076 -1.3934,0.9823 -1.367,0.96 -1.3819,0.9374 -1.398,0.9457 -1.4132,0.9208 -1.4074,0.9138 -1.4209,0.8891 -1.3958,0.8702 -1.4068,0.848 -1.4224,0.8553 -1.4334,0.8306 -1.4279,0.825 -1.4373,0.8005 -1.4135,0.7846 -1.4208,0.7627 -1.4359,0.769 -1.4428,0.7448 -1.4379,0.74 -1.4433,0.7159 -1.4206,0.7024 -1.4242,0.6806 -1.4394,0.6863 -1.4421,0.6623 -1.4379,0.6584 -1.4393,0.6344 -1.4178,0.6229 -1.4177,0.6013 -1.4331,0.6064 -1.4319,0.5825 -1.4286,0.5794 -1.426,0.5555 -1.4054,0.5456 -1.4017,0.5241 -1.4178,0.5287 -1.4129,0.505 -1.4103,0.5024 -1.4041,0.4786 -1.3842,0.47 -1.3771,0.4484 -1.3943,0.4528 -1.3857,0.429 -1.3843,0.4269 -1.3745,0.4031 -1.355,0.3956 -1.3447,0.374 -1.3638,0.378 -1.3518,0.3542 -1.3517,0.3523 -1.3387,0.3285 -1.3193,0.3218 -1.3061,0.3001 -1.328,0.3036 -1.3131,0.2797 -1.3148,0.2779 -1.2989,0.2539 -1.2796,0.2479 -1.2637,0.2258 -1.2901,0.2288 -1.2726,0.2043 -1.3675,0.2171 -2.4082,0.3357 -2.4765,0.3011 -2.4807,0.2496 -2.4312,0.19 -2.4181,0.1357 -2.4403,0.0753 -2.0135,0.005 c -15.6455,0.213 -28.5013,-12.2975 -28.7143,-27.943 -0.213,-15.6455 12.2976,-28.5013 27.943,-28.7142 l 1.1991,-0.0387 0.9102,-0.0645 1.0642,-0.1 1.1662,-0.1329 1.2375,-0.169 1.3565,-0.2128 1.5243,-0.265 0.6508,-0.1308 0.7456,-0.1436 0.7772,-0.1667 0.8034,-0.1695 0.8297,-0.1907 0.8103,-0.1847 0.8378,-0.2079 0.8397,-0.2062 0.8651,-0.2296 0.887,-0.233 0.9082,-0.2543 0.8888,-0.2476 0.9107,-0.2709 0.9106,-0.269 0.9307,-0.2923 0.9497,-0.2963 0.966,-0.3174 0.9465,-0.3098 0.9632,-0.3329 0.9618,-0.3309 0.9767,-0.3538 0.9938,-0.3582 1.0057,-0.3792 0.9858,-0.3705 0.9975,-0.3935 0.995,-0.3908 1.005,-0.4137 1.0211,-0.4183 1.0286,-0.4391 1.0079,-0.4291 1.015,-0.4517 1.0116,-0.4486 1.017,-0.4711 1.0323,-0.4761 1.0356,-0.4966 1.0141,-0.4851 1.0166,-0.5073 1.0123,-0.5035 1.0132,-0.5255 1.0283,-0.5312 1.0275,-0.5513 1.0049,-0.5378 1.0028,-0.5596 0.998,-0.5549 0.9943,-0.5766 1.0095,-0.5829 1.0047,-0.6025 0.9809,-0.5867 0.9744,-0.608 0.969,-0.6022 0.9609,-0.6234 0.9765,-0.6305 0.9677,-0.6498 0.9427,-0.631 0.9318,-0.6517 0.926,-0.6447 0.9136,-0.6652 0.9299,-0.6735 0.9172,-0.6922 0.8909,-0.6698 0.8758,-0.6899 0.8697,-0.6815 0.8532,-0.7013 0.8703,-0.711 0.854,-0.729 0.8265,-0.7024 0.8074,-0.7218 0.8013,-0.7116 0.7808,-0.7307 0.799,-0.7422 0.7791,-0.7594 0.7508,-0.728 0.7281,-0.7464 0.7222,-0.7345 0.6981,-0.7526 0.7174,-0.7664 0.6943,-0.7831 0.6659,-0.7457 0.6397,-0.7634 0.6347,-0.7496 0.6072,-0.767 0.6287,-0.7846 0.6543,-0.8659 0.6429,-0.9041 0.6681,-0.9866 0.676,-1.0369 0.6653,-1.0678 0.6829,-1.1424 0.6837,-1.1883 0.6686,-1.215 0.7184,-1.3575 0.3005,-0.6011 0.3314,-0.6515 0.3259,-0.6748 0.3251,-0.6748 0.3185,-0.6975 0.3312,-0.7179 0.3244,-0.7378 0.3157,-0.7146 0.3079,-0.7362 0.3095,-0.7341 0.3012,-0.7551 0.312,-0.7748 0.3037,-0.7933 0.2958,-0.7695 0.2863,-0.7895 0.2876,-0.7867 0.2774,-0.8061 0.287,-0.8255 0.277,-0.8425 0.2702,-0.818 0.2589,-0.8363 0.2601,-0.8331 0.2482,-0.8508 0.2566,-0.87 0.2451,-0.8857 0.2393,-0.8603 0.2264,-0.8771 0.2275,-0.8732 0.2141,-0.8894 0.2214,-0.9088 0.2086,-0.9229 0.2037,-0.8966 0.1893,-0.9118 0.1905,-0.9076 0.1755,-0.9221 0.182,-0.9418 0.1677,-0.9545 0.164,-0.9272 0.1481,-0.9408 0.1494,-0.9361 0.133,-0.9493 0.1386,-0.9692 0.1229,-0.9807 0.1206,-0.9522 0.1031,-0.9644 0.1048,-0.9592 0.0868,-0.9709 0.0916,-0.9915 0.0746,-1.0016 0.0737,-0.9719 0.0548,-0.9827 0.0568,-0.9772 0.0374,-0.9875 0.0413,-1.0088 0.023,-1.0175 0.0237,-0.9867 0.003,-0.996 0.006,-0.9904 -0.0149,-0.9992 -0.012,-1.0214 -0.0315,-1.0289 -0.0291,-0.9968 -0.0561,-1.0048 -0.0579,-0.9987 -0.0802,-1.0061 -0.0782,-1.029 -0.0991,-1.0351 -0.0946,-1.0018 -0.1177,-1.0084 -0.1142,-1.0022 -0.1378,-1.0084 -0.1371,-1.0322 -0.1592,-1.0373 -0.1525,-1.003 -0.177,-1.0083 -0.1746,-1.002 -0.2031,-1.0064 -0.2037,-1.0311 -0.2272,-1.0351 -0.2179,-0.9998 -0.2439,-1.004 -0.2391,-0.9979 -0.2655,-1.0017 -0.2677,-1.0275 -0.2923,-1.0304 -0.2806,-0.9946 -0.3078,-0.9977 -0.3026,-0.992 -0.3344,-0.9936 -0.341,-1.0195 -0.3671,-1.0213 -0.3525,-0.9852 -0.3814,-0.9871 -0.3755,-0.9817 -0.4049,-0.9833 -0.4105,-1.0109 -0.4379,-1.0118 -0.4207,-0.9757 -0.4511,-0.9768 -0.4447,-0.9719 -0.4789,-0.9713 -0.4942,-0.9963 -0.5231,-0.9961 -0.5029,-0.9603 -0.5351,-0.9602 -0.5281,-0.9558 -0.561,-0.9553 -0.5706,-0.984 -0.6012,-0.9829 -0.5784,-0.948 -0.6123,-0.9471 -0.6052,-0.9434 -0.65,-0.9361 -0.6701,-0.9599 -0.7022,-0.9575 -0.6766,-0.9235 -0.7125,-0.9211 -0.7049,-0.9179 -0.7415,-0.9151 -0.7556,-0.9436 -0.7895,-0.9402 -0.7615,-0.9079 -0.7994,-0.9044 -0.8037,-0.8932 -0.8605,-0.8748 -0.8766,-0.9024 -0.9121,-0.8971 -0.8815,-0.8661 -0.9213,-0.8605 -0.9134,-0.8584 -0.9539,-0.8525 -0.9722,-0.8795 -1.0098,-0.8732 -0.9772,-0.8442 -1.0068,-0.8494 -0.9973,-0.8504 -1.0402,-0.8436 -1.061,-0.8701 -1.1004,-0.863 -1.0669,-0.8366 -1.1112,-0.829 -1.1042,-0.8287 -1.1493,-0.8205 -1.2442,-0.9079 -1.066,-0.8254 -1.1421,-0.8734 -1.1778,-0.8824 -1.1971,-0.8796 -1.2041,-0.8649 -1.2406,-0.8728 -1.2606,-0.8699 -1.2681,-0.8553 -1.3054,-0.8623 -1.3229,-0.8636 -1.3298,-0.8512 -1.4177,-0.8907 -0.6528,-0.3983 -0.6867,-0.4222 -0.6996,-0.4197 -0.6985,-0.4202 -0.7114,-0.4175 -0.7256,-0.4276 -0.7373,-0.4249 -0.7216,-0.4162 -0.7346,-0.4134 -0.7337,-0.4139 -0.7468,-0.411 -0.7594,-0.4232 -0.7572,-0.4447 -0.7418,-0.4367 -0.7552,-0.434 -0.7546,-0.4347 -0.7681,-0.4319 -0.7825,-0.441 -0.7948,-0.4382 -0.7796,-0.4308 -0.7933,-0.4279 -0.7928,-0.4286 -0.8064,-0.4256 -0.8209,-0.434 -0.8333,-0.4311 -0.8183,-0.4242 -0.8323,-0.421 -0.8318,-0.4218 -0.8447,-0.4205 -0.8589,-0.4287 -0.8715,-0.4255 -0.8569,-0.4192 -0.8709,-0.4158 -0.8707,-0.4166 -0.8848,-0.413 -0.7642,-0.3591 -1.364,-0.6155 -1.1954,-0.5429 -1.1883,-0.5079 -1.1892,-0.5124 -1.1819,-0.478 -1.2071,-0.5174 -1.2007,-0.488 -1.1683,-0.4795 -1.1612,-0.4462 -1.1633,-0.4509 -1.156,-0.4182 -1.1917,-0.4338 -1.1855,-0.4043 -1.1528,-0.3978 -1.1454,-0.366 -1.1479,-0.3708 -1.1404,-0.3397 -1.1771,-0.3533 -1.1705,-0.3252 -1.1378,-0.3206 -1.1301,-0.2904 -1.1331,-0.2952 -1.1253,-0.2655 -1.1627,-0.2771 -1.1558,-0.2502 -1.1234,-0.2477 -1.1153,-0.2189 -1.1169,-0.2358 -1.1089,-0.2081 -1.1471,-0.2175 -1.14,-0.1919 -1.1084,-0.1912 -1.1003,-0.1638 -1.1045,-0.1682 -1.0962,-0.1413 -1.1346,-0.1483 -1.1272,-0.124 -1.0962,-0.1251 -1.0877,-0.0992 -1.0924,-0.1035 -1.0837,-0.0779 -1.122,-0.0827 -1.1142,-0.0595 -1.084,-0.0622 -1.0752,-0.0375 -1.0802,-0.0411 -1.0711,-0.0167 -1.109,-0.0192 -1.1007,0.003 -1.0716,-10e-4 -1.0623,0.0221 -1.0674,0.019 -1.058,0.042 -1.0952,0.0418 -1.0865,0.0628 -1.0583,0.057 -1.0487,0.0794 -1.0538,0.0767 -1.0439,0.0986 -1.0802,0.1003 -1.0711,0.1203 -1.044,0.1133 -1.0338,0.1345 -1.0399,0.127 -1.0298,0.1464 -1.0651,0.15 -1.0557,0.1689 -1.0297,0.1608 -1.0191,0.181 -1.0243,0.179 -1.0134,0.1988 -1.0476,0.2041 -1.0375,0.2221 -1.0126,0.2129 -1.0013,0.2319 -1.0065,0.2303 -0.9954,0.2476 -1.0281,0.2546 -1.0176,0.2714 -0.9938,0.2613 -0.9818,0.2792 -0.9868,0.278 -0.9747,0.2954 -1.0061,0.3039 -0.9948,0.3197 -0.9721,0.3087 -0.9594,0.3254 -0.9642,0.3244 -0.9512,0.3408 -0.9814,0.3505 -0.9695,0.3653 -0.9476,0.3534 -0.9342,0.3689 -0.9387,0.3682 -0.9251,0.3834 -0.9539,0.3942 -0.9413,0.408 -0.9202,0.3951 -0.9061,0.4097 -0.9103,0.4089 -0.8959,0.423 -0.9234,0.4348 -0.9101,0.4475 -0.8898,0.4339 -0.875,0.4471 -0.8787,0.4465 -0.8637,0.4593 -0.8899,0.4722 -0.8759,0.4836 -0.8563,0.4692 -0.8406,0.4812 -0.8442,0.4806 -0.8282,0.4921 -0.8533,0.5059 -0.8386,0.5163 -0.8196,0.5008 -0.8041,0.5102 -0.8079,0.5089 -0.7912,0.5191 -0.8151,0.5339 -0.7998,0.543 -0.7813,0.5266 -0.7642,0.5361 -0.767,0.5353 -0.7497,0.5443 -0.7725,0.5599 -0.7565,0.5678 -0.7385,0.5503 -0.7205,0.5584 -0.7232,0.5574 -0.7054,0.5646 -0.7287,0.5796 -0.7118,0.5864 -0.6944,0.5676 -0.6757,0.5743 -0.6781,0.5732 -0.6591,0.5794 -0.6802,0.5968 -0.6628,0.6023 -0.6457,0.5821 -0.6263,0.5874 -0.6284,0.5858 -0.6087,0.5908 -0.629,0.609 -0.6109,0.6133 -0.5942,0.5912 -0.5742,0.5952 -0.576,0.5933 -0.5557,0.5966 -0.5752,0.6159 -0.5564,0.6189 -0.5403,0.5949 -0.5196,0.5974 -0.5212,0.5949 -0.5003,0.5967 -0.519,0.6172 -0.4998,0.6187 -0.4842,0.5926 -0.4628,0.5935 -0.4644,0.5903 -0.443,0.5906 -0.461,0.6125 -0.4412,0.6125 -0.4264,0.5839 -0.4044,0.5831 -0.4062,0.5792 -0.3842,0.578 -0.4016,0.6012 -0.3814,0.5999 -0.3674,0.5683 -0.3452,0.5659 -0.3471,0.5612 -0.3247,0.5583 -0.2922,0.4834 -0.6786,1.226 -0.574,1.0775 -0.5472,1.0898 -0.511,1.0697 -0.458,1.0132 -0.4312,1.0238 -0.3966,0.9992 -0.3473,0.9348 -0.3537,1.0742 -0.2555,0.8577 -0.2846,0.9638 -0.2653,0.9671 -0.2682,0.9696 -0.2489,0.9727 -0.2566,0.9992 -0.2388,1.0019 -0.2368,0.9796 -0.2177,0.9823 -0.2204,0.9847 -0.2013,0.987 -0.2074,1.013 -0.19,1.015 -0.189,0.9932 -0.1701,0.995 -0.1725,0.9974 -0.1538,0.9989 -0.1593,1.0244 -0.1447,1.0252 -0.1448,1.004 -0.1261,1.005 -0.1283,1.0074 -0.1098,1.0081 -0.1132,1.0331 -0.0962,1.0335 -0.0971,1.0127 -0.0788,1.0129 -0.0808,1.0151 -0.0625,1.0149 -0.0646,1.0394 -0.0479,1.039 -0.0502,1.0185 -0.0329,1.0179 -0.0347,1.02 -0.0166,1.019 -0.0176,1.0429 -10e-4,1.0417 -0.004,1.0216 0.0141,1.0201 0.0123,1.0221 0.0301,1.0201 0.0302,1.0434 0.0465,1.0414 0.0429,1.0217 0.0605,1.0193 0.0589,1.0211 0.0764,1.0183 0.0776,1.0409 0.0936,1.0381 0.0892,1.0188 0.1065,1.0154 0.105,1.017 0.1222,1.0134 0.1243,1.0354 0.1401,1.0317 0.1349,1.0127 0.1519,1.0085 0.1504,1.0099 0.1674,1.0053 0.1704,1.0268 0.1859,1.0224 0.1799,1.0035 0.1966,0.9984 0.1951,0.9997 0.2118,0.9942 0.2157,1.0152 0.2309,1.0098 0.2241,0.9913 0.2404,0.9852 0.2391,0.9865 0.2553,0.9799 0.2602,1.0005 0.275,0.9942 0.2673,0.976 0.2835,0.969 0.282,0.9701 0.2979,0.9627 0.3036,0.9826 0.3182,0.9757 0.3096,0.9577 0.3255,0.9498 0.3238,0.9506 0.3396,0.9424 0.346,0.962 0.3603,0.9541 0.3508,0.9364 0.3663,0.9275 0.3647,0.9283 0.38,0.9192 0.3873,0.9383 0.4012,0.9296 0.3909,0.9122 0.4059,0.9024 0.4043,0.9031 0.4192,0.893 0.4274,0.9118 0.4411,0.9024 0.4296,0.8851 0.4443,0.8745 0.4426,0.8751 0.4573,0.8642 0.4662,0.8826 0.4795,0.8723 0.4671,0.8554 0.4815,0.8438 0.4796,0.8445 0.4939,0.8327 0.5038,0.8507 0.5168,0.8396 0.5032,0.8231 0.5173,0.8107 0.5152,0.8113 0.5293,0.7987 0.5399,0.8163 0.5528,0.8045 0.5379,0.7883 0.5518,0.7752 0.5496,0.7757 0.5632,0.7623 0.5749,0.7796 0.5873,0.767 0.5715,0.7513 0.5848,0.7374 0.5826,0.738 0.5959,0.7237 0.6085,0.7406 0.6208,0.7274 0.6036,0.7122 0.6167,0.6974 0.6143,0.6983 0.6274,0.6832 0.641,0.6996 0.6529,0.6856 0.6346,0.6712 0.6475,0.6558 0.6449,0.6566 0.6576,0.6408 0.6725,0.6568 0.6841,0.6421 0.6645,0.6284 0.6772,0.6123 0.6746,0.6133 0.687,0.5969 0.703,0.6122 0.7144,0.5968 0.6937,0.5842 0.7061,0.5672 0.7034,0.5686 0.7158,0.5514 0.7328,0.566 0.7441,0.55 0.7223,0.5385 0.7345,0.5209 0.7319,0.5224 0.7442,0.5045 0.7622,0.5184 0.7734,0.5017 0.7506,0.4914 0.7628,0.4732 0.7603,0.475 0.7724,0.4563 0.7916,0.4693 0.8027,0.452 0.7791,0.4432 0.7913,0.4241 0.7889,0.4262 0.801,0.4069 0.8212,0.4187 0.8323,0.4008 0.8082,0.3935 0.8203,0.3737 0.8182,0.3761 0.8303,0.3559 0.8515,0.3667 0.8627,0.3479 0.8381,0.3423 0.8503,0.3218 0.8485,0.3243 0.8608,0.3034 0.8827,0.3128 0.894,0.2933 0.8693,0.2894 0.8817,0.2679 0.8802,0.2708 0.8926,0.2489 0.9153,0.2568 0.9267,0.2365 0.902,0.2343 0.9147,0.212 0.9135,0.2149 0.9262,0.192 1.1868,0.2337 c 12.4479,1.9118 20.9891,13.5527 19.0773,26.0006 -1.9118,12.4479 -13.5527,20.9891 -26.0006,19.0772 z" /></g></g></g></g></g></g></svg>