<?xml version="1.0" encoding="UTF-8" standalone="no"?>
<!DOCTYPE svg PUBLIC "-//W3C//DTD SVG 1.1//EN" "http://www.w3.org/Graphics/SVG/1.1/DTD/svg11.dtd">
<!-- Created with Vectornator (http://vectornator.io/) -->
<svg height="100%" stroke-miterlimit="10" style="fill-rule:nonzero;clip-rule:evenodd;stroke-linecap:round;stroke-linejoin:round;" version="1.1" viewBox="0 0 1000 1000" width="100%" xml:space="preserve" xmlns="http://www.w3.org/2000/svg" xmlns:vectornator="http://vectornator.io" xmlns:xlink="http://www.w3.org/1999/xlink">
<defs/>
<clipPath id="ArtboardFrame">
<rect height="1000" width="1000" x="0" y="0"/>
</clipPath>
<g clip-path="url(#ArtboardFrame)" id="Layer-1" vectornator:layerName="Layer 1">
<g opacity="1" vectornator:layerName="Curve 1">
<path d="M288.562 28.4375C284.375 28.5544 279.959 29.2642 275.5 30.625C257.664 36.068 246.056 49.8754 249.594 61.4688C243.128 191.476 235.447 321.46 232.969 451.625C231.944 505.443 231.626 559.313 233.125 613.125C233.773 636.373 234.696 659.604 236.219 682.812C236.569 688.145 236.866 693.487 237.312 698.812C238.053 707.647 238.871 716.473 239.875 725.281C241.418 738.817 243.258 752.329 244.969 765.844C245.419 769.398 245.77 772.963 246.344 776.5C247.472 783.454 248.766 790.397 249.938 797.344C251.491 806.552 252.985 815.792 254.344 825.031C256.98 842.961 258.724 861.01 260.25 879.062C261.04 888.413 261.731 897.785 262.219 907.156C262.341 909.509 262.422 911.865 262.531 914.219C262.557 914.775 262.59 915.32 262.625 915.875C262.651 916.295 262.771 916.699 262.75 917.125C262.608 919.965 262.054 922.799 261.562 925.594C260.861 929.585 260.148 933.589 259.75 937.625C258.686 948.417 259.757 959.557 265.469 969C266.925 971.408 268.62 973.61 270.688 975.531C271.973 976.726 273.544 977.879 275.031 978.812C280.375 982.164 286.608 983.91 292.781 984.938C301.564 986.399 310.555 986.522 319.438 986.375C334.039 986.133 348.602 984.857 363.125 983.406C378.767 981.844 394.368 979.854 409.938 977.688C433.899 974.354 457.873 971.028 481.938 968.5C555.038 960.821 628.809 958.195 702.156 963.719C712.548 969.541 728.231 961.299 737.188 945.312C746.144 929.325 744.954 911.666 734.562 905.844C696.412 901.29 658.072 898.801 619.656 898.219C569.221 897.454 518.777 899.707 468.5 903.625C436.374 906.128 404.302 909.717 372.062 910.469C366.612 910.596 361.144 910.576 355.688 910.406C355.754 910.148 355.809 909.883 355.875 909.625C357.183 904.516 358.417 899.389 359.125 894.156C359.652 890.264 359.757 886.388 359.906 882.469C360.531 866.085 361.022 849.676 361.188 833.281C361.346 817.596 361.257 801.904 361.375 786.219C361.47 773.625 361.514 761.032 361.375 748.438C361.327 744.059 361.358 739.658 361.219 735.281C361.101 731.572 360.77 727.86 360.531 724.156C359.981 715.612 359.345 707.099 358.688 698.562C357.617 684.655 356.571 670.739 355.344 656.844C354.835 651.083 354.216 645.319 353.656 639.562C349.978 601.723 346.254 563.899 342.875 526.031C341.441 509.958 340.168 493.869 338.906 477.781C337.283 457.087 335.692 436.395 334.25 415.688C329.755 351.131 326.282 286.505 323.062 221.875C320.072 161.838 317.189 101.786 314.188 41.75C311.534 33.055 301.126 28.0869 288.562 28.4375ZM342.594 909.156C342.585 909.06 342.779 909.141 342.875 909.156C342.985 909.174 343.111 909.193 343.219 909.219C343.553 909.297 343.861 909.45 344.188 909.562C344.095 909.546 343.999 909.549 343.906 909.531C343.762 909.504 342.601 909.236 342.594 909.156Z" fill="#000000" stroke="none"/>
</g>
</g>
</svg>
