<?xml version="1.0" encoding="UTF-8" standalone="no"?>
<!DOCTYPE svg PUBLIC "-//W3C//DTD SVG 1.1//EN" "http://www.w3.org/Graphics/SVG/1.1/DTD/svg11.dtd">
<!-- Created with Vectornator (http://vectornator.io/) -->
<svg height="100%" stroke-miterlimit="10" style="fill-rule:nonzero;clip-rule:evenodd;stroke-linecap:round;stroke-linejoin:round;" version="1.1" viewBox="0 0 1000 1000" width="100%" xml:space="preserve" xmlns="http://www.w3.org/2000/svg" xmlns:vectornator="http://vectornator.io" xmlns:xlink="http://www.w3.org/1999/xlink">
<defs/>
<clipPath id="ArtboardFrame">
<rect height="1000" width="1000" x="0" y="0"/>
</clipPath>
<g clip-path="url(#ArtboardFrame)" id="Layer-1" vectornator:layerName="Layer 1">
<g opacity="1" vectornator:layerName="Curve 1">
<path d="M736.688 25.1562C728.878 25.0604 721.083 25.0963 713.281 25.25C677.457 25.9556 641.714 29.1226 606.188 33.6875C556.741 40.0409 507.739 49.4297 459.125 60.4062C416.515 70.0272 374.234 81.0578 332.219 93C264.964 112.116 198.422 133.676 132.406 156.688C120.433 160.591 113.878 173.464 117.781 185.438C121.685 197.411 134.558 203.966 146.531 200.062C249.575 168.766 353.793 140.819 459.625 120.625C497.301 113.436 535.215 107.369 573.281 102.656C613.093 97.7271 653.181 94.3742 693.312 94.0312C717.601 93.8237 741.933 94.6579 766.094 97.25C784.33 99.2065 802.516 102.138 820.25 106.875C833.903 110.522 847.47 115.159 859.875 122C863.583 124.045 867.177 126.375 870.531 128.969C870.532 133.189 870.335 137.388 870 141.594C868.886 155.569 866.587 169.466 863.75 183.188C856.939 216.128 846.718 248.283 834.5 279.594C829.458 292.515 824.131 305.285 818.375 317.906C814.632 326.114 810.672 334.22 806.688 342.312C800.653 354.568 794.427 366.716 787.844 378.688C783.203 387.126 778.277 395.396 773.438 403.719C761.906 423.55 749.889 443.089 736.844 461.969C723.85 480.773 709.689 498.8 694.938 516.25C659.709 557.921 619.927 595.59 577.531 629.875C482.105 707.045 372.498 764.9 258.344 809.062C243.708 814.597 236.34 830.958 241.875 845.594C247.41 860.229 263.74 867.597 278.375 862.062C328.078 843.695 376.904 822.941 424.281 799.188C455.006 783.783 485.077 767.126 514.469 749.312C546.913 729.648 578.497 708.504 608.812 685.688C658.609 648.209 705.159 606.397 747.5 560.656C763.983 542.849 779.819 524.466 795.031 505.562C801.269 497.811 807.483 490.051 813.5 482.125C822.651 470.071 831.501 457.743 839.906 445.156C842.075 441.909 844.116 438.59 846.188 435.281C850.013 429.173 853.756 423.027 857.406 416.812C864.835 404.167 872.075 391.345 878.688 378.25C881.437 372.804 884.077 367.295 886.688 361.781C902.55 328.275 915.82 293.604 926.156 258C934.627 228.822 941.14 198.983 944.625 168.781C946.382 153.552 947.527 138.075 946.625 122.75C946.099 113.817 944.867 104.634 941.156 96.4062C939.616 92.9917 937.697 89.8896 935.438 86.9062C933.91 84.8898 932.081 83.0538 930.312 81.25C926.696 77.5622 922.813 74.1461 918.719 71C905.567 60.8945 890.563 53.3135 875.125 47.375C853.147 38.9207 830.015 33.6977 806.75 30.3125C783.564 26.9388 760.116 25.4438 736.688 25.1562Z" fill="#000000" stroke="none"/>
</g>
<g opacity="1" vectornator:layerName="Curve 2">
<path d="M522.531 208C509.968 208.871 500.472 219.749 501.344 232.312C501.388 237.4 501.26 242.509 501.156 247.594C500.997 255.419 500.775 263.238 500.562 271.062C499.976 292.622 499.288 314.164 498.562 335.719C496.595 394.195 494.474 452.678 492.562 511.156C491.893 531.642 491.282 552.136 490.719 572.625C490.459 582.08 490.239 591.512 490.062 600.969C489.975 605.644 489.823 610.324 489.812 615C489.792 623.984 489.743 632.985 489.844 641.969C489.908 647.685 490.231 653.414 490.469 659.125C490.631 663.026 490.665 666.949 490.938 670.844C491.604 680.381 492.972 689.854 493.812 699.375C494.995 712.774 495.668 726.223 496.312 739.656C497.517 764.746 497.964 789.856 498.406 814.969C498.798 837.194 498.803 859.429 498.594 881.656C498.415 900.601 498.12 919.542 497.25 938.469C496.229 954.082 508.043 967.572 523.656 968.594C539.27 969.615 552.76 957.801 553.781 942.188C556.594 909.056 557.916 875.78 559.219 842.562C559.689 830.557 560.266 818.566 560.781 806.562C561.304 794.39 561.753 782.203 562.281 770.031C562.791 758.289 563.379 746.548 564.031 734.812C564.686 723.017 565.421 711.237 566.469 699.469C567.321 689.896 568.662 680.343 569.312 670.75C569.603 666.468 569.653 662.164 569.812 657.875C570.013 652.494 570.287 647.104 570.312 641.719C570.451 613.085 569.275 584.445 568.062 555.844C566.2 511.893 563.609 468.002 560.938 424.094C558.455 383.286 555.619 342.494 552.656 301.719C551.556 286.575 550.425 271.417 549.219 256.281C548.498 247.238 547.878 238.172 546.844 229.156C545.972 216.593 535.095 207.129 522.531 208Z" fill="#000000" stroke="none"/>
</g>
<g opacity="1" vectornator:layerName="Curve 3">
<path d="M248.062 312.688C238.067 312.634 228.058 313.076 218.188 313.875C202.573 314.883 190.742 328.386 191.75 344C192.758 359.614 206.229 371.446 221.844 370.438C244.571 369.341 267.906 370.225 289.844 376.781C303.052 380.729 315.747 386.864 325.938 396.281C347.727 416.416 353.766 447.256 352.812 475.75C352.666 480.134 352.344 484.514 351.875 488.875C351.175 495.388 350.08 501.835 348.75 508.25C348.036 511.696 347.379 515.292 345.969 518.531C344.177 522.647 342.022 526.516 339.688 530.344C338.226 532.74 336.855 535.172 335.281 537.5C332.322 541.878 329.012 545.968 325.531 549.938C322.22 553.714 318.884 557.402 315.219 560.844C306.022 569.479 295.726 576.73 284.625 582.688C276.193 587.213 267.253 590.832 258.094 593.594C244.575 597.67 230.887 599.799 216.75 598.781C194.063 597.149 172.057 587.843 155 572.812C144.478 563.541 135.864 552.15 129.812 539.5C125.489 530.463 122.51 520.799 120.938 510.906C120.053 505.345 119.595 499.693 119.562 494.062C119.356 458.29 135.72 424.629 157 396.719C165.065 387.046 163.767 372.659 154.094 364.594C144.421 356.529 130.034 357.827 121.969 367.5C109.794 380.872 98.8071 395.337 89.6875 410.969C74.1776 437.554 64.225 467.509 62.875 498.375C62.4397 508.328 62.872 518.315 64.2188 528.188C66.6292 545.857 71.9549 563.07 79.9062 579.031C96.5782 612.498 124.745 639.646 158.312 655.938C178.144 665.562 199.898 671.203 221.875 672.719C233.791 673.54 245.785 673.164 257.625 671.594C267.255 670.316 276.799 668.222 286.156 665.625C298.347 662.241 310.324 657.857 321.719 652.344C341.387 642.828 359.514 630.284 375.031 614.875C379.327 610.61 383.501 606.175 387.312 601.469C395.975 590.774 403.495 578.868 409.281 566.375C411.129 562.384 412.643 558.233 414.031 554.062C416.285 547.293 418.042 540.373 419.094 533.312C419.701 529.233 419.91 525.141 420.188 521.031C420.618 514.66 421.014 508.29 421.188 501.906C421.462 491.813 421.395 481.734 420.719 471.656C418.377 436.783 409.117 401.376 387.875 373.062C383.541 367.285 378.756 361.864 373.562 356.844C367.61 351.09 361.132 345.851 354.25 341.25C348.199 337.205 341.883 333.6 335.312 330.469C308.105 317.505 278.048 312.849 248.062 312.688Z" fill="#000000" stroke="none"/>
</g>
</g>
</svg>
