<?xml version="1.0" encoding="UTF-8" standalone="no"?>
<!DOCTYPE svg PUBLIC "-//W3C//DTD SVG 1.1//EN" "http://www.w3.org/Graphics/SVG/1.1/DTD/svg11.dtd">
<!-- Created with Vectornator (http://vectornator.io/) -->
<svg height="100%" stroke-miterlimit="10" style="fill-rule:nonzero;clip-rule:evenodd;stroke-linecap:round;stroke-linejoin:round;" version="1.1" viewBox="0 0 1000 1000" width="100%" xml:space="preserve" xmlns="http://www.w3.org/2000/svg" xmlns:vectornator="http://vectornator.io" xmlns:xlink="http://www.w3.org/1999/xlink">
<defs/>
<clipPath id="ArtboardFrame">
<rect height="1000" width="1000" x="0" y="0"/>
</clipPath>
<g clip-path="url(#ArtboardFrame)" id="Layer-1" vectornator:layerName="Layer 1">
<g opacity="1" vectornator:layerName="Curve 1">
<path d="M719.031 48.0312C712.692 48.4353 706.385 49.4199 700.188 50.8125C698.581 51.1735 697.287 52.3715 695.875 53.2188C695.294 53.5673 694.766 54.0073 694.219 54.4062C692.12 55.9357 690.245 57.7688 688.344 59.5312C685.787 61.9015 683.219 64.261 680.656 66.625C644.783 99.7189 607.257 131.03 569.094 161.438C498.512 217.675 425.393 270.699 350.969 321.719C254.76 387.672 156.133 450.036 56.0938 510C44.832 516.563 41.0303 531.019 47.5938 542.281C54.1572 553.543 68.6132 557.345 79.875 550.781C171.708 498.763 262.4 444.734 351.344 387.906C386.761 365.277 421.867 342.185 456.656 318.594C449.709 326.94 442.799 335.308 435.969 343.75C410.199 375.604 385.328 408.212 361.875 441.812C340.709 472.137 320.714 503.321 302.75 535.656C287.699 562.748 274.055 590.674 262.875 619.594C258.736 630.3 255.017 641.15 251.656 652.125C237.473 698.444 231.319 748.926 244 796.312C246.457 805.494 249.617 814.498 253.469 823.188C255.59 827.973 257.878 832.703 260.531 837.219C274.497 860.985 297.137 879.096 320.469 893.125C334.042 901.286 348.28 908.296 362.844 914.5C395.871 928.569 430.699 938.141 465.844 945.219C481.31 948.334 496.94 950.929 512.594 952.906C523.69 954.308 534.847 955.258 546 956.062C567.653 957.624 589.363 958.01 611.062 957.469C622.903 957.173 634.691 956.444 646.5 955.562C667.907 953.965 689.207 951.035 710.281 946.969C767.032 936.019 822.513 914.363 867.656 877.625C878.091 869.133 887.898 859.873 896.969 849.938C908.089 837.758 918.094 824.529 926.719 810.469C938.053 791.991 947.087 772.083 953.5 751.375C962.048 723.772 965.846 694.895 964.438 666.031C962.541 627.18 952.494 587.164 925.969 557.562C920.366 551.31 914.12 545.613 907.344 540.656C902.229 536.914 896.794 533.582 891.156 530.688C853.591 511.403 808.403 512.36 768.75 524.406C757.514 527.82 746.495 532.159 736.094 537.625C725.703 543.085 715.998 549.745 707.031 557.312C677.898 581.9 656.878 614.99 640.938 649.281C621.828 690.389 609.17 734.42 600.688 778.875C594.352 812.08 590.424 845.837 589.625 879.656C577.522 878.964 565.433 878.065 553.406 876.656C532.122 874.163 510.905 870.811 489.906 866.531C463.962 861.243 438.366 854.158 413.531 844.969C398.265 839.32 383.236 832.961 369 825.031C360.575 820.338 352.349 815.13 344.938 808.938C340.671 805.373 336.552 801.443 333.344 796.875C330.74 793.167 328.889 788.911 327.219 784.719C318.195 762.074 318.07 737.152 321.25 713.312C323.467 696.692 327.686 680.344 332.719 664.375C339.967 641.372 349.499 619.065 360.062 597.406C373.259 570.349 388.249 544.191 404.125 518.625C423.239 487.844 443.895 458.014 465.375 428.844C517.127 358.565 573.774 292.025 632 227.062C653.765 202.78 675.821 178.761 697.781 154.656C706.025 145.608 714.284 136.557 722.344 127.344C728 120.878 733.675 114.362 738.688 107.375C743.213 101.066 747.038 94.0875 747.969 86.25C748.112 85.0392 748.239 83.813 748.25 82.5938C748.263 81.0325 748.223 79.487 748.031 77.9375C747.809 76.1398 747.508 74.3324 747 72.5938C746.405 70.5573 745.685 68.5453 744.719 66.6562C743.6 64.4679 742.313 62.3286 740.781 60.4062C739.29 58.5345 737.564 56.8359 735.719 55.3125C733.993 53.8882 732.095 52.6864 730.125 51.625C728.333 50.6593 726.405 49.9098 724.469 49.2812C722.7 48.7072 720.887 47.913 719.031 48.0312ZM824.219 578.469C840.862 578.528 857.75 582.352 870.781 592.844C873.891 595.348 876.731 598.216 879.25 601.312C887.801 611.825 892.701 624.852 895.562 637.969C897.428 646.519 898.442 655.237 898.938 663.969C899.634 676.24 899.24 688.522 897.438 700.688C894.555 720.148 888.507 739.155 879.781 756.781C873.523 769.423 865.872 781.341 856.969 792.281C850.189 800.613 842.702 808.351 834.656 815.469C788.896 855.949 727.559 873.604 667.781 878.875C661.324 879.444 654.848 879.724 648.375 880.062C649.361 852.506 652.686 825.024 657.75 797.938C664.715 760.684 674.869 723.765 689.781 688.875C696.844 672.351 705.027 656.227 714.938 641.219C722.068 630.42 730.084 620.127 739.406 611.125C745.757 604.992 752.734 599.447 760.375 595C766.949 591.174 774.02 588.18 781.219 585.75C786.086 584.107 791.047 582.736 796.062 581.625C799.951 580.764 803.865 580.086 807.812 579.562C813.156 578.853 818.671 578.449 824.219 578.469Z" fill="#000000" stroke="none"/>
</g>
<g opacity="1" vectornator:layerName="Curve 2">
<path d="M209.156 34.75C192.971 34.2081 179.417 46.8768 178.875 63.0625C178.333 79.2482 191.002 92.8019 207.188 93.3438C228.203 94.4993 249.609 99.5392 267.094 111.719C272.789 115.686 277.948 120.37 282.344 125.75C292.65 138.363 298.936 154.183 300.844 170.312C302.128 181.174 301.511 192.742 296.719 202.75C294.958 206.427 292.543 209.894 290.031 213.094C289.197 214.157 288.277 215.161 287.438 216.219C285.954 218.089 284.52 219.954 282.906 221.719C280.733 224.095 278.383 226.245 276.031 228.438C259.473 243.873 238.281 253.978 216.344 259.094C206.456 261.399 196.381 262.766 186.219 262.844C176.589 262.917 166.756 261.883 157.531 259.031C151.974 257.313 146.525 254.843 141.938 251.219C139.089 248.969 136.698 246.166 134.438 243.344C130.647 238.612 127.364 233.486 124.656 228.062C122.345 223.433 120.459 218.589 119 213.625C117.804 209.558 116.897 205.382 116.281 201.188C112.779 177.324 118.726 150.039 138.469 134.531C149.237 127.185 152.033 112.518 144.688 101.75C137.342 90.9822 122.643 88.2166 111.875 95.5625C104.873 99.8554 98.4219 104.927 92.625 110.75C58.9148 144.612 50.5893 197.633 63.2188 242.5C65.6428 251.112 68.8433 259.498 72.7812 267.531C79.3355 280.902 87.8858 293.65 98.8125 303.844C127.958 331.035 170.338 340.017 209.125 338.438C216.856 338.123 224.572 337.409 232.219 336.219C264.479 331.199 296.083 319.175 321.844 298.844C325.985 295.576 330.039 292.127 333.812 288.438C339.259 283.113 344.178 277.144 348.625 270.969C351.34 267.199 353.978 263.306 356.25 259.25C357.782 256.515 359.101 253.675 360.375 250.812C364.621 241.273 367.443 231.345 369.5 221.125C374.831 194.638 372.219 166.998 363.719 141.469C360.863 132.893 357.483 124.525 353.312 116.5C345.423 101.321 334.925 87.5294 322.312 75.9688C304.727 59.8497 283.408 48.367 260.5 41.8438C243.809 37.0908 226.486 34.958 209.156 34.75Z" fill="#000000" stroke="none"/>
</g>
</g>
</svg>
