<?xml version="1.0" encoding="UTF-8" standalone="no"?>
<!DOCTYPE svg PUBLIC "-//W3C//DTD SVG 1.1//EN" "http://www.w3.org/Graphics/SVG/1.1/DTD/svg11.dtd">
<!-- Created with Vectornator (http://vectornator.io/) -->
<svg height="100%" stroke-miterlimit="10" style="fill-rule:nonzero;clip-rule:evenodd;stroke-linecap:round;stroke-linejoin:round;" version="1.1" viewBox="0 0 1000 1000" width="100%" xml:space="preserve" xmlns="http://www.w3.org/2000/svg" xmlns:vectornator="http://vectornator.io" xmlns:xlink="http://www.w3.org/1999/xlink">
<defs/>
<clipPath id="ArtboardFrame">
<rect height="1000" width="1000" x="0" y="0"/>
</clipPath>
<g clip-path="url(#ArtboardFrame)" id="Layer-1" vectornator:layerName="Layer 1">
<g opacity="1" vectornator:layerName="Curve 1">
<path d="M534 44.7188C532.439 44.5668 530.839 44.5795 529.219 44.75C516.255 46.1137 506.855 57.7242 508.219 70.6875C511.659 120.134 514.067 169.647 515.656 219.188C517.347 271.905 518.05 324.632 517.594 377.375C517.176 425.686 515.821 473.987 512.969 522.219C510.957 556.232 508.253 590.229 504.188 624.062C499.983 659.049 494.715 694.006 486.562 728.312C484.183 738.323 481.656 748.26 478.719 758.125C476.193 766.607 473.396 775.016 470.312 783.312C469.431 785.685 468.511 788.06 467.562 790.406C466.497 793.042 465.387 795.563 463.812 797.938C461.955 800.739 459.701 803.21 457.312 805.562C455.029 807.812 452.663 809.944 450.125 811.906C442.581 817.74 434.174 822.22 425.594 826.312C422.502 827.787 419.454 829.317 416.312 830.688C409.984 833.448 403.499 835.885 396.969 838.125C392.114 839.79 387.198 841.384 382.25 842.75C362.389 848.235 341.858 851.227 321.344 852.812C294.448 854.891 267.192 854.166 240.5 850.219C229.437 848.583 218.443 846.369 207.656 843.406C200.614 841.472 193.53 839.367 186.906 836.25C180.348 833.164 174.279 829.105 168.875 824.281C157.956 814.535 149.893 801.97 143.625 788.844C132.71 765.986 126.925 740.82 123.625 715.812C121.963 703.213 120.959 690.515 120.594 677.812C120.468 673.448 120.423 669.085 120.469 664.719C120.484 663.262 120.52 661.8 120.562 660.344C120.577 659.852 120.575 659.367 120.594 658.875C120.599 658.744 120.62 658.6 120.625 658.469C120.627 658.422 120.628 658.298 120.625 658.344C121.658 642.182 109.412 628.221 93.25 627.188C77.0882 626.154 63.1272 638.432 62.0938 654.594C60.9343 671.975 61.375 689.601 62.625 706.969C63.2703 715.935 64.1773 724.876 65.4062 733.781C72.4214 784.615 89.727 837.783 128.781 873.156C137.642 881.181 147.539 888.1 158.156 893.594C165.68 897.486 173.59 900.537 181.594 903.281C193.24 907.275 205.129 910.535 217.156 913.156C238.259 917.756 259.742 920.523 281.281 922C310.447 924 339.809 923.386 368.875 920.281C378.642 919.238 388.37 917.925 398.062 916.312C414.209 913.627 430.138 910.157 445.719 905.094C449.677 903.807 453.628 902.467 457.5 900.938C466.402 897.42 475.075 893.207 483.406 888.5C500.648 878.759 516.392 866.431 528.469 850.625C533.176 844.464 537.31 837.857 540.688 830.875C543.638 824.776 546.021 818.391 548.344 812.031C552.118 801.696 555.295 791.186 558.156 780.562C564.834 755.767 569.564 730.525 573.25 705.125C576.98 679.421 579.539 653.591 581.375 627.688C584.856 578.569 585.757 529.29 585.281 480.062C584.817 432.012 583.016 383.968 580.188 336C577.198 285.294 573.177 234.653 568.312 184.094C564.511 144.582 560.242 105.119 555.156 65.75C553.963 54.4071 544.926 45.7823 534 44.7188Z" fill="#000000" stroke="none"/>
</g>
<g opacity="1" vectornator:layerName="Curve 2">
<path d="M777.344 384.75C764.309 384.813 753.78 395.434 753.844 408.469C749.42 467.772 744.669 527.073 741.125 586.438C740.119 603.293 739.129 620.134 738.312 637C737.528 653.214 736.895 669.45 737.156 685.688C737.227 690.054 737.59 694.424 737.875 698.781C738.038 701.272 738.113 703.801 738.406 706.281C739.147 712.556 740.458 718.753 741.375 725C742.832 734.919 743.678 744.945 744.438 754.938C745.385 767.41 746.065 779.885 746.719 792.375C747.208 801.734 747.738 811.104 748.125 820.469C749.054 842.929 749.692 865.409 750.469 887.875C750.547 904.07 763.743 917.141 779.938 917.062C796.132 916.984 809.204 903.788 809.125 887.594C809.683 865.121 810.071 842.624 810.781 820.156C811.078 810.789 811.539 801.426 811.938 792.062C812.47 779.567 813.017 767.074 813.844 754.594C814.506 744.595 815.234 734.557 816.594 724.625C817.45 718.37 818.726 712.188 819.406 705.906C819.742 702.805 819.803 699.645 819.969 696.531C820.168 692.793 820.445 689.025 820.469 685.281C820.572 669.042 819.755 652.799 818.812 636.594C817.796 619.112 816.62 601.657 815.406 584.188C814.496 571.078 813.42 557.977 812.406 544.875C808.881 499.306 804.905 453.762 801.062 408.219C800.999 395.184 790.378 384.687 777.344 384.75Z" fill="#000000" stroke="none"/>
</g>
<g opacity="1" vectornator:layerName="Curve 3">
<path d="M658.969 524.469C644.342 524.437 629.712 524.763 615.094 525.25C592.16 526.014 569.238 526.959 546.312 527.938C471.165 531.146 396.072 535.566 320.969 539.656C307.934 539.548 297.296 550.028 297.188 563.062C297.079 576.097 307.559 586.767 320.594 586.875C396.014 592.238 471.396 597.929 546.875 602.406C569.781 603.765 592.707 605.075 615.625 606.219C629.838 606.928 644.052 607.482 658.281 607.688C663.018 607.756 667.763 607.901 672.5 607.844C677.636 607.781 682.805 607.515 687.938 607.312C691.093 607.188 694.26 607.159 697.406 606.875C705.339 606.16 713.237 605.003 721.156 604.188C733.372 602.929 745.643 602.258 757.906 601.656C774.108 600.862 790.318 600.379 806.531 599.906C818.388 599.56 830.265 599.19 842.125 598.938C852.004 598.727 861.87 598.619 871.75 598.469C890.326 598.187 908.893 597.907 927.469 597.625C943.663 597.759 956.897 584.726 957.031 568.531C957.165 552.337 944.163 539.103 927.969 538.969C909.005 538.367 890.026 537.79 871.062 537.188C861.581 536.886 852.104 536.64 842.625 536.281C830.771 535.832 818.912 535.23 807.062 534.688C790.859 533.946 774.686 533.188 758.5 532.125C746.249 531.32 733.975 530.46 721.781 529C713.876 528.053 706.013 526.753 698.094 525.906C694.561 525.529 690.953 525.449 687.406 525.25C682.672 524.985 677.927 524.667 673.188 524.531C668.453 524.395 663.706 524.479 658.969 524.469Z" fill="#000000" stroke="none"/>
</g>
<g opacity="1" vectornator:layerName="Curve 4">
<path d="M259.25 119.094C233.932 118.608 208.59 123.087 185.281 133.219C177.201 136.731 169.454 140.961 162.062 145.75C149.604 153.534 145.809 169.916 153.594 182.375C161.378 194.834 177.791 198.628 190.25 190.844C195.316 187.794 200.589 185.139 206.094 182.969C218.926 177.909 232.699 175.325 246.469 174.938C267.476 174.346 288.532 178.672 307.438 187.906C323.524 195.763 338.771 207.526 347.156 223.688C349.162 227.553 350.799 231.621 351.875 235.844C352.85 239.669 353.264 243.549 353.656 247.469C354.123 252.13 354.372 256.783 354.375 261.469C354.378 267.633 354.057 273.737 353.531 279.875C353.178 283.997 352.96 288.117 352.375 292.219C351.819 296.117 351.016 299.918 350.125 303.75C349.387 306.924 348.614 310.087 347.594 313.188C344.376 322.969 339.452 332.274 332.719 340.094C312.301 363.807 279.285 373.652 248.969 375.312C242.817 375.649 236.652 375.65 230.5 375.312C222.707 374.885 214.919 373.891 207.312 372.125C201.961 370.883 196.638 369.279 191.656 366.938C188.973 365.676 186.409 364.133 183.938 362.5C172.406 354.879 163.272 344.066 156.406 332.156C144.839 312.092 138.988 288.216 138.719 265.125C138.571 252.452 140.052 239.394 144.812 227.562C149.771 216.828 145.078 204.115 134.344 199.156C123.61 194.198 110.896 198.86 105.938 209.594C96.2662 228.59 92.0872 250.097 91.3438 271.281C91.0688 279.115 91.2673 286.94 91.9375 294.75C96.0561 342.742 118.164 391.344 159.844 417.844C167.405 422.651 175.571 426.468 183.969 429.562C196.841 434.306 210.297 437.401 223.875 439.281C232.4 440.462 240.99 441.176 249.594 441.375C300.29 442.547 353.919 426.824 388.969 388.562C397.473 379.278 404.868 368.832 410.625 357.625C414.813 349.473 418.193 340.872 420.812 332.094C422.046 327.959 423.172 323.763 424.031 319.531C424.822 315.638 425.369 311.693 425.844 307.75C426.889 299.074 427.343 290.269 427.125 281.531C427.041 278.175 426.686 274.838 426.344 271.5C425.423 262.511 423.817 253.663 421.875 244.844C419.622 234.612 417.305 224.353 413.5 214.562C405.963 195.169 393.665 177.865 378.281 163.906C357.379 144.941 331.588 132.081 304.312 125.188C289.616 121.473 274.441 119.385 259.25 119.094Z" fill="#000000" stroke="none"/>
</g>
</g>
</svg>
