<?xml version="1.0" encoding="UTF-8" standalone="no"?>
<!DOCTYPE svg PUBLIC "-//W3C//DTD SVG 1.1//EN" "http://www.w3.org/Graphics/SVG/1.1/DTD/svg11.dtd">
<!-- Created with Vectornator (http://vectornator.io/) -->
<svg height="100%" stroke-miterlimit="10" style="fill-rule:nonzero;clip-rule:evenodd;stroke-linecap:round;stroke-linejoin:round;" version="1.1" viewBox="0 0 1000 1000" width="100%" xml:space="preserve" xmlns="http://www.w3.org/2000/svg" xmlns:vectornator="http://vectornator.io" xmlns:xlink="http://www.w3.org/1999/xlink">
<defs/>
<g id="Layer-1" vectornator:layerName="Layer 1">
<g opacity="1" vectornator:layerName="Curve 1">
<path d="M710.531 74.4688C675.405 74.2653 640.424 82.2488 610.125 100.781C603.077 105.092 596.347 109.948 590.062 115.312C582.366 121.882 575.316 129.245 569.125 137.25C563.257 144.836 558.207 153.052 553.406 161.344C545.626 174.784 538.812 188.76 532.844 203.094C508.333 261.963 498.709 325.506 490.094 388.281C486.68 413.156 483.087 438.016 480.281 462.969C477.426 488.36 475.364 513.821 473.594 539.312C452.852 536.013 432.201 532.111 411.781 527.188C383.36 520.334 355.255 512.116 327.75 502.188C314.198 497.296 300.838 491.961 287.875 485.656C257.728 470.993 229.524 451.914 205.531 428.438C194.785 417.922 184.72 406.645 176.812 393.812C160.854 367.914 152.668 337.914 147.781 308.125C139.807 259.519 140.635 210.086 139.969 161C138.021 154.609 128.457 151.848 118.625 154.844C108.793 157.84 102.396 165.453 104.344 171.844C103.526 222.447 101.271 273.32 107.938 323.656C112.263 356.316 120.364 389.2 136.844 418C145.138 432.495 155.782 445.379 167.312 457.406C193.809 485.045 225.572 507.408 259.781 524.469C272.431 530.778 285.477 536.215 298.656 541.312C314.1 547.286 329.745 552.753 345.531 557.75C372.253 566.208 399.403 573.292 426.844 579C441.38 582.024 456.036 584.513 470.719 586.719C465.436 699.165 468.378 811.803 469.344 924.312C471.468 931.251 481.825 934.237 492.5 930.969C503.175 927.7 510.124 919.407 508 912.469C508.687 805.667 507.591 698.714 513.406 592.031C521.125 592.734 528.855 593.307 536.594 593.75C622.535 598.671 712.811 587.281 787.781 542.344C798.123 536.145 808.107 529.34 817.625 521.938C829.891 512.398 841.367 501.855 851.875 490.406C866.609 474.353 879.378 456.559 889.938 437.5C898.791 421.519 906.048 404.685 911.781 387.344C914.957 377.738 917.721 367.988 919.844 358.094C924.748 335.23 926.35 311.743 925.188 288.406C923.927 263.112 919.436 237.869 911.469 213.812C906.525 198.886 900.313 184.284 892.438 170.656C885.841 159.242 877.926 148.476 869.031 138.75C851.493 119.572 829.507 105.243 805.812 94.8125C795.164 90.1249 784.16 86.254 772.938 83.1875C752.749 77.6712 731.607 74.5908 710.531 74.4688ZM688.531 120.594C693.115 120.722 697.692 121.067 702.25 121.562C708.223 122.212 714.181 123.148 720.062 124.375C726.909 125.803 733.665 127.605 740.312 129.781C748.991 132.622 757.469 136.049 765.656 140.094C776.097 145.251 786.075 151.481 795.156 158.781C801.638 163.992 807.604 169.765 813 176.094C820.763 185.2 827.17 195.253 832.812 205.781C835.079 210.01 837.245 214.313 839.219 218.688C849.427 241.311 855.619 265.755 858.469 290.375C859.511 299.381 860.178 308.403 860.344 317.469C860.71 337.49 858.998 357.776 854.062 377.219C848.558 398.901 840.546 420.038 829.281 439.406C823.07 450.086 815.874 460.184 807.719 469.469C802.446 475.472 796.784 481.134 790.781 486.406C751.447 520.956 699.059 537.083 648.031 543.969C639.073 545.178 630.076 546.129 621.062 546.812C609.474 547.691 597.871 548.136 586.25 548.25C570.783 548.402 555.276 547.986 539.844 546.938C532.049 546.408 524.277 545.67 516.5 544.906C518.833 514.028 521.751 483.203 525.781 452.5C528.66 430.567 532.155 408.73 535.562 386.875C543.845 333.752 552.074 280.093 569.875 229.156C576.265 210.871 583.928 193.004 593.344 176.062C597.71 168.207 602.348 160.41 607.625 153.125C610.583 149.041 613.954 145.235 617.688 141.844C636.586 124.677 663.801 119.903 688.531 120.594Z" fill="#000000" stroke="none"/>
</g>
<g opacity="1" vectornator:layerName="Curve 2">
<path d="M527.344 682.031C520.693 682.042 514.024 682.083 507.375 682.281C495.575 682.633 483.783 683.386 472 684.094C454.118 685.167 436.244 686.381 418.375 687.656C384.84 690.05 351.313 692.5 317.781 694.938C291.624 696.839 265.47 698.916 239.281 700.344C233.977 697.997 226.735 702.714 223.125 710.875C219.515 719.036 220.914 727.56 226.219 729.906C245.805 730.962 265.397 731.599 285 732.281C314.921 733.322 344.851 734.219 374.781 734.938C399.373 735.528 423.964 736.146 448.562 736.375C460.766 736.489 473.015 736.654 485.219 736.375C491.96 736.221 498.673 735.874 505.406 735.531C509.799 735.308 514.214 735.184 518.594 734.781C527.522 733.96 536.447 732.77 545.375 731.938C559.917 730.581 574.463 729.498 589.031 728.469C650.952 724.095 712.96 720.911 774.938 717.469C780.694 719.81 788.273 714.543 791.875 705.688C795.477 696.832 793.725 687.747 787.969 685.406C728.237 685.492 668.507 685.795 608.781 684.75C596.157 684.529 583.524 684.305 570.906 683.812C563.868 683.538 556.843 683.146 549.812 682.719C546.604 682.524 543.368 682.261 540.156 682.125C535.892 681.945 531.612 682.024 527.344 682.031Z" fill="#000000" stroke="none"/>
</g>
</g>
</svg>
