<?xml version="1.0" encoding="UTF-8" standalone="no"?>
<!DOCTYPE svg PUBLIC "-//W3C//DTD SVG 1.1//EN" "http://www.w3.org/Graphics/SVG/1.1/DTD/svg11.dtd">
<!-- Created with Vectornator (http://vectornator.io/) -->
<svg height="100%" stroke-miterlimit="10" style="fill-rule:nonzero;clip-rule:evenodd;stroke-linecap:round;stroke-linejoin:round;" version="1.1" viewBox="0 0 1000 1000" width="100%" xml:space="preserve" xmlns="http://www.w3.org/2000/svg" xmlns:vectornator="http://vectornator.io" xmlns:xlink="http://www.w3.org/1999/xlink">
<defs/>
<g id="Layer-1" vectornator:layerName="Layer 1">
<g opacity="1" vectornator:layerName="Curve 1">
<path d="M387.344 41.5938C383.127 41.816 378.985 43.6443 375.938 47.0312C328.248 97.5502 281.18 148.697 234.75 200.375C192.714 247.162 151.108 294.385 111.719 343.438C99.8867 358.172 88.2305 373.093 77.2812 388.5C69.7057 399.159 62.2086 410.04 56.3438 421.75C53.8819 426.665 51.6768 431.778 50.3438 437.125C49.8464 439.12 49.3178 441.28 49.25 443.344C49.1844 445.342 49.0129 447.359 49.25 449.344C49.518 451.587 50.0016 453.837 50.75 455.969C51.4755 458.035 52.4607 460.02 53.625 461.875C54.6947 463.579 56.0093 465.146 57.4062 466.594C58.6473 467.88 60.0529 468.982 61.5 470.031C62.6267 470.848 63.8585 471.515 65.0938 472.156C66.0922 472.675 67.1352 473.102 68.1875 473.5C75.5797 476.296 83.5652 475.636 91.1875 474.375C94.8982 473.761 98.6072 473.02 102.281 472.219C105.452 471.527 108.595 470.794 111.75 470.031C120.546 467.905 129.3 465.469 138.031 463.094C154.886 458.509 171.671 453.69 188.469 448.906C212.198 442.148 236.016 435.758 259.906 429.594C341.815 408.459 424.509 389.782 508.281 377.688C540.639 373.016 573.146 369.401 605.781 367.375C640.007 365.25 674.358 364.902 708.562 367.562C718.726 368.353 728.849 369.549 738.938 371C746.428 372.077 753.908 373.407 761.312 374.969C767.266 376.224 773.162 377.649 779.031 379.25C813.019 388.518 847.421 404.784 868.031 434.531C871.799 439.969 875.026 445.77 877.719 451.812C880.12 457.201 882.117 462.783 883.688 468.469C884.881 472.791 885.806 477.205 886.719 481.594C888.663 490.942 890.042 500.404 890.969 509.906C892.732 527.996 892.637 546.268 890.406 564.312C888.952 576.076 886.606 587.735 883.438 599.156C867.002 658.399 828.719 708.371 784.75 750.156C771.206 763.028 756.937 775.19 742.312 786.812C737.403 790.715 732.379 794.484 727.438 798.344C723.116 801.72 718.848 805.126 714.5 808.469C703.85 816.655 692.972 824.545 681.969 832.25C672.607 838.805 663.149 845.265 653.312 851.094C642.652 857.411 631.589 863.08 620.375 868.344C585.531 884.701 548.446 896.181 510.844 904.188C460.207 914.969 408.514 919.603 356.781 919.625C323.578 919.639 290.26 917.67 257.344 913.25C246.939 911.853 236.565 910.213 226.281 908.094C219.299 906.654 212.259 905.081 205.531 902.688C194.911 898.764 183.111 904.192 179.188 914.812C175.264 925.433 180.692 937.233 191.312 941.156C200.271 944.559 209.631 946.905 218.969 949C230.322 951.547 241.783 953.61 253.281 955.375C289.706 960.965 326.604 963.654 363.438 964.219C388.21 964.599 412.972 963.855 437.688 962.156C477.686 959.408 517.57 953.742 556.562 944.344C588.933 936.542 620.76 926.271 651.312 913C665.272 906.936 678.958 900.174 692.312 892.875C706.755 884.981 720.852 876.378 734.688 867.469C741.979 862.773 749.221 857.997 756.375 853.094C759.436 850.996 762.513 848.953 765.5 846.75C776.734 838.464 787.673 829.765 798.406 820.844C810.213 811.031 821.627 800.68 832.625 789.969C880.023 743.805 920.05 688.83 939.844 625.094C943.284 614.016 946.114 602.714 948.25 591.312C951.312 574.974 952.961 558.37 953.25 541.75C953.728 514.278 950.434 486.809 944.094 460.094C940.689 445.747 935.612 431.794 928.781 418.719C923.819 409.221 917.96 400.201 911.25 391.844C906.233 385.595 900.755 379.695 894.906 374.219C856.978 338.704 805.905 322.2 755.562 314.125C729.257 309.906 702.527 308.152 675.906 307.781C638.523 307.26 601.172 309.555 564 313.406C519.582 318.009 475.413 324.89 431.531 333.125C382.485 342.329 333.777 353.315 285.344 365.312C263.174 370.804 241.046 376.524 218.969 382.375C209.397 384.912 199.854 387.53 190.281 390.062C170.696 395.245 151.109 400.362 131.562 405.688C133.676 402.63 135.741 399.535 137.875 396.5C157.37 368.769 177.995 341.846 198.844 315.125C221.534 286.044 244.57 257.235 267.812 228.594C311.382 174.903 355.597 121.733 400.469 69.125C406.564 62.3511 406.024 51.908 399.25 45.8125C395.863 42.7647 391.561 41.3715 387.344 41.5938Z" fill="#000000" stroke="none"/>
</g>
<g opacity="1" vectornator:layerName="Curve 2">
<path d="M893.344 144.594C867.919 145.718 842.493 146.863 817.062 147.844C797.851 148.584 778.635 149.324 759.406 149.25C753.951 149.229 748.477 149.125 743.031 148.781C740.123 148.598 737.222 148.195 734.312 148.031C731.414 147.868 728.524 147.933 725.625 147.781C720.18 147.496 714.731 147.049 709.281 146.844C698.409 146.435 687.503 146.501 676.625 146.562C650.516 146.71 624.415 147.267 598.312 147.875C557.338 148.829 516.381 150.047 475.406 151C466.294 151.006 458.9 158.387 458.906 167.5C458.912 176.613 466.325 184.006 475.438 184C542.244 185.466 609.049 186.832 675.875 186.156C687.111 186.043 698.372 185.923 709.594 185.312C715.039 185.016 720.467 184.502 725.906 184.125C728.803 183.924 731.73 183.93 734.625 183.719C737.531 183.507 740.408 183.045 743.312 182.812C748.732 182.38 754.159 182.185 759.594 182.094C776.64 181.807 793.709 182.158 810.75 182.594C838.321 183.299 865.879 184.509 893.438 185.594C904.759 185.566 913.934 176.353 913.906 165.031C913.879 153.709 904.666 144.566 893.344 144.594Z" fill="#000000" stroke="none"/>
</g>
</g>
</svg>
