<?xml version="1.0" encoding="UTF-8" standalone="no"?>
<!DOCTYPE svg PUBLIC "-//W3C//DTD SVG 1.1//EN" "http://www.w3.org/Graphics/SVG/1.1/DTD/svg11.dtd">
<!-- Created with Vectornator (http://vectornator.io/) -->
<svg height="100%" stroke-miterlimit="10" style="fill-rule:nonzero;clip-rule:evenodd;stroke-linecap:round;stroke-linejoin:round;" version="1.1" viewBox="0 0 1000 1000" width="100%" xml:space="preserve" xmlns="http://www.w3.org/2000/svg" xmlns:vectornator="http://vectornator.io" xmlns:xlink="http://www.w3.org/1999/xlink">
<defs/>
<g id="Layer-1" vectornator:layerName="Layer 1">
<g opacity="1" vectornator:layerName="Curve 1">
<path d="M535.188 42.5938C525.542 43.136 518.176 51.3854 518.719 61.0312C519.761 100.027 519.982 139.055 519.781 178.062C519.526 227.782 518.498 277.508 516.469 327.188C514.574 373.567 512.079 419.951 508.312 466.219C507.519 475.969 506.491 485.696 505.594 495.438C489.465 498.438 473.366 501.605 457.375 505.281C423.181 513.143 389.354 522.608 356.062 533.688C312.295 548.253 269.354 565.645 228.438 587C196.354 603.745 165.304 622.938 137.469 646.156C103.707 674.318 73.4739 709.759 61 752.688C57.1205 766.039 55.074 779.906 55.0625 793.812C55.0531 805.199 56.4011 816.565 58.9688 827.656C61.0177 836.506 63.8779 845.156 67.4688 853.5C89.0057 903.547 135.241 938.154 185.688 955.656C254.64 979.579 333.855 973.847 397.625 937.875C417.878 926.451 436.429 912.055 452.562 895.312C470.947 876.234 486.132 854.15 497.906 830.438C505.827 814.486 512.2 797.815 517.75 780.906C523.624 763.009 528.558 744.808 532.844 726.469C537.03 708.554 540.979 690.583 544.219 672.469C545.654 664.442 546.928 656.373 548.156 648.312C549.534 639.269 550.865 630.229 552.031 621.156C553.004 613.595 553.793 605.987 554.594 598.406C556.195 583.245 557.456 568.073 558.594 552.875C573.425 550.571 588.286 548.408 603.188 546.625C612.965 545.455 622.762 544.565 632.562 543.625C637.802 543.123 643.01 542.497 648.25 542C659.128 540.969 670.049 540.23 680.969 539.844C697.046 539.275 713.212 539.194 729.25 540.656C759.599 543.422 790.095 551.018 816.125 567.344C833.918 578.504 849.104 593.247 862 609.75C867.628 616.953 872.989 624.347 876.875 632.656C881.285 642.086 884.141 652.172 886.094 662.375C888.604 675.491 889.534 688.908 889.594 702.25C889.672 719.619 888.294 736.974 886.031 754.188C883.513 773.349 879.93 792.357 875.594 811.188C872.173 826.04 868.282 840.779 864 855.406C860.837 866.212 857.467 876.965 853.844 887.625C852.644 891.154 851.42 894.682 850.156 898.188C849.564 899.831 848.785 901.473 848.312 903.156C843.89 914.315 849.341 926.953 860.5 931.375C871.659 935.797 884.297 930.346 888.719 919.188C896.912 898.841 903.865 877.931 910.188 856.938C919.032 827.566 926.433 797.684 931.438 767.406C934.246 750.416 936.295 733.291 937.25 716.094C938.279 697.551 938.001 678.901 935.594 660.469C933.153 641.782 928.477 623.255 920.219 606.25C915.754 597.056 910.103 588.578 904.125 580.312C891.557 562.937 877.029 546.919 860.344 533.406C844.73 520.761 827.298 510.368 808.844 502.438C785.351 492.342 760.386 486.166 735.125 482.531C727.83 481.482 720.526 480.507 713.188 479.812C693.555 477.954 673.869 477.392 654.156 477.656C645.67 477.77 637.162 477.973 628.688 478.438C625.27 478.625 621.847 478.987 618.438 479.281C611.347 479.893 604.261 480.594 597.188 481.375C585.615 482.652 574.082 484.17 562.562 485.844C563.939 453.856 564.661 421.853 564.969 389.844C565.538 330.576 564.367 271.288 562.156 212.062C560.252 161.035 557.645 109.974 553.656 59.0625C553.114 49.4166 544.833 42.0515 535.188 42.5938ZM498.344 563.562C497.136 573.638 496.092 583.723 494.75 593.781C493.89 600.23 492.928 606.681 492.031 613.125C490.767 622.212 489.548 631.306 488.156 640.375C487.038 647.665 485.795 654.911 484.594 662.188C481.957 678.163 479.072 694.121 475.594 709.938C473.054 721.484 470.091 732.946 466.844 744.312C458.117 774.857 446.835 805.11 428.438 831.25C416.01 848.908 400.615 864.461 382.844 876.75C333.096 911.152 267.064 918.591 210 899.688C204.504 897.867 199.083 895.797 193.781 893.469C160.244 878.742 128.993 852.42 120.062 815.5C118.61 809.496 117.769 803.331 117.594 797.156C117.382 789.697 118.226 782.214 120 774.969C125.793 751.311 140.895 730.91 157.75 713.844C170.952 700.476 185.758 688.715 201.188 678.031C222.98 662.942 246.195 650.048 269.969 638.375C300.61 623.33 332.458 610.671 364.719 599.562C404.598 585.83 445.337 574.573 486.594 565.812C490.495 564.984 494.433 564.343 498.344 563.562Z" fill="#000000" stroke="none"/>
</g>
</g>
</svg>
