<?xml version="1.0" encoding="UTF-8" standalone="no"?>
<!DOCTYPE svg PUBLIC "-//W3C//DTD SVG 1.1//EN" "http://www.w3.org/Graphics/SVG/1.1/DTD/svg11.dtd">
<!-- Created with Vectornator (http://vectornator.io/) -->
<svg height="100%" stroke-miterlimit="10" style="fill-rule:nonzero;clip-rule:evenodd;stroke-linecap:round;stroke-linejoin:round;" version="1.1" viewBox="0 0 1000 1000" width="100%" xml:space="preserve" xmlns="http://www.w3.org/2000/svg" xmlns:vectornator="http://vectornator.io" xmlns:xlink="http://www.w3.org/1999/xlink">
<defs/>
<clipPath id="ArtboardFrame">
<rect height="1000" width="1000" x="0" y="0"/>
</clipPath>
<g clip-path="url(#ArtboardFrame)" id="Layer-1" vectornator:layerName="Layer 1">
<g opacity="1" vectornator:layerName="Curve 1">
<path d="M145.156 71.7188C136.102 71.7534 125.658 74.9619 115.969 81.3125C96.5912 94.0136 87.5568 114.53 95.8125 127.125C103.138 138.941 109.367 151.43 114.281 164.438C120.041 179.684 124.138 195.633 126.562 211.75C130.465 237.699 130.995 263.902 130.219 290.094C129.512 313.941 127.978 337.748 126.594 361.562C123.676 411.762 120.308 461.923 116.938 512.094C115.185 538.18 113.515 564.28 111.906 590.375C110.699 609.954 109.633 629.533 108.656 649.125C108.23 657.676 107.744 666.226 107.406 674.781C106.767 690.967 106.432 707.181 106.062 723.375C105.95 728.289 106.02 733.18 105.969 738.094C105.925 742.254 105.786 746.404 105.688 750.562C105.582 754.978 105.546 759.397 105.469 763.812C105.325 772.102 105.245 780.397 105.281 788.688C105.301 793.205 105.245 797.768 105.469 802.281C105.601 804.939 105.942 807.57 106.188 810.219C106.701 815.763 107.327 821.29 108.031 826.812C109.366 837.277 111.269 847.63 113.5 857.938C114.93 864.543 116.543 871.102 118.531 877.562C122.686 891.064 128.047 904.284 135.625 916.25C147.804 935.481 165.285 950.403 186.5 958.812C195.124 962.231 204.159 964.71 213.406 965.625C222.769 966.552 232.222 966.011 241.469 964.312C264.041 960.166 284.724 949.415 303 935.812C309.607 930.895 315.869 925.581 322.062 920.156C324.239 918.25 326.416 916.343 328.594 914.438C329.063 914.027 329.543 913.611 330 913.188C330.102 913.093 330.138 912.927 330.25 912.844C334.172 909.928 338.361 907.293 342.531 904.75C351.888 899.045 361.83 894.032 372.562 891.531C377.156 890.461 381.842 889.944 386.531 889.5C391.71 889.01 396.894 888.699 402.094 888.562C421.585 888.049 441.037 889.682 460.344 892.25C487.547 895.868 514.426 901.619 541.312 907.031C566.284 912.058 591.31 916.738 616.594 919.906C628.9 927.573 648.455 918.432 660.25 899.5C672.045 880.568 671.619 859.011 659.312 851.344C617.772 843.818 577.427 831.309 536.344 821.781C503.142 814.081 469.399 808.356 435.25 807.75C418.984 807.461 402.636 807.866 386.562 810.562C351.707 816.41 319.125 831.382 289.125 849.656C279.94 855.251 271.44 861.789 262.969 868.375C261.398 867.256 259.868 866.061 258.5 864.719C253.169 859.488 249.567 852.688 246.969 845.75C242.698 834.348 241.077 822.258 240.438 810.156C240.219 806.02 240.268 801.856 240.375 797.719C240.565 790.39 240.953 783.091 241.531 775.781C241.791 772.49 242.109 769.191 242.438 765.906C242.602 764.261 242.818 762.618 242.938 760.969C243.172 757.73 243.299 754.492 243.5 751.25C243.8 746.413 244.183 741.583 244.531 736.75C245.496 723.361 246.582 709.986 246.906 696.562C247.281 681.045 246.876 665.484 246.5 649.969C245.963 627.811 245.383 605.653 244.656 583.5C244.159 568.335 243.575 553.164 243.062 538C240.684 467.625 237.784 397.268 233.719 326.969C230.245 266.896 228.182 205.142 205.688 148.5C202.341 140.072 198.561 131.809 194.344 123.781C186.382 108.628 176.86 94.3529 166 81.125C161.872 74.8273 154.211 71.6841 145.156 71.7188ZM253.5 875.469C253.146 875.715 252.827 876.01 252.469 876.25C252.234 876.407 251.988 876.567 251.75 876.719C251.394 876.947 250.633 877.568 250.156 877.562C250.087 877.562 250.202 877.394 250.25 877.344C250.322 877.269 250.386 877.218 250.469 877.156C250.628 877.037 250.803 876.922 250.969 876.812C251.408 876.523 251.779 876.313 252.25 876.062C252.658 875.846 253.082 875.667 253.5 875.469Z" fill="#000000" stroke="none"/>
</g>
<g opacity="1" vectornator:layerName="Curve 2">
<path d="M848.438 46.375C838.609 45.9922 827.122 48.9639 816.312 55.4062C794.693 68.2909 783.969 90.1347 792.344 104.188C804.244 127.65 811.214 153.385 815.344 179.281C817.405 192.206 818.716 205.243 819.375 218.312C819.773 226.202 819.984 234.131 819.844 242.031C819.467 263.205 817.238 284.444 813.312 305.25C811.499 314.864 809.362 324.439 806.656 333.844C804.405 341.667 801.692 349.373 798.688 356.938C794.338 367.889 789.194 378.531 782.688 388.375C780.997 390.933 779.259 393.479 777.344 395.875C774.271 399.721 770.817 403.299 767.25 406.688C766.303 407.587 765.294 408.421 764.344 409.312C763.735 409.884 763.182 410.534 762.562 411.094C762.348 411.288 762.063 411.373 761.844 411.562C761.209 412.111 760.665 412.762 760.031 413.312C759.814 413.501 759.503 413.566 759.281 413.75C758.633 414.288 758.08 414.924 757.438 415.469C757.183 415.685 756.853 415.82 756.594 416.031C755.939 416.566 755.344 417.187 754.688 417.719C754.468 417.896 754.192 417.952 753.969 418.125C752.444 419.308 751.071 420.694 749.656 422C748.021 423.509 746.312 424.953 744.625 426.406C738.671 431.537 732.442 436.365 726.281 441.25C722.39 444.336 718.529 447.456 714.531 450.406C708.68 454.724 702.753 459.022 696.625 462.938C693.755 464.771 690.835 466.492 687.938 468.281C684.353 470.495 680.704 472.642 677 474.656C672.412 477.151 667.783 479.61 663.062 481.844C661.024 482.808 658.954 483.714 656.906 484.656C655.316 485.388 653.732 486.15 652.125 486.844C650.034 487.747 647.913 488.589 645.812 489.469C640.384 491.743 634.868 493.858 629.281 495.719C621.398 498.344 613.397 500.762 605.312 502.688C603.06 503.224 600.821 503.68 598.562 504.188C574.516 509.594 549.444 511.376 524.906 508.844C512.661 507.58 500.523 505.3 488.719 501.781C480.195 499.24 471.871 496.111 463.812 492.344C450.782 486.252 438.455 478.595 427.281 469.531C418.183 457.656 395.989 459.378 377.719 473.375C359.449 487.372 352.027 508.343 361.125 520.219C370.563 531.625 381.279 541.981 392.969 551.062C401.642 557.801 410.878 563.83 420.5 569.125C469.787 596.25 527.328 602.763 582.656 597.438C595.272 596.223 607.848 594.221 620.281 591.781C630.925 589.693 641.481 587.126 651.938 584.25C666.844 580.149 681.481 575.101 695.875 569.469C706.373 565.361 716.753 560.867 726.906 555.969C734.668 552.225 742.261 548.15 749.844 544.062C757.502 539.934 764.982 535.463 772.312 530.781C781.325 525.026 790.176 518.967 798.719 512.531C805.911 507.113 812.848 501.281 819.531 495.25C827.263 488.273 834.646 480.923 841.75 473.312C844.154 470.738 846.627 468.183 848.875 465.469C849.38 464.859 849.791 464.185 850.281 463.562C851.124 462.493 852.018 461.458 852.844 460.375C854.581 458.097 856.245 455.748 857.938 453.438C863.219 446.225 868.193 438.807 872.875 431.188C875.528 426.87 878.176 422.577 880.656 418.156C886.295 408.107 891.336 397.695 895.625 387C901.757 371.708 906.573 355.82 910.188 339.75C911.977 331.794 913.436 323.77 914.719 315.719C918.586 291.456 920.183 266.906 919.625 242.344C919.332 229.432 918.35 216.566 917.062 203.719C914.294 176.1 908.93 148.661 900.438 122.219C893.158 99.5536 883.516 77.5861 870.625 57.5312C866.437 50.5048 858.266 46.7578 848.438 46.375Z" fill="#000000" stroke="none"/>
</g>
<g opacity="1" vectornator:layerName="Curve 3">
<path d="M803.156 439.969C796.012 439.617 788.034 440.876 780.094 443.906C758.92 451.986 746.029 469.675 751.281 483.438C749.527 520.873 751.048 558.476 747.375 595.812C746.173 608.025 744.693 620.2 743.156 632.375C742.308 639.097 741.585 645.846 740.688 652.562C739.468 661.685 738.389 670.862 737.594 680.031C736.97 687.223 736.386 694.401 736.719 701.625C736.879 705.094 737.216 708.608 737.562 712.062C737.736 713.791 737.816 715.567 738.094 717.281C738.291 718.5 738.615 719.415 738.969 720.594C739.465 722.244 739.975 723.911 740.469 725.562C741.294 728.323 742.18 731.056 742.906 733.844C743.341 735.511 743.699 737.229 744.094 738.906C744.765 741.754 745.238 744.627 745.781 747.5C746.974 753.812 748.052 760.12 749.031 766.469C749.871 771.916 750.926 777.349 751.406 782.844C752.284 792.883 752.707 802.969 753.219 813.031C753.503 818.627 753.867 824.217 754.156 829.812C754.598 838.358 755.037 846.888 755.875 855.406C757.046 867.312 758.912 879.181 762.125 890.719C764.261 898.387 767.011 905.929 770.688 913C778.177 927.48 802.285 929.866 824.562 918.344C846.84 906.822 858.833 885.761 851.344 871.281C848.43 861.195 848.061 850.367 848.344 839.938C848.75 824.968 850.652 810.024 853.188 795.281C855.388 782.486 857.93 769.761 859.969 756.938C860.774 751.871 861.574 746.8 862.281 741.719C863.181 735.261 864.004 728.768 865.125 722.344C865.894 717.935 866.733 713.523 867.562 709.125C868.404 704.667 869.35 700.217 870.438 695.812C871.082 693.204 871.85 690.622 872.562 688.031C873.282 685.417 874.024 682.831 874.75 680.219C875.135 678.833 875.479 677.732 875.719 676.312C876.03 674.465 876.155 672.548 876.375 670.688C876.817 666.951 877.239 663.194 877.469 659.438C878.131 648.614 877.119 637.772 875.844 627.031C875.417 623.437 875.029 619.831 874.5 616.25C873.98 612.727 873.38 609.203 872.812 605.688C871.948 600.332 871.069 594.987 870.062 589.656C868.838 583.172 867.45 576.732 866.062 570.281C864.976 565.227 863.883 560.14 862.625 555.125C860.627 547.162 858.373 539.259 855.875 531.438C852.988 522.399 849.888 513.429 846.594 504.531C840.383 487.756 833.691 471.128 827.938 454.188C824.655 445.586 815.063 440.555 803.156 439.969Z" fill="#000000" stroke="none"/>
</g>
</g>
</svg>
