<?xml version="1.0" encoding="UTF-8" standalone="no"?>
<!DOCTYPE svg PUBLIC "-//W3C//DTD SVG 1.1//EN" "http://www.w3.org/Graphics/SVG/1.1/DTD/svg11.dtd">
<!-- Created with Vectornator (http://vectornator.io/) -->
<svg height="100%" stroke-miterlimit="10" style="fill-rule:nonzero;clip-rule:evenodd;stroke-linecap:round;stroke-linejoin:round;" version="1.1" viewBox="0 0 1000 1000" width="100%" xml:space="preserve" xmlns="http://www.w3.org/2000/svg" xmlns:vectornator="http://vectornator.io" xmlns:xlink="http://www.w3.org/1999/xlink">
<defs/>
<clipPath id="ArtboardFrame">
<rect height="1000" width="1000" x="0" y="0"/>
</clipPath>
<g clip-path="url(#ArtboardFrame)" id="Layer-1" vectornator:layerName="Layer 1">
<g opacity="1" vectornator:layerName="Curve 1">
<path d="M561.469 34.375C534.851 34.4519 508.309 39.2363 482.969 47.25C454.39 56.2878 427.126 69.1943 401.938 85.4375C387.184 94.9516 372.887 105.297 359.781 117C356.499 119.931 353.191 122.841 350.062 125.938C345.135 130.816 340.381 135.977 335.844 141.219C330.971 146.848 326.541 152.82 321.969 158.688C297.437 190.17 277.45 225.27 264.344 263.031C249.339 306.259 243.513 352.696 248.75 398.219C249.635 405.909 250.8 413.558 252.281 421.156C254.159 430.788 256.547 440.283 260.031 449.469C269.195 473.629 284.971 494.657 304.938 510.969C334.92 535.463 372.508 548.737 410.156 555.844C425.456 558.732 441.016 560.752 456.562 561.656C460.506 561.886 464.458 562.091 468.406 562.219C469.909 562.267 471.403 562.354 472.906 562.344C475.809 562.324 478.729 562.056 481.625 561.875C488.605 561.438 495.584 560.842 502.531 560.031C506.913 559.52 511.279 558.918 515.656 558.375C528.748 556.75 541.835 555.086 554.844 552.875C565.615 551.044 576.359 549.209 587.062 547C596.961 544.957 606.813 542.608 616.594 540.062C628.753 536.898 640.831 533.48 652.781 529.594C674.276 522.603 695.526 514.097 715.062 502.656C726.253 496.51 730.334 482.472 724.188 471.281C718.041 460.09 704.003 455.978 692.812 462.125C676.658 470.343 659.291 476.049 641.844 480.812C613.424 488.572 584.217 493.065 554.875 495.406C544.86 496.205 534.766 496.603 524.719 496.531C520.275 496.5 515.815 496.506 511.375 496.281C502.664 495.84 493.956 495.009 485.281 494.125C481.879 493.779 478.502 493.195 475.094 492.938C471.724 492.683 468.342 492.568 464.969 492.344C458.008 491.88 451.027 491.278 444.094 490.5C421.707 487.987 399.244 483.383 378.375 474.719C362.345 468.063 346.908 458.889 335.5 445.594C329.516 438.62 324.837 430.599 321.688 421.969C318.813 414.093 317.163 405.705 315.719 397.469C310.558 368.028 311.341 337.675 317.781 308.5C326.611 268.5 345.694 231.026 370.875 198.875C374.748 193.93 379.06 189.273 383.312 184.656C385.82 181.934 388.244 179.163 390.781 176.469C392.792 174.333 394.924 172.287 396.906 170.125C409.413 156.486 422.767 143.638 437 131.812C441.709 127.901 446.604 124.222 451.531 120.594C464.305 111.187 477.829 102.83 491.875 95.4688C514.373 83.6783 538.963 75.0705 564.156 71.5C574.406 70.7624 582.113 61.8751 581.375 51.625C580.637 41.3749 571.719 33.6374 561.469 34.375Z" fill="#000000" stroke="none"/>
</g>
<g opacity="1" vectornator:layerName="Curve 2">
<path d="M788.062 348.469C777.786 348.501 769.468 356.849 769.5 367.125C768.482 385.52 768.973 404.004 769.594 422.406C770.422 446.964 771.746 471.494 773.031 496.031C774.127 516.964 775.468 537.88 776.562 558.812C777.525 577.226 778.307 595.664 779.531 614.062C779.774 617.708 780.128 621.36 780.438 625C780.964 631.197 781.494 637.372 782.094 643.562C782.588 648.666 783.13 653.792 783.5 658.906C784.568 673.681 785.161 688.504 785.5 703.312C785.933 722.222 785.813 741.159 784.438 760.031C783.519 772.634 782.072 785.261 779.406 797.625C777.735 805.376 775.621 813.182 772.094 820.312C770.915 822.696 769.584 825.07 767.844 827.094C766.815 828.29 765.542 829.267 764.344 830.281C762.595 831.761 760.807 833.186 759 834.594C752.928 839.324 746.524 843.645 739.938 847.625C708.256 866.766 672.52 878.419 636.75 887.188C617.631 891.874 598.248 895.471 578.812 898.562C555.514 902.269 532.098 905.046 508.594 907.062C494.54 908.268 480.453 909.13 466.375 910C462.591 910.234 458.817 910.479 455.031 910.688C453.002 910.799 450.93 910.85 448.906 911.031C446.852 911.215 444.829 911.497 442.781 911.75C440.082 912.083 437.357 912.371 434.656 912.688C426.316 913.665 417.978 914.549 409.625 915.406C399.492 916.446 389.264 917.039 379.094 917.531C360.019 918.456 340.94 918.821 321.844 918.875C286.84 918.974 251.838 917.793 216.906 915.562C206.403 914.892 195.929 914.001 185.438 913.188C172.764 911.637 161.238 920.639 159.688 933.312C158.137 945.986 167.139 957.512 179.812 959.062C209.765 963.288 239.867 966.417 270 969.031C299.715 971.61 329.466 973.83 359.25 975.438C370.509 976.045 381.774 976.682 393.031 977.312C397.49 977.562 401.949 977.725 406.406 978C417.614 978.691 428.811 979.461 440.031 979.938C443.927 980.103 447.819 980.343 451.719 980.375C454.923 980.402 458.173 980.151 461.375 980.031C468.28 979.774 475.168 979.463 482.062 979C497.357 977.973 512.626 976.727 527.875 975.156C576.858 970.11 625.701 962.066 672.969 948.031C712.667 936.244 752.004 919.988 785.969 896C792.753 891.209 799.298 886.079 805.562 880.625C809.457 877.234 813.24 873.751 816.594 869.812C822.192 863.239 826.704 855.782 830.344 847.969C838.687 830.061 842.823 810.376 845.375 790.875C847.252 776.535 848.158 762.104 848.656 747.656C849.2 731.882 849.089 716.088 848.688 700.312C848.41 689.412 847.941 678.514 847.375 667.625C847.127 662.858 846.776 658.081 846.562 653.312C846.253 646.38 845.988 639.46 845.594 632.531C845.318 627.692 844.871 622.831 844.469 618C844.2 614.763 843.987 611.54 843.625 608.312C840.31 578.743 835.304 549.311 830.406 519.969C825.35 489.68 819.778 459.466 814.844 429.156C813.061 418.205 811.367 407.245 809.875 396.25C808.557 386.538 807.368 376.782 806.719 367C806.686 356.723 798.339 348.436 788.062 348.469Z" fill="#000000" stroke="none"/>
</g>
</g>
</svg>
