<?xml version="1.0" encoding="UTF-8" standalone="no"?>
<!DOCTYPE svg PUBLIC "-//W3C//DTD SVG 1.1//EN" "http://www.w3.org/Graphics/SVG/1.1/DTD/svg11.dtd">
<!-- Created with Vectornator (http://vectornator.io/) -->
<svg height="100%" stroke-miterlimit="10" style="fill-rule:nonzero;clip-rule:evenodd;stroke-linecap:round;stroke-linejoin:round;" version="1.1" viewBox="0 0 1000 1000" width="100%" xml:space="preserve" xmlns="http://www.w3.org/2000/svg" xmlns:vectornator="http://vectornator.io" xmlns:xlink="http://www.w3.org/1999/xlink">
<defs/>
<g id="Layer-1" vectornator:layerName="Layer 1">
<g opacity="1" vectornator:layerName="Curve 1">
<path d="M338.844 52.2188C336.631 51.9578 334.391 52.0059 332.188 52.2812C330.012 52.553 327.926 53.1554 325.875 53.9062C325.615 54.0015 325.361 54.0741 325.125 54.2188C322.758 55.6671 320.292 56.9977 318 58.5625C317.232 59.0869 316.607 59.7923 315.969 60.4688C314.568 61.9539 313.286 63.5608 312.188 65.2812C309.682 69.2035 308.38 73.7674 307.062 78.1875C305.639 82.9606 304.257 87.7425 302.781 92.5C298.181 107.331 292.973 121.964 287.031 136.312C264.083 191.728 230.333 242.754 185.938 283.312C164.738 302.679 141.146 319.351 116 333.188C106.872 337.908 103.311 349.122 108.031 358.25C112.752 367.378 123.966 370.971 133.094 366.25C161.7 352.379 188.715 335.259 213.281 315.062C258.585 277.817 295.371 231.049 323.062 179.469C331.55 163.659 339.041 147.328 345.844 130.719C354.802 140.492 363.764 150.266 372.594 160.156C408.372 200.232 443.047 241.278 477.75 282.281C485.306 291.209 492.749 300.209 500.281 309.156C511.172 322.093 522.06 335.076 532.625 348.281C553.286 374.107 573.222 400.53 592.406 427.469C598.834 436.495 605.119 445.609 611.344 454.781C557.939 483.903 504.946 513.784 452.406 544.438C437.169 553.327 422.002 562.289 406.844 571.312C389.067 581.894 371.274 592.406 353.75 603.406C345.413 608.64 337.103 613.926 328.844 619.281C324.36 622.189 319.845 625.07 315.438 628.094C306.388 634.303 297.554 640.856 288.75 647.406C270.921 660.671 253.477 674.519 236.969 689.406C228.271 697.249 219.579 705.309 212.062 714.312C201.897 726.49 193.859 740.654 190.562 756.281C189.115 763.141 188.608 770.191 189.094 777.188C189.489 782.88 190.554 788.543 192.219 794C201.161 823.323 226.197 844.193 251.844 858.969C256.231 861.496 260.694 863.855 265.219 866.125C270.958 869.004 276.818 871.688 282.719 874.219C291.143 877.831 299.7 881.141 308.344 884.188C328.157 891.171 348.405 896.856 368.844 901.688C395.51 907.991 422.51 912.798 449.656 916.5C478.584 920.445 507.706 923.106 536.875 924.375C566.253 925.653 595.732 925.537 625.062 923.312C647.157 921.637 669.302 918.793 690.844 913.5C707.939 909.299 725.023 903.567 740.062 894.25C745.806 890.692 751.101 886.501 756.156 882.031C765.516 873.756 773.933 864.417 780.938 854.062C791.288 838.761 798.317 821.411 802.062 803.344C805.174 788.334 806.074 772.921 805.438 757.625C804.675 739.303 801.759 721.136 797.656 703.281C793.004 683.037 786.819 663.169 779.812 643.625C769.73 615.5 757.839 588.042 745.094 561.031C737.545 545.034 729.75 529.116 721.438 513.5C715.563 502.465 709.393 491.573 703.031 480.812C700.451 476.447 697.679 472.2 695.031 467.875C723.168 451.852 751.396 435.984 779.75 420.344C817.411 399.57 855.213 379.02 893.281 359C904.654 353.196 909.178 339.279 903.375 327.906C897.571 316.534 883.623 312.009 872.25 317.812C844.418 331.665 816.771 345.843 789.156 360.125C748.317 381.246 707.716 402.857 667.219 424.625C664.13 420.041 661.14 415.391 658 410.844C637.674 381.401 616.305 352.679 594.344 324.438C590.332 319.279 586.276 314.179 582.25 309.031C571.136 294.82 560.041 280.572 548.594 266.625C541.856 258.416 535.011 250.268 528.156 242.156C523.546 236.702 518.982 231.22 514.281 225.844C507.645 218.254 500.901 210.775 494.156 203.281C458.985 164.201 422.544 126.215 385.281 89.125C377.716 81.5946 370.102 74.1159 362.406 66.7188C360.473 64.8606 358.552 62.988 356.594 61.1562C355.572 60.2006 354.551 59.1169 353.406 58.3125C352.084 57.3834 350.741 56.5051 349.406 55.5938C348.737 55.137 348.001 54.8037 347.25 54.5C344.558 53.4111 341.727 52.5588 338.844 52.2188ZM360.656 91.2812C360.631 91.3512 360.622 91.4311 360.594 91.5C360.56 91.5812 360.503 91.6692 360.469 91.75C360.538 91.5982 360.577 91.4234 360.656 91.2812ZM640.25 499.531C642.991 504.017 645.742 508.499 648.406 513.031C654.816 523.933 660.974 534.97 666.812 546.188C673.046 558.164 678.946 570.327 684.719 582.531C695.607 605.55 705.859 628.918 714.844 652.75C722.379 672.738 729.012 693.118 733.844 713.938C737.156 728.207 739.629 742.756 740.312 757.406C741.179 775.978 739.16 795.359 729.812 811.781C726.464 817.663 722.253 823.034 717.469 827.812C714.021 831.256 710.295 834.702 706.188 837.344C701.818 840.154 696.906 842.167 692.031 843.906C684.973 846.424 677.672 848.296 670.344 849.844C652.23 853.669 633.716 855.544 615.25 856.594C594.075 857.797 572.846 857.805 551.656 857C531.341 856.229 511.057 854.726 490.844 852.562C464.621 849.756 438.51 845.837 412.656 840.625C395.082 837.082 377.613 832.997 360.375 828.062C343.779 823.312 327.359 817.863 311.469 811.094C299.941 806.183 288.551 800.6 278.156 793.562C272.187 789.521 266.211 784.968 261.812 779.188C260.336 777.247 258.673 774.887 258.5 772.375C258.466 771.879 258.546 771.395 258.625 770.906C258.644 770.914 258.653 770.864 258.656 770.844C258.663 770.805 258.679 770.755 258.688 770.719C258.717 770.586 258.747 770.412 258.781 770.281C258.9 769.826 259.053 769.377 259.219 768.938C259.689 767.694 260.298 766.49 260.969 765.344C262.911 762.026 265.386 759.025 268 756.219C270.893 753.114 273.972 750.187 277.062 747.281C282.73 741.953 288.592 736.835 294.531 731.812C308.819 719.73 323.633 708.246 338.656 697.094C344.294 692.909 350.012 688.862 355.656 684.688C361.566 680.317 367.407 675.815 373.312 671.438C383.239 664.078 393.271 656.857 403.312 649.656C415.522 640.901 427.759 632.193 440.188 623.75C499.675 583.337 561.188 545.95 623.125 509.438C628.806 506.088 634.556 502.858 640.25 499.531Z" fill="#000000" stroke="none"/>
</g>
</g>
</svg>
