<?xml version="1.0" encoding="UTF-8" standalone="no"?>
<!DOCTYPE svg PUBLIC "-//W3C//DTD SVG 1.1//EN" "http://www.w3.org/Graphics/SVG/1.1/DTD/svg11.dtd">
<!-- Created with Vectornator (http://vectornator.io/) -->
<svg height="100%" stroke-miterlimit="10" style="fill-rule:nonzero;clip-rule:evenodd;stroke-linecap:round;stroke-linejoin:round;" version="1.1" viewBox="0 0 1000 1000" width="100%" xml:space="preserve" xmlns="http://www.w3.org/2000/svg" xmlns:vectornator="http://vectornator.io" xmlns:xlink="http://www.w3.org/1999/xlink">
<defs/>
<g id="Layer-1" vectornator:layerName="Layer 1">
<g opacity="1" vectornator:layerName="Curve 1">
<path d="M209.188 52.5C196.595 52.6961 186.554 63.0639 186.75 75.6562C183.817 181.337 180.543 287.016 178.469 392.719C177.839 424.807 177.266 456.908 176.844 489C176.582 508.911 176.493 528.838 176.719 548.75C176.794 555.383 176.772 562.026 176.969 568.656C177.182 575.842 177.62 583.007 177.969 590.188C178.183 594.605 178.256 599.062 178.625 603.469C179.551 614.532 180.914 625.541 181.938 636.594C183.52 653.685 184.523 670.832 185.469 687.969C186.719 710.622 187.685 733.301 188.625 755.969C189.313 772.551 190.059 789.133 190.656 805.719C191.154 819.537 191.53 833.367 191.969 847.188C192.794 873.171 193.612 899.142 194.438 925.125C194.681 940.77 207.574 953.275 223.219 953.031C238.864 952.788 251.337 939.895 251.094 924.25C251.11 897.7 251.14 871.143 251.156 844.594C251.165 831.319 251.123 818.056 251.188 804.781C251.268 788.185 251.454 771.595 251.625 755C251.859 732.314 252.112 709.619 252.656 686.938C253.068 669.78 253.545 652.601 254.594 635.469C255.272 624.39 256.294 613.337 256.875 602.25C257.135 597.282 257.101 592.286 257.188 587.312C257.303 580.677 257.447 574.011 257.438 567.375C257.428 560.742 257.225 554.101 257.094 547.469C256.689 527.006 255.937 506.572 255.031 486.125C253.61 454.062 252.004 421.991 250.375 389.938C245.038 284.904 238.533 179.955 232.344 74.9688C232.148 62.3764 221.78 52.3039 209.188 52.5Z" fill="#000000" stroke="none"/>
</g>
<g opacity="1" vectornator:layerName="Curve 2">
<path d="M636.375 105.375C623.009 104.966 609.685 105.64 596.375 106.844C564.223 109.751 532.276 115.236 501.062 123.5C471.114 131.429 441.848 141.908 413.656 154.75C383.251 168.601 354.165 185.219 326.625 204.125C312.712 213.676 299.268 223.905 286.188 234.562C278.659 240.696 271.263 247.015 263.844 253.281C251.418 263.777 239.13 274.492 228.062 286.438C218.874 296.355 210.63 307.108 203.594 318.656C196.766 329.238 199.824 343.328 210.406 350.156C220.988 356.984 235.109 353.957 241.938 343.375C246.804 336.245 252.277 329.577 258.281 323.375C268.511 312.809 280.033 303.615 291.688 294.688C298.92 289.148 306.222 283.668 313.5 278.188C352.131 249.096 394.621 225.004 439.75 207.562C486.387 189.538 535.733 178.677 585.594 175.094C597.952 174.206 610.39 173.554 622.781 173.969C643.102 174.649 663.595 177.931 682.719 184.969C701.065 191.72 718.439 202.281 730.5 217.938C735.426 224.332 739.317 231.502 742.5 238.906C745.075 244.895 747.149 251.111 748.594 257.469C754.29 282.531 749.85 308.198 740.938 331.938C736.94 342.586 732.216 352.897 726.812 362.906C724.257 367.64 721.517 372.277 718.781 376.906C713.98 385.03 708.973 393.014 703.656 400.812C698.147 408.892 692.333 416.733 686.562 424.625C681.863 431.053 676.904 437.273 671.906 443.469C667.239 449.255 662.425 454.954 657.438 460.469C642.537 476.945 626.259 492.154 609.344 506.531C587.764 524.873 564.822 541.603 541.062 557C523.207 568.571 504.777 579.249 486 589.25C462.71 601.654 438.72 612.738 414.094 622.219C369.979 639.203 323.692 651.761 276.469 655.688C268.311 656.366 260.152 656.676 251.969 656.812C236.322 656.922 223.703 669.697 223.812 685.344C223.922 700.99 236.697 713.61 252.344 713.5C261.754 713.525 271.169 713.313 280.562 712.719C335.494 709.242 389.526 695.546 440.969 676.344C511.322 650.083 577.771 613.756 638.469 569.594C662.62 552.022 685.774 533.098 707.781 512.906C720.055 501.645 732.064 490.137 743.25 477.781C747.249 473.363 751.171 468.926 754.906 464.281C763.043 454.162 770.778 443.737 778.125 433.031C781.607 427.957 785.045 422.818 788.25 417.562C793.074 409.652 797.516 401.491 801.688 393.219C807.012 382.661 811.825 371.832 815.875 360.719C822.963 341.273 827.663 320.772 829.25 300.125C829.889 291.803 829.969 283.458 829.5 275.125C828.927 264.959 827.508 254.836 825.25 244.906C822.279 231.843 817.838 219.132 812.094 207.031C805.841 193.859 798.142 181.397 788.719 170.25C782.187 162.523 774.903 155.447 767.031 149.094C730.423 119.547 682.77 106.794 636.375 105.375Z" fill="#000000" stroke="none"/>
</g>
</g>
</svg>
