<?xml version="1.0" encoding="UTF-8" standalone="no"?>
<!DOCTYPE svg PUBLIC "-//W3C//DTD SVG 1.1//EN" "http://www.w3.org/Graphics/SVG/1.1/DTD/svg11.dtd">
<!-- Created with Vectornator (http://vectornator.io/) -->
<svg height="100%" stroke-miterlimit="10" style="fill-rule:nonzero;clip-rule:evenodd;stroke-linecap:round;stroke-linejoin:round;" version="1.1" viewBox="0 0 1000 1000" width="100%" xml:space="preserve" xmlns="http://www.w3.org/2000/svg" xmlns:vectornator="http://vectornator.io" xmlns:xlink="http://www.w3.org/1999/xlink">
<defs/>
<clipPath id="ArtboardFrame">
<rect height="1000" width="1000" x="0" y="0"/>
</clipPath>
<g clip-path="url(#ArtboardFrame)" id="Layer-1" vectornator:layerName="Layer 1">
<g opacity="1" vectornator:layerName="Curve 1">
<path d="M501.594 41.8125C500.082 41.7072 498.56 41.7611 497 41.9688C484.516 43.6299 475.745 55.0787 477.406 67.5625C481.992 107.472 486.226 147.433 490.219 187.406C494.323 228.496 498.158 269.624 501.531 310.781C504.416 345.983 507.004 381.203 508.969 416.469C510.421 442.531 511.576 468.614 511.812 494.719C511.924 507.026 511.696 519.352 511.438 531.656C511.165 544.634 510.813 557.595 510.219 570.562C509.832 578.991 509.275 587.455 508.625 595.906C486.177 596.193 463.739 597.163 441.344 598.688C395.505 601.807 349.69 606.894 304.312 614.094C283.552 617.388 262.863 620.9 242.312 625.344C227.392 628.57 212.54 632.143 197.906 636.5C186.807 639.804 175.783 643.398 164.906 647.375C156.676 650.384 148.527 653.608 140.5 657.125C134.3 659.841 128.18 662.725 122.156 665.812C116.791 668.562 111.544 671.534 106.406 674.688C79.5614 691.168 54.6454 713.867 45.0312 744.812C43.6714 749.19 42.6472 753.654 41.9688 758.188C40.7643 766.236 40.7128 774.364 41.6875 782.438C42.9667 793.033 46.2212 803.42 50.75 813.062C53.2999 818.492 56.23 823.776 59.2812 828.938C67.4245 842.713 77.0781 855.604 88.125 867.188C98.0111 877.554 108.989 886.805 120.844 894.844C129.998 901.051 139.673 906.524 149.688 911.219C211.585 940.235 284.038 938.87 348.469 919.281C358.772 916.149 368.904 912.469 378.875 908.406C394.072 902.214 408.816 894.817 422.906 886.406C441.938 875.046 459.86 861.806 475.969 846.562C486.545 836.554 496.344 825.698 505.062 814.031C514.502 801.4 522.674 787.798 529.938 773.812C540.792 752.914 549.264 730.859 555.594 708.188C559.829 693.02 563.038 677.561 565.469 662C572.086 662.728 578.698 663.759 585.281 664.719C599.089 666.731 612.867 668.902 626.656 671.031C670.926 677.866 715.396 684.166 760.25 685.031C776.813 685.351 793.425 684.839 809.906 683.125C818.399 682.242 826.907 681.157 835.281 679.469C849.107 676.681 862.589 672.046 874.969 665.25C883.484 660.575 891.428 654.873 898.562 648.281C903.813 643.43 908.616 638.093 912.906 632.375C938.541 598.208 944.141 553.212 940 511.75C939.342 505.163 938.445 498.585 937.312 492.062C935.768 483.17 933.801 474.367 931.438 465.656C928.415 454.515 924.705 443.587 920.406 432.875C914.666 418.319 898.212 411.166 883.656 416.906C869.1 422.647 861.947 439.1 867.688 453.656C871.208 462.743 874.201 472.021 876.594 481.469C878.474 488.895 879.987 496.393 881.125 503.969C882.017 509.911 882.686 515.909 883.062 521.906C883.356 526.587 883.472 531.279 883.406 535.969C883.044 561.673 876.899 590.812 855.5 607.438C851.736 610.362 847.637 612.843 843.312 614.844C832.421 619.883 820.552 621.726 808.719 623C792.263 624.772 775.687 625.047 759.156 624.469C738.516 623.747 717.916 621.487 697.469 618.656C673.669 615.362 650.009 611.26 626.344 607.125C615.087 605.158 603.837 603.21 592.562 601.344C585.787 600.222 579 599.027 572.188 598.156C571.928 598.123 571.666 598.095 571.406 598.062C572.492 573.041 572.502 547.957 572.125 522.938C571.994 514.245 571.83 505.563 571.5 496.875C570.429 468.671 568.293 440.487 565.812 412.375C562.99 380.385 559.67 348.441 556.062 316.531C550.721 269.286 544.782 222.098 538.5 174.969C533.456 137.126 528.187 99.3284 522.594 61.5625C521.14 50.6392 512.174 42.5496 501.594 41.8125ZM499.375 661.719C494.442 684.472 487.527 706.752 477.344 727.906C472.981 736.97 468.108 745.788 462.719 754.281C456.387 764.261 449.368 773.716 441.312 782.375C424.656 800.279 404.605 814.832 383.125 826.406C366.23 835.51 348.342 842.636 329.906 847.938C307.342 854.426 283.773 857.92 260.281 857.781C221.761 857.554 182.456 847.151 153.5 820.656C146.842 814.564 140.843 807.809 135.594 800.469C132.512 796.16 129.68 791.671 127.125 787.031C125.758 784.55 124.402 782.028 123.25 779.438C121.996 776.618 120.961 773.518 121.312 770.469C121.685 767.23 123.821 764.225 125.812 761.75C130.635 755.755 136.867 750.924 143.219 746.656C145.563 745.081 147.948 743.6 150.375 742.156C153.369 740.375 156.404 738.657 159.469 737C163.22 734.972 167.025 733.052 170.875 731.219C185.171 724.41 200.005 718.749 215 713.688C220.752 711.746 226.563 709.943 232.344 708.094C246.879 703.444 261.534 699.327 276.281 695.406C289.288 691.949 302.404 688.704 315.562 685.875C333.853 681.942 352.251 678.549 370.719 675.562C409.223 669.336 448.076 664.923 487 662.406C491.123 662.14 495.248 661.932 499.375 661.719Z" fill="#000000" stroke="none"/>
</g>
</g>
</svg>
