<?xml version="1.0" encoding="UTF-8" standalone="no"?>
<!DOCTYPE svg PUBLIC "-//W3C//DTD SVG 1.1//EN" "http://www.w3.org/Graphics/SVG/1.1/DTD/svg11.dtd">
<!-- Created with Vectornator (http://vectornator.io/) -->
<svg height="100%" stroke-miterlimit="10" style="fill-rule:nonzero;clip-rule:evenodd;stroke-linecap:round;stroke-linejoin:round;" version="1.1" viewBox="0 0 1000 1000" width="100%" xml:space="preserve" xmlns="http://www.w3.org/2000/svg" xmlns:vectornator="http://vectornator.io" xmlns:xlink="http://www.w3.org/1999/xlink">
<defs/>
<clipPath id="ArtboardFrame">
<rect height="1000" width="1000" x="0" y="0"/>
</clipPath>
<g clip-path="url(#ArtboardFrame)" id="Layer-1" vectornator:layerName="Layer 1">
<g opacity="1" vectornator:layerName="Curve 1">
<path d="M489.75 135.938C477.98 136.306 464.281 145.583 455.188 160.562C443.063 180.536 443.736 203.119 456.719 211C485.435 215.778 513.292 225.583 539.219 238.75C567.638 253.183 594.065 271.301 617.625 292.781C632.131 306.007 645.473 320.583 656.938 336.531C673.884 360.106 687.39 386.357 694.25 414.688C699.176 435.031 700.476 456.145 699.219 477C697.375 507.581 690.104 537.763 678.5 566.094C675.862 572.533 672.89 578.84 669.844 585.094C668.047 588.782 666.048 592.399 664.031 595.969C660.247 602.667 656.309 609.261 652.125 615.719C649.746 619.39 647.173 622.913 644.719 626.531C642.707 629.498 640.776 632.522 638.781 635.5C636.286 639.225 633.626 642.835 631 646.469C627.131 651.822 622.945 656.92 618.844 662.094C614.496 667.578 610.02 672.964 605.469 678.281C601.387 683.05 597.361 687.841 593.188 692.531C578.334 709.223 562.477 724.977 545.719 739.75C537.767 746.76 529.654 753.62 521.281 760.125C511.365 767.829 501.181 775.108 490.812 782.188C479.39 789.987 467.611 797.33 455.562 804.125C437.837 814.122 419.615 823.061 400.906 831.062C361.324 847.992 319.022 859.864 276.281 865.219C268.462 866.198 260.645 867.007 252.781 867.531C226.048 869.313 199.195 868.523 172.438 867.812C145.889 867.108 119.295 866.376 92.75 867.594C80.6657 862.181 64.1081 872.877 55.7812 891.469C47.4544 910.06 50.5094 929.525 62.5938 934.938C81.6957 935.992 100.726 938.272 119.688 940.75C138.094 943.155 156.48 945.673 174.938 947.656C192.99 949.596 211.154 950.841 229.312 951C240.625 951.099 251.929 950.725 263.219 950.031C305.335 947.442 347.396 939.622 387.906 927.906C463.41 906.07 534.965 870.918 599.125 825.594C628.17 805.076 655.887 782.476 681.344 757.625C690.216 748.964 698.847 740.113 707.188 730.938C710.918 726.833 714.65 722.715 718.219 718.469C732.824 701.092 746.403 682.924 758.469 663.688C760.936 659.755 763.282 655.757 765.625 651.75C767.456 648.618 769.339 645.491 771.031 642.281C773.559 637.488 775.75 632.489 778 627.562C782.248 618.26 786.16 608.789 789.688 599.188C791.536 594.155 793.25 589.066 795 584C798.269 574.54 801.057 564.958 803.719 555.312C808.954 536.345 812.794 517.061 815.188 497.531C816.829 484.136 817.858 470.687 818 457.188C818.174 440.635 817.009 424.123 814.594 407.75C813.006 396.99 810.928 386.279 808.062 375.781C795.961 331.454 770.706 292.288 739.25 259.219C694.033 211.683 636.149 175.694 573.969 154.969C550.154 147.031 525.581 141.432 500.625 138.656C497.379 136.686 493.673 135.815 489.75 135.938Z" fill="#000000" stroke="none"/>
</g>
<g opacity="1" vectornator:layerName="Curve 2">
<path d="M440.75 30.9062C433.594 30.4722 426.319 31.0028 419.281 32.3438C416.917 32.7943 414.575 33.2849 412.25 33.9062C409.258 34.7058 406.261 35.5543 403.344 36.5938C399.952 37.8022 396.608 39.1047 393.344 40.625C389.504 42.4134 385.693 44.3173 382.062 46.5C377.818 49.0518 373.664 51.779 369.75 54.8125C365.588 58.0379 361.475 61.4075 357.875 65.25C353.18 70.2614 348.678 75.5223 344.938 81.2812C341.728 86.2224 339.266 91.655 337.156 97.1562C335.764 100.786 335.084 104.656 334.5 108.5C334.1 111.137 334.128 113.834 334.219 116.5C334.285 118.457 334.616 120.418 334.969 122.344C335.215 123.69 335.627 125.005 336.031 126.312C337.436 130.862 339.883 135.016 342.844 138.719C345.152 141.606 347.789 144.244 350.281 146.969C353.595 150.591 356.877 154.391 359.531 158.531C363.809 165.204 367.555 172.253 370.625 179.562C375.546 191.278 378.811 203.698 380.875 216.219C381.994 223.004 382.751 229.851 383.469 236.688C384.497 246.491 385.265 256.291 385.938 266.125C388.422 302.467 387.213 339.169 380.344 375C373.612 410.114 362.131 444.057 348.438 477.031C347.786 490.259 363.743 501.811 384.094 502.812C404.445 503.814 421.474 493.884 422.125 480.656C447.519 437.855 469.818 392.985 484.844 345.438C498.348 302.704 505.588 258.125 508.625 213.469C514.573 215.742 520.536 218.019 526.5 220.25C533.901 223.019 541.348 225.566 548.812 228.156C562.191 232.799 575.66 237.165 589.312 240.938C595.942 242.769 602.641 244.395 609.312 246.062C631.131 251.516 653.078 256.334 675.062 261.062C691.267 264.548 707.514 267.95 723.656 271.719C745.702 276.865 767.639 282.423 789.688 287.562C825.89 296.001 862.35 303.286 899.219 308.125C912.138 316.417 932.962 307.032 945.719 287.156C958.475 267.28 958.357 244.448 945.438 236.156C886.217 223.689 828.961 203.641 771.625 184.594C751.422 177.882 731.114 171.478 710.938 164.688C697.573 160.19 684.199 155.667 671.125 150.375C660.065 145.899 649.241 140.85 638.594 135.469C630.526 131.391 622.654 126.945 614.875 122.344C605.332 116.699 595.832 110.903 586.75 104.531C579.634 99.5391 572.645 94.3756 565.625 89.25C563.11 87.4135 560.662 85.4334 558.062 83.7188C555.359 81.9354 552.515 80.312 549.75 78.625C544.749 75.5745 539.728 72.5463 534.688 69.5625C531.845 67.8801 529.023 66.171 526.156 64.5312C522.687 62.5469 519.166 60.6933 515.656 58.7812C512.87 57.2633 510.068 55.7115 507.219 54.3125C507.183 54.291 507.13 54.2698 507.094 54.25C507.001 54.1993 506.875 54.128 506.812 54.0938C506.633 54.0006 505.987 53.6681 505.844 53.5938C504.848 53.0777 503.843 52.5718 502.844 52.0625C499.782 50.5018 496.719 48.9645 493.625 47.4688C485.164 43.3785 476.463 39.5634 467.562 36.5312C458.875 33.5716 449.936 31.4633 440.75 30.9062ZM473.062 51.375C473.148 51.3476 473.421 51.7692 473.562 51.9688C473.912 52.4614 474.196 53.0058 474.5 53.5312C474.387 53.3753 474.269 53.219 474.156 53.0625C473.82 52.5941 473.483 52.1206 473.188 51.625C473.14 51.5462 472.975 51.4031 473.062 51.375Z" fill="#000000" stroke="none"/>
</g>
</g>
</svg>
