<?xml version="1.0" encoding="UTF-8" standalone="no"?>
<!DOCTYPE svg PUBLIC "-//W3C//DTD SVG 1.1//EN" "http://www.w3.org/Graphics/SVG/1.1/DTD/svg11.dtd">
<!-- Created with Vectornator (http://vectornator.io/) -->
<svg height="100%" stroke-miterlimit="10" style="fill-rule:nonzero;clip-rule:evenodd;stroke-linecap:round;stroke-linejoin:round;" version="1.1" viewBox="0 0 1000 1000" width="100%" xml:space="preserve" xmlns="http://www.w3.org/2000/svg" xmlns:vectornator="http://vectornator.io" xmlns:xlink="http://www.w3.org/1999/xlink">
<defs/>
<clipPath id="ArtboardFrame">
<rect height="1000" width="1000" x="0" y="0"/>
</clipPath>
<g clip-path="url(#ArtboardFrame)" id="Layer-1" vectornator:layerName="Layer 1">
<g opacity="1" vectornator:layerName="Curve 1">
<path d="M712.594 36.4375C704.784 36.3417 696.989 36.4088 689.188 36.5625C653.363 37.2681 617.62 40.4351 582.094 45C532.647 51.3534 483.645 60.7423 435.031 71.7188C392.421 81.3397 350.109 92.3703 308.094 104.312C240.839 123.429 174.329 144.989 108.312 168C96.3388 171.903 89.7841 184.776 93.6875 196.75C97.5909 208.724 110.464 215.278 122.438 211.375C225.481 180.078 329.699 152.131 435.531 131.938C473.207 124.749 511.09 118.682 549.156 113.969C588.968 109.04 629.087 105.687 669.219 105.344C693.508 105.136 717.839 105.939 742 108.531C760.237 110.488 778.422 113.419 796.156 118.156C809.809 121.803 823.377 126.472 835.781 133.312C839.495 135.361 843.079 137.651 846.438 140.25C846.438 144.471 846.241 148.7 845.906 152.906C844.792 166.882 842.493 180.779 839.656 194.5C832.846 227.441 822.624 259.596 810.406 290.906C805.364 303.828 800.037 316.597 794.281 329.219C790.538 337.427 786.579 345.533 782.594 353.625C776.559 365.88 770.333 378.028 763.75 390C759.11 398.438 754.183 406.677 749.344 415C737.812 434.831 725.795 454.402 712.75 473.281C699.756 492.086 685.595 510.113 670.844 527.562C635.616 569.233 595.833 606.903 553.438 641.188C458.011 718.357 348.404 776.213 234.25 820.375C219.615 825.91 212.246 842.271 217.781 856.906C223.316 871.542 239.646 878.91 254.281 873.375C303.984 855.007 352.81 834.254 400.188 810.5C430.912 795.096 460.984 778.439 490.375 760.625C522.819 740.961 554.372 719.817 584.688 697C634.484 659.521 681.066 617.71 723.406 571.969C739.889 554.162 755.726 535.747 770.938 516.844C777.176 509.092 783.389 501.364 789.406 493.438C798.557 481.383 807.407 469.056 815.812 456.469C817.981 453.222 820.022 449.902 822.094 446.594C825.919 440.485 829.662 434.308 833.312 428.094C840.741 415.448 847.982 402.657 854.594 389.562C857.344 384.117 859.983 378.608 862.594 373.094C878.457 339.588 891.726 304.917 902.062 269.312C910.533 240.134 917.047 210.296 920.531 180.094C922.288 164.865 923.434 149.387 922.531 134.062C922.005 125.13 920.773 115.946 917.062 107.719C915.523 104.304 913.603 101.202 911.344 98.2188C909.817 96.2023 907.988 94.3351 906.219 92.5312C902.602 88.8435 898.719 85.4587 894.625 82.3125C881.474 72.207 866.469 64.626 851.031 58.6875C829.053 50.2332 805.921 45.0102 782.656 41.625C759.47 38.2513 736.022 36.725 712.594 36.4375Z" fill="#000000" stroke="none"/>
</g>
<g opacity="1" vectornator:layerName="Curve 2">
<path d="M498.438 219.281C485.874 220.153 476.379 231.061 477.25 243.625C477.294 248.712 477.166 253.79 477.062 258.875C476.903 266.7 476.682 274.551 476.469 282.375C475.882 303.934 475.194 325.476 474.469 347.031C472.501 405.507 470.38 463.991 468.469 522.469C467.799 542.955 467.188 563.417 466.625 583.906C466.365 593.361 466.145 602.824 465.969 612.281C465.882 616.957 465.73 621.636 465.719 626.312C465.698 635.297 465.618 644.297 465.719 653.281C465.783 658.997 466.137 664.726 466.375 670.438C466.538 674.338 466.572 678.262 466.844 682.156C467.51 691.694 468.879 701.167 469.719 710.688C470.901 724.086 471.574 737.536 472.219 750.969C473.423 776.059 473.87 801.169 474.312 826.281C474.704 848.506 474.709 870.742 474.5 892.969C474.321 911.913 474.026 930.854 473.156 949.781C472.135 965.395 483.949 978.885 499.562 979.906C515.176 980.928 528.666 969.082 529.688 953.469C532.501 920.337 533.823 887.093 535.125 853.875C535.596 841.87 536.172 829.879 536.688 817.875C537.21 805.703 537.659 793.516 538.188 781.344C538.698 769.601 539.286 757.86 539.938 746.125C540.593 734.329 541.327 722.55 542.375 710.781C543.228 701.208 544.568 691.655 545.219 682.062C545.509 677.78 545.559 673.477 545.719 669.188C545.919 663.806 546.193 658.416 546.219 653.031C546.357 624.397 545.181 595.758 543.969 567.156C542.106 523.205 539.515 479.283 536.844 435.375C534.361 394.567 531.525 353.776 528.562 313C527.462 297.857 526.331 282.729 525.125 267.594C524.404 258.55 523.785 249.484 522.75 240.469C521.879 227.905 511.001 218.41 498.438 219.281Z" fill="#000000" stroke="none"/>
</g>
</g>
</svg>
