<?xml version="1.0" encoding="UTF-8" standalone="no"?>
<!DOCTYPE svg PUBLIC "-//W3C//DTD SVG 1.1//EN" "http://www.w3.org/Graphics/SVG/1.1/DTD/svg11.dtd">
<!-- Created with Vectornator (http://vectornator.io/) -->
<svg height="100%" stroke-miterlimit="10" style="fill-rule:nonzero;clip-rule:evenodd;stroke-linecap:round;stroke-linejoin:round;" version="1.1" viewBox="0 0 1000 1000" width="100%" xml:space="preserve" xmlns="http://www.w3.org/2000/svg" xmlns:vectornator="http://vectornator.io" xmlns:xlink="http://www.w3.org/1999/xlink">
<defs/>
<clipPath id="ArtboardFrame">
<rect height="1000" width="1000" x="0" y="0"/>
</clipPath>
<g clip-path="url(#ArtboardFrame)" id="Layer-1" vectornator:layerName="Layer 1">
<g opacity="1" vectornator:layerName="Curve 1">
<path d="M623.906 46.375C620.203 46.4765 616.287 47.08 612.344 48.2812C596.571 53.0863 586.314 65.3101 589.438 75.5625C585.633 153.935 578.114 232.063 574.344 310.438C572.331 352.277 571.285 394.184 572.625 436.062C573.245 455.424 574.514 474.758 576.469 494.031C579.95 528.354 585.529 562.459 591.938 596.344C595.114 613.136 598.498 629.868 602.156 646.562C603.463 652.527 604.672 658.531 606.094 664.469C608.11 672.886 610.341 681.301 612.719 689.625C615.609 699.745 618.461 709.87 621.312 720C622.576 724.487 623.718 729.037 625.062 733.5C625.887 736.239 626.846 738.932 627.719 741.656C629.2 746.28 630.635 750.922 632.062 755.562C637.291 772.56 642.048 789.781 645.281 807.281C647.707 820.409 649.894 833.749 650.156 847.125C650.24 851.382 650.169 855.639 649.719 859.875C649.548 861.482 649.318 863.071 649 864.656C648.925 865.032 648.823 865.405 648.75 865.781C648.742 865.822 648.759 865.865 648.75 865.906C647.335 867.232 645.636 868.262 643.906 869.125C640.381 870.883 636.652 872.234 632.906 873.438C627.688 875.114 622.393 876.48 617.062 877.75C610.238 879.377 603.371 880.907 596.531 882.469C588.074 884.399 579.641 886.367 571.125 888.031C561.301 889.952 551.388 891.506 541.469 892.844C507.806 897.382 473.82 899.034 439.906 900.438C398.273 902.161 356.611 903.414 315.125 907.531C305.925 904.408 294.586 913.346 289.781 927.5C284.976 941.654 288.519 955.658 297.719 958.781C353.645 955.406 409.683 957.735 465.656 956.188C492.219 955.453 518.831 953.97 545.219 950.75C558.877 949.083 572.377 946.829 585.906 944.344C603.402 941.13 620.963 938.366 638.031 933.219C666.56 924.615 693.354 909.612 713.188 887.062C717.71 881.92 721.685 876.364 724.906 870.312C733.977 853.272 736.51 833.923 737.188 814.906C737.801 797.676 736.608 780.486 734.969 763.344C734.21 755.408 733.341 747.476 732.375 739.562C730.956 727.94 729.495 716.339 727.812 704.75C727.075 699.672 726.414 694.55 725.5 689.5C724.718 685.178 723.678 680.887 722.75 676.594C720.207 664.822 717.58 653.067 714.688 641.375C713.485 636.514 712.207 631.673 711 626.812C706.514 608.745 701.954 590.685 697.312 572.656C690.858 547.583 684.367 522.515 678.562 497.281C672.41 470.533 667.3 443.488 663.656 416.281C661.38 399.284 659.714 382.209 658.25 365.125C655.165 329.131 653.346 293.041 652.188 256.938C650.061 190.68 649.668 124.382 646.562 58.1562C644.22 50.4669 635.015 46.0704 623.906 46.375ZM651 863.219C650.999 863.344 650.726 863.64 650.656 863.75C650.35 864.232 650.021 864.689 649.656 865.125C649.546 865.256 649.398 865.344 649.281 865.469C649.613 864.998 649.909 864.546 650.281 864.062C650.478 863.807 650.667 863.559 650.875 863.312C650.91 863.272 651 863.165 651 863.219Z" fill="#000000" stroke="none"/>
</g>
</g>
</svg>
