<?xml version="1.0" encoding="UTF-8" standalone="no"?>
<!DOCTYPE svg PUBLIC "-//W3C//DTD SVG 1.1//EN" "http://www.w3.org/Graphics/SVG/1.1/DTD/svg11.dtd">
<!-- Created with Vectornator (http://vectornator.io/) -->
<svg height="100%" stroke-miterlimit="10" style="fill-rule:nonzero;clip-rule:evenodd;stroke-linecap:round;stroke-linejoin:round;" version="1.1" viewBox="0 0 1000 1000" width="100%" xml:space="preserve" xmlns="http://www.w3.org/2000/svg" xmlns:vectornator="http://vectornator.io" xmlns:xlink="http://www.w3.org/1999/xlink">
<defs/>
<g id="Layer-1" vectornator:layerName="Layer 1">
<g opacity="1" vectornator:layerName="Curve 1">
<path d="M176 58.4688C171.352 58.6142 165.872 61.1751 161.375 65.7812C154.18 73.151 152.241 82.9168 157.031 87.5938C211.783 118.676 265.811 151.008 319.469 183.938C349.863 202.59 380.05 221.597 410.031 240.906C446.297 264.264 482.248 288.161 517.562 312.938C537.363 326.829 556.95 341.015 576.25 355.594C585.138 362.308 593.971 369.071 602.594 376.125C615.312 386.529 627.788 397.277 639.906 408.375C646.903 414.783 653.714 421.374 660.531 427.969C665.922 433.183 671.444 438.26 676.781 443.531C687.577 454.192 697.958 465.267 707.875 476.75C724.735 496.271 740.229 516.922 754.719 538.25C768.03 557.844 780.222 578.168 791.375 599.062C799.367 614.035 806.895 629.302 813.719 644.844C820.479 660.241 826.799 675.828 832.312 691.719C838.951 710.853 844.655 730.337 849.25 750.062C859.686 794.863 864.441 840.981 861.344 886.938C863.108 893.861 873.161 897.277 883.812 894.562C894.464 891.848 901.671 884.049 899.906 877.125C906.212 813.033 898.357 748.445 881.031 686.594C870.373 648.545 856.466 611.433 839.562 575.719C827.882 551.039 814.89 526.902 800.719 503.562C795.415 494.828 789.897 486.244 784.312 477.688C771.997 458.817 758.712 440.624 745 422.75C738.564 414.361 732.011 406.042 725.219 397.938C722.037 394.141 718.893 390.324 715.562 386.656C711.129 381.773 706.506 377.038 701.875 372.344C693.464 363.818 684.75 355.557 675.75 347.656C652.139 326.93 626.323 309.02 600.188 291.656C564.517 267.957 527.825 245.799 490.844 224.219C443.278 196.462 394.967 170.008 346.344 144.156C318.378 129.288 290.253 114.72 262.031 100.344C235.817 86.9904 209.514 73.7833 183.062 60.9062C181.266 59.1524 178.789 58.3815 176 58.4688Z" fill="#000000" stroke="none"/>
</g>
<g opacity="1" vectornator:layerName="Curve 2">
<path d="M444.375 301.375C443.211 301.607 442.196 302.104 441.375 302.906C423.844 315.097 407.12 328.485 390.938 342.406C366.405 363.511 343.154 386.078 321.094 409.75C296.689 435.938 273.784 463.555 252.719 492.5C236.664 514.56 221.356 537.379 208.438 561.438C204.225 569.282 200.11 577.228 196.375 585.312C194.449 589.482 192.795 593.809 191.062 598.062C187.538 606.716 184.221 615.452 180.906 624.188C168.641 656.511 158.455 689.718 151.594 723.625C145.08 755.813 141.558 788.663 141.125 821.5C140.961 833.981 141.26 846.469 141.812 858.938C142.241 868.612 142.862 878.288 143.156 887.969C145.286 894.907 155.669 897.871 166.344 894.594C177.019 891.317 183.942 883.032 181.812 876.094C182.037 866.812 181.986 857.533 182.062 848.25C182.155 837.041 182.415 825.817 183.062 814.625C184.142 795.949 186.194 777.312 189.375 758.875C191.248 748.018 193.597 737.223 196.25 726.531C205.147 690.672 218.029 655.842 234.656 622.844C238.907 614.409 243.516 606.153 248.281 598C250.13 594.837 252.084 591.74 253.906 588.562C256.291 584.404 258.578 580.205 260.938 576.031C264.784 569.226 268.708 562.439 272.594 555.656C275.612 550.388 278.592 545.104 281.625 539.844C290.544 524.377 299.776 509.08 309.531 494.125C335.343 454.557 364.118 416.949 396.031 382.094C415.774 360.531 436.581 339.724 459.25 321.219C462.534 318.009 461.188 311.303 456.25 306.25C452.546 302.46 447.867 300.678 444.375 301.375Z" fill="#000000" stroke="none"/>
</g>
</g>
</svg>
