<?xml version="1.0" encoding="UTF-8" standalone="no"?>
<!DOCTYPE svg PUBLIC "-//W3C//DTD SVG 1.1//EN" "http://www.w3.org/Graphics/SVG/1.1/DTD/svg11.dtd">
<!-- Created with Vectornator (http://vectornator.io/) -->
<svg height="100%" stroke-miterlimit="10" style="fill-rule:nonzero;clip-rule:evenodd;stroke-linecap:round;stroke-linejoin:round;" version="1.1" viewBox="0 0 1000 1000" width="100%" xml:space="preserve" xmlns="http://www.w3.org/2000/svg" xmlns:vectornator="http://vectornator.io" xmlns:xlink="http://www.w3.org/1999/xlink">
<defs/>
<clipPath id="ArtboardFrame">
<rect height="1000" width="1000" x="0" y="0"/>
</clipPath>
<g clip-path="url(#ArtboardFrame)" id="Layer-1" vectornator:layerName="Layer 1">
<g opacity="1" vectornator:layerName="Curve 1">
<path d="M160.344 48.4062C152.766 48.2565 144.346 49.8242 136.031 53.2812C113.858 62.4999 100.758 81.65 106.75 96.0625C114.808 181.173 98.0647 265.956 80.9688 348.938C76.4701 370.773 71.9381 392.596 67.7812 414.5C66.4089 421.732 64.9589 428.963 63.7188 436.219C62.7771 441.728 61.9699 447.261 61.0938 452.781C60.3648 457.374 59.6013 461.965 58.9062 466.562C58.3704 470.108 57.9624 473.663 57.5 477.219C56.4677 485.156 55.5571 493.124 54.8125 501.094C54.583 503.551 54.4634 506.006 54.3125 508.469C54.1096 511.78 53.9051 515.092 53.75 518.406C53.5574 522.523 53.548 526.661 53.4688 530.781C53.3743 535.692 53.3798 540.62 53.4062 545.531C53.4195 547.994 53.3346 550.479 53.4688 552.938C53.5538 554.496 53.7988 556.043 53.9688 557.594C54.1891 559.604 54.3643 561.647 54.5938 563.656C55.2316 569.242 55.8526 574.822 56.5 580.406C56.7259 582.355 56.9859 584.299 57.1875 586.25C58.3096 597.109 59.1092 607.996 60 618.875C60.7232 627.707 61.5135 636.536 62.1562 645.375C63.1591 659.165 64.4641 672.908 65.5938 686.688C67.1889 706.145 68.8208 725.613 70.8438 745.031C72.3161 759.164 74.0635 773.256 75.6562 787.375C77.7118 805.596 79.7916 823.823 82.2188 842C86.4629 873.784 91.3547 905.465 96.8125 937.062C102.713 952.806 127.123 958.203 151.344 949.125C175.564 940.047 190.401 919.931 184.5 904.188C180.953 853.702 178.697 803.084 178.406 752.469C178.371 746.325 178.483 740.174 178.562 734.031C178.731 720.904 179.02 707.778 179.406 694.656C179.841 679.885 180.371 665.101 181.156 650.344C181.723 639.694 182.555 629.065 183.438 618.438C183.983 611.869 184.418 605.275 185.094 598.719C186.841 581.757 188.779 564.804 191.5 547.969C191.971 545.057 192.548 542.148 193.094 539.25C194.199 533.383 195.236 527.517 196.375 521.656C196.937 518.764 197.67 515.854 198.094 512.938C198.619 509.318 198.874 505.666 199.281 502.031C200.086 494.85 200.837 487.655 201.594 480.469C201.889 477.664 202.052 474.842 202.281 472.031C202.51 469.224 202.8 466.435 203 463.625C203.195 460.885 203.246 458.119 203.375 455.375C203.576 451.116 203.799 446.854 203.969 442.594C204.474 429.939 205.066 417.285 205.438 404.625C205.564 400.307 205.853 396.004 206.031 391.688C206.604 377.826 207.299 363.952 207.938 350.094C208.583 336.083 209.096 322.078 209.625 308.062C211.223 265.69 211.649 223.188 208.469 180.875C205.466 140.925 198.77 101.027 187.031 62.6875C183.286 53.6797 172.973 48.6558 160.344 48.4062Z" fill="#000000" stroke="none"/>
</g>
<g opacity="1" vectornator:layerName="Curve 2">
<path d="M848.281 69.2812C836.521 68.5032 822.071 73.6461 809.594 84.1562C789.63 100.973 782.319 125.149 793.25 138.125C800.794 144.791 807.53 152.347 813 160.812C816.82 166.725 820.007 173.07 822.406 179.688C830.426 201.81 829.153 225.899 823.031 248.312C821.359 254.435 819.351 260.521 816.969 266.406C813.911 273.961 810.364 281.295 806.5 288.469C803.789 293.501 800.91 298.438 797.875 303.281C793.981 309.494 789.838 315.558 785.5 321.469C779.752 329.3 773.661 336.911 767.188 344.156C758.84 353.498 749.759 362.264 740.188 370.344C733.183 376.256 725.862 381.814 718.531 387.312C710.092 393.643 701.526 399.863 692.562 405.438C687.962 408.298 683.253 410.979 678.562 413.688C674.938 415.78 671.125 417.537 667.5 419.625C664.338 421.447 661.263 423.405 658.094 425.219C649.856 429.934 641.44 434.321 633 438.656C627.644 441.408 622.329 444.2 616.844 446.688C601.246 453.762 585.16 459.781 568.688 464.5C529.875 475.618 489.608 481.046 449.406 483.906C440.899 484.511 432.359 484.923 423.844 485.375C402.397 486.515 380.91 486.695 359.438 486.781C314.327 486.962 269.233 485.764 224.125 485.531C212.083 479.062 194.234 488.848 184.281 507.375C174.328 525.902 176.02 546.155 188.062 552.625C238.227 560.41 288.175 569.74 338.562 576.031C368.929 579.823 399.467 582.738 430.062 583.75C477.801 585.328 525.832 582.258 572.562 572.062C591.242 567.987 609.774 562.807 627.75 556.281C642.052 551.089 656.183 545.28 669.812 538.5C677.017 534.916 684.098 531.03 691.062 527C700.282 521.665 709.256 515.877 718.031 509.844C722.583 506.714 727.192 503.557 731.594 500.219C734.817 497.775 737.877 495.107 740.969 492.5C747.062 487.362 753.088 482.129 758.969 476.75C761.623 474.322 764.187 471.801 766.844 469.375C772.349 464.349 777.696 459.201 783.125 454.094C791.382 446.325 799.527 438.373 807.438 430.25C812.137 425.424 816.925 420.699 821.531 415.781C829.761 406.995 837.604 397.861 845.094 388.438C854.511 376.589 863.415 364.3 871.688 351.625C878.428 341.297 884.743 330.672 890.531 319.781C894.936 311.493 899.034 303.044 902.781 294.438C908.175 282.05 912.746 269.352 916.5 256.375C926.445 221.994 929.998 185.144 919.312 150.469C917.36 144.131 914.954 137.952 912.094 131.969C907.984 123.373 902.939 115.202 897.125 107.656C888.156 96.0164 877.378 85.8842 865.531 77.2188C861.432 72.3527 855.338 69.7481 848.281 69.2812Z" fill="#000000" stroke="none"/>
</g>
<g opacity="1" vectornator:layerName="Curve 3">
<path d="M605.281 675.438C594.126 675.359 582.972 676.07 571.844 676.75C551.834 677.973 531.861 679.851 511.906 681.75C457.44 686.933 403.123 693.476 348.844 700.312C336.759 694.943 320.261 705.69 312 724.281C303.739 742.873 306.822 762.286 318.906 767.656C365.557 774.347 412.161 781.469 458.812 788.156C477.796 790.877 496.759 793.629 515.812 795.812C526.067 796.988 536.371 798.176 546.688 798.656C553.023 798.951 559.354 798.739 565.688 798.531C568.302 798.446 570.918 798.287 573.531 798.156C574.821 798.092 576.121 798.094 577.406 797.969C579.467 797.767 581.521 797.337 583.562 797C585.645 796.656 587.729 796.31 589.812 795.969C593.238 795.408 596.658 794.775 600.094 794.281C603.473 793.795 606.86 793.38 610.25 792.969C614.923 792.401 619.628 792.05 624.312 791.594C632.891 790.758 641.496 790.156 650.094 789.562C654.697 789.245 659.299 788.879 663.906 788.625C683.741 787.533 703.604 787.087 723.469 787.312C735.312 787.447 747.158 788.007 759 788.25C780.084 788.683 801.191 788.754 822.25 787.5C835.37 793.423 853.388 781.872 862.5 761.688C871.612 741.503 868.37 720.329 855.25 714.406C839.646 713.213 824.137 711.014 808.688 708.562C796.547 706.636 784.423 704.546 772.312 702.438C765.589 701.267 758.911 699.956 752.188 698.781C744.186 697.384 736.138 696.097 728.094 694.969C722.429 694.174 716.756 693.562 711.094 692.75C705.087 691.888 699.091 690.896 693.094 689.969C689.483 689.41 685.852 688.922 682.25 688.312C678.09 687.608 673.962 686.795 669.812 686.031C664.515 685.056 659.205 684.056 653.969 682.781C649.375 681.663 644.814 680.388 640.25 679.156C638.54 678.695 636.813 678.132 635.062 677.844C632.649 677.446 630.15 677.277 627.719 677C623.41 676.51 619.081 676.04 614.75 675.812C611.605 675.647 608.431 675.46 605.281 675.438Z" fill="#000000" stroke="none"/>
</g>
</g>
</svg>
