<?xml version="1.0" encoding="UTF-8" standalone="no"?>
<!DOCTYPE svg PUBLIC "-//W3C//DTD SVG 1.1//EN" "http://www.w3.org/Graphics/SVG/1.1/DTD/svg11.dtd">
<!-- Created with Vectornator (http://vectornator.io/) -->
<svg height="100%" stroke-miterlimit="10" style="fill-rule:nonzero;clip-rule:evenodd;stroke-linecap:round;stroke-linejoin:round;" version="1.1" viewBox="0 0 1000 1000" width="100%" xml:space="preserve" xmlns="http://www.w3.org/2000/svg" xmlns:vectornator="http://vectornator.io" xmlns:xlink="http://www.w3.org/1999/xlink">
<defs/>
<g id="Layer-1" vectornator:layerName="Layer 1">
<g opacity="1" vectornator:layerName="Curve 1">
<path d="M570.375 40.5625C556.548 40.1794 545.039 51.0797 544.656 64.9062C543.47 101.563 542.707 138.236 542.094 174.906C541.186 229.198 540.73 283.482 540.812 337.781C540.888 387.211 541.48 436.64 542.5 486.062C528.126 477.09 513.77 468.075 499.344 459.188C430.181 416.582 360.461 374.874 290.5 333.594C222.092 293.23 153.452 253.28 84.4688 213.906C74.8749 208.258 62.5231 211.437 56.875 221.031C51.2269 230.625 54.4061 242.977 64 248.625C120.781 283.264 177.326 318.34 233.688 353.656C309.885 401.402 385.72 449.725 461 498.906C488.873 517.116 516.631 535.508 544.281 554.062C544.925 572.401 545.534 590.73 546.375 609.062C547.727 638.533 549.499 667.99 551.75 697.406C554.061 727.604 556.971 757.782 561.156 787.781C563.535 804.829 566.325 821.784 569.906 838.625C573.351 854.824 577.586 871.099 584.312 886.281C588.507 895.748 593.744 904.903 600.812 912.531C606.411 918.573 613.272 923.369 620.125 927.875C633.001 936.341 647.031 943.004 661.406 948.5C698.309 962.609 737.944 968.995 777.344 969.844C806.426 970.471 835.751 968.133 864.062 961.25C869.447 959.941 874.78 958.458 880.062 956.781C909.057 947.581 939.067 931.38 952.969 902.938C954.728 899.338 956.192 895.596 957.312 891.75C958.404 888.005 959.182 884.183 959.656 880.312C963.236 851.1 949.568 822.58 933.844 798.875C917.662 774.48 897.805 752.684 877.188 732C850.738 705.466 822.286 680.884 793.188 657.312C778.211 645.181 763.035 633.296 747.531 621.844C714.265 597.272 679.866 574.196 645.281 551.531C629.982 541.505 614.536 531.727 599.125 521.875C597.008 474.835 595.399 427.766 594.5 380.688C593.714 339.55 593.379 298.395 593.25 257.25C593.051 193.593 593.368 129.925 594.719 66.2812C595.102 52.4547 584.202 40.9456 570.375 40.5625ZM602.906 593.969C606.036 596.129 609.219 598.207 612.344 600.375C633.358 614.953 654.252 629.717 674.875 644.844C692.049 657.44 709.054 670.297 725.594 683.719C753.084 706.026 779.915 729.177 805.469 753.688C825.695 773.088 845.274 793.381 862.531 815.5C867.654 822.066 872.566 828.843 877.031 835.875C881.156 842.37 884.948 849.109 887.844 856.25C889.289 859.814 890.564 863.521 891.094 867.344C891.29 868.761 891.605 870.606 891.062 872C890.938 872.32 890.567 872.727 890.312 873.062C889.382 874.29 888.272 875.358 887.094 876.344C883.153 879.639 878.501 882.132 873.844 884.25C866.355 887.656 858.451 890.122 850.469 892.062C838.958 894.86 827.227 896.533 815.438 897.594C788.463 900.02 761.344 898.857 734.594 894.75C713.242 891.472 691.949 886.325 672.188 877.438C666.532 874.894 660.985 872.018 655.656 868.844C653.62 867.631 651.668 866.276 649.656 865.031C649.132 864.496 648.507 863.76 648.281 863.438C646.887 861.448 645.712 859.295 644.625 857.125C640.021 847.93 636.79 838.065 633.906 828.219C629.788 814.158 626.769 799.786 624 785.406C619.225 760.608 615.891 735.512 612.969 710.438C608.458 671.729 605.348 632.87 602.906 593.969Z" fill="#000000" stroke="none"/>
</g>
<g opacity="1" vectornator:layerName="Curve 2">
<path d="M295.969 45.4375C284.837 45.5834 275.917 54.7117 276.062 65.8438C273.416 172.707 270.481 279.589 268.594 386.469C268.021 418.917 267.483 451.361 267.094 483.812C266.852 503.949 266.748 524.082 266.938 544.219C267.001 550.927 267.017 557.637 267.188 564.344C267.373 571.612 267.727 578.892 268.031 586.156C268.219 590.625 268.301 595.101 268.625 599.562C269.437 610.751 270.633 621.914 271.531 633.094C272.922 650.392 273.798 667.73 274.625 685.062C275.719 707.978 276.556 730.917 277.375 753.844C277.974 770.616 278.606 787.381 279.125 804.156C280.371 844.41 281.34 884.68 282.438 924.938C282.619 938.768 293.982 949.806 307.812 949.625C321.643 949.444 332.713 938.112 332.531 924.281C332.573 884.009 332.466 843.71 332.656 803.438C332.736 786.655 332.934 769.876 333.094 753.094C333.312 730.154 333.538 707.217 334.031 684.281C334.404 666.933 334.845 649.579 335.781 632.25C336.387 621.05 337.262 609.862 337.781 598.656C338.014 593.63 337.984 588.593 338.062 583.562C338.168 576.852 338.318 570.117 338.312 563.406C338.307 556.697 338.144 549.989 338.031 543.281C337.683 522.587 337.009 501.901 336.219 481.219C334.979 448.789 333.58 416.36 332.156 383.938C327.492 277.703 321.793 171.51 316.375 65.3125C316.229 54.1805 307.101 45.2916 295.969 45.4375Z" fill="#000000" stroke="none"/>
</g>
</g>
</svg>
