<?xml version="1.0" encoding="UTF-8" standalone="no"?>
<!DOCTYPE svg PUBLIC "-//W3C//DTD SVG 1.1//EN" "http://www.w3.org/Graphics/SVG/1.1/DTD/svg11.dtd">
<!-- Created with Vectornator (http://vectornator.io/) -->
<svg height="100%" stroke-miterlimit="10" style="fill-rule:nonzero;clip-rule:evenodd;stroke-linecap:round;stroke-linejoin:round;" version="1.1" viewBox="0 0 1000 1000" width="100%" xml:space="preserve" xmlns="http://www.w3.org/2000/svg" xmlns:vectornator="http://vectornator.io" xmlns:xlink="http://www.w3.org/1999/xlink">
<defs/>
<clipPath id="ArtboardFrame">
<rect height="1000" width="1000" x="0" y="0"/>
</clipPath>
<g clip-path="url(#ArtboardFrame)" id="Layer-1" vectornator:layerName="Layer 1">
<g opacity="1" vectornator:layerName="Curve 3">
<path d="M758.625 309.688C753.341 309.933 747.785 310.928 742.188 312.75C719.797 320.04 705.481 337.727 710.219 352.281C709.258 371.005 707.578 389.716 705.781 408.375C703.187 435.31 700.133 462.186 697 489.062C692.486 527.787 687.615 566.467 682.562 605.125C679.609 627.719 676.617 650.312 673.438 672.875C671.501 686.62 669.613 700.352 667.656 714.094C664.548 735.918 661.305 757.736 658 779.531C657.292 784.201 656.541 788.859 655.844 793.531C652.282 794.571 648.736 795.681 645.156 796.656C634.067 799.678 622.915 802.49 611.781 805.344C602.588 807.7 593.335 809.809 584.094 811.969C573.256 814.501 562.41 817.021 551.531 819.375C536.254 822.681 520.93 825.765 505.594 828.781C483.305 833.165 460.961 837.455 438.531 841.062C426.138 843.056 413.703 844.83 401.25 846.406C390.329 847.789 379.361 848.985 368.375 849.719C360.433 850.249 352.487 850.42 344.531 850.656C332.176 851.023 319.755 851.185 307.438 849.969C299.121 849.148 290.902 847.649 282.844 845.438C270.332 835.466 247.748 842.97 232.406 862.219C217.065 881.468 214.769 905.153 227.281 915.125C238.45 919.188 249.957 922.252 261.656 924.344C277.314 927.143 293.19 928.273 309.062 928.938C319.104 929.358 329.167 929.754 339.219 929.719C356.949 929.657 374.665 928.677 392.344 927.375C417.758 925.503 443.153 923.251 468.5 920.625C489.413 918.459 510.281 915.93 531.156 913.438C541.394 912.215 551.639 911.055 561.875 909.812C570.955 908.711 580.014 907.509 589.094 906.406C597.641 905.368 606.206 904.371 614.75 903.312C626.385 901.872 638.025 900.361 649.688 899.156C657.597 898.339 665.481 897.454 673.375 896.5C677.628 895.986 681.933 895.57 686.156 894.844C690.93 894.023 695.684 892.92 700.406 891.844C715.377 888.43 730.07 883.687 743.344 875.781C745.791 874.324 748.269 872.864 750.594 871.219C754.293 868.601 757.945 865.926 761.406 863C764.554 860.34 767.526 857.477 770.375 854.5C772.89 851.872 775.206 849.066 777.469 846.219C779.028 844.257 780.451 842.177 781.844 840.094C782.893 838.525 783.835 836.883 784.781 835.25C791.341 823.934 794.939 811.286 797.406 798.531C798.312 793.848 799.186 789.131 799.844 784.406C800.294 781.17 800.616 777.936 800.969 774.688C804.542 741.77 805.211 708.582 805.594 675.5C806.328 612.059 804.662 548.574 802.125 485.188C800.934 455.427 799.364 425.687 797.375 395.969C795.81 372.582 794.08 349.183 791.281 325.906C787.728 314.991 774.478 308.951 758.625 309.688ZM712.781 775.406C712.813 775.489 712.613 775.496 712.531 775.531C712.452 775.566 712.393 775.593 712.312 775.625C711.711 775.864 711.083 776.077 710.469 776.281C709.65 776.553 708.824 776.776 708 777.031C708.2 776.953 708.393 776.858 708.594 776.781C709.772 776.33 710.975 775.884 712.188 775.531C712.424 775.462 712.767 775.37 712.781 775.406Z" fill="#000000" stroke="none"/>
</g>
<g opacity="1" vectornator:layerName="Curve 4">
<path d="M531.031 51.5625C526.369 51.5963 521.69 51.853 517.031 52.0312C504.242 52.5207 491.487 53.4258 478.719 54.2812C448.815 56.2847 418.954 58.877 389.094 61.4375C310.564 68.1714 232.085 75.4418 153.562 82.25C141.478 76.904 125.006 87.6274 116.781 106.219C108.557 124.81 111.697 144.216 123.781 149.562C158.058 152.717 192.325 155.883 226.625 158.781C266.09 162.116 305.589 165.2 345.094 168.031C373.871 170.094 402.648 172.076 431.469 173.438C443.1 173.987 454.732 174.497 466.375 174.688C470.289 174.751 474.211 174.872 478.125 174.812C489.483 174.639 500.82 174.154 512.156 173.438C515.525 173.225 518.92 173.113 522.281 172.812C524.379 172.625 526.448 172.268 528.531 171.969C532.028 171.467 535.535 170.968 539.031 170.469C549.447 168.982 559.857 167.554 570.312 166.375C575.105 165.835 579.92 165.411 584.719 164.938C598.303 163.596 611.893 162.379 625.5 161.281C646.484 159.588 667.492 158.265 688.5 156.906C706.745 155.726 724.966 154.434 743.219 153.375C760.597 152.367 777.987 151.635 795.375 150.812C824.29 149.445 853.21 148.087 882.125 146.719C895.245 152.485 913.098 140.81 921.969 120.625C930.84 100.44 927.37 79.391 914.25 73.625C869.559 71.7154 824.877 69.903 780.188 67.9688C763.469 67.2452 746.744 66.2831 730.031 65.4375C717.175 64.787 704.321 64.1919 691.469 63.4688C681.831 62.9264 672.196 62.2163 662.562 61.5938C651.107 60.8534 639.689 59.9929 628.25 59.0312C620.052 58.342 611.859 57.5908 603.688 56.625C596.857 55.8177 590.031 54.7879 583.219 53.8438C580.126 53.4152 577.021 52.8526 573.906 52.625C570.054 52.3435 566.171 52.2938 562.312 52.125C551.887 51.6689 541.466 51.4868 531.031 51.5625Z" fill="#000000" stroke="none"/>
</g>
<g opacity="1" vectornator:layerName="Curve 5">
<path d="M477.938 98.9375C470.421 98.552 462.017 99.8599 453.656 103.031C431.36 111.488 417.753 130.07 423.25 144.562C425.681 217.083 431.404 289.447 433.781 361.969C434.708 390.233 435.077 418.505 434.531 446.781C434.357 455.799 434.196 464.801 433.781 473.812C433.428 481.485 433.018 489.15 432.5 496.812C432.138 502.17 431.772 507.503 430.938 512.812C429.438 522.351 426.959 531.678 424.062 540.875C423.17 543.709 422.042 546.458 421.031 549.25C418.674 555.761 416.119 562.234 413.094 568.469C412.334 570.034 411.594 571.587 410.781 573.125C410.282 574.069 409.659 574.981 409.25 575.969C408.322 578.21 407.568 580.533 406.656 582.781C405.988 584.43 405.402 586.099 404.688 587.719C404.617 587.879 404.633 588.058 404.562 588.219C403.925 589.658 403.003 591.065 401.688 592C400.9 592.559 399.89 592.918 399 593.281C397.328 593.963 395.656 594.569 393.938 595.125C387.688 597.146 381.241 598.507 374.781 599.656C365.886 601.239 356.906 602.115 347.906 602.844C333.283 604.027 318.612 604.605 303.969 605.469C296.334 605.919 288.692 606.407 281.062 606.938C278.147 607.14 275.23 607.338 272.312 607.5C270.444 607.604 268.588 607.749 266.719 607.625C261.501 607.278 256.303 606.018 251.219 604.875C245.669 603.628 240.135 602.348 234.625 600.938C199.351 591.905 167.299 573.288 137.156 553.375C126.004 540.688 101.113 544.311 81.5938 561.469C62.0748 578.626 55.3163 602.844 66.4688 615.531C89.9046 634.576 114.478 652.389 141.469 666.094C149.856 670.353 158.461 674.207 167.25 677.562C172.689 679.639 178.224 681.485 183.75 683.312C189.542 685.228 195.34 687.112 201.219 688.75C208.326 690.73 215.574 692.212 222.906 693.062C232.239 694.145 241.65 694.269 251.031 694.562C260.504 694.859 269.971 695.296 279.438 695.75C305.726 697.011 332.154 697.956 358.406 695.531C374.9 694.008 391.36 691.127 407.25 686.406C434.831 678.212 460.497 664.165 483.25 646.656C494.875 637.711 505.838 627.988 515.906 617.312C519.835 613.147 523.817 608.891 527.344 604.375C534.242 595.54 540.407 586.069 545.969 576.344C548.722 571.529 551.387 566.646 553.812 561.656C555.927 557.306 557.799 552.851 559.625 548.375C560.932 545.171 562.2 541.934 563.312 538.656C565.471 532.295 567.256 525.798 568.875 519.281C570.026 514.648 570.931 509.92 571.75 505.219C574.008 492.266 575.027 479.116 574.844 465.969C574.68 454.209 573.385 442.471 572.188 430.781C570.16 410.988 567.324 391.327 563.969 371.719C549.074 284.665 523.849 199.895 504 113.938C500.564 104.88 490.465 99.58 477.938 98.9375Z" fill="#000000" stroke="none"/>
</g>
</g>
</svg>
