<?xml version="1.0" encoding="UTF-8" standalone="no"?>
<!DOCTYPE svg PUBLIC "-//W3C//DTD SVG 1.1//EN" "http://www.w3.org/Graphics/SVG/1.1/DTD/svg11.dtd">
<!-- Created with Vectornator (http://vectornator.io/) -->
<svg height="100%" stroke-miterlimit="10" style="fill-rule:nonzero;clip-rule:evenodd;stroke-linecap:round;stroke-linejoin:round;" version="1.1" viewBox="0 0 1000 1000" width="100%" xml:space="preserve" xmlns="http://www.w3.org/2000/svg" xmlns:vectornator="http://vectornator.io" xmlns:xlink="http://www.w3.org/1999/xlink">
<defs/>
<clipPath id="ArtboardFrame">
<rect height="1000" width="1000" x="0" y="0"/>
</clipPath>
<g clip-path="url(#ArtboardFrame)" id="Layer-1" vectornator:layerName="Layer 1">
<g opacity="1" vectornator:layerName="Curve 1">
<path d="M160.531 66.5938C151.477 66.6284 141.033 69.8369 131.344 76.1875C111.966 88.8886 102.963 109.405 111.219 122C118.544 133.816 124.742 146.305 129.656 159.312C135.416 174.559 139.545 190.508 141.969 206.625C145.871 232.574 146.401 258.777 145.625 284.969C144.918 308.816 143.384 332.623 142 356.438C139.082 406.637 135.714 456.798 132.344 506.969C130.591 533.055 128.921 559.154 127.312 585.25C126.105 604.829 125.008 624.408 124.031 644C123.605 652.551 123.151 661.101 122.812 669.656C122.173 685.842 121.807 702.056 121.438 718.25C121.325 723.164 121.426 728.055 121.375 732.969C121.332 737.129 121.161 741.279 121.062 745.438C120.957 749.853 120.952 754.271 120.875 758.688C120.731 766.977 120.652 775.272 120.688 783.562C120.707 788.08 120.651 792.643 120.875 797.156C121.007 799.814 121.317 802.445 121.562 805.094C122.076 810.638 122.733 816.165 123.438 821.688C124.772 832.152 126.644 842.505 128.875 852.812C130.305 859.418 131.949 865.977 133.938 872.438C138.092 885.939 143.453 899.159 151.031 911.125C163.21 930.356 180.691 945.278 201.906 953.688C210.53 957.106 219.534 959.585 228.781 960.5C238.144 961.427 247.629 960.886 256.875 959.188C279.447 955.041 300.099 944.322 318.375 930.719C324.982 925.801 331.276 920.456 337.469 915.031C339.646 913.125 341.822 911.218 344 909.312C344.469 908.902 344.949 908.486 345.406 908.062C345.508 907.968 345.513 907.802 345.625 907.719C349.547 904.803 353.767 902.168 357.938 899.625C367.295 893.92 377.236 888.907 387.969 886.406C392.562 885.336 397.217 884.819 401.906 884.375C407.085 883.885 412.269 883.574 417.469 883.438C436.96 882.924 456.443 884.557 475.75 887.125C502.953 890.743 529.832 896.494 556.719 901.906C581.69 906.933 606.716 911.614 632 914.781C644.306 922.448 663.83 913.307 675.625 894.375C687.42 875.443 687.025 853.886 674.719 846.219C633.178 838.693 592.802 826.184 551.719 816.656C518.517 808.956 484.805 803.263 450.656 802.656C434.39 802.367 418.043 802.772 401.969 805.469C367.114 811.316 334.5 826.257 304.5 844.531C295.308 850.13 286.822 856.659 278.344 863.25C276.773 862.131 275.274 860.936 273.906 859.594C268.575 854.363 264.943 847.563 262.344 840.625C258.073 829.223 256.483 817.133 255.844 805.031C255.625 800.895 255.643 796.732 255.75 792.594C255.94 785.265 256.328 777.966 256.906 770.656C257.166 767.365 257.516 764.066 257.844 760.781C258.008 759.136 258.224 757.493 258.344 755.844C258.579 752.605 258.705 749.367 258.906 746.125C259.207 741.288 259.589 736.458 259.938 731.625C260.902 718.236 261.988 704.861 262.312 691.438C262.688 675.92 262.251 660.359 261.875 644.844C261.338 622.686 260.758 600.528 260.031 578.375C259.534 563.21 258.95 548.07 258.438 532.906C256.059 462.531 253.159 392.143 249.094 321.844C245.62 261.771 243.589 200.017 221.094 143.375C217.747 134.947 213.968 126.684 209.75 118.656C201.789 103.503 192.235 89.2279 181.375 76C177.247 69.7023 169.586 66.5591 160.531 66.5938ZM268.906 870.344C268.553 870.59 268.233 870.885 267.875 871.125C267.64 871.282 267.394 871.442 267.156 871.594C266.8 871.822 266.04 872.443 265.562 872.438C265.494 872.437 265.577 872.269 265.625 872.219C265.697 872.144 265.792 872.093 265.875 872.031C266.034 871.912 266.209 871.797 266.375 871.688C266.814 871.398 267.185 871.188 267.656 870.938C268.064 870.721 268.489 870.543 268.906 870.344Z" fill="#000000" stroke="none"/>
</g>
<g opacity="1" vectornator:layerName="Curve 2">
<path d="M805.281 32.25C797.851 32.422 790.429 33.0138 783.062 33.9375C757.659 37.1228 732.776 44.2737 708.938 53.5C695.559 58.6779 682.502 64.6869 669.656 71.0625C645.02 83.29 621.38 97.3455 598.688 112.875C543.917 150.357 495.059 196.777 455.5 250.094C428.042 287.101 405.197 327.879 389.719 371.344C390.012 384.328 406.43 394.483 426.406 394.031C446.382 393.58 462.356 382.703 462.062 369.719C475.952 340.377 493.718 312.8 514.312 287.719C526.047 273.428 538.53 259.743 551.906 246.969C563.827 235.585 576.254 224.775 589.219 214.594C614.52 194.725 642.006 177.585 671 163.656C680.312 159.183 689.819 155.096 699.469 151.406C712.078 146.585 725.015 142.577 738.406 140.625C740.755 140.283 743.103 140.009 745.469 139.812C754.983 139.021 767.049 138.994 773.938 146.781C775.705 148.779 777.114 151.095 778.188 153.531C780.062 157.786 781.52 162.276 782.531 166.812C783.84 172.685 784.368 178.77 784.094 184.781C783.689 193.66 781.376 202.065 778.281 210.344C773.292 223.689 766.11 236.364 758.156 248.156C755.784 251.674 753.295 255.11 750.875 258.594C749.607 260.42 748.463 262.313 747.219 264.156C744.954 267.511 742.633 270.861 740.281 274.156C731.728 286.142 722.758 297.803 713.656 309.375C694.513 333.714 673.715 356.738 652.812 379.562C633.731 400.398 614.163 420.782 594.625 441.188C573.223 463.54 551.914 485.981 531.125 508.906C523.423 517.399 515.769 525.958 508.156 534.531C499.419 544.371 490.781 554.294 482.625 564.625C469.069 581.797 456.602 599.784 444.406 617.938C439.502 625.237 434.705 632.585 430.125 640.094C424.171 649.856 418.66 659.877 413.406 670.031C408.367 679.771 403.921 689.764 400.062 700.031C397.453 706.974 395.059 714.02 393.25 721.219C390.682 731.436 388.783 743.281 394.281 752.906C395.404 754.872 396.87 756.624 398.5 758.188C400.138 759.76 401.969 761.149 403.938 762.281C410.474 766.043 418.008 767.399 425.469 767.5C427.68 767.53 429.919 767.432 432.125 767.281C432.697 767.242 433.274 767.183 433.844 767.125C433.852 767.13 433.866 767.12 433.875 767.125C446.265 773.595 464.678 763.931 475.312 745.125C483.696 730.301 484.671 714.304 478.906 704.594C480.575 700.275 482.355 696.007 484.312 691.812C485.794 688.639 487.326 685.484 489 682.406C490.896 678.92 492.921 675.479 494.938 672.062C498.953 665.259 503.169 658.556 507.625 652.031C513.845 642.923 520.473 634.133 527.094 625.312C537.08 612.008 547.326 598.851 558.375 586.406C562.926 581.28 567.626 576.317 572.375 571.375C581.43 561.953 590.666 552.708 599.969 543.531C651.082 493.114 704.801 445.404 756.406 395.5C769.017 383.305 781.616 371.114 793.938 358.625C798.349 354.154 802.812 349.726 807.219 345.25C810.774 341.64 814.273 337.97 817.844 334.375C831.774 320.352 845.715 306.332 858.688 291.406C861.288 288.414 863.674 285.207 866.125 282.094C870.86 276.078 875.452 269.918 879.812 263.625C893.003 244.588 904.662 224.333 912.656 202.531C920.242 181.845 924.299 159.614 923.156 137.562C922.798 130.65 921.889 123.769 920.438 117C918.407 107.532 915.296 98.31 911.281 89.5C907.448 81.0888 902.798 73.0796 896.781 66.0312C879.393 45.6633 853.609 35.8984 827.531 33.125C820.138 32.3387 812.712 32.078 805.281 32.25ZM458.281 697.531C458.509 697.529 458.741 697.523 458.969 697.531C459.053 697.534 459.134 697.558 459.219 697.562C458.976 697.57 458.712 697.59 458.469 697.594C458.287 697.597 457.756 697.578 457.938 697.562C458.053 697.552 458.165 697.532 458.281 697.531ZM433.344 766.938C433.373 766.954 433.408 766.952 433.438 766.969C433.406 766.967 433.375 766.971 433.344 766.969C433.341 766.968 433.346 766.94 433.344 766.938Z" fill="#000000" stroke="none"/>
</g>
</g>
</svg>
