<?xml version="1.0" encoding="UTF-8" standalone="no"?>
<!DOCTYPE svg PUBLIC "-//W3C//DTD SVG 1.1//EN" "http://www.w3.org/Graphics/SVG/1.1/DTD/svg11.dtd">
<!-- Created with Vectornator (http://vectornator.io/) -->
<svg height="100%" stroke-miterlimit="10" style="fill-rule:nonzero;clip-rule:evenodd;stroke-linecap:round;stroke-linejoin:round;" version="1.1" viewBox="0 0 1000 1000" width="100%" xml:space="preserve" xmlns="http://www.w3.org/2000/svg" xmlns:vectornator="http://vectornator.io" xmlns:xlink="http://www.w3.org/1999/xlink">
<defs/>
<clipPath id="ArtboardFrame">
<rect height="1000" width="1000" x="0" y="0"/>
</clipPath>
<g clip-path="url(#ArtboardFrame)" id="Layer-1" vectornator:layerName="Layer 1">
<g opacity="1" vectornator:layerName="Curve 1">
<path d="M199.094 64.7812C188.923 64.7429 180.632 72.9545 180.594 83.125C180.084 101.72 177.707 120.22 174.719 138.562C170.905 161.975 165.899 185.172 160.438 208.25C145.681 270.6 127.174 332.028 108.562 393.312C103.552 409.811 98.5004 426.27 93.5312 442.781C89.6947 455.529 85.8868 468.306 82.4062 481.156C80.2934 488.957 78.1399 496.83 77 504.844C76.1217 511.019 76.0378 517.548 78.2812 523.469C79.3484 526.285 80.7985 528.965 82.5625 531.406C83.2448 532.35 84.0565 533.235 84.8438 534.094C91.5432 541.4 101.648 544.408 110.938 546.75C113.426 547.377 115.93 547.953 118.438 548.5C122.801 549.452 127.203 550.31 131.594 551.125C151.131 554.752 170.807 557.588 190.5 560.219C219.609 564.107 248.82 567.36 278.031 570.375C304.826 573.141 331.668 575.486 358.531 577.469C368.228 578.184 377.919 578.932 387.625 579.5C397.546 580.081 407.478 580.471 417.406 580.906C424.294 581.208 431.202 581.589 438.094 581.781C455.847 582.277 473.588 581.971 491.344 582.188C532.853 582.693 574.364 583.257 615.875 583.594C671.945 584.048 728.063 583.628 784.094 581.344C807.949 580.371 831.783 578.96 855.562 576.812C877.457 574.835 899.321 572.232 920.938 568.188C933.378 565.974 941.683 554.097 939.469 541.656C937.255 529.216 925.347 520.911 912.906 523.125C888.269 527.285 863.362 529.445 838.438 530.969C808.07 532.825 777.638 533.523 747.219 533.75C714.842 533.991 682.424 533.356 650.062 532.406C605.504 531.098 560.952 528.952 516.5 525.562C508.117 524.923 499.747 524.268 491.375 523.5C474.82 521.98 458.28 520.016 441.719 518.562C435.373 518.006 429.038 517.597 422.688 517.094C408.045 515.934 393.405 514.772 378.75 513.781C366.328 512.941 353.891 512.018 341.469 511.188C295.815 508.137 250.188 504.91 204.625 500.688C185.336 498.9 166.041 496.989 146.844 494.375C143.608 493.934 140.385 493.374 137.156 492.875C139.248 483.68 141.509 474.519 143.812 465.375C151.71 434.017 159.994 402.746 167.844 371.375C181.711 315.959 194.824 260.307 204.906 204.062C208.555 183.71 211.697 163.262 214.062 142.719C216.332 123.004 217.832 103.106 217.438 83.25C217.476 73.0795 209.264 64.8196 199.094 64.7812Z" fill="#000000" stroke="none"/>
</g>
<g opacity="1" vectornator:layerName="Curve 2">
<path d="M547.469 218.75C537.299 218.615 528.948 226.768 528.812 236.938C528.56 238.407 528.56 239.953 528.438 241.438C528.213 244.155 527.969 246.879 527.719 249.594C526.893 258.545 525.977 267.477 524.938 276.406C521.802 303.35 517.802 330.209 513 356.906C505.569 398.215 496.36 439.297 483.812 479.375C480.6 489.638 477.202 499.86 473.531 509.969C470.337 518.765 467.009 527.495 463.625 536.219C462.706 538.588 461.896 540.997 461 543.375C459.553 547.217 458.052 551.039 456.594 554.875C455.929 556.624 455.356 558.418 454.75 560.188C452.752 566.018 450.834 571.907 448.531 577.625C440.608 597.302 430.61 616.074 419.5 634.125C410.204 649.228 400.219 663.879 389.406 677.938C381.456 688.273 373.162 698.342 364.469 708.062C361.678 711.183 358.859 714.284 355.969 717.312C354.95 718.38 353.912 719.418 352.875 720.469C352.577 720.77 352.3 721.075 352 721.375C351.851 721.524 351.796 721.58 351.656 721.719C351.611 721.764 351.448 721.881 351.5 721.844C342.237 730.439 341.717 744.925 350.312 754.188C358.908 763.45 373.362 764.001 382.625 755.406C389.911 748.765 396.862 741.733 403.625 734.562C412.646 724.998 421.324 715.112 429.688 704.969C439.22 693.408 448.482 681.606 457.312 669.5C466.53 656.863 475.277 643.864 483.75 630.719C489.814 621.311 495.677 611.769 501.562 602.25C505.573 595.764 509.716 589.399 513.406 582.719C515.116 579.624 516.594 576.374 518.125 573.188C520.137 569.001 522.155 564.79 523.938 560.5C525.486 556.774 526.886 552.973 528.281 549.188C533.556 534.873 537.835 520.234 541.531 505.438C546.686 484.803 550.698 463.892 553.938 442.875C559.28 408.218 562.543 373.262 564.344 338.25C565.531 315.167 566.139 292.051 566.125 268.938C566.119 258.427 565.829 247.912 565.625 237.406C565.76 227.237 557.638 218.885 547.469 218.75Z" fill="#000000" stroke="none"/>
</g>
<g opacity="1" vectornator:layerName="Curve 3">
<path d="M878.438 64.7812C868.27 64.5445 859.83 72.5822 859.594 82.75C859.34 85.508 859.235 88.3001 859.031 91.0625C858.614 96.7288 858.128 102.403 857.625 108.062C855.988 126.501 853.992 144.879 851.719 163.25C846.044 209.099 838.676 254.772 829.562 300.062C820.289 346.148 809.427 391.897 796.25 437.031C786.171 471.553 774.813 505.696 762.031 539.312C756.916 552.765 751.568 566.164 746.156 579.5C743.933 584.98 741.609 590.4 739.375 595.875C737.377 600.772 735.487 605.724 733.5 610.625C730.889 617.065 728.097 623.449 725.531 629.906C720.924 641.502 716.695 653.253 711.844 664.75C703.612 684.256 694.671 703.433 685.219 722.375C675.639 741.574 665.454 760.456 654.938 779.156C637.908 809.437 619.74 839.022 600.531 867.969C590.894 882.491 580.997 896.847 570.781 910.969C567.54 915.45 564.261 919.892 560.938 924.312C559.797 925.829 558.656 927.339 557.5 928.844C556.99 929.509 556.341 930.188 555.906 930.906C547.967 940.737 549.514 955.123 559.344 963.062C569.174 971.002 583.592 969.487 591.531 959.656C599.824 949.515 607.744 939.071 615.562 928.562C626.861 913.377 637.833 897.957 648.531 882.344C666.737 855.773 684.273 828.674 701.062 801.188C710.438 785.839 719.524 770.348 728.531 754.781C740.865 733.467 752.743 711.883 764.562 690.281C770.832 678.823 777.397 667.495 783.25 655.812C785.681 650.96 787.923 646.012 790.219 641.094C793.328 634.432 796.44 627.755 799.344 621C804.268 609.546 808.834 597.908 813.25 586.25C822.478 561.885 830.453 537.066 837.75 512.062C854.053 456.2 865.838 399.067 874.969 341.625C882.028 297.216 887.128 252.501 890.781 207.688C894.144 166.43 896.301 125.025 896.406 83.625C896.643 73.4572 888.605 65.018 878.438 64.7812Z" fill="#000000" stroke="none"/>
</g>
</g>
</svg>
