<?xml version="1.0" encoding="UTF-8" standalone="no"?>
<!DOCTYPE svg PUBLIC "-//W3C//DTD SVG 1.1//EN" "http://www.w3.org/Graphics/SVG/1.1/DTD/svg11.dtd">
<!-- Created with Vectornator (http://vectornator.io/) -->
<svg height="100%" stroke-miterlimit="10" style="fill-rule:nonzero;clip-rule:evenodd;stroke-linecap:round;stroke-linejoin:round;" version="1.1" viewBox="0 0 1000 1000" width="100%" xml:space="preserve" xmlns="http://www.w3.org/2000/svg" xmlns:vectornator="http://vectornator.io" xmlns:xlink="http://www.w3.org/1999/xlink">
<defs/>
<g id="Layer-1" vectornator:layerName="Layer 1">
<g opacity="1" vectornator:layerName="Curve 1">
<path d="M721.188 127.688C713.703 127.681 706.209 128.247 698.812 129.156C679.253 131.562 660.16 136.577 641.25 142C620.916 147.832 600.73 154.27 580.75 161.219C525.876 180.304 472.101 202.53 419.375 226.906C385.145 242.731 351.618 260.02 317.75 276.594C258.419 305.628 198.853 334.157 139.219 362.562C130.388 366.482 126.393 376.826 130.312 385.656C134.232 394.487 144.576 398.45 153.406 394.531C214.586 369.226 275.717 343.796 336.625 317.844C374.634 301.648 412.342 284.726 450.719 269.406C476.235 259.221 501.933 249.488 527.875 240.438C549.6 232.858 571.454 225.699 593.438 218.906C606.839 214.765 620.284 210.756 633.781 206.938C639.732 205.254 645.708 203.692 651.656 202C668.247 197.28 684.815 192.564 701.844 189.656C709.515 188.346 717.359 187.339 725.156 187.531C727.753 187.595 730.391 187.771 732.938 188.312C733.851 188.507 734.754 188.755 735.625 189.094C735.647 189.102 735.666 189.116 735.688 189.125C735.697 189.199 735.712 189.268 735.719 189.344C735.766 189.892 735.813 190.42 735.812 190.969C735.805 199.841 732.143 208.216 727.562 215.625C720.663 226.786 711.676 236.622 702.406 245.844C690.269 257.918 677.132 268.972 663.719 279.594C644.444 294.856 624.379 309.114 604.25 323.219C594.506 330.046 584.737 336.825 575.062 343.75C572.019 345.928 568.979 348.12 565.969 350.344C564.577 351.372 563.195 352.397 561.812 353.438C561.151 353.746 560.517 354.305 559.906 354.688C558.472 355.586 557.012 356.439 555.562 357.312C551.548 359.733 547.512 362.137 543.5 364.562C540.102 366.617 536.728 368.685 533.375 370.812C529.506 373.268 525.66 375.782 521.969 378.5C514.52 383.984 507.447 390.63 504.5 399.688C504.084 400.966 503.695 402.243 503.438 403.562C503.142 405.076 502.911 406.616 502.844 408.156C502.765 409.956 502.766 411.777 503 413.562C503.274 415.652 503.716 417.717 504.375 419.719C505.033 421.717 505.897 423.671 506.938 425.5C507.943 427.267 509.143 428.927 510.469 430.469C511.716 431.92 513.147 433.222 514.625 434.438C515.837 435.435 517.182 436.293 518.531 437.094C519.666 437.768 520.852 438.318 522.062 438.844C530.475 442.5 539.843 442.006 548.625 440.219C559.647 437.976 570.391 434.236 581 430.562C596.39 425.233 611.642 419.547 627 414.125C633.264 411.914 639.563 409.726 645.906 407.75C650.684 406.262 655.575 404.689 660.531 403.906C662.623 403.576 664.784 403.564 666.906 403.5C692.32 402.734 717.48 410.44 739.875 422.031C759.807 432.347 777.956 445.85 794.125 461.375C812.838 479.342 828.992 500.247 841.312 523.094C851.429 541.854 859.09 562.134 862.531 583.219C863.698 590.368 864.378 597.599 864.469 604.844C864.582 613.916 863.795 623.023 862.781 632.031C860.639 651.076 856.616 670.137 848.812 687.719C842.588 701.743 833.946 714.577 823.438 725.75C811.038 738.934 796.363 749.807 780.938 759.188C758.906 772.585 735.256 783.003 711.281 792.375C701.22 796.308 691.083 800.03 680.875 803.562C676.021 805.242 671.125 806.792 666.281 808.5C648.688 814.703 631.077 820.969 613.188 826.281C599.816 830.252 586.251 833.683 572.562 836.375C534.997 843.762 496.869 847.482 458.656 849.281C427.621 850.743 396.492 850.787 365.438 850C316.986 848.772 268.625 845.174 220.438 840.031C180.21 835.738 140.025 830.482 100.156 823.594C88.3689 821.327 76.9851 829.057 74.7188 840.844C72.4524 852.631 80.1814 864.015 91.9688 866.281C121.56 872.213 151.387 876.975 181.25 881.312C234.343 889.024 287.701 894.726 341.219 898.469C389.702 901.859 438.293 903.126 486.875 901.594C520.594 900.53 554.269 897.84 587.656 892.969C596.596 891.665 605.497 890.241 614.375 888.562C628.482 885.895 642.398 882.483 656.281 878.844C666.371 876.199 676.479 873.537 686.469 870.531C693.053 868.55 699.586 866.31 706.094 864.094C718.344 859.922 730.485 855.463 742.5 850.656C761.957 842.873 781.081 834.161 799.469 824.094C831.303 806.665 861.172 784.666 883.562 755.812C888.186 749.854 892.491 743.633 896.406 737.188C904.148 724.445 910.394 710.832 915.188 696.719C921.942 676.831 925.78 656.097 927.781 635.219C928.639 626.267 929.289 617.246 929.312 608.25C929.344 596.289 928.292 584.319 926.281 572.531C921.358 543.668 910.774 515.866 896.469 490.375C876.473 454.744 849.26 423.034 817.219 397.688C797.945 382.44 776.869 369.398 754.281 359.656C730.959 349.598 705.977 343.158 680.562 341.906C687.374 336.79 694.112 331.62 700.781 326.312C715.917 314.268 730.669 301.664 744.375 288C754.915 277.492 764.919 266.343 773.406 254.094C779.676 245.044 785.144 235.347 788.969 225C792.268 216.073 794.315 206.589 795 197.094C796.039 182.682 793.379 167.934 785.281 155.75C783.122 152.5 780.635 149.476 777.844 146.75C773.269 142.282 767.932 138.639 762.188 135.844C756.265 132.962 749.948 131.037 743.5 129.75C736.155 128.284 728.672 127.694 721.188 127.688Z" fill="#000000" stroke="none"/>
</g>
<g opacity="1" vectornator:layerName="Curve 2">
<path d="M138.75 38.8438C133.134 38.8222 127.618 41.5096 124.219 46.5C118.78 54.4846 120.828 65.3734 128.812 70.8125C130.678 72.3827 132.45 74.0466 134.281 75.6562C137.959 78.8884 141.677 82.0778 145.406 85.25C158.354 96.2627 171.538 106.952 185.156 117.125C192.011 122.246 198.891 127.345 206.156 131.875C212.263 135.683 219.018 138.245 225.406 141.5C240.145 149.01 254.978 156.381 269.969 163.375C290.123 172.778 310.481 181.788 331.312 189.594C353.9 198.057 376.9 205.174 400.281 211.094C411.562 213.95 422.912 216.817 434.375 218.844C436.871 219.285 439.438 219.199 441.969 219.25C445.932 219.329 449.913 219.196 453.875 219.25C459.429 219.326 464.987 219.755 470.531 220.062C476.037 220.368 481.53 220.834 487.031 221.219C496.877 221.908 506.713 222.58 516.562 223.219C525.84 223.821 535.12 224.179 544.406 224.562C556.371 225.521 566.854 216.59 567.812 204.625C568.771 192.66 559.84 182.177 547.875 181.219C546.869 180.972 545.802 180.914 544.781 180.75C543.15 180.488 541.504 180.213 539.875 179.938C534.599 179.044 529.351 178.095 524.094 177.094C509.978 174.406 495.985 171.136 482.125 167.344C477.976 166.208 473.881 164.895 469.812 163.5C468.114 162.918 466.393 162.399 464.719 161.75C460.798 160.23 456.955 158.468 453.062 156.875C451.288 156.149 449.554 155.328 447.688 154.875C442.023 153.501 436.347 152.321 430.656 151.062C424.752 149.757 418.844 148.399 412.969 146.969C381.549 139.322 350.311 130.558 320.062 119.062C298.868 111.008 278.184 101.67 257.969 91.4062C255.313 90.0577 252.615 88.7329 250.031 87.25C247.909 86.032 245.831 84.6736 243.719 83.4375C241.254 81.9949 238.702 80.6378 236.156 79.3438C234.486 78.4947 232.743 77.7914 231.031 77.0312C225.673 74.6523 220.213 72.5161 214.781 70.3125C205.234 66.4396 195.727 62.497 186.219 58.5312C177.684 54.9718 169.184 51.2917 160.75 47.5C157.913 46.2244 155.072 44.934 152.25 43.625C151.017 43.053 149.78 42.3393 148.5 41.875C145.506 39.8353 142.119 38.8567 138.75 38.8438Z" fill="#000000" stroke="none"/>
</g>
</g>
</svg>
