<?xml version="1.0" encoding="UTF-8" standalone="no"?>
<!DOCTYPE svg PUBLIC "-//W3C//DTD SVG 1.1//EN" "http://www.w3.org/Graphics/SVG/1.1/DTD/svg11.dtd">
<!-- Created with Vectornator (http://vectornator.io/) -->
<svg height="100%" stroke-miterlimit="10" style="fill-rule:nonzero;clip-rule:evenodd;stroke-linecap:round;stroke-linejoin:round;" version="1.1" viewBox="0 0 1000 1000" width="100%" xml:space="preserve" xmlns="http://www.w3.org/2000/svg" xmlns:vectornator="http://vectornator.io" xmlns:xlink="http://www.w3.org/1999/xlink">
<defs/>
<clipPath id="ArtboardFrame">
<rect height="1000" width="1000" x="0" y="0"/>
</clipPath>
<g clip-path="url(#ArtboardFrame)" id="Layer-1" vectornator:layerName="Layer 1">
<g opacity="1" vectornator:layerName="Curve 1">
<path d="M710.156 126.219C675.03 126.015 640.049 133.999 609.75 152.531C602.702 156.842 595.972 161.698 589.688 167.062C581.991 173.632 574.941 180.995 568.75 189C562.882 196.586 557.832 204.802 553.031 213.094C545.251 226.534 538.468 240.51 532.5 254.844C507.989 313.713 498.334 377.256 489.719 440.031C486.305 464.906 482.712 489.766 479.906 514.719C477.051 540.11 474.989 565.571 473.219 591.062C452.477 587.763 431.826 583.861 411.406 578.938C382.985 572.084 354.88 563.866 327.375 553.938C313.823 549.046 300.494 543.711 287.531 537.406C257.384 522.743 229.181 503.664 205.188 480.188C194.441 469.672 184.376 458.395 176.469 445.562C160.51 419.664 152.293 389.664 147.406 359.875C139.432 311.269 140.26 261.836 139.594 212.75C137.646 206.359 128.082 203.598 118.25 206.594C108.418 209.59 102.052 217.203 104 223.594C103.183 274.197 100.927 325.07 107.594 375.406C111.919 408.066 119.989 440.95 136.469 469.75C144.763 484.245 155.407 497.129 166.938 509.156C193.434 536.795 225.228 559.158 259.438 576.219C272.088 582.528 285.102 587.965 298.281 593.062C313.725 599.036 329.37 604.503 345.156 609.5C371.878 617.958 399.059 625.042 426.5 630.75C441.036 633.774 455.661 636.263 470.344 638.469C465.061 750.913 468.003 863.555 468.969 976.062C471.093 983.001 481.481 985.987 492.156 982.719C502.831 979.45 509.749 971.157 507.625 964.219C508.312 857.417 507.216 750.464 513.031 643.781C520.76 644.485 528.501 645.056 536.25 645.5C622.191 650.421 712.468 639.031 787.438 594.094C797.779 587.895 807.763 581.09 817.281 573.688C829.547 564.148 841.024 553.605 851.531 542.156C866.265 526.103 879.035 508.309 889.594 489.25C898.447 473.269 905.673 456.435 911.406 439.094C914.582 429.488 917.378 419.738 919.5 409.844C924.405 386.98 925.975 363.493 924.812 340.156C923.552 314.862 919.061 289.619 911.094 265.562C906.15 250.636 899.938 236.034 892.062 222.406C885.466 210.992 877.551 200.226 868.656 190.5C851.118 171.322 829.132 156.993 805.438 146.562C794.789 141.875 783.785 138.004 772.562 134.938C752.374 129.421 731.232 126.341 710.156 126.219ZM688.188 172.344C692.771 172.472 697.348 172.817 701.906 173.312C707.88 173.962 713.806 174.898 719.688 176.125C726.534 177.553 733.29 179.355 739.938 181.531C748.616 184.372 757.094 187.799 765.281 191.844C775.722 197.001 785.7 203.231 794.781 210.531C801.263 215.742 807.229 221.515 812.625 227.844C820.388 236.95 826.795 247.003 832.438 257.531C834.704 261.76 836.87 266.063 838.844 270.438C849.052 293.061 855.244 317.505 858.094 342.125C859.136 351.131 859.803 360.153 859.969 369.219C860.335 389.24 858.623 409.526 853.688 428.969C848.183 450.651 840.203 471.788 828.938 491.156C822.726 501.836 815.53 511.935 807.375 521.219C802.102 527.222 796.409 532.884 790.406 538.156C751.072 572.706 698.684 588.833 647.656 595.719C638.698 596.928 629.701 597.879 620.688 598.562C609.099 599.441 597.496 599.886 585.875 600C570.408 600.152 554.901 599.736 539.469 598.688C531.674 598.158 523.902 597.42 516.125 596.656C518.458 565.778 521.376 534.953 525.406 504.25C528.285 482.317 531.78 460.48 535.188 438.625C543.47 385.502 551.699 331.844 569.5 280.906C575.89 262.621 583.553 244.754 592.969 227.812C597.335 219.957 601.973 212.16 607.25 204.875C610.208 200.791 613.579 196.985 617.312 193.594C636.211 176.427 663.458 171.653 688.188 172.344Z" fill="#000000" stroke="none"/>
</g>
<g opacity="1" vectornator:layerName="Curve 3">
<path d="M513.219 38.0938C498.891 38.1508 484.538 38.6554 470.219 39.0938C443.561 39.9098 416.928 41.0006 390.281 42.0938C323.649 44.8272 257.024 47.9333 190.406 51C185.102 48.6601 177.881 53.3702 174.281 61.5312C170.681 69.6923 172.07 78.1914 177.375 80.5312C241.907 83.3734 306.453 86.2559 371 88.75C396.389 89.731 421.758 90.7058 447.156 91.4062C461.207 91.7937 475.286 92.2159 489.344 92.2188C502.34 92.2214 515.358 91.9855 528.344 91.4688C532.778 91.2923 537.199 90.8759 541.625 90.5625C549.146 90.03 556.691 89.4968 564.219 89.0625C581.305 88.0767 598.398 87.405 615.5 86.75C689.435 83.9181 763.41 82.3667 837.375 80.5625C843.134 83.103 850.967 77.9856 854.875 69.125C858.783 60.2644 857.291 51.0092 851.531 48.4688C779.269 46.9464 706.984 45.6747 634.75 43.0938C619.978 42.5659 605.199 42.0518 590.438 41.2812C577.9 40.6268 565.405 39.5378 552.875 38.7812C547.796 38.4746 542.681 38.4714 537.594 38.375C529.468 38.2209 521.346 38.0614 513.219 38.0938Z" fill="#000000" stroke="none"/>
</g>
<g opacity="1" vectornator:layerName="Curve 2">
<path d="M527.344 682.031C520.693 682.042 514.024 682.083 507.375 682.281C495.575 682.633 483.783 683.386 472 684.094C454.118 685.167 436.244 686.381 418.375 687.656C384.84 690.05 351.313 692.5 317.781 694.938C291.624 696.839 265.47 698.916 239.281 700.344C233.977 697.997 226.735 702.714 223.125 710.875C219.515 719.036 220.914 727.56 226.219 729.906C245.805 730.962 265.397 731.599 285 732.281C314.921 733.322 344.851 734.219 374.781 734.938C399.373 735.528 423.964 736.146 448.562 736.375C460.766 736.489 473.015 736.654 485.219 736.375C491.96 736.221 498.673 735.874 505.406 735.531C509.799 735.308 514.214 735.184 518.594 734.781C527.522 733.96 536.447 732.77 545.375 731.938C559.917 730.581 574.463 729.498 589.031 728.469C650.952 724.095 712.96 720.911 774.938 717.469C780.694 719.81 788.273 714.543 791.875 705.688C795.477 696.832 793.725 687.747 787.969 685.406C728.237 685.492 668.507 685.795 608.781 684.75C596.157 684.529 583.524 684.305 570.906 683.812C563.868 683.538 556.843 683.146 549.812 682.719C546.604 682.524 543.368 682.261 540.156 682.125C535.892 681.945 531.612 682.024 527.344 682.031Z" fill="#000000" stroke="none"/>
</g>
</g>
</svg>
