<?xml version="1.0" encoding="UTF-8" standalone="no"?>
<!DOCTYPE svg PUBLIC "-//W3C//DTD SVG 1.1//EN" "http://www.w3.org/Graphics/SVG/1.1/DTD/svg11.dtd">
<!-- Created with Vectornator (http://vectornator.io/) -->
<svg height="100%" stroke-miterlimit="10" style="fill-rule:nonzero;clip-rule:evenodd;stroke-linecap:round;stroke-linejoin:round;" version="1.1" viewBox="0 0 1000 1000" width="100%" xml:space="preserve" xmlns="http://www.w3.org/2000/svg" xmlns:vectornator="http://vectornator.io" xmlns:xlink="http://www.w3.org/1999/xlink">
<defs/>
<clipPath id="ArtboardFrame">
<rect height="1000" width="1000" x="0" y="0"/>
</clipPath>
<g clip-path="url(#ArtboardFrame)" id="Layer-1" vectornator:layerName="Layer 1">
<g opacity="1" vectornator:layerName="Curve 1">
<path d="M875.188 206.469C869.846 206.948 865.69 209.589 865 213.406C852.495 232.101 839.095 250.198 825.688 268.25C806.514 294.067 786.942 319.612 767.125 344.938C728.896 393.794 689.742 441.979 649.25 489C625.672 456.65 601.981 424.384 577.406 392.781C559.341 369.55 540.837 346.616 521.344 324.562C505.388 306.512 488.769 288.991 470.844 272.875C458.988 262.215 446.548 252.114 433.219 243.344C421.868 235.875 409.781 229.357 396.938 224.844C386.982 221.346 376.556 219.117 366 218.656C358.974 218.35 352.009 219.004 345.031 219.75C338.021 220.499 331.015 221.344 324.031 222.312C291.776 226.787 259.48 234.398 230 248.531C223.839 251.485 217.809 254.735 211.969 258.281C205.001 262.512 198.254 267.168 191.625 271.906C145.797 304.662 106.116 346.603 78.3438 395.781C74.5554 402.489 71.045 409.381 67.75 416.344C58.9511 434.936 51.785 454.279 46.375 474.125C41.1088 493.444 37.5529 513.165 35.625 533.094C34.5128 544.591 34.0173 556.141 33.8438 567.688C33.5055 590.186 34.5629 612.759 38.75 634.906C43.2657 658.792 51.5775 681.918 64.1875 702.75C73.4861 718.111 84.8028 732.369 97.7812 744.781C106.932 753.533 116.984 761.316 127.719 768.031C135.573 772.945 143.784 777.276 152.281 780.969C207.428 804.931 270.441 801.802 327.719 787.781C337.23 785.453 346.657 782.804 356 779.875C367.141 776.382 378.15 772.484 389.031 768.25C396.609 765.302 404.181 762.269 411.5 758.719C425.395 751.979 438.516 743.735 451.125 734.844C466.21 724.206 480.598 712.599 494.531 700.5C530.25 669.485 563.27 635.434 595.219 600.594C609.941 584.539 624.349 568.201 638.594 551.719C652.183 569.759 665.756 587.805 679.469 605.75C706.766 641.47 734.479 676.918 763.625 711.156C788.835 740.77 815.09 769.575 843.688 795.969C867.57 818.011 893.396 838.409 922.281 853.5C927.166 858.301 937.114 856.077 944.5 848.562C951.886 841.048 953.915 831.082 949.031 826.281C921.624 811.485 897.413 791.473 874.906 770.094C845.087 741.769 817.999 710.629 792.031 678.781C765.708 646.496 740.551 613.243 715.75 579.781C700.038 558.582 684.519 537.256 668.969 515.938C670.756 513.801 672.593 511.704 674.375 509.562C710.437 466.229 745.345 421.935 779.469 377.062C803.038 346.07 826.22 314.792 848.875 283.125C857.633 270.883 866.303 258.581 874.844 246.188C881.138 237.053 887.403 227.881 893.375 218.531C894.295 213.442 888.674 208.165 880.844 206.75C878.886 206.396 876.968 206.309 875.188 206.469ZM347.469 259.969C355.154 260.409 362.737 262.464 369.906 265.188C380.896 269.362 391.179 275.241 400.938 281.75C415.199 291.263 428.378 302.301 441 313.875C458.217 329.663 474.323 346.678 489.875 364.094C509.298 385.845 527.856 408.357 546.031 431.156C570.534 461.892 594.352 493.16 618.031 524.531C613.826 529.266 609.705 534.074 605.469 538.781C571.482 576.544 536.54 613.554 499.344 648.188C485.052 661.495 470.375 674.424 455.125 686.625C443.322 696.068 431.173 705.164 418.312 713.125C412.211 716.902 405.913 720.438 399.375 723.406C392.382 726.582 385.081 729.166 377.844 731.719C367.568 735.342 357.182 738.588 346.656 741.406C298.583 754.28 244.77 758.833 197.781 739.344C191.337 736.671 185.083 733.588 179.062 730.062C170.094 724.811 161.658 718.613 153.938 711.656C141.892 700.803 131.577 688.15 122.906 674.469C110.564 654.994 102.82 633.027 98.8438 610.375C95.3316 590.368 94.5918 569.96 95.0625 549.688C95.3324 538.064 95.8986 526.412 97.0938 514.844C98.8886 497.472 102.048 480.2 106.625 463.344C112.435 441.948 120.584 421.257 130.938 401.656C138.34 387.643 146.626 374.166 156.125 361.469C169.862 343.106 185.764 326.441 203.312 311.688C209.517 306.471 215.918 301.512 222.5 296.781C228.267 292.636 234.114 288.682 240.406 285.375C248.604 281.066 257.24 277.638 266.031 274.75C280.817 269.893 296.048 266.656 311.375 264.062C318.571 262.845 325.79 261.873 333.031 260.969C337.833 260.369 342.62 259.691 347.469 259.969Z" fill="#000000" stroke="none"/>
</g>
<g opacity="1" vectornator:layerName="Curve 2">
<path d="M469.344 37.4688C467.171 37.5303 464.876 37.9179 462.562 38.625C453.308 41.4535 447.286 48.6095 449.125 54.625C448.037 84.2165 447.116 113.811 446.125 143.406C444.096 203.987 442.126 264.571 440.25 325.156C439.146 360.809 438.029 396.465 437.188 432.125C436.722 451.859 436.184 471.603 436.094 491.344C436.04 503.044 436.24 514.74 436.438 526.438C436.545 532.785 436.569 539.158 436.844 545.5C437.341 556.966 438.228 568.445 438.844 579.906C439.813 597.953 440.388 616.03 440.938 634.094C441.94 667.062 442.538 700.022 443.062 733C443.59 766.199 444.016 799.391 444.094 832.594C444.151 856.81 444.146 881.036 443.812 905.25C443.678 915.003 443.482 924.752 443.156 934.5C442.929 941.295 442.662 948.099 442.094 954.875C443.67 961.384 453.08 964.706 463.094 962.281C473.108 959.856 479.951 952.603 478.375 946.094C480.054 932.198 480.784 918.187 481.562 904.219C482.674 884.278 483.544 864.331 484.312 844.375C485.112 823.625 485.766 802.847 486.469 782.094C487.488 751.966 488.564 721.849 489.5 691.719C490.634 655.219 491.867 618.732 493.5 582.25C494.053 569.888 494.789 557.507 495.531 545.156C495.889 539.204 496.323 533.27 496.594 527.312C496.935 519.807 496.989 512.262 497.125 504.75C497.319 494.042 497.503 483.336 497.469 472.625C497.409 453.611 496.94 434.601 496.469 415.594C495.648 382.495 494.542 349.401 493.375 316.312C491.64 267.136 489.779 217.948 487.781 168.781C486.096 127.314 484.207 85.8771 482.625 44.4062C481.246 39.8946 475.863 37.2841 469.344 37.4688Z" fill="#000000" stroke="none"/>
</g>
</g>
</svg>
