<?xml version="1.0" encoding="UTF-8" standalone="no"?>
<!DOCTYPE svg PUBLIC "-//W3C//DTD SVG 1.1//EN" "http://www.w3.org/Graphics/SVG/1.1/DTD/svg11.dtd">
<!-- Created with Vectornator (http://vectornator.io/) -->
<svg height="100%" stroke-miterlimit="10" style="fill-rule:nonzero;clip-rule:evenodd;stroke-linecap:round;stroke-linejoin:round;" version="1.1" viewBox="0 0 1000 1000" width="100%" xml:space="preserve" xmlns="http://www.w3.org/2000/svg" xmlns:vectornator="http://vectornator.io" xmlns:xlink="http://www.w3.org/1999/xlink">
<defs/>
<clipPath id="ArtboardFrame">
<rect height="1000" width="1000" x="0" y="0"/>
</clipPath>
<g clip-path="url(#ArtboardFrame)" id="Layer-1" vectornator:layerName="Layer 1">
<g opacity="1" vectornator:layerName="Curve 2">
<path d="M491.344 13.25C489.171 13.3116 486.876 13.6991 484.562 14.4062C475.308 17.2348 469.286 24.3907 471.125 30.4062C470.037 61.5707 469.111 92.7385 468.125 123.906C466.106 187.711 464.152 251.535 462.281 315.344C461.18 352.897 460.06 390.44 459.219 428C458.753 448.791 458.247 469.579 458.156 490.375C458.102 502.707 458.272 515.046 458.469 527.375C458.576 534.067 458.6 540.782 458.875 547.469C459.372 559.563 460.261 571.63 460.875 583.719C461.842 602.751 462.392 621.827 462.938 640.875C463.947 676.126 464.576 711.395 465.094 746.656C465.594 780.751 465.98 814.839 466.031 848.938C466.07 874.877 466.034 900.813 465.656 926.75C465.506 937.034 465.319 947.314 464.969 957.594C464.724 964.768 464.447 971.971 463.844 979.125C465.423 985.635 474.798 988.929 484.812 986.5C494.827 984.071 501.673 976.822 500.094 970.312C501.839 955.687 502.604 940.95 503.406 926.25C504.553 905.247 505.432 884.207 506.219 863.188C507.037 841.329 507.723 819.487 508.438 797.625C509.509 764.855 510.622 732.086 511.594 699.312C512.703 661.906 513.937 624.483 515.531 587.094C516.086 574.079 516.819 561.068 517.562 548.062C517.921 541.796 518.354 535.521 518.625 529.25C518.967 521.342 519.02 513.414 519.156 505.5C519.351 494.217 519.565 482.941 519.531 471.656C519.472 451.615 518.972 431.566 518.5 411.531C517.691 377.155 516.59 342.773 515.438 308.406C513.682 256.039 511.807 203.701 509.781 151.344C508.09 107.62 506.207 63.8838 504.625 20.1562C503.246 15.6446 497.863 13.0653 491.344 13.25Z" fill="#000000" stroke="none"/>
</g>
<g opacity="1" vectornator:layerName="Curve 3">
<path d="M455.5 239.844C427.7 239.949 399.922 240.318 372.125 240.688C302.64 241.611 233.136 242.884 163.656 244.125C158.665 241.772 151.682 246.071 148.062 253.75C144.443 261.429 145.571 269.585 150.562 271.938C217.958 276.269 285.334 280.624 352.75 284.625C379.261 286.199 405.787 287.755 432.312 289.062C446.981 289.785 461.661 290.549 476.344 290.906C489.898 291.236 503.473 291.352 517.031 291.188C521.65 291.131 526.291 290.843 530.906 290.656C538.749 290.339 546.592 290.036 554.438 289.812C572.264 289.304 590.074 289.068 607.906 288.875C685.058 288.041 762.221 288.417 839.375 288.562C844.794 291.117 852.383 286.431 856.312 278.094C860.242 269.756 859.044 260.929 853.625 258.375C778.171 255.105 702.687 252.088 627.281 247.812C611.852 246.938 596.415 246.043 581 244.938C567.899 243.998 554.842 242.661 541.75 241.625C536.448 241.205 531.095 241.064 525.781 240.844C517.301 240.492 508.83 240.174 500.344 240C485.403 239.694 470.443 239.787 455.5 239.844Z" fill="#000000" stroke="none"/>
</g>
<g opacity="1" vectornator:layerName="Curve 4">
<path d="M497.562 473C482.335 472.998 467.098 473.355 451.875 473.688C422.493 474.328 393.124 475.267 363.75 476.188C295.715 478.32 227.672 480.692 159.656 483.375C154.663 481.16 147.877 485.568 144.469 493.25C141.061 500.932 142.319 508.972 147.312 511.188C178.875 512.495 210.441 513.949 242 515.344C279.393 516.996 316.788 518.585 354.188 520.094C379.749 521.125 405.305 522.125 430.875 522.906C445.476 523.352 460.11 523.82 474.719 523.938C483.183 524.006 491.63 523.902 500.094 523.781C505.587 523.703 511.105 523.684 516.594 523.469C526.712 523.072 536.822 522.186 546.938 521.719C566.497 520.816 586.053 520.153 605.625 519.594C683.64 517.364 761.683 516.334 839.719 515.094C845.14 517.528 852.568 512.746 856.312 504.406C860.057 496.066 858.702 487.34 853.281 484.906C777.348 483.007 701.403 481.354 625.5 478.469C608.08 477.806 590.655 477.115 573.25 476.125C565.613 475.691 557.974 475.16 550.344 474.625C546.515 474.357 542.677 474.002 538.844 473.812C532.98 473.523 527.119 473.478 521.25 473.344C513.36 473.163 505.455 473.001 497.562 473Z" fill="#000000" stroke="none"/>
</g>
</g>
</svg>
