<?xml version="1.0" encoding="UTF-8" standalone="no"?>
<!DOCTYPE svg PUBLIC "-//W3C//DTD SVG 1.1//EN" "http://www.w3.org/Graphics/SVG/1.1/DTD/svg11.dtd">
<!-- Created with Vectornator (http://vectornator.io/) -->
<svg height="100%" stroke-miterlimit="10" style="fill-rule:nonzero;clip-rule:evenodd;stroke-linecap:round;stroke-linejoin:round;" version="1.1" viewBox="0 0 1000 1000" width="100%" xml:space="preserve" xmlns="http://www.w3.org/2000/svg" xmlns:vectornator="http://vectornator.io" xmlns:xlink="http://www.w3.org/1999/xlink">
<defs/>
<g id="Layer-1" vectornator:layerName="Layer 1">
<g opacity="1" vectornator:layerName="Curve 1">
<path d="M332.062 64.75C321.892 64.7532 313.653 73.017 313.656 83.1875C313.366 101.112 313.213 119.043 313.031 136.969C312.738 165.88 312.471 194.776 312.188 223.688C311.234 320.83 310.321 417.988 308.875 515.125C308.499 540.391 308.941 565.644 309.312 590.906C308.433 590.761 307.567 590.548 306.688 590.406C300.252 589.367 293.816 588.438 287.344 587.656C278.554 586.594 269.743 585.738 260.906 585.188C212.371 582.164 161.024 587.2 118.312 612.25C111.805 616.066 105.581 620.363 99.6562 625.031C92.6284 630.569 86.0621 636.711 80.125 643.406C72.0082 652.559 64.9571 662.681 59.1875 673.469C51.7859 687.307 46.5478 702.21 43.3438 717.562C39.19 737.465 38.7469 757.998 41.1875 778.156C44.1584 802.694 51.4492 826.675 63.4062 848.344C67.9203 856.524 73.1365 864.33 79.0938 871.531C85.6107 879.41 93.0347 886.639 100.906 893.156C113.936 903.944 128.542 912.842 144.344 918.938C157 923.819 170.36 926.893 183.906 927.75C194.73 928.434 205.617 927.762 216.281 925.781C225.117 924.14 233.776 921.638 242.125 918.312C248.858 915.63 255.393 912.427 261.656 908.781C304.448 883.87 332.7 839.889 347.656 793.594C357.84 762.072 362.087 728.941 363.906 695.969C364.475 685.654 364.658 675.331 364.719 665C365.61 665.51 366.521 665.981 367.406 666.5C384.937 676.772 401.465 688.694 417.25 701.469C446.241 724.931 472.999 751.113 498.312 778.469C524.539 806.812 549.351 836.506 572.469 867.438C579.834 877.705 594.107 880.052 604.375 872.688C614.643 865.323 617.021 851.018 609.656 840.75C603.534 832.15 597.116 823.754 590.656 815.406C580.682 802.516 570.456 789.82 559.969 777.344C534.864 747.477 508.328 718.746 479.906 692C456.831 670.285 432.393 649.818 406.031 632.188C392.513 623.147 378.348 614.968 363.594 608.062C362.497 580.837 360.966 553.615 360.281 526.375C359.747 505.151 359.529 483.945 359.094 462.719C358.158 417.065 357.112 371.402 356.062 325.75C354.885 274.527 353.701 223.317 352.5 172.094C351.805 142.459 350.976 112.795 350.469 83.1562C350.466 72.9857 342.233 64.7468 332.062 64.75ZM239.875 637.156C247.706 637.026 255.555 637.186 263.375 637.625C273.311 638.183 283.223 639.148 293.094 640.406C298.59 641.107 304.121 641.817 309.562 642.875C309.158 672.566 307.513 702.256 302.531 731.562C300.841 741.506 298.708 751.424 295.938 761.125C293.538 769.528 290.7 777.817 287.312 785.875C284.821 791.8 282.059 797.582 278.969 803.219C276.336 808.021 273.473 812.701 270.375 817.219C253.45 841.895 227.234 863.809 195.969 864.469C190.317 864.588 184.671 864.03 179.156 862.781C170.685 860.862 162.637 857.394 155.25 852.844C149.286 849.17 143.792 844.816 138.656 840.062C135.32 836.974 132.045 833.736 129.156 830.219C121.513 820.913 116.073 809.808 112.094 798.5C109.649 791.551 107.595 784.511 106.156 777.281C103.278 762.82 102.666 748.002 104.25 733.344C105.425 722.474 107.986 711.728 112.281 701.656C114.811 695.725 117.922 689.99 121.688 684.75C124.703 680.554 128.047 676.636 131.719 673C155.212 649.737 189.557 640.747 221.594 638.062C227.676 637.553 233.773 637.257 239.875 637.156Z" fill="#000000" stroke="none"/>
</g>
<g opacity="1" vectornator:layerName="Curve 2">
<path d="M711.438 316.5C701.267 316.532 693.062 324.83 693.094 335C692.73 343.195 692.599 351.394 692.406 359.594C692.109 372.249 691.858 384.907 691.594 397.562C690.81 435.091 690.112 472.624 689.562 510.156C689.137 539.213 688.827 568.252 688.781 597.312C688.757 612.7 688.772 628.087 689.219 643.469C689.356 648.193 689.424 652.937 689.688 657.656C689.932 662.044 690.296 666.43 690.625 670.812C690.85 673.809 690.993 676.825 691.312 679.812C692.087 687.057 693.359 694.248 694.312 701.469C695.328 709.159 696.085 716.9 696.781 724.625C698.4 742.584 699.637 760.57 700.812 778.562C701.968 796.257 703.053 813.948 703.969 831.656C704.586 843.587 705.174 855.505 705.75 867.438C706.098 874.646 706.508 881.878 706.688 889.094C706.72 901.73 716.989 911.939 729.625 911.906C742.261 911.874 752.501 901.605 752.469 888.969C752.577 881.951 752.461 874.924 752.406 867.906C752.319 856.626 752.191 845.342 752.062 834.062C751.839 814.43 751.743 794.821 751.719 775.188C751.705 764.569 751.657 753.93 751.781 743.312C751.952 728.7 752.078 714.057 753 699.469C753.459 692.2 754.252 684.937 754.531 677.656C754.659 674.314 754.572 670.97 754.594 667.625C754.62 663.569 754.677 659.493 754.625 655.438C754.586 652.398 754.424 649.35 754.312 646.312C754.151 641.891 753.998 637.481 753.781 633.062C753.195 621.108 752.341 609.157 751.5 597.219C750.403 581.647 749.246 566.095 748.031 550.531C744.38 503.754 740.312 456.993 736.25 410.25C734.857 394.225 733.478 378.216 732.125 362.188C731.357 353.09 730.49 343.987 729.906 334.875C729.874 324.705 721.608 316.468 711.438 316.5Z" fill="#000000" stroke="none"/>
</g>
<g opacity="1" vectornator:layerName="Curve 3">
<path d="M749.75 579.469C737.92 579.326 726.088 579.889 714.281 580.562C701.542 581.29 688.823 582.151 676.094 583.031C633.312 585.99 590.602 589.925 547.875 593.562C537.704 593.562 529.437 601.798 529.438 611.969C529.438 622.139 537.704 630.406 547.875 630.406C591.057 634.083 634.232 638.009 677.469 641C689.743 641.849 701.997 642.674 714.281 643.375C726.088 644.049 737.92 644.611 749.75 644.469C752.931 644.43 756.139 644.174 759.312 643.969C761.127 643.851 762.944 643.782 764.75 643.562C769.327 643.008 773.852 642.005 778.406 641.312C785.63 640.215 792.936 639.617 800.219 639.062C832.443 636.609 864.77 635.871 897.062 634.844C909.699 634.844 919.969 624.605 919.969 611.969C919.969 599.333 909.699 589.094 897.062 589.094C864.77 588.066 832.443 587.36 800.219 584.906C792.936 584.352 785.63 583.723 778.406 582.625C773.852 581.933 769.327 580.93 764.75 580.375C762.495 580.102 760.204 580.048 757.938 579.906C755.216 579.737 752.477 579.501 749.75 579.469Z" fill="#000000" stroke="none"/>
</g>
</g>
</svg>
