<?xml version="1.0" encoding="UTF-8" standalone="no"?>
<!DOCTYPE svg PUBLIC "-//W3C//DTD SVG 1.1//EN" "http://www.w3.org/Graphics/SVG/1.1/DTD/svg11.dtd">
<!-- Created with Vectornator (http://vectornator.io/) -->
<svg height="100%" stroke-miterlimit="10" style="fill-rule:nonzero;clip-rule:evenodd;stroke-linecap:round;stroke-linejoin:round;" version="1.1" viewBox="0 0 1000 1000" width="100%" xml:space="preserve" xmlns="http://www.w3.org/2000/svg" xmlns:vectornator="http://vectornator.io" xmlns:xlink="http://www.w3.org/1999/xlink">
<defs/>
<g id="Layer-1" vectornator:layerName="Layer 1">
<g opacity="1" vectornator:layerName="Curve 1">
<path d="M943.031 54.5C940.813 54.4348 938.431 54.6968 936.031 55.2812C926.432 57.6191 919.887 64.573 921.406 70.8125C919.956 83.5782 917.874 96.2551 915.656 108.906C912.478 127.043 908.816 145.097 904.781 163.062C893.632 212.697 879.721 261.756 863.312 309.906C836.801 387.704 804.171 463.502 764.938 535.75C744.961 572.537 723.478 608.521 699.625 642.938C668.274 688.173 633.377 730.957 595.188 770.594C571.974 794.687 547.332 817.542 521.25 838.5C498.585 856.713 474.719 873.659 449.125 887.531C433.645 895.922 417.431 903.353 400.375 907.906C389.38 910.841 377.71 912.58 366.344 911.125C361.772 910.54 357.308 909.398 353.062 907.594C349.671 906.153 346.443 904.279 343.5 902.062C324.918 888.066 320.387 863.927 316.281 842.5C315.276 837.255 314.291 832.036 313.344 826.781C311.886 818.697 310.561 810.562 309.344 802.438C305.903 779.474 303.278 756.402 301.156 733.281C298.767 707.251 296.95 681.177 295.781 655.062C294.59 628.442 294.115 601.802 294.5 575.156C294.841 551.572 295.855 527.968 298.281 504.5C299.956 488.304 302.648 472.253 305.438 456.219C309.169 434.769 313.235 413.387 317.781 392.094C318.772 387.452 319.835 382.819 320.875 378.188C323.984 373.638 327.15 369.116 330.156 364.5C339.315 350.437 348.089 336.097 355.812 321.188C360.837 311.488 365.572 301.497 368.688 291C371.783 280.57 373.959 266.64 364.438 258.75C363.444 257.927 362.295 257.165 361.156 256.562C354.294 252.931 345.968 253.066 338.625 254.969C324.642 258.591 313.229 268.356 305.219 280.094C300.388 287.173 296.579 294.914 293.219 302.781C289.321 311.906 286.018 321.28 282.969 330.719C276.869 349.603 271.894 368.851 267.25 388.156C259.373 399.431 251.245 410.54 242.906 421.469C223.225 447.263 202.222 472.141 179.531 495.344C170.845 504.227 161.847 512.795 152.406 520.875C144.764 527.416 136.806 533.702 128.281 539.062C123.564 542.029 118.575 544.866 113.25 546.594C110.729 547.411 107.962 548.052 105.344 547.312C101.728 546.29 98.7461 543.469 96.4375 540.625C91.4975 534.538 88.5391 526.941 86.4375 519.469C83.5634 509.25 82.2431 498.615 81.75 488.031C80.9242 470.307 82.5058 452.479 85.625 435.031C87.4254 424.961 89.7509 415.006 92.625 405.188C107.47 354.476 136.725 305.419 181.625 276C188.508 271.49 195.7 267.449 203.156 263.969C220.644 255.806 239.314 250.852 258.406 248.281C263.14 249.595 268.604 244.752 270.625 237.469C272.646 230.186 270.453 223.22 265.719 221.906C245.253 224.263 225.157 228.983 205.969 236.531C193.712 241.353 181.894 247.258 170.656 254.125C162.009 259.409 153.707 265.273 145.812 271.625C95.9633 311.731 63.659 370.464 48.8125 432.094C43.3737 454.671 40.3988 478.102 40.9062 501.344C41.214 515.44 42.7639 529.667 46.9062 543.188C51.2195 557.265 58.8862 571.571 72.4062 578.656C74.3976 579.7 76.4528 580.564 78.5938 581.25C82.209 582.408 85.9936 583.019 89.7812 583.219C102.259 583.876 114.682 580.216 126 575.25C144.518 567.125 161.244 555.099 176.812 542.312C190.221 531.3 202.921 519.42 215.156 507.125C227.082 495.141 238.488 482.627 249.625 469.906C247.913 478.806 246.194 487.71 244.75 496.656C243.415 504.931 242.314 513.234 241.375 521.562C237.013 560.264 235.939 599.298 236.312 638.219C236.8 689.007 240.197 739.819 246.75 790.188C248.613 804.509 250.771 818.803 253.25 833.031C255.406 845.408 257.781 857.72 260.719 869.938C262.797 878.583 264.907 887.306 267.906 895.688C271.855 906.723 277.378 917.389 284.969 926.375C289.483 931.719 294.611 936.495 300.375 940.469C304.24 943.133 308.341 945.425 312.625 947.344C337.771 958.608 366.711 956.459 392.75 949.75C397.192 948.606 401.605 947.32 405.969 945.906C411.981 943.958 417.925 941.783 423.781 939.406C430.898 936.518 437.89 933.329 444.781 929.938C453.557 925.618 462.161 920.954 470.594 916C481.585 909.543 492.298 902.626 502.781 895.375C515.5 886.578 527.86 877.258 539.906 867.562C555.377 855.11 570.32 842.014 584.812 828.438C611.058 803.85 635.824 777.687 659.25 750.406C690.686 713.797 719.654 675.061 745.938 634.594C771.299 595.546 793.896 554.704 814.812 513.125C847.979 447.193 876.148 378.737 899.188 308.625C915.783 258.123 929.824 206.742 940.781 154.719C944.811 135.584 948.414 116.377 951.469 97.0625C953.292 85.5363 955.027 73.963 956.156 62.3438C955.017 57.6641 949.687 54.6957 943.031 54.5Z" fill="#000000" stroke="none"/>
</g>
</g>
</svg>
