<?xml version="1.0" encoding="UTF-8" standalone="no"?>
<!DOCTYPE svg PUBLIC "-//W3C//DTD SVG 1.1//EN" "http://www.w3.org/Graphics/SVG/1.1/DTD/svg11.dtd">
<!-- Created with Vectornator (http://vectornator.io/) -->
<svg height="100%" stroke-miterlimit="10" style="fill-rule:nonzero;clip-rule:evenodd;stroke-linecap:round;stroke-linejoin:round;" version="1.1" viewBox="0 0 1000 1000" width="100%" xml:space="preserve" xmlns="http://www.w3.org/2000/svg" xmlns:vectornator="http://vectornator.io" xmlns:xlink="http://www.w3.org/1999/xlink">
<defs/>
<clipPath id="ArtboardFrame">
<rect height="1000" width="1000" x="0" y="0"/>
</clipPath>
<g clip-path="url(#ArtboardFrame)" id="Layer-1" vectornator:layerName="Layer 1">
<g opacity="1" vectornator:layerName="Curve 1">
<path d="M164.25 33C151.656 32.9773 141.429 43.1874 141.406 55.7812C140.274 87.6652 137.562 119.476 135.156 151.281C132.109 191.574 129.417 231.916 129.562 272.344C129.657 298.502 131.035 324.723 134.812 350.625C137.586 369.64 141.634 388.517 147.656 406.781C154.594 427.821 164.313 447.902 176.844 466.188C183.753 476.27 191.448 485.805 199.844 494.688C241.632 538.895 299.005 565.301 357.344 579.781C369.263 582.74 381.314 585.093 393.406 587.219C404.584 589.184 415.835 590.549 427.125 591.688C434.572 592.438 442.057 593.153 449.531 593.562C453.242 593.766 456.973 593.809 460.688 593.906C472.163 594.205 483.618 594.01 495.094 593.938C514.745 593.813 534.383 593.617 554.031 593.188C566.935 592.905 579.847 592.587 592.75 592.25C600.23 592.055 607.711 591.954 615.188 591.656C622.475 591.366 629.759 590.883 637.031 590.344C670.104 587.889 703.113 584.459 736.125 581.312C780.787 577.056 825.418 572.488 870.031 567.75C885.609 566.282 897.062 552.484 895.594 536.906C894.126 521.328 880.297 509.876 864.719 511.344C816.53 515.232 768.325 518.938 720.094 522.25C699.293 523.678 678.482 524.824 657.656 525.812C642.809 526.517 627.9 527.28 613.031 527.219C607.038 527.194 601.053 526.971 595.062 526.812C585.68 526.564 576.286 526.283 566.906 525.938C548.802 525.27 530.698 524.383 512.656 522.719C508.016 522.291 503.349 521.907 498.719 521.375C487.29 520.063 475.91 518.374 464.531 516.688C462.044 516.319 459.551 515.887 457.062 515.531C450.758 514.631 444.425 513.946 438.125 513C428.566 511.565 419.039 509.902 409.5 508.344C398.186 506.495 386.999 504.15 375.812 501.656C323.483 489.991 269.47 468.739 235.5 425.25C228.535 416.333 222.521 406.701 217.5 396.562C209.981 381.382 204.779 365.101 200.844 348.656C195.092 324.622 192.073 300.007 190.062 275.406C188.472 255.941 187.767 236.428 187.375 216.906C186.741 185.342 187.272 153.753 187.5 122.188C187.659 100.074 187.705 77.9491 187 55.8438C187.023 43.2499 176.844 33.0227 164.25 33Z" fill="#000000" stroke="none"/>
</g>
<g opacity="1" vectornator:layerName="Curve 2">
<path d="M647.875 107.812C635.281 107.845 625.124 118.094 625.156 130.688C622.731 223.745 635.2 316.316 648.562 408.188C653.592 442.769 658.884 477.298 663.5 511.938C665.051 523.58 666.567 535.241 667.938 546.906C668.837 554.561 669.648 562.222 670.562 569.875C673.875 597.597 678.363 625.166 681 652.969C682.171 665.31 682.893 677.726 682.875 690.125C682.862 699.437 682.479 708.724 681.312 717.969C679.664 731.032 676.154 743.82 671.969 756.281C668.756 765.846 664.865 775.219 659.812 783.969C655.652 791.173 650.78 797.99 645.156 804.125C640.233 809.496 634.774 814.282 629.031 818.75C621.426 824.668 613.467 829.982 605.125 834.812C600.773 837.333 596.305 839.655 591.875 842.031C584.551 845.96 577.19 849.761 569.719 853.406C562.816 856.774 555.86 860.069 548.812 863.125C536.722 868.367 524.407 873.117 512.062 877.719C500.413 882.061 488.707 886.274 476.875 890.094C466.913 893.31 456.847 896.202 446.719 898.844C431.32 902.86 415.764 906.122 400.094 908.875C378.589 912.653 356.859 915.291 335.094 917C297.537 919.949 259.62 919.732 222.094 916.531C207.636 915.298 193.23 913.611 178.906 911.281C166.028 909.186 153.214 906.594 140.656 903.031C125.65 898.6 109.869 907.181 105.438 922.188C101.006 937.194 109.587 952.944 124.594 957.375C143.267 963.107 162.448 967.083 181.719 970.188C205.983 974.096 230.494 976.563 255.031 977.906C274.393 978.967 293.77 979.265 313.156 978.969C361.411 978.23 409.519 973.352 456.812 963.656C469.856 960.982 482.856 957.975 495.719 954.531C514.295 949.558 532.68 943.943 551.094 938.406C558.815 936.084 566.505 933.663 574.188 931.219C591.639 925.666 609.083 919.992 625.875 912.625C633.225 909.4 640.442 905.722 647.5 901.906C658.031 896.212 668.347 889.912 677.906 882.688C693.338 871.024 707.071 857.018 718.281 841.25C726.745 829.344 733.63 816.308 739.188 802.812C744.34 790.3 748.344 777.363 751.531 764.219C753.176 757.434 754.673 750.608 755.812 743.719C760.497 715.408 759.553 686.469 756.281 658.062C752.113 621.87 744.223 586.259 738.281 550.344C726.858 481.296 711.603 412.969 698.281 344.281C684.598 273.734 672.994 202.512 670.75 130.562C670.718 117.969 660.469 107.78 647.875 107.812Z" fill="#000000" stroke="none"/>
</g>
</g>
</svg>
